M48
; DRILL file KiCad 10.0.5 date 2026-08-20T01:00:33
; FORMAT={-:-/ absolute / metric / decimal}
; #@! TF.CreationDate,2026-08-20T01:00:33+02:00
; #@! TF.GenerationSoftware,Kicad,Pcbnew,10.0.5
; #@! TF.FileFunction,Plated,1,2,PTH
FMAT,2
METRIC
; #@! TA.AperFunction,Plated,PTH,ViaDrill
T1C0.400
; #@! TA.AperFunction,Plated,PTH,ComponentDrill
T2C0.750
; #@! TA.AperFunction,Plated,PTH,ComponentDrill
T3C0.800
; #@! TA.AperFunction,Plated,PTH,ComponentDrill
T4C0.900
; #@! TA.AperFunction,Plated,PTH,ComponentDrill
T5C2.000
%
G90
G05
T1
X68.326Y-63.246
X72.771Y-89.027
X73.152Y-66.167
X73.787Y-66.929
X73.787Y-67.945
X73.787Y-68.961
X73.787Y-69.977
X73.787Y-70.993
X75.819Y-83.439
X75.946Y-87.503
X77.089Y-89.662
X77.343Y-71.501
X77.343Y-80.264
X78.232Y-65.786
X78.232Y-71.501
X79.121Y-65.786
X79.121Y-71.501
X81.268Y-109.714
X98.679Y-71.374
X99.158Y-111.614
X99.441Y-70.739
X100.584Y-70.739
X101.219Y-71.501
X101.727Y-91.44
X101.981Y-96.52
X103.759Y-82.042
X104.14Y-63.246
X104.267Y-58.547
X105.41Y-94.869
X105.664Y-97.091
X105.791Y-90.805
X106.426Y-70.485
X106.426Y-86.741
X106.934Y-88.773
X107.828Y-60.071
X108.058Y-111.914
X108.839Y-66.04
X111.76Y-69.596
X113.162Y-59.182
X113.284Y-85.598
X113.538Y-65.913
X113.538Y-80.772
X113.665Y-93.853
X114.554Y-63.373
X115.316Y-75.819
X134.237Y-57.412
X134.427Y-66.975
T2
X63.5Y-66.231
X63.5Y-68.231
X63.5Y-70.231
X63.5Y-76.043
X63.5Y-78.043
X63.5Y-80.043
X63.5Y-82.043
X63.5Y-84.043
X63.5Y-86.043
X63.5Y-88.043
X63.5Y-90.043
X102.805Y-74.488
X104.805Y-74.488
X106.805Y-74.488
X108.805Y-74.488
X109.601Y-82.55
X109.601Y-84.55
X109.601Y-86.55
X109.601Y-88.55
X109.601Y-90.55
X109.601Y-92.55
X109.601Y-94.55
X110.805Y-74.488
X119.126Y-63.47
X119.126Y-65.47
X119.126Y-67.47
X119.126Y-69.47
X119.126Y-71.47
X119.126Y-73.47
X119.126Y-75.47
X119.126Y-80.645
X119.126Y-82.645
X119.126Y-84.645
X119.126Y-86.645
X119.126Y-88.645
X119.126Y-90.645
X119.126Y-92.645
X119.126Y-94.645
T3
X70.758Y-114.814
X73.298Y-114.814
X75.838Y-114.814
X78.378Y-114.814
X82.169Y-74.041
X82.169Y-76.581
X82.169Y-79.121
X82.169Y-81.661
X82.169Y-84.201
X82.169Y-86.741
X82.169Y-89.281
X82.169Y-91.821
X82.169Y-94.361
X84.709Y-94.361
X87.249Y-94.361
X89.789Y-94.361
X92.329Y-94.361
X94.869Y-94.361
X97.409Y-74.041
X97.409Y-76.581
X97.409Y-79.121
X97.409Y-81.661
X97.409Y-84.201
X97.409Y-86.741
X97.409Y-89.281
X97.409Y-91.821
X97.409Y-94.361
X101.448Y-114.814
X103.988Y-114.814
X106.528Y-114.814
X109.068Y-114.814
X125.508Y-78.789
X129.508Y-78.789
X133.035Y-77.602
X133.035Y-78.801
X133.035Y-80.602
X133.035Y-81.801
X133.035Y-94.602
X133.035Y-95.801
X133.035Y-97.602
X133.035Y-98.801
X133.043Y-58.114
X133.043Y-59.314
X133.043Y-62.114
X133.043Y-63.314
X133.043Y-67.614
X133.043Y-68.814
X133.043Y-71.614
X133.043Y-72.814
X139.278Y-89.614
X139.288Y-100.514
X139.288Y-111.414
X141.818Y-89.614
X141.828Y-100.514
X141.828Y-111.414
X143.593Y-66.314
X143.593Y-70.314
X145.578Y-89.614
X145.588Y-100.514
X145.588Y-111.414
X148.118Y-89.614
X148.128Y-100.514
X148.128Y-111.414
X151.878Y-89.614
X151.888Y-100.514
X151.888Y-111.414
X154.418Y-89.614
X154.428Y-100.514
X154.428Y-111.414
T4
X139.278Y-83.514
X139.288Y-94.414
X139.288Y-105.314
X141.818Y-83.514
X141.828Y-94.414
X141.828Y-105.314
X145.578Y-83.514
X145.588Y-94.414
X145.588Y-105.314
X148.118Y-83.514
X148.128Y-94.414
X148.128Y-105.314
X151.878Y-83.514
X151.888Y-94.414
X151.888Y-105.314
X154.418Y-83.514
X154.428Y-94.414
X154.428Y-105.314
T5
X125.508Y-58.589
X125.508Y-98.989
X129.508Y-58.589
X129.508Y-98.989
X139.593Y-58.314
X139.593Y-61.314
X139.593Y-75.314
X139.593Y-78.314
M30
