%TF.GenerationSoftware,KiCad,Pcbnew,10.0.5*%
%TF.CreationDate,2026-08-20T01:00:13+02:00*%
%TF.ProjectId,HW_MFC01,48575f4d-4643-4303-912e-6b696361645f,rev?*%
%TF.SameCoordinates,Original*%
%TF.FileFunction,Legend,Top*%
%TF.FilePolarity,Positive*%
%FSLAX46Y46*%
G04 Gerber Fmt 4.6, Leading zero omitted, Abs format (unit mm)*
G04 Created by KiCad (PCBNEW 10.0.5) date 2026-08-20 01:00:13*
%MOMM*%
%LPD*%
G01*
G04 APERTURE LIST*
%ADD10C,0.150000*%
%ADD11C,0.120000*%
G04 APERTURE END LIST*
D10*
X138058000Y-103814000D02*
X143058000Y-103814000D01*
X143058000Y-113214000D01*
X138058000Y-113214000D01*
X138058000Y-103814000D01*
X150658000Y-103814000D02*
X155658000Y-103814000D01*
X155658000Y-113214000D01*
X150658000Y-113214000D01*
X150658000Y-103814000D01*
X144358000Y-103814000D02*
X149358000Y-103814000D01*
X149358000Y-113214000D01*
X144358000Y-113214000D01*
X144358000Y-103814000D01*
X138058000Y-92914000D02*
X143058000Y-92914000D01*
X143058000Y-102314000D01*
X138058000Y-102314000D01*
X138058000Y-92914000D01*
X150658000Y-92914000D02*
X155658000Y-92914000D01*
X155658000Y-102314000D01*
X150658000Y-102314000D01*
X150658000Y-92914000D01*
X144358000Y-92914000D02*
X149358000Y-92914000D01*
X149358000Y-102314000D01*
X144358000Y-102314000D01*
X144358000Y-92914000D01*
X60458000Y-104214000D02*
X88658000Y-104214000D01*
X88658000Y-118214000D01*
X60458000Y-118214000D01*
X60458000Y-104214000D01*
X60558000Y-102414000D02*
X121958000Y-102414000D01*
X91158000Y-104214000D02*
X119358000Y-104214000D01*
X119358000Y-118214000D01*
X91158000Y-118214000D01*
X91158000Y-104214000D01*
X113919000Y-98806000D02*
X114427000Y-98425000D01*
X114046000Y-89789000D02*
X114554000Y-89408000D01*
X114339692Y-98674081D02*
X114427000Y-98425000D01*
X114427000Y-98425000D02*
X114173000Y-98425000D01*
X114466692Y-89657081D02*
X114554000Y-89408000D01*
X114554000Y-89408000D02*
X114300000Y-89408000D01*
X121958000Y-102414000D02*
X121958000Y-55814000D01*
X138048000Y-82014000D02*
X143048000Y-82014000D01*
X143048000Y-91414000D01*
X138048000Y-91414000D01*
X138048000Y-82014000D01*
X144348000Y-82014000D02*
X149348000Y-82014000D01*
X149348000Y-91414000D01*
X144348000Y-91414000D01*
X144348000Y-82014000D01*
X150648000Y-82014000D02*
X155648000Y-82014000D01*
X155648000Y-91414000D01*
X150648000Y-91414000D01*
X150648000Y-82014000D01*
X83680303Y-56427819D02*
X83680303Y-57142104D01*
X83680303Y-57142104D02*
X83632684Y-57284961D01*
X83632684Y-57284961D02*
X83537446Y-57380200D01*
X83537446Y-57380200D02*
X83394589Y-57427819D01*
X83394589Y-57427819D02*
X83299351Y-57427819D01*
X84632684Y-56427819D02*
X84156494Y-56427819D01*
X84156494Y-56427819D02*
X84108875Y-56904009D01*
X84108875Y-56904009D02*
X84156494Y-56856390D01*
X84156494Y-56856390D02*
X84251732Y-56808771D01*
X84251732Y-56808771D02*
X84489827Y-56808771D01*
X84489827Y-56808771D02*
X84585065Y-56856390D01*
X84585065Y-56856390D02*
X84632684Y-56904009D01*
X84632684Y-56904009D02*
X84680303Y-56999247D01*
X84680303Y-56999247D02*
X84680303Y-57237342D01*
X84680303Y-57237342D02*
X84632684Y-57332580D01*
X84632684Y-57332580D02*
X84585065Y-57380200D01*
X84585065Y-57380200D02*
X84489827Y-57427819D01*
X84489827Y-57427819D02*
X84251732Y-57427819D01*
X84251732Y-57427819D02*
X84156494Y-57380200D01*
X84156494Y-57380200D02*
X84108875Y-57332580D01*
X82394588Y-59037763D02*
X81823160Y-59037763D01*
X82108874Y-59037763D02*
X82108874Y-58037763D01*
X82108874Y-58037763D02*
X82013636Y-58180620D01*
X82013636Y-58180620D02*
X81918398Y-58275858D01*
X81918398Y-58275858D02*
X81823160Y-58323477D01*
X83489827Y-58037763D02*
X84108874Y-58037763D01*
X84108874Y-58037763D02*
X83775541Y-58418715D01*
X83775541Y-58418715D02*
X83918398Y-58418715D01*
X83918398Y-58418715D02*
X84013636Y-58466334D01*
X84013636Y-58466334D02*
X84061255Y-58513953D01*
X84061255Y-58513953D02*
X84108874Y-58609191D01*
X84108874Y-58609191D02*
X84108874Y-58847286D01*
X84108874Y-58847286D02*
X84061255Y-58942524D01*
X84061255Y-58942524D02*
X84013636Y-58990144D01*
X84013636Y-58990144D02*
X83918398Y-59037763D01*
X83918398Y-59037763D02*
X83632684Y-59037763D01*
X83632684Y-59037763D02*
X83537446Y-58990144D01*
X83537446Y-58990144D02*
X83489827Y-58942524D01*
X84394589Y-58037763D02*
X84727922Y-59037763D01*
X84727922Y-59037763D02*
X85061255Y-58037763D01*
X85299351Y-58037763D02*
X85918398Y-58037763D01*
X85918398Y-58037763D02*
X85585065Y-58418715D01*
X85585065Y-58418715D02*
X85727922Y-58418715D01*
X85727922Y-58418715D02*
X85823160Y-58466334D01*
X85823160Y-58466334D02*
X85870779Y-58513953D01*
X85870779Y-58513953D02*
X85918398Y-58609191D01*
X85918398Y-58609191D02*
X85918398Y-58847286D01*
X85918398Y-58847286D02*
X85870779Y-58942524D01*
X85870779Y-58942524D02*
X85823160Y-58990144D01*
X85823160Y-58990144D02*
X85727922Y-59037763D01*
X85727922Y-59037763D02*
X85442208Y-59037763D01*
X85442208Y-59037763D02*
X85346970Y-58990144D01*
X85346970Y-58990144D02*
X85299351Y-58942524D01*
X81823160Y-59742945D02*
X81870779Y-59695326D01*
X81870779Y-59695326D02*
X81966017Y-59647707D01*
X81966017Y-59647707D02*
X82204112Y-59647707D01*
X82204112Y-59647707D02*
X82299350Y-59695326D01*
X82299350Y-59695326D02*
X82346969Y-59742945D01*
X82346969Y-59742945D02*
X82394588Y-59838183D01*
X82394588Y-59838183D02*
X82394588Y-59933421D01*
X82394588Y-59933421D02*
X82346969Y-60076278D01*
X82346969Y-60076278D02*
X81775541Y-60647707D01*
X81775541Y-60647707D02*
X82394588Y-60647707D01*
X83537446Y-60600088D02*
X83680303Y-60647707D01*
X83680303Y-60647707D02*
X83918398Y-60647707D01*
X83918398Y-60647707D02*
X84013636Y-60600088D01*
X84013636Y-60600088D02*
X84061255Y-60552468D01*
X84061255Y-60552468D02*
X84108874Y-60457230D01*
X84108874Y-60457230D02*
X84108874Y-60361992D01*
X84108874Y-60361992D02*
X84061255Y-60266754D01*
X84061255Y-60266754D02*
X84013636Y-60219135D01*
X84013636Y-60219135D02*
X83918398Y-60171516D01*
X83918398Y-60171516D02*
X83727922Y-60123897D01*
X83727922Y-60123897D02*
X83632684Y-60076278D01*
X83632684Y-60076278D02*
X83585065Y-60028659D01*
X83585065Y-60028659D02*
X83537446Y-59933421D01*
X83537446Y-59933421D02*
X83537446Y-59838183D01*
X83537446Y-59838183D02*
X83585065Y-59742945D01*
X83585065Y-59742945D02*
X83632684Y-59695326D01*
X83632684Y-59695326D02*
X83727922Y-59647707D01*
X83727922Y-59647707D02*
X83966017Y-59647707D01*
X83966017Y-59647707D02*
X84108874Y-59695326D01*
X84537446Y-60647707D02*
X84537446Y-59647707D01*
X84537446Y-59647707D02*
X84918398Y-59647707D01*
X84918398Y-59647707D02*
X85013636Y-59695326D01*
X85013636Y-59695326D02*
X85061255Y-59742945D01*
X85061255Y-59742945D02*
X85108874Y-59838183D01*
X85108874Y-59838183D02*
X85108874Y-59981040D01*
X85108874Y-59981040D02*
X85061255Y-60076278D01*
X85061255Y-60076278D02*
X85013636Y-60123897D01*
X85013636Y-60123897D02*
X84918398Y-60171516D01*
X84918398Y-60171516D02*
X84537446Y-60171516D01*
X85537446Y-60647707D02*
X85537446Y-59647707D01*
X81775541Y-61257651D02*
X82394588Y-61257651D01*
X82394588Y-61257651D02*
X82061255Y-61638603D01*
X82061255Y-61638603D02*
X82204112Y-61638603D01*
X82204112Y-61638603D02*
X82299350Y-61686222D01*
X82299350Y-61686222D02*
X82346969Y-61733841D01*
X82346969Y-61733841D02*
X82394588Y-61829079D01*
X82394588Y-61829079D02*
X82394588Y-62067174D01*
X82394588Y-62067174D02*
X82346969Y-62162412D01*
X82346969Y-62162412D02*
X82299350Y-62210032D01*
X82299350Y-62210032D02*
X82204112Y-62257651D01*
X82204112Y-62257651D02*
X81918398Y-62257651D01*
X81918398Y-62257651D02*
X81823160Y-62210032D01*
X81823160Y-62210032D02*
X81775541Y-62162412D01*
X83537446Y-62210032D02*
X83680303Y-62257651D01*
X83680303Y-62257651D02*
X83918398Y-62257651D01*
X83918398Y-62257651D02*
X84013636Y-62210032D01*
X84013636Y-62210032D02*
X84061255Y-62162412D01*
X84061255Y-62162412D02*
X84108874Y-62067174D01*
X84108874Y-62067174D02*
X84108874Y-61971936D01*
X84108874Y-61971936D02*
X84061255Y-61876698D01*
X84061255Y-61876698D02*
X84013636Y-61829079D01*
X84013636Y-61829079D02*
X83918398Y-61781460D01*
X83918398Y-61781460D02*
X83727922Y-61733841D01*
X83727922Y-61733841D02*
X83632684Y-61686222D01*
X83632684Y-61686222D02*
X83585065Y-61638603D01*
X83585065Y-61638603D02*
X83537446Y-61543365D01*
X83537446Y-61543365D02*
X83537446Y-61448127D01*
X83537446Y-61448127D02*
X83585065Y-61352889D01*
X83585065Y-61352889D02*
X83632684Y-61305270D01*
X83632684Y-61305270D02*
X83727922Y-61257651D01*
X83727922Y-61257651D02*
X83966017Y-61257651D01*
X83966017Y-61257651D02*
X84108874Y-61305270D01*
X84537446Y-62257651D02*
X84537446Y-61257651D01*
X84537446Y-61257651D02*
X84870779Y-61971936D01*
X84870779Y-61971936D02*
X85204112Y-61257651D01*
X85204112Y-61257651D02*
X85204112Y-62257651D01*
X86156493Y-62257651D02*
X85680303Y-62257651D01*
X85680303Y-62257651D02*
X85680303Y-61257651D01*
X82299350Y-63200928D02*
X82299350Y-63867595D01*
X82061255Y-62819976D02*
X81823160Y-63534261D01*
X81823160Y-63534261D02*
X82442207Y-63534261D01*
X83537446Y-63819976D02*
X83680303Y-63867595D01*
X83680303Y-63867595D02*
X83918398Y-63867595D01*
X83918398Y-63867595D02*
X84013636Y-63819976D01*
X84013636Y-63819976D02*
X84061255Y-63772356D01*
X84061255Y-63772356D02*
X84108874Y-63677118D01*
X84108874Y-63677118D02*
X84108874Y-63581880D01*
X84108874Y-63581880D02*
X84061255Y-63486642D01*
X84061255Y-63486642D02*
X84013636Y-63439023D01*
X84013636Y-63439023D02*
X83918398Y-63391404D01*
X83918398Y-63391404D02*
X83727922Y-63343785D01*
X83727922Y-63343785D02*
X83632684Y-63296166D01*
X83632684Y-63296166D02*
X83585065Y-63248547D01*
X83585065Y-63248547D02*
X83537446Y-63153309D01*
X83537446Y-63153309D02*
X83537446Y-63058071D01*
X83537446Y-63058071D02*
X83585065Y-62962833D01*
X83585065Y-62962833D02*
X83632684Y-62915214D01*
X83632684Y-62915214D02*
X83727922Y-62867595D01*
X83727922Y-62867595D02*
X83966017Y-62867595D01*
X83966017Y-62867595D02*
X84108874Y-62915214D01*
X84537446Y-63867595D02*
X84537446Y-62867595D01*
X84537446Y-62867595D02*
X84870779Y-63581880D01*
X84870779Y-63581880D02*
X85204112Y-62867595D01*
X85204112Y-62867595D02*
X85204112Y-63867595D01*
X86251731Y-63867595D02*
X85918398Y-63391404D01*
X85680303Y-63867595D02*
X85680303Y-62867595D01*
X85680303Y-62867595D02*
X86061255Y-62867595D01*
X86061255Y-62867595D02*
X86156493Y-62915214D01*
X86156493Y-62915214D02*
X86204112Y-62962833D01*
X86204112Y-62962833D02*
X86251731Y-63058071D01*
X86251731Y-63058071D02*
X86251731Y-63200928D01*
X86251731Y-63200928D02*
X86204112Y-63296166D01*
X86204112Y-63296166D02*
X86156493Y-63343785D01*
X86156493Y-63343785D02*
X86061255Y-63391404D01*
X86061255Y-63391404D02*
X85680303Y-63391404D01*
X82346969Y-64477539D02*
X81870779Y-64477539D01*
X81870779Y-64477539D02*
X81823160Y-64953729D01*
X81823160Y-64953729D02*
X81870779Y-64906110D01*
X81870779Y-64906110D02*
X81966017Y-64858491D01*
X81966017Y-64858491D02*
X82204112Y-64858491D01*
X82204112Y-64858491D02*
X82299350Y-64906110D01*
X82299350Y-64906110D02*
X82346969Y-64953729D01*
X82346969Y-64953729D02*
X82394588Y-65048967D01*
X82394588Y-65048967D02*
X82394588Y-65287062D01*
X82394588Y-65287062D02*
X82346969Y-65382300D01*
X82346969Y-65382300D02*
X82299350Y-65429920D01*
X82299350Y-65429920D02*
X82204112Y-65477539D01*
X82204112Y-65477539D02*
X81966017Y-65477539D01*
X81966017Y-65477539D02*
X81870779Y-65429920D01*
X81870779Y-65429920D02*
X81823160Y-65382300D01*
X83489827Y-64477539D02*
X84156493Y-64477539D01*
X84156493Y-64477539D02*
X83489827Y-65477539D01*
X83489827Y-65477539D02*
X84156493Y-65477539D01*
X84489827Y-65191824D02*
X84966017Y-65191824D01*
X84394589Y-65477539D02*
X84727922Y-64477539D01*
X84727922Y-64477539D02*
X85061255Y-65477539D01*
X85394589Y-65477539D02*
X85394589Y-64477539D01*
X85394589Y-64477539D02*
X85632684Y-64477539D01*
X85632684Y-64477539D02*
X85775541Y-64525158D01*
X85775541Y-64525158D02*
X85870779Y-64620396D01*
X85870779Y-64620396D02*
X85918398Y-64715634D01*
X85918398Y-64715634D02*
X85966017Y-64906110D01*
X85966017Y-64906110D02*
X85966017Y-65048967D01*
X85966017Y-65048967D02*
X85918398Y-65239443D01*
X85918398Y-65239443D02*
X85870779Y-65334681D01*
X85870779Y-65334681D02*
X85775541Y-65429920D01*
X85775541Y-65429920D02*
X85632684Y-65477539D01*
X85632684Y-65477539D02*
X85394589Y-65477539D01*
X82299350Y-66087483D02*
X82108874Y-66087483D01*
X82108874Y-66087483D02*
X82013636Y-66135102D01*
X82013636Y-66135102D02*
X81966017Y-66182721D01*
X81966017Y-66182721D02*
X81870779Y-66325578D01*
X81870779Y-66325578D02*
X81823160Y-66516054D01*
X81823160Y-66516054D02*
X81823160Y-66897006D01*
X81823160Y-66897006D02*
X81870779Y-66992244D01*
X81870779Y-66992244D02*
X81918398Y-67039864D01*
X81918398Y-67039864D02*
X82013636Y-67087483D01*
X82013636Y-67087483D02*
X82204112Y-67087483D01*
X82204112Y-67087483D02*
X82299350Y-67039864D01*
X82299350Y-67039864D02*
X82346969Y-66992244D01*
X82346969Y-66992244D02*
X82394588Y-66897006D01*
X82394588Y-66897006D02*
X82394588Y-66658911D01*
X82394588Y-66658911D02*
X82346969Y-66563673D01*
X82346969Y-66563673D02*
X82299350Y-66516054D01*
X82299350Y-66516054D02*
X82204112Y-66468435D01*
X82204112Y-66468435D02*
X82013636Y-66468435D01*
X82013636Y-66468435D02*
X81918398Y-66516054D01*
X81918398Y-66516054D02*
X81870779Y-66563673D01*
X81870779Y-66563673D02*
X81823160Y-66658911D01*
X83918398Y-66563673D02*
X84061255Y-66611292D01*
X84061255Y-66611292D02*
X84108874Y-66658911D01*
X84108874Y-66658911D02*
X84156493Y-66754149D01*
X84156493Y-66754149D02*
X84156493Y-66897006D01*
X84156493Y-66897006D02*
X84108874Y-66992244D01*
X84108874Y-66992244D02*
X84061255Y-67039864D01*
X84061255Y-67039864D02*
X83966017Y-67087483D01*
X83966017Y-67087483D02*
X83585065Y-67087483D01*
X83585065Y-67087483D02*
X83585065Y-66087483D01*
X83585065Y-66087483D02*
X83918398Y-66087483D01*
X83918398Y-66087483D02*
X84013636Y-66135102D01*
X84013636Y-66135102D02*
X84061255Y-66182721D01*
X84061255Y-66182721D02*
X84108874Y-66277959D01*
X84108874Y-66277959D02*
X84108874Y-66373197D01*
X84108874Y-66373197D02*
X84061255Y-66468435D01*
X84061255Y-66468435D02*
X84013636Y-66516054D01*
X84013636Y-66516054D02*
X83918398Y-66563673D01*
X83918398Y-66563673D02*
X83585065Y-66563673D01*
X84775541Y-66087483D02*
X84966017Y-66087483D01*
X84966017Y-66087483D02*
X85061255Y-66135102D01*
X85061255Y-66135102D02*
X85156493Y-66230340D01*
X85156493Y-66230340D02*
X85204112Y-66420816D01*
X85204112Y-66420816D02*
X85204112Y-66754149D01*
X85204112Y-66754149D02*
X85156493Y-66944625D01*
X85156493Y-66944625D02*
X85061255Y-67039864D01*
X85061255Y-67039864D02*
X84966017Y-67087483D01*
X84966017Y-67087483D02*
X84775541Y-67087483D01*
X84775541Y-67087483D02*
X84680303Y-67039864D01*
X84680303Y-67039864D02*
X84585065Y-66944625D01*
X84585065Y-66944625D02*
X84537446Y-66754149D01*
X84537446Y-66754149D02*
X84537446Y-66420816D01*
X84537446Y-66420816D02*
X84585065Y-66230340D01*
X84585065Y-66230340D02*
X84680303Y-66135102D01*
X84680303Y-66135102D02*
X84775541Y-66087483D01*
X86204112Y-66992244D02*
X86156493Y-67039864D01*
X86156493Y-67039864D02*
X86013636Y-67087483D01*
X86013636Y-67087483D02*
X85918398Y-67087483D01*
X85918398Y-67087483D02*
X85775541Y-67039864D01*
X85775541Y-67039864D02*
X85680303Y-66944625D01*
X85680303Y-66944625D02*
X85632684Y-66849387D01*
X85632684Y-66849387D02*
X85585065Y-66658911D01*
X85585065Y-66658911D02*
X85585065Y-66516054D01*
X85585065Y-66516054D02*
X85632684Y-66325578D01*
X85632684Y-66325578D02*
X85680303Y-66230340D01*
X85680303Y-66230340D02*
X85775541Y-66135102D01*
X85775541Y-66135102D02*
X85918398Y-66087483D01*
X85918398Y-66087483D02*
X86013636Y-66087483D01*
X86013636Y-66087483D02*
X86156493Y-66135102D01*
X86156493Y-66135102D02*
X86204112Y-66182721D01*
X81775541Y-67697427D02*
X82442207Y-67697427D01*
X82442207Y-67697427D02*
X82013636Y-68697427D01*
X83585065Y-68697427D02*
X83585065Y-67697427D01*
X83585065Y-67697427D02*
X83918398Y-68411712D01*
X83918398Y-68411712D02*
X84251731Y-67697427D01*
X84251731Y-67697427D02*
X84251731Y-68697427D01*
X84680303Y-68411712D02*
X85156493Y-68411712D01*
X84585065Y-68697427D02*
X84918398Y-67697427D01*
X84918398Y-67697427D02*
X85251731Y-68697427D01*
X85870779Y-67697427D02*
X85870779Y-68411712D01*
X85870779Y-68411712D02*
X85823160Y-68554569D01*
X85823160Y-68554569D02*
X85727922Y-68649808D01*
X85727922Y-68649808D02*
X85585065Y-68697427D01*
X85585065Y-68697427D02*
X85489827Y-68697427D01*
X82013636Y-69735942D02*
X81918398Y-69688323D01*
X81918398Y-69688323D02*
X81870779Y-69640704D01*
X81870779Y-69640704D02*
X81823160Y-69545466D01*
X81823160Y-69545466D02*
X81823160Y-69497847D01*
X81823160Y-69497847D02*
X81870779Y-69402609D01*
X81870779Y-69402609D02*
X81918398Y-69354990D01*
X81918398Y-69354990D02*
X82013636Y-69307371D01*
X82013636Y-69307371D02*
X82204112Y-69307371D01*
X82204112Y-69307371D02*
X82299350Y-69354990D01*
X82299350Y-69354990D02*
X82346969Y-69402609D01*
X82346969Y-69402609D02*
X82394588Y-69497847D01*
X82394588Y-69497847D02*
X82394588Y-69545466D01*
X82394588Y-69545466D02*
X82346969Y-69640704D01*
X82346969Y-69640704D02*
X82299350Y-69688323D01*
X82299350Y-69688323D02*
X82204112Y-69735942D01*
X82204112Y-69735942D02*
X82013636Y-69735942D01*
X82013636Y-69735942D02*
X81918398Y-69783561D01*
X81918398Y-69783561D02*
X81870779Y-69831180D01*
X81870779Y-69831180D02*
X81823160Y-69926418D01*
X81823160Y-69926418D02*
X81823160Y-70116894D01*
X81823160Y-70116894D02*
X81870779Y-70212132D01*
X81870779Y-70212132D02*
X81918398Y-70259752D01*
X81918398Y-70259752D02*
X82013636Y-70307371D01*
X82013636Y-70307371D02*
X82204112Y-70307371D01*
X82204112Y-70307371D02*
X82299350Y-70259752D01*
X82299350Y-70259752D02*
X82346969Y-70212132D01*
X82346969Y-70212132D02*
X82394588Y-70116894D01*
X82394588Y-70116894D02*
X82394588Y-69926418D01*
X82394588Y-69926418D02*
X82346969Y-69831180D01*
X82346969Y-69831180D02*
X82299350Y-69783561D01*
X82299350Y-69783561D02*
X82204112Y-69735942D01*
X84346970Y-70212132D02*
X84394589Y-70259752D01*
X84394589Y-70259752D02*
X84346970Y-70307371D01*
X84346970Y-70307371D02*
X84299351Y-70259752D01*
X84299351Y-70259752D02*
X84346970Y-70212132D01*
X84346970Y-70212132D02*
X84346970Y-70307371D01*
X69615207Y-101850819D02*
X69281874Y-101374628D01*
X69043779Y-101850819D02*
X69043779Y-100850819D01*
X69043779Y-100850819D02*
X69424731Y-100850819D01*
X69424731Y-100850819D02*
X69519969Y-100898438D01*
X69519969Y-100898438D02*
X69567588Y-100946057D01*
X69567588Y-100946057D02*
X69615207Y-101041295D01*
X69615207Y-101041295D02*
X69615207Y-101184152D01*
X69615207Y-101184152D02*
X69567588Y-101279390D01*
X69567588Y-101279390D02*
X69519969Y-101327009D01*
X69519969Y-101327009D02*
X69424731Y-101374628D01*
X69424731Y-101374628D02*
X69043779Y-101374628D01*
X70615207Y-101755580D02*
X70567588Y-101803200D01*
X70567588Y-101803200D02*
X70424731Y-101850819D01*
X70424731Y-101850819D02*
X70329493Y-101850819D01*
X70329493Y-101850819D02*
X70186636Y-101803200D01*
X70186636Y-101803200D02*
X70091398Y-101707961D01*
X70091398Y-101707961D02*
X70043779Y-101612723D01*
X70043779Y-101612723D02*
X69996160Y-101422247D01*
X69996160Y-101422247D02*
X69996160Y-101279390D01*
X69996160Y-101279390D02*
X70043779Y-101088914D01*
X70043779Y-101088914D02*
X70091398Y-100993676D01*
X70091398Y-100993676D02*
X70186636Y-100898438D01*
X70186636Y-100898438D02*
X70329493Y-100850819D01*
X70329493Y-100850819D02*
X70424731Y-100850819D01*
X70424731Y-100850819D02*
X70567588Y-100898438D01*
X70567588Y-100898438D02*
X70615207Y-100946057D01*
X71662827Y-100850819D02*
X72234255Y-100850819D01*
X71948541Y-101850819D02*
X71948541Y-100850819D01*
X73139017Y-101850819D02*
X72805684Y-101374628D01*
X72567589Y-101850819D02*
X72567589Y-100850819D01*
X72567589Y-100850819D02*
X72948541Y-100850819D01*
X72948541Y-100850819D02*
X73043779Y-100898438D01*
X73043779Y-100898438D02*
X73091398Y-100946057D01*
X73091398Y-100946057D02*
X73139017Y-101041295D01*
X73139017Y-101041295D02*
X73139017Y-101184152D01*
X73139017Y-101184152D02*
X73091398Y-101279390D01*
X73091398Y-101279390D02*
X73043779Y-101327009D01*
X73043779Y-101327009D02*
X72948541Y-101374628D01*
X72948541Y-101374628D02*
X72567589Y-101374628D01*
X73567589Y-100850819D02*
X73567589Y-101660342D01*
X73567589Y-101660342D02*
X73615208Y-101755580D01*
X73615208Y-101755580D02*
X73662827Y-101803200D01*
X73662827Y-101803200D02*
X73758065Y-101850819D01*
X73758065Y-101850819D02*
X73948541Y-101850819D01*
X73948541Y-101850819D02*
X74043779Y-101803200D01*
X74043779Y-101803200D02*
X74091398Y-101755580D01*
X74091398Y-101755580D02*
X74139017Y-101660342D01*
X74139017Y-101660342D02*
X74139017Y-100850819D01*
X75186636Y-101755580D02*
X75139017Y-101803200D01*
X75139017Y-101803200D02*
X74996160Y-101850819D01*
X74996160Y-101850819D02*
X74900922Y-101850819D01*
X74900922Y-101850819D02*
X74758065Y-101803200D01*
X74758065Y-101803200D02*
X74662827Y-101707961D01*
X74662827Y-101707961D02*
X74615208Y-101612723D01*
X74615208Y-101612723D02*
X74567589Y-101422247D01*
X74567589Y-101422247D02*
X74567589Y-101279390D01*
X74567589Y-101279390D02*
X74615208Y-101088914D01*
X74615208Y-101088914D02*
X74662827Y-100993676D01*
X74662827Y-100993676D02*
X74758065Y-100898438D01*
X74758065Y-100898438D02*
X74900922Y-100850819D01*
X74900922Y-100850819D02*
X74996160Y-100850819D01*
X74996160Y-100850819D02*
X75139017Y-100898438D01*
X75139017Y-100898438D02*
X75186636Y-100946057D01*
X75615208Y-101850819D02*
X75615208Y-100850819D01*
X76186636Y-101850819D02*
X75758065Y-101279390D01*
X76186636Y-100850819D02*
X75615208Y-101422247D01*
X77853303Y-101850819D02*
X77377113Y-101850819D01*
X77377113Y-101850819D02*
X77377113Y-100850819D01*
X78186637Y-101850819D02*
X78186637Y-100850819D01*
X79186636Y-100898438D02*
X79091398Y-100850819D01*
X79091398Y-100850819D02*
X78948541Y-100850819D01*
X78948541Y-100850819D02*
X78805684Y-100898438D01*
X78805684Y-100898438D02*
X78710446Y-100993676D01*
X78710446Y-100993676D02*
X78662827Y-101088914D01*
X78662827Y-101088914D02*
X78615208Y-101279390D01*
X78615208Y-101279390D02*
X78615208Y-101422247D01*
X78615208Y-101422247D02*
X78662827Y-101612723D01*
X78662827Y-101612723D02*
X78710446Y-101707961D01*
X78710446Y-101707961D02*
X78805684Y-101803200D01*
X78805684Y-101803200D02*
X78948541Y-101850819D01*
X78948541Y-101850819D02*
X79043779Y-101850819D01*
X79043779Y-101850819D02*
X79186636Y-101803200D01*
X79186636Y-101803200D02*
X79234255Y-101755580D01*
X79234255Y-101755580D02*
X79234255Y-101422247D01*
X79234255Y-101422247D02*
X79043779Y-101422247D01*
X79662827Y-101850819D02*
X79662827Y-100850819D01*
X79662827Y-101327009D02*
X80234255Y-101327009D01*
X80234255Y-101850819D02*
X80234255Y-100850819D01*
X80567589Y-100850819D02*
X81139017Y-100850819D01*
X80853303Y-101850819D02*
X80853303Y-100850819D01*
X82805684Y-101755580D02*
X82758065Y-101803200D01*
X82758065Y-101803200D02*
X82615208Y-101850819D01*
X82615208Y-101850819D02*
X82519970Y-101850819D01*
X82519970Y-101850819D02*
X82377113Y-101803200D01*
X82377113Y-101803200D02*
X82281875Y-101707961D01*
X82281875Y-101707961D02*
X82234256Y-101612723D01*
X82234256Y-101612723D02*
X82186637Y-101422247D01*
X82186637Y-101422247D02*
X82186637Y-101279390D01*
X82186637Y-101279390D02*
X82234256Y-101088914D01*
X82234256Y-101088914D02*
X82281875Y-100993676D01*
X82281875Y-100993676D02*
X82377113Y-100898438D01*
X82377113Y-100898438D02*
X82519970Y-100850819D01*
X82519970Y-100850819D02*
X82615208Y-100850819D01*
X82615208Y-100850819D02*
X82758065Y-100898438D01*
X82758065Y-100898438D02*
X82805684Y-100946057D01*
X83424732Y-100850819D02*
X83615208Y-100850819D01*
X83615208Y-100850819D02*
X83710446Y-100898438D01*
X83710446Y-100898438D02*
X83805684Y-100993676D01*
X83805684Y-100993676D02*
X83853303Y-101184152D01*
X83853303Y-101184152D02*
X83853303Y-101517485D01*
X83853303Y-101517485D02*
X83805684Y-101707961D01*
X83805684Y-101707961D02*
X83710446Y-101803200D01*
X83710446Y-101803200D02*
X83615208Y-101850819D01*
X83615208Y-101850819D02*
X83424732Y-101850819D01*
X83424732Y-101850819D02*
X83329494Y-101803200D01*
X83329494Y-101803200D02*
X83234256Y-101707961D01*
X83234256Y-101707961D02*
X83186637Y-101517485D01*
X83186637Y-101517485D02*
X83186637Y-101184152D01*
X83186637Y-101184152D02*
X83234256Y-100993676D01*
X83234256Y-100993676D02*
X83329494Y-100898438D01*
X83329494Y-100898438D02*
X83424732Y-100850819D01*
X84281875Y-101850819D02*
X84281875Y-100850819D01*
X84281875Y-100850819D02*
X84853303Y-101850819D01*
X84853303Y-101850819D02*
X84853303Y-100850819D01*
X85186637Y-100850819D02*
X85758065Y-100850819D01*
X85472351Y-101850819D02*
X85472351Y-100850819D01*
X86662827Y-101850819D02*
X86329494Y-101374628D01*
X86091399Y-101850819D02*
X86091399Y-100850819D01*
X86091399Y-100850819D02*
X86472351Y-100850819D01*
X86472351Y-100850819D02*
X86567589Y-100898438D01*
X86567589Y-100898438D02*
X86615208Y-100946057D01*
X86615208Y-100946057D02*
X86662827Y-101041295D01*
X86662827Y-101041295D02*
X86662827Y-101184152D01*
X86662827Y-101184152D02*
X86615208Y-101279390D01*
X86615208Y-101279390D02*
X86567589Y-101327009D01*
X86567589Y-101327009D02*
X86472351Y-101374628D01*
X86472351Y-101374628D02*
X86091399Y-101374628D01*
X87281875Y-100850819D02*
X87472351Y-100850819D01*
X87472351Y-100850819D02*
X87567589Y-100898438D01*
X87567589Y-100898438D02*
X87662827Y-100993676D01*
X87662827Y-100993676D02*
X87710446Y-101184152D01*
X87710446Y-101184152D02*
X87710446Y-101517485D01*
X87710446Y-101517485D02*
X87662827Y-101707961D01*
X87662827Y-101707961D02*
X87567589Y-101803200D01*
X87567589Y-101803200D02*
X87472351Y-101850819D01*
X87472351Y-101850819D02*
X87281875Y-101850819D01*
X87281875Y-101850819D02*
X87186637Y-101803200D01*
X87186637Y-101803200D02*
X87091399Y-101707961D01*
X87091399Y-101707961D02*
X87043780Y-101517485D01*
X87043780Y-101517485D02*
X87043780Y-101184152D01*
X87043780Y-101184152D02*
X87091399Y-100993676D01*
X87091399Y-100993676D02*
X87186637Y-100898438D01*
X87186637Y-100898438D02*
X87281875Y-100850819D01*
X88615208Y-101850819D02*
X88139018Y-101850819D01*
X88139018Y-101850819D02*
X88139018Y-100850819D01*
X89710447Y-101469866D02*
X90472352Y-101469866D01*
X91710447Y-101850819D02*
X91710447Y-100850819D01*
X91710447Y-100850819D02*
X92043780Y-101565104D01*
X92043780Y-101565104D02*
X92377113Y-100850819D01*
X92377113Y-100850819D02*
X92377113Y-101850819D01*
X93186637Y-101327009D02*
X92853304Y-101327009D01*
X92853304Y-101850819D02*
X92853304Y-100850819D01*
X92853304Y-100850819D02*
X93329494Y-100850819D01*
X94281875Y-101755580D02*
X94234256Y-101803200D01*
X94234256Y-101803200D02*
X94091399Y-101850819D01*
X94091399Y-101850819D02*
X93996161Y-101850819D01*
X93996161Y-101850819D02*
X93853304Y-101803200D01*
X93853304Y-101803200D02*
X93758066Y-101707961D01*
X93758066Y-101707961D02*
X93710447Y-101612723D01*
X93710447Y-101612723D02*
X93662828Y-101422247D01*
X93662828Y-101422247D02*
X93662828Y-101279390D01*
X93662828Y-101279390D02*
X93710447Y-101088914D01*
X93710447Y-101088914D02*
X93758066Y-100993676D01*
X93758066Y-100993676D02*
X93853304Y-100898438D01*
X93853304Y-100898438D02*
X93996161Y-100850819D01*
X93996161Y-100850819D02*
X94091399Y-100850819D01*
X94091399Y-100850819D02*
X94234256Y-100898438D01*
X94234256Y-100898438D02*
X94281875Y-100946057D01*
X94710447Y-101469866D02*
X95472352Y-101469866D01*
X96139018Y-100850819D02*
X96234256Y-100850819D01*
X96234256Y-100850819D02*
X96329494Y-100898438D01*
X96329494Y-100898438D02*
X96377113Y-100946057D01*
X96377113Y-100946057D02*
X96424732Y-101041295D01*
X96424732Y-101041295D02*
X96472351Y-101231771D01*
X96472351Y-101231771D02*
X96472351Y-101469866D01*
X96472351Y-101469866D02*
X96424732Y-101660342D01*
X96424732Y-101660342D02*
X96377113Y-101755580D01*
X96377113Y-101755580D02*
X96329494Y-101803200D01*
X96329494Y-101803200D02*
X96234256Y-101850819D01*
X96234256Y-101850819D02*
X96139018Y-101850819D01*
X96139018Y-101850819D02*
X96043780Y-101803200D01*
X96043780Y-101803200D02*
X95996161Y-101755580D01*
X95996161Y-101755580D02*
X95948542Y-101660342D01*
X95948542Y-101660342D02*
X95900923Y-101469866D01*
X95900923Y-101469866D02*
X95900923Y-101231771D01*
X95900923Y-101231771D02*
X95948542Y-101041295D01*
X95948542Y-101041295D02*
X95996161Y-100946057D01*
X95996161Y-100946057D02*
X96043780Y-100898438D01*
X96043780Y-100898438D02*
X96139018Y-100850819D01*
X97424732Y-101850819D02*
X96853304Y-101850819D01*
X97139018Y-101850819D02*
X97139018Y-100850819D01*
X97139018Y-100850819D02*
X97043780Y-100993676D01*
X97043780Y-100993676D02*
X96948542Y-101088914D01*
X96948542Y-101088914D02*
X96853304Y-101136533D01*
X98615209Y-101850819D02*
X98615209Y-100850819D01*
X98615209Y-100850819D02*
X98948542Y-101565104D01*
X98948542Y-101565104D02*
X99281875Y-100850819D01*
X99281875Y-100850819D02*
X99281875Y-101850819D01*
X99948542Y-100850819D02*
X100139018Y-100850819D01*
X100139018Y-100850819D02*
X100234256Y-100898438D01*
X100234256Y-100898438D02*
X100329494Y-100993676D01*
X100329494Y-100993676D02*
X100377113Y-101184152D01*
X100377113Y-101184152D02*
X100377113Y-101517485D01*
X100377113Y-101517485D02*
X100329494Y-101707961D01*
X100329494Y-101707961D02*
X100234256Y-101803200D01*
X100234256Y-101803200D02*
X100139018Y-101850819D01*
X100139018Y-101850819D02*
X99948542Y-101850819D01*
X99948542Y-101850819D02*
X99853304Y-101803200D01*
X99853304Y-101803200D02*
X99758066Y-101707961D01*
X99758066Y-101707961D02*
X99710447Y-101517485D01*
X99710447Y-101517485D02*
X99710447Y-101184152D01*
X99710447Y-101184152D02*
X99758066Y-100993676D01*
X99758066Y-100993676D02*
X99853304Y-100898438D01*
X99853304Y-100898438D02*
X99948542Y-100850819D01*
X100805685Y-101850819D02*
X100805685Y-100850819D01*
X100805685Y-100850819D02*
X101043780Y-100850819D01*
X101043780Y-100850819D02*
X101186637Y-100898438D01*
X101186637Y-100898438D02*
X101281875Y-100993676D01*
X101281875Y-100993676D02*
X101329494Y-101088914D01*
X101329494Y-101088914D02*
X101377113Y-101279390D01*
X101377113Y-101279390D02*
X101377113Y-101422247D01*
X101377113Y-101422247D02*
X101329494Y-101612723D01*
X101329494Y-101612723D02*
X101281875Y-101707961D01*
X101281875Y-101707961D02*
X101186637Y-101803200D01*
X101186637Y-101803200D02*
X101043780Y-101850819D01*
X101043780Y-101850819D02*
X100805685Y-101850819D01*
X101805685Y-100850819D02*
X101805685Y-101660342D01*
X101805685Y-101660342D02*
X101853304Y-101755580D01*
X101853304Y-101755580D02*
X101900923Y-101803200D01*
X101900923Y-101803200D02*
X101996161Y-101850819D01*
X101996161Y-101850819D02*
X102186637Y-101850819D01*
X102186637Y-101850819D02*
X102281875Y-101803200D01*
X102281875Y-101803200D02*
X102329494Y-101755580D01*
X102329494Y-101755580D02*
X102377113Y-101660342D01*
X102377113Y-101660342D02*
X102377113Y-100850819D01*
X103329494Y-101850819D02*
X102853304Y-101850819D01*
X102853304Y-101850819D02*
X102853304Y-100850819D01*
X104281876Y-100850819D02*
X104615209Y-101850819D01*
X104615209Y-101850819D02*
X104948542Y-100850819D01*
X105805685Y-101850819D02*
X105234257Y-101850819D01*
X105519971Y-101850819D02*
X105519971Y-100850819D01*
X105519971Y-100850819D02*
X105424733Y-100993676D01*
X105424733Y-100993676D02*
X105329495Y-101088914D01*
X105329495Y-101088914D02*
X105234257Y-101136533D01*
X106234257Y-101755580D02*
X106281876Y-101803200D01*
X106281876Y-101803200D02*
X106234257Y-101850819D01*
X106234257Y-101850819D02*
X106186638Y-101803200D01*
X106186638Y-101803200D02*
X106234257Y-101755580D01*
X106234257Y-101755580D02*
X106234257Y-101850819D01*
X106900923Y-100850819D02*
X106996161Y-100850819D01*
X106996161Y-100850819D02*
X107091399Y-100898438D01*
X107091399Y-100898438D02*
X107139018Y-100946057D01*
X107139018Y-100946057D02*
X107186637Y-101041295D01*
X107186637Y-101041295D02*
X107234256Y-101231771D01*
X107234256Y-101231771D02*
X107234256Y-101469866D01*
X107234256Y-101469866D02*
X107186637Y-101660342D01*
X107186637Y-101660342D02*
X107139018Y-101755580D01*
X107139018Y-101755580D02*
X107091399Y-101803200D01*
X107091399Y-101803200D02*
X106996161Y-101850819D01*
X106996161Y-101850819D02*
X106900923Y-101850819D01*
X106900923Y-101850819D02*
X106805685Y-101803200D01*
X106805685Y-101803200D02*
X106758066Y-101755580D01*
X106758066Y-101755580D02*
X106710447Y-101660342D01*
X106710447Y-101660342D02*
X106662828Y-101469866D01*
X106662828Y-101469866D02*
X106662828Y-101231771D01*
X106662828Y-101231771D02*
X106710447Y-101041295D01*
X106710447Y-101041295D02*
X106758066Y-100946057D01*
X106758066Y-100946057D02*
X106805685Y-100898438D01*
X106805685Y-100898438D02*
X106900923Y-100850819D01*
X70104779Y-117502866D02*
X70866684Y-117502866D01*
X70485731Y-117883819D02*
X70485731Y-117121914D01*
X72057160Y-117836200D02*
X72200017Y-117883819D01*
X72200017Y-117883819D02*
X72438112Y-117883819D01*
X72438112Y-117883819D02*
X72533350Y-117836200D01*
X72533350Y-117836200D02*
X72580969Y-117788580D01*
X72580969Y-117788580D02*
X72628588Y-117693342D01*
X72628588Y-117693342D02*
X72628588Y-117598104D01*
X72628588Y-117598104D02*
X72580969Y-117502866D01*
X72580969Y-117502866D02*
X72533350Y-117455247D01*
X72533350Y-117455247D02*
X72438112Y-117407628D01*
X72438112Y-117407628D02*
X72247636Y-117360009D01*
X72247636Y-117360009D02*
X72152398Y-117312390D01*
X72152398Y-117312390D02*
X72104779Y-117264771D01*
X72104779Y-117264771D02*
X72057160Y-117169533D01*
X72057160Y-117169533D02*
X72057160Y-117074295D01*
X72057160Y-117074295D02*
X72104779Y-116979057D01*
X72104779Y-116979057D02*
X72152398Y-116931438D01*
X72152398Y-116931438D02*
X72247636Y-116883819D01*
X72247636Y-116883819D02*
X72485731Y-116883819D01*
X72485731Y-116883819D02*
X72628588Y-116931438D01*
X73057160Y-117883819D02*
X73057160Y-116883819D01*
X73057160Y-116883819D02*
X73438112Y-116883819D01*
X73438112Y-116883819D02*
X73533350Y-116931438D01*
X73533350Y-116931438D02*
X73580969Y-116979057D01*
X73580969Y-116979057D02*
X73628588Y-117074295D01*
X73628588Y-117074295D02*
X73628588Y-117217152D01*
X73628588Y-117217152D02*
X73580969Y-117312390D01*
X73580969Y-117312390D02*
X73533350Y-117360009D01*
X73533350Y-117360009D02*
X73438112Y-117407628D01*
X73438112Y-117407628D02*
X73057160Y-117407628D01*
X74771446Y-117836200D02*
X74914303Y-117883819D01*
X74914303Y-117883819D02*
X75152398Y-117883819D01*
X75152398Y-117883819D02*
X75247636Y-117836200D01*
X75247636Y-117836200D02*
X75295255Y-117788580D01*
X75295255Y-117788580D02*
X75342874Y-117693342D01*
X75342874Y-117693342D02*
X75342874Y-117598104D01*
X75342874Y-117598104D02*
X75295255Y-117502866D01*
X75295255Y-117502866D02*
X75247636Y-117455247D01*
X75247636Y-117455247D02*
X75152398Y-117407628D01*
X75152398Y-117407628D02*
X74961922Y-117360009D01*
X74961922Y-117360009D02*
X74866684Y-117312390D01*
X74866684Y-117312390D02*
X74819065Y-117264771D01*
X74819065Y-117264771D02*
X74771446Y-117169533D01*
X74771446Y-117169533D02*
X74771446Y-117074295D01*
X74771446Y-117074295D02*
X74819065Y-116979057D01*
X74819065Y-116979057D02*
X74866684Y-116931438D01*
X74866684Y-116931438D02*
X74961922Y-116883819D01*
X74961922Y-116883819D02*
X75200017Y-116883819D01*
X75200017Y-116883819D02*
X75342874Y-116931438D01*
X75628589Y-116883819D02*
X75961922Y-117883819D01*
X75961922Y-117883819D02*
X76295255Y-116883819D01*
X77342875Y-117836200D02*
X77485732Y-117883819D01*
X77485732Y-117883819D02*
X77723827Y-117883819D01*
X77723827Y-117883819D02*
X77819065Y-117836200D01*
X77819065Y-117836200D02*
X77866684Y-117788580D01*
X77866684Y-117788580D02*
X77914303Y-117693342D01*
X77914303Y-117693342D02*
X77914303Y-117598104D01*
X77914303Y-117598104D02*
X77866684Y-117502866D01*
X77866684Y-117502866D02*
X77819065Y-117455247D01*
X77819065Y-117455247D02*
X77723827Y-117407628D01*
X77723827Y-117407628D02*
X77533351Y-117360009D01*
X77533351Y-117360009D02*
X77438113Y-117312390D01*
X77438113Y-117312390D02*
X77390494Y-117264771D01*
X77390494Y-117264771D02*
X77342875Y-117169533D01*
X77342875Y-117169533D02*
X77342875Y-117074295D01*
X77342875Y-117074295D02*
X77390494Y-116979057D01*
X77390494Y-116979057D02*
X77438113Y-116931438D01*
X77438113Y-116931438D02*
X77533351Y-116883819D01*
X77533351Y-116883819D02*
X77771446Y-116883819D01*
X77771446Y-116883819D02*
X77914303Y-116931438D01*
X78342875Y-117883819D02*
X78342875Y-116883819D01*
X78342875Y-116883819D02*
X78676208Y-117598104D01*
X78676208Y-117598104D02*
X79009541Y-116883819D01*
X79009541Y-116883819D02*
X79009541Y-117883819D01*
X100794779Y-117502866D02*
X101556684Y-117502866D01*
X101175731Y-117883819D02*
X101175731Y-117121914D01*
X102747160Y-117836200D02*
X102890017Y-117883819D01*
X102890017Y-117883819D02*
X103128112Y-117883819D01*
X103128112Y-117883819D02*
X103223350Y-117836200D01*
X103223350Y-117836200D02*
X103270969Y-117788580D01*
X103270969Y-117788580D02*
X103318588Y-117693342D01*
X103318588Y-117693342D02*
X103318588Y-117598104D01*
X103318588Y-117598104D02*
X103270969Y-117502866D01*
X103270969Y-117502866D02*
X103223350Y-117455247D01*
X103223350Y-117455247D02*
X103128112Y-117407628D01*
X103128112Y-117407628D02*
X102937636Y-117360009D01*
X102937636Y-117360009D02*
X102842398Y-117312390D01*
X102842398Y-117312390D02*
X102794779Y-117264771D01*
X102794779Y-117264771D02*
X102747160Y-117169533D01*
X102747160Y-117169533D02*
X102747160Y-117074295D01*
X102747160Y-117074295D02*
X102794779Y-116979057D01*
X102794779Y-116979057D02*
X102842398Y-116931438D01*
X102842398Y-116931438D02*
X102937636Y-116883819D01*
X102937636Y-116883819D02*
X103175731Y-116883819D01*
X103175731Y-116883819D02*
X103318588Y-116931438D01*
X103747160Y-117883819D02*
X103747160Y-116883819D01*
X103747160Y-116883819D02*
X104080493Y-117598104D01*
X104080493Y-117598104D02*
X104413826Y-116883819D01*
X104413826Y-116883819D02*
X104413826Y-117883819D01*
X105604303Y-117836200D02*
X105747160Y-117883819D01*
X105747160Y-117883819D02*
X105985255Y-117883819D01*
X105985255Y-117883819D02*
X106080493Y-117836200D01*
X106080493Y-117836200D02*
X106128112Y-117788580D01*
X106128112Y-117788580D02*
X106175731Y-117693342D01*
X106175731Y-117693342D02*
X106175731Y-117598104D01*
X106175731Y-117598104D02*
X106128112Y-117502866D01*
X106128112Y-117502866D02*
X106080493Y-117455247D01*
X106080493Y-117455247D02*
X105985255Y-117407628D01*
X105985255Y-117407628D02*
X105794779Y-117360009D01*
X105794779Y-117360009D02*
X105699541Y-117312390D01*
X105699541Y-117312390D02*
X105651922Y-117264771D01*
X105651922Y-117264771D02*
X105604303Y-117169533D01*
X105604303Y-117169533D02*
X105604303Y-117074295D01*
X105604303Y-117074295D02*
X105651922Y-116979057D01*
X105651922Y-116979057D02*
X105699541Y-116931438D01*
X105699541Y-116931438D02*
X105794779Y-116883819D01*
X105794779Y-116883819D02*
X106032874Y-116883819D01*
X106032874Y-116883819D02*
X106175731Y-116931438D01*
X106461446Y-116883819D02*
X106794779Y-117883819D01*
X106794779Y-117883819D02*
X107128112Y-116883819D01*
X108175732Y-117836200D02*
X108318589Y-117883819D01*
X108318589Y-117883819D02*
X108556684Y-117883819D01*
X108556684Y-117883819D02*
X108651922Y-117836200D01*
X108651922Y-117836200D02*
X108699541Y-117788580D01*
X108699541Y-117788580D02*
X108747160Y-117693342D01*
X108747160Y-117693342D02*
X108747160Y-117598104D01*
X108747160Y-117598104D02*
X108699541Y-117502866D01*
X108699541Y-117502866D02*
X108651922Y-117455247D01*
X108651922Y-117455247D02*
X108556684Y-117407628D01*
X108556684Y-117407628D02*
X108366208Y-117360009D01*
X108366208Y-117360009D02*
X108270970Y-117312390D01*
X108270970Y-117312390D02*
X108223351Y-117264771D01*
X108223351Y-117264771D02*
X108175732Y-117169533D01*
X108175732Y-117169533D02*
X108175732Y-117074295D01*
X108175732Y-117074295D02*
X108223351Y-116979057D01*
X108223351Y-116979057D02*
X108270970Y-116931438D01*
X108270970Y-116931438D02*
X108366208Y-116883819D01*
X108366208Y-116883819D02*
X108604303Y-116883819D01*
X108604303Y-116883819D02*
X108747160Y-116931438D01*
X109175732Y-117883819D02*
X109175732Y-116883819D01*
X109175732Y-116883819D02*
X109556684Y-116883819D01*
X109556684Y-116883819D02*
X109651922Y-116931438D01*
X109651922Y-116931438D02*
X109699541Y-116979057D01*
X109699541Y-116979057D02*
X109747160Y-117074295D01*
X109747160Y-117074295D02*
X109747160Y-117217152D01*
X109747160Y-117217152D02*
X109699541Y-117312390D01*
X109699541Y-117312390D02*
X109651922Y-117360009D01*
X109651922Y-117360009D02*
X109556684Y-117407628D01*
X109556684Y-117407628D02*
X109175732Y-117407628D01*
X87931666Y-56427819D02*
X87931666Y-57142104D01*
X87931666Y-57142104D02*
X87884047Y-57284961D01*
X87884047Y-57284961D02*
X87788809Y-57380200D01*
X87788809Y-57380200D02*
X87645952Y-57427819D01*
X87645952Y-57427819D02*
X87550714Y-57427819D01*
X88836428Y-56427819D02*
X88645952Y-56427819D01*
X88645952Y-56427819D02*
X88550714Y-56475438D01*
X88550714Y-56475438D02*
X88503095Y-56523057D01*
X88503095Y-56523057D02*
X88407857Y-56665914D01*
X88407857Y-56665914D02*
X88360238Y-56856390D01*
X88360238Y-56856390D02*
X88360238Y-57237342D01*
X88360238Y-57237342D02*
X88407857Y-57332580D01*
X88407857Y-57332580D02*
X88455476Y-57380200D01*
X88455476Y-57380200D02*
X88550714Y-57427819D01*
X88550714Y-57427819D02*
X88741190Y-57427819D01*
X88741190Y-57427819D02*
X88836428Y-57380200D01*
X88836428Y-57380200D02*
X88884047Y-57332580D01*
X88884047Y-57332580D02*
X88931666Y-57237342D01*
X88931666Y-57237342D02*
X88931666Y-56999247D01*
X88931666Y-56999247D02*
X88884047Y-56904009D01*
X88884047Y-56904009D02*
X88836428Y-56856390D01*
X88836428Y-56856390D02*
X88741190Y-56808771D01*
X88741190Y-56808771D02*
X88550714Y-56808771D01*
X88550714Y-56808771D02*
X88455476Y-56856390D01*
X88455476Y-56856390D02*
X88407857Y-56904009D01*
X88407857Y-56904009D02*
X88360238Y-56999247D01*
X87026905Y-58037763D02*
X87645952Y-58037763D01*
X87645952Y-58037763D02*
X87312619Y-58418715D01*
X87312619Y-58418715D02*
X87455476Y-58418715D01*
X87455476Y-58418715D02*
X87550714Y-58466334D01*
X87550714Y-58466334D02*
X87598333Y-58513953D01*
X87598333Y-58513953D02*
X87645952Y-58609191D01*
X87645952Y-58609191D02*
X87645952Y-58847286D01*
X87645952Y-58847286D02*
X87598333Y-58942524D01*
X87598333Y-58942524D02*
X87550714Y-58990144D01*
X87550714Y-58990144D02*
X87455476Y-59037763D01*
X87455476Y-59037763D02*
X87169762Y-59037763D01*
X87169762Y-59037763D02*
X87074524Y-58990144D01*
X87074524Y-58990144D02*
X87026905Y-58942524D01*
X87931667Y-58037763D02*
X88265000Y-59037763D01*
X88265000Y-59037763D02*
X88598333Y-58037763D01*
X88836429Y-58037763D02*
X89455476Y-58037763D01*
X89455476Y-58037763D02*
X89122143Y-58418715D01*
X89122143Y-58418715D02*
X89265000Y-58418715D01*
X89265000Y-58418715D02*
X89360238Y-58466334D01*
X89360238Y-58466334D02*
X89407857Y-58513953D01*
X89407857Y-58513953D02*
X89455476Y-58609191D01*
X89455476Y-58609191D02*
X89455476Y-58847286D01*
X89455476Y-58847286D02*
X89407857Y-58942524D01*
X89407857Y-58942524D02*
X89360238Y-58990144D01*
X89360238Y-58990144D02*
X89265000Y-59037763D01*
X89265000Y-59037763D02*
X88979286Y-59037763D01*
X88979286Y-59037763D02*
X88884048Y-58990144D01*
X88884048Y-58990144D02*
X88836429Y-58942524D01*
X87241191Y-60600088D02*
X87384048Y-60647707D01*
X87384048Y-60647707D02*
X87622143Y-60647707D01*
X87622143Y-60647707D02*
X87717381Y-60600088D01*
X87717381Y-60600088D02*
X87765000Y-60552468D01*
X87765000Y-60552468D02*
X87812619Y-60457230D01*
X87812619Y-60457230D02*
X87812619Y-60361992D01*
X87812619Y-60361992D02*
X87765000Y-60266754D01*
X87765000Y-60266754D02*
X87717381Y-60219135D01*
X87717381Y-60219135D02*
X87622143Y-60171516D01*
X87622143Y-60171516D02*
X87431667Y-60123897D01*
X87431667Y-60123897D02*
X87336429Y-60076278D01*
X87336429Y-60076278D02*
X87288810Y-60028659D01*
X87288810Y-60028659D02*
X87241191Y-59933421D01*
X87241191Y-59933421D02*
X87241191Y-59838183D01*
X87241191Y-59838183D02*
X87288810Y-59742945D01*
X87288810Y-59742945D02*
X87336429Y-59695326D01*
X87336429Y-59695326D02*
X87431667Y-59647707D01*
X87431667Y-59647707D02*
X87669762Y-59647707D01*
X87669762Y-59647707D02*
X87812619Y-59695326D01*
X88241191Y-60647707D02*
X88241191Y-59647707D01*
X88241191Y-59647707D02*
X88622143Y-59647707D01*
X88622143Y-59647707D02*
X88717381Y-59695326D01*
X88717381Y-59695326D02*
X88765000Y-59742945D01*
X88765000Y-59742945D02*
X88812619Y-59838183D01*
X88812619Y-59838183D02*
X88812619Y-59981040D01*
X88812619Y-59981040D02*
X88765000Y-60076278D01*
X88765000Y-60076278D02*
X88717381Y-60123897D01*
X88717381Y-60123897D02*
X88622143Y-60171516D01*
X88622143Y-60171516D02*
X88241191Y-60171516D01*
X89241191Y-60647707D02*
X89241191Y-59647707D01*
X87241191Y-62210032D02*
X87384048Y-62257651D01*
X87384048Y-62257651D02*
X87622143Y-62257651D01*
X87622143Y-62257651D02*
X87717381Y-62210032D01*
X87717381Y-62210032D02*
X87765000Y-62162412D01*
X87765000Y-62162412D02*
X87812619Y-62067174D01*
X87812619Y-62067174D02*
X87812619Y-61971936D01*
X87812619Y-61971936D02*
X87765000Y-61876698D01*
X87765000Y-61876698D02*
X87717381Y-61829079D01*
X87717381Y-61829079D02*
X87622143Y-61781460D01*
X87622143Y-61781460D02*
X87431667Y-61733841D01*
X87431667Y-61733841D02*
X87336429Y-61686222D01*
X87336429Y-61686222D02*
X87288810Y-61638603D01*
X87288810Y-61638603D02*
X87241191Y-61543365D01*
X87241191Y-61543365D02*
X87241191Y-61448127D01*
X87241191Y-61448127D02*
X87288810Y-61352889D01*
X87288810Y-61352889D02*
X87336429Y-61305270D01*
X87336429Y-61305270D02*
X87431667Y-61257651D01*
X87431667Y-61257651D02*
X87669762Y-61257651D01*
X87669762Y-61257651D02*
X87812619Y-61305270D01*
X88241191Y-62257651D02*
X88241191Y-61257651D01*
X88241191Y-61257651D02*
X88622143Y-61257651D01*
X88622143Y-61257651D02*
X88717381Y-61305270D01*
X88717381Y-61305270D02*
X88765000Y-61352889D01*
X88765000Y-61352889D02*
X88812619Y-61448127D01*
X88812619Y-61448127D02*
X88812619Y-61590984D01*
X88812619Y-61590984D02*
X88765000Y-61686222D01*
X88765000Y-61686222D02*
X88717381Y-61733841D01*
X88717381Y-61733841D02*
X88622143Y-61781460D01*
X88622143Y-61781460D02*
X88241191Y-61781460D01*
X89241191Y-62257651D02*
X89241191Y-61257651D01*
X87003095Y-63819976D02*
X87145952Y-63867595D01*
X87145952Y-63867595D02*
X87384047Y-63867595D01*
X87384047Y-63867595D02*
X87479285Y-63819976D01*
X87479285Y-63819976D02*
X87526904Y-63772356D01*
X87526904Y-63772356D02*
X87574523Y-63677118D01*
X87574523Y-63677118D02*
X87574523Y-63581880D01*
X87574523Y-63581880D02*
X87526904Y-63486642D01*
X87526904Y-63486642D02*
X87479285Y-63439023D01*
X87479285Y-63439023D02*
X87384047Y-63391404D01*
X87384047Y-63391404D02*
X87193571Y-63343785D01*
X87193571Y-63343785D02*
X87098333Y-63296166D01*
X87098333Y-63296166D02*
X87050714Y-63248547D01*
X87050714Y-63248547D02*
X87003095Y-63153309D01*
X87003095Y-63153309D02*
X87003095Y-63058071D01*
X87003095Y-63058071D02*
X87050714Y-62962833D01*
X87050714Y-62962833D02*
X87098333Y-62915214D01*
X87098333Y-62915214D02*
X87193571Y-62867595D01*
X87193571Y-62867595D02*
X87431666Y-62867595D01*
X87431666Y-62867595D02*
X87574523Y-62915214D01*
X88003095Y-63867595D02*
X88003095Y-62867595D01*
X88003095Y-62867595D02*
X88336428Y-63581880D01*
X88336428Y-63581880D02*
X88669761Y-62867595D01*
X88669761Y-62867595D02*
X88669761Y-63867595D01*
X89622142Y-63867595D02*
X89145952Y-63867595D01*
X89145952Y-63867595D02*
X89145952Y-62867595D01*
X86907857Y-65429920D02*
X87050714Y-65477539D01*
X87050714Y-65477539D02*
X87288809Y-65477539D01*
X87288809Y-65477539D02*
X87384047Y-65429920D01*
X87384047Y-65429920D02*
X87431666Y-65382300D01*
X87431666Y-65382300D02*
X87479285Y-65287062D01*
X87479285Y-65287062D02*
X87479285Y-65191824D01*
X87479285Y-65191824D02*
X87431666Y-65096586D01*
X87431666Y-65096586D02*
X87384047Y-65048967D01*
X87384047Y-65048967D02*
X87288809Y-65001348D01*
X87288809Y-65001348D02*
X87098333Y-64953729D01*
X87098333Y-64953729D02*
X87003095Y-64906110D01*
X87003095Y-64906110D02*
X86955476Y-64858491D01*
X86955476Y-64858491D02*
X86907857Y-64763253D01*
X86907857Y-64763253D02*
X86907857Y-64668015D01*
X86907857Y-64668015D02*
X86955476Y-64572777D01*
X86955476Y-64572777D02*
X87003095Y-64525158D01*
X87003095Y-64525158D02*
X87098333Y-64477539D01*
X87098333Y-64477539D02*
X87336428Y-64477539D01*
X87336428Y-64477539D02*
X87479285Y-64525158D01*
X87907857Y-65477539D02*
X87907857Y-64477539D01*
X87907857Y-64477539D02*
X88241190Y-65191824D01*
X88241190Y-65191824D02*
X88574523Y-64477539D01*
X88574523Y-64477539D02*
X88574523Y-65477539D01*
X89622142Y-65477539D02*
X89288809Y-65001348D01*
X89050714Y-65477539D02*
X89050714Y-64477539D01*
X89050714Y-64477539D02*
X89431666Y-64477539D01*
X89431666Y-64477539D02*
X89526904Y-64525158D01*
X89526904Y-64525158D02*
X89574523Y-64572777D01*
X89574523Y-64572777D02*
X89622142Y-64668015D01*
X89622142Y-64668015D02*
X89622142Y-64810872D01*
X89622142Y-64810872D02*
X89574523Y-64906110D01*
X89574523Y-64906110D02*
X89526904Y-64953729D01*
X89526904Y-64953729D02*
X89431666Y-65001348D01*
X89431666Y-65001348D02*
X89050714Y-65001348D01*
X87003095Y-66087483D02*
X87669761Y-66087483D01*
X87669761Y-66087483D02*
X87003095Y-67087483D01*
X87003095Y-67087483D02*
X87669761Y-67087483D01*
X88003095Y-66801768D02*
X88479285Y-66801768D01*
X87907857Y-67087483D02*
X88241190Y-66087483D01*
X88241190Y-66087483D02*
X88574523Y-67087483D01*
X88907857Y-67087483D02*
X88907857Y-66087483D01*
X88907857Y-66087483D02*
X89145952Y-66087483D01*
X89145952Y-66087483D02*
X89288809Y-66135102D01*
X89288809Y-66135102D02*
X89384047Y-66230340D01*
X89384047Y-66230340D02*
X89431666Y-66325578D01*
X89431666Y-66325578D02*
X89479285Y-66516054D01*
X89479285Y-66516054D02*
X89479285Y-66658911D01*
X89479285Y-66658911D02*
X89431666Y-66849387D01*
X89431666Y-66849387D02*
X89384047Y-66944625D01*
X89384047Y-66944625D02*
X89288809Y-67039864D01*
X89288809Y-67039864D02*
X89145952Y-67087483D01*
X89145952Y-67087483D02*
X88907857Y-67087483D01*
X87003095Y-67697427D02*
X87669761Y-67697427D01*
X87669761Y-67697427D02*
X87003095Y-68697427D01*
X87003095Y-68697427D02*
X87669761Y-68697427D01*
X88003095Y-68411712D02*
X88479285Y-68411712D01*
X87907857Y-68697427D02*
X88241190Y-67697427D01*
X88241190Y-67697427D02*
X88574523Y-68697427D01*
X88907857Y-68697427D02*
X88907857Y-67697427D01*
X88907857Y-67697427D02*
X89145952Y-67697427D01*
X89145952Y-67697427D02*
X89288809Y-67745046D01*
X89288809Y-67745046D02*
X89384047Y-67840284D01*
X89384047Y-67840284D02*
X89431666Y-67935522D01*
X89431666Y-67935522D02*
X89479285Y-68125998D01*
X89479285Y-68125998D02*
X89479285Y-68268855D01*
X89479285Y-68268855D02*
X89431666Y-68459331D01*
X89431666Y-68459331D02*
X89384047Y-68554569D01*
X89384047Y-68554569D02*
X89288809Y-68649808D01*
X89288809Y-68649808D02*
X89145952Y-68697427D01*
X89145952Y-68697427D02*
X88907857Y-68697427D01*
X87003095Y-70259752D02*
X87145952Y-70307371D01*
X87145952Y-70307371D02*
X87384047Y-70307371D01*
X87384047Y-70307371D02*
X87479285Y-70259752D01*
X87479285Y-70259752D02*
X87526904Y-70212132D01*
X87526904Y-70212132D02*
X87574523Y-70116894D01*
X87574523Y-70116894D02*
X87574523Y-70021656D01*
X87574523Y-70021656D02*
X87526904Y-69926418D01*
X87526904Y-69926418D02*
X87479285Y-69878799D01*
X87479285Y-69878799D02*
X87384047Y-69831180D01*
X87384047Y-69831180D02*
X87193571Y-69783561D01*
X87193571Y-69783561D02*
X87098333Y-69735942D01*
X87098333Y-69735942D02*
X87050714Y-69688323D01*
X87050714Y-69688323D02*
X87003095Y-69593085D01*
X87003095Y-69593085D02*
X87003095Y-69497847D01*
X87003095Y-69497847D02*
X87050714Y-69402609D01*
X87050714Y-69402609D02*
X87098333Y-69354990D01*
X87098333Y-69354990D02*
X87193571Y-69307371D01*
X87193571Y-69307371D02*
X87431666Y-69307371D01*
X87431666Y-69307371D02*
X87574523Y-69354990D01*
X88003095Y-70307371D02*
X88003095Y-69307371D01*
X88003095Y-69307371D02*
X88384047Y-69307371D01*
X88384047Y-69307371D02*
X88479285Y-69354990D01*
X88479285Y-69354990D02*
X88526904Y-69402609D01*
X88526904Y-69402609D02*
X88574523Y-69497847D01*
X88574523Y-69497847D02*
X88574523Y-69640704D01*
X88574523Y-69640704D02*
X88526904Y-69735942D01*
X88526904Y-69735942D02*
X88479285Y-69783561D01*
X88479285Y-69783561D02*
X88384047Y-69831180D01*
X88384047Y-69831180D02*
X88003095Y-69831180D01*
X88907857Y-69307371D02*
X89574523Y-69307371D01*
X89574523Y-69307371D02*
X88907857Y-70307371D01*
X88907857Y-70307371D02*
X89574523Y-70307371D01*
X91614666Y-56427819D02*
X91614666Y-57142104D01*
X91614666Y-57142104D02*
X91567047Y-57284961D01*
X91567047Y-57284961D02*
X91471809Y-57380200D01*
X91471809Y-57380200D02*
X91328952Y-57427819D01*
X91328952Y-57427819D02*
X91233714Y-57427819D01*
X92519428Y-56761152D02*
X92519428Y-57427819D01*
X92281333Y-56380200D02*
X92043238Y-57094485D01*
X92043238Y-57094485D02*
X92662285Y-57094485D01*
X90709905Y-58037763D02*
X91328952Y-58037763D01*
X91328952Y-58037763D02*
X90995619Y-58418715D01*
X90995619Y-58418715D02*
X91138476Y-58418715D01*
X91138476Y-58418715D02*
X91233714Y-58466334D01*
X91233714Y-58466334D02*
X91281333Y-58513953D01*
X91281333Y-58513953D02*
X91328952Y-58609191D01*
X91328952Y-58609191D02*
X91328952Y-58847286D01*
X91328952Y-58847286D02*
X91281333Y-58942524D01*
X91281333Y-58942524D02*
X91233714Y-58990144D01*
X91233714Y-58990144D02*
X91138476Y-59037763D01*
X91138476Y-59037763D02*
X90852762Y-59037763D01*
X90852762Y-59037763D02*
X90757524Y-58990144D01*
X90757524Y-58990144D02*
X90709905Y-58942524D01*
X91614667Y-58037763D02*
X91948000Y-59037763D01*
X91948000Y-59037763D02*
X92281333Y-58037763D01*
X92519429Y-58037763D02*
X93138476Y-58037763D01*
X93138476Y-58037763D02*
X92805143Y-58418715D01*
X92805143Y-58418715D02*
X92948000Y-58418715D01*
X92948000Y-58418715D02*
X93043238Y-58466334D01*
X93043238Y-58466334D02*
X93090857Y-58513953D01*
X93090857Y-58513953D02*
X93138476Y-58609191D01*
X93138476Y-58609191D02*
X93138476Y-58847286D01*
X93138476Y-58847286D02*
X93090857Y-58942524D01*
X93090857Y-58942524D02*
X93043238Y-58990144D01*
X93043238Y-58990144D02*
X92948000Y-59037763D01*
X92948000Y-59037763D02*
X92662286Y-59037763D01*
X92662286Y-59037763D02*
X92567048Y-58990144D01*
X92567048Y-58990144D02*
X92519429Y-58942524D01*
X91757523Y-59647707D02*
X91281333Y-59647707D01*
X91281333Y-59647707D02*
X91233714Y-60123897D01*
X91233714Y-60123897D02*
X91281333Y-60076278D01*
X91281333Y-60076278D02*
X91376571Y-60028659D01*
X91376571Y-60028659D02*
X91614666Y-60028659D01*
X91614666Y-60028659D02*
X91709904Y-60076278D01*
X91709904Y-60076278D02*
X91757523Y-60123897D01*
X91757523Y-60123897D02*
X91805142Y-60219135D01*
X91805142Y-60219135D02*
X91805142Y-60457230D01*
X91805142Y-60457230D02*
X91757523Y-60552468D01*
X91757523Y-60552468D02*
X91709904Y-60600088D01*
X91709904Y-60600088D02*
X91614666Y-60647707D01*
X91614666Y-60647707D02*
X91376571Y-60647707D01*
X91376571Y-60647707D02*
X91281333Y-60600088D01*
X91281333Y-60600088D02*
X91233714Y-60552468D01*
X92090857Y-59647707D02*
X92424190Y-60647707D01*
X92424190Y-60647707D02*
X92757523Y-59647707D01*
X90686095Y-62210032D02*
X90828952Y-62257651D01*
X90828952Y-62257651D02*
X91067047Y-62257651D01*
X91067047Y-62257651D02*
X91162285Y-62210032D01*
X91162285Y-62210032D02*
X91209904Y-62162412D01*
X91209904Y-62162412D02*
X91257523Y-62067174D01*
X91257523Y-62067174D02*
X91257523Y-61971936D01*
X91257523Y-61971936D02*
X91209904Y-61876698D01*
X91209904Y-61876698D02*
X91162285Y-61829079D01*
X91162285Y-61829079D02*
X91067047Y-61781460D01*
X91067047Y-61781460D02*
X90876571Y-61733841D01*
X90876571Y-61733841D02*
X90781333Y-61686222D01*
X90781333Y-61686222D02*
X90733714Y-61638603D01*
X90733714Y-61638603D02*
X90686095Y-61543365D01*
X90686095Y-61543365D02*
X90686095Y-61448127D01*
X90686095Y-61448127D02*
X90733714Y-61352889D01*
X90733714Y-61352889D02*
X90781333Y-61305270D01*
X90781333Y-61305270D02*
X90876571Y-61257651D01*
X90876571Y-61257651D02*
X91114666Y-61257651D01*
X91114666Y-61257651D02*
X91257523Y-61305270D01*
X91686095Y-62257651D02*
X91686095Y-61257651D01*
X91686095Y-61257651D02*
X92019428Y-61971936D01*
X92019428Y-61971936D02*
X92352761Y-61257651D01*
X92352761Y-61257651D02*
X92352761Y-62257651D01*
X93305142Y-62257651D02*
X92828952Y-62257651D01*
X92828952Y-62257651D02*
X92828952Y-61257651D01*
X90590857Y-63819976D02*
X90733714Y-63867595D01*
X90733714Y-63867595D02*
X90971809Y-63867595D01*
X90971809Y-63867595D02*
X91067047Y-63819976D01*
X91067047Y-63819976D02*
X91114666Y-63772356D01*
X91114666Y-63772356D02*
X91162285Y-63677118D01*
X91162285Y-63677118D02*
X91162285Y-63581880D01*
X91162285Y-63581880D02*
X91114666Y-63486642D01*
X91114666Y-63486642D02*
X91067047Y-63439023D01*
X91067047Y-63439023D02*
X90971809Y-63391404D01*
X90971809Y-63391404D02*
X90781333Y-63343785D01*
X90781333Y-63343785D02*
X90686095Y-63296166D01*
X90686095Y-63296166D02*
X90638476Y-63248547D01*
X90638476Y-63248547D02*
X90590857Y-63153309D01*
X90590857Y-63153309D02*
X90590857Y-63058071D01*
X90590857Y-63058071D02*
X90638476Y-62962833D01*
X90638476Y-62962833D02*
X90686095Y-62915214D01*
X90686095Y-62915214D02*
X90781333Y-62867595D01*
X90781333Y-62867595D02*
X91019428Y-62867595D01*
X91019428Y-62867595D02*
X91162285Y-62915214D01*
X91590857Y-63867595D02*
X91590857Y-62867595D01*
X91590857Y-62867595D02*
X91924190Y-63581880D01*
X91924190Y-63581880D02*
X92257523Y-62867595D01*
X92257523Y-62867595D02*
X92257523Y-63867595D01*
X93305142Y-63867595D02*
X92971809Y-63391404D01*
X92733714Y-63867595D02*
X92733714Y-62867595D01*
X92733714Y-62867595D02*
X93114666Y-62867595D01*
X93114666Y-62867595D02*
X93209904Y-62915214D01*
X93209904Y-62915214D02*
X93257523Y-62962833D01*
X93257523Y-62962833D02*
X93305142Y-63058071D01*
X93305142Y-63058071D02*
X93305142Y-63200928D01*
X93305142Y-63200928D02*
X93257523Y-63296166D01*
X93257523Y-63296166D02*
X93209904Y-63343785D01*
X93209904Y-63343785D02*
X93114666Y-63391404D01*
X93114666Y-63391404D02*
X92733714Y-63391404D01*
X90805143Y-65477539D02*
X90805143Y-64477539D01*
X90805143Y-64477539D02*
X91138476Y-65191824D01*
X91138476Y-65191824D02*
X91471809Y-64477539D01*
X91471809Y-64477539D02*
X91471809Y-65477539D01*
X91900381Y-65191824D02*
X92376571Y-65191824D01*
X91805143Y-65477539D02*
X92138476Y-64477539D01*
X92138476Y-64477539D02*
X92471809Y-65477539D01*
X93090857Y-64477539D02*
X93090857Y-65191824D01*
X93090857Y-65191824D02*
X93043238Y-65334681D01*
X93043238Y-65334681D02*
X92948000Y-65429920D01*
X92948000Y-65429920D02*
X92805143Y-65477539D01*
X92805143Y-65477539D02*
X92709905Y-65477539D01*
X90781333Y-67087483D02*
X90781333Y-66087483D01*
X90781333Y-66087483D02*
X91162285Y-66087483D01*
X91162285Y-66087483D02*
X91257523Y-66135102D01*
X91257523Y-66135102D02*
X91305142Y-66182721D01*
X91305142Y-66182721D02*
X91352761Y-66277959D01*
X91352761Y-66277959D02*
X91352761Y-66420816D01*
X91352761Y-66420816D02*
X91305142Y-66516054D01*
X91305142Y-66516054D02*
X91257523Y-66563673D01*
X91257523Y-66563673D02*
X91162285Y-66611292D01*
X91162285Y-66611292D02*
X90781333Y-66611292D01*
X91733714Y-67039864D02*
X91876571Y-67087483D01*
X91876571Y-67087483D02*
X92114666Y-67087483D01*
X92114666Y-67087483D02*
X92209904Y-67039864D01*
X92209904Y-67039864D02*
X92257523Y-66992244D01*
X92257523Y-66992244D02*
X92305142Y-66897006D01*
X92305142Y-66897006D02*
X92305142Y-66801768D01*
X92305142Y-66801768D02*
X92257523Y-66706530D01*
X92257523Y-66706530D02*
X92209904Y-66658911D01*
X92209904Y-66658911D02*
X92114666Y-66611292D01*
X92114666Y-66611292D02*
X91924190Y-66563673D01*
X91924190Y-66563673D02*
X91828952Y-66516054D01*
X91828952Y-66516054D02*
X91781333Y-66468435D01*
X91781333Y-66468435D02*
X91733714Y-66373197D01*
X91733714Y-66373197D02*
X91733714Y-66277959D01*
X91733714Y-66277959D02*
X91781333Y-66182721D01*
X91781333Y-66182721D02*
X91828952Y-66135102D01*
X91828952Y-66135102D02*
X91924190Y-66087483D01*
X91924190Y-66087483D02*
X92162285Y-66087483D01*
X92162285Y-66087483D02*
X92305142Y-66135102D01*
X92590857Y-66087483D02*
X92924190Y-67087483D01*
X92924190Y-67087483D02*
X93257523Y-66087483D01*
X90328952Y-68697427D02*
X90328952Y-67697427D01*
X90328952Y-67697427D02*
X90662285Y-68411712D01*
X90662285Y-68411712D02*
X90995618Y-67697427D01*
X90995618Y-67697427D02*
X90995618Y-68697427D01*
X91424190Y-68411712D02*
X91900380Y-68411712D01*
X91328952Y-68697427D02*
X91662285Y-67697427D01*
X91662285Y-67697427D02*
X91995618Y-68697427D01*
X92614666Y-67697427D02*
X92614666Y-68411712D01*
X92614666Y-68411712D02*
X92567047Y-68554569D01*
X92567047Y-68554569D02*
X92471809Y-68649808D01*
X92471809Y-68649808D02*
X92328952Y-68697427D01*
X92328952Y-68697427D02*
X92233714Y-68697427D01*
X93043238Y-68649808D02*
X93186095Y-68697427D01*
X93186095Y-68697427D02*
X93424190Y-68697427D01*
X93424190Y-68697427D02*
X93519428Y-68649808D01*
X93519428Y-68649808D02*
X93567047Y-68602188D01*
X93567047Y-68602188D02*
X93614666Y-68506950D01*
X93614666Y-68506950D02*
X93614666Y-68411712D01*
X93614666Y-68411712D02*
X93567047Y-68316474D01*
X93567047Y-68316474D02*
X93519428Y-68268855D01*
X93519428Y-68268855D02*
X93424190Y-68221236D01*
X93424190Y-68221236D02*
X93233714Y-68173617D01*
X93233714Y-68173617D02*
X93138476Y-68125998D01*
X93138476Y-68125998D02*
X93090857Y-68078379D01*
X93090857Y-68078379D02*
X93043238Y-67983141D01*
X93043238Y-67983141D02*
X93043238Y-67887903D01*
X93043238Y-67887903D02*
X93090857Y-67792665D01*
X93090857Y-67792665D02*
X93138476Y-67745046D01*
X93138476Y-67745046D02*
X93233714Y-67697427D01*
X93233714Y-67697427D02*
X93471809Y-67697427D01*
X93471809Y-67697427D02*
X93614666Y-67745046D01*
X91948000Y-70212132D02*
X91995619Y-70259752D01*
X91995619Y-70259752D02*
X91948000Y-70307371D01*
X91948000Y-70307371D02*
X91900381Y-70259752D01*
X91900381Y-70259752D02*
X91948000Y-70212132D01*
X91948000Y-70212132D02*
X91948000Y-70307371D01*
X95170666Y-56427819D02*
X95170666Y-57142104D01*
X95170666Y-57142104D02*
X95123047Y-57284961D01*
X95123047Y-57284961D02*
X95027809Y-57380200D01*
X95027809Y-57380200D02*
X94884952Y-57427819D01*
X94884952Y-57427819D02*
X94789714Y-57427819D01*
X95551619Y-56427819D02*
X96170666Y-56427819D01*
X96170666Y-56427819D02*
X95837333Y-56808771D01*
X95837333Y-56808771D02*
X95980190Y-56808771D01*
X95980190Y-56808771D02*
X96075428Y-56856390D01*
X96075428Y-56856390D02*
X96123047Y-56904009D01*
X96123047Y-56904009D02*
X96170666Y-56999247D01*
X96170666Y-56999247D02*
X96170666Y-57237342D01*
X96170666Y-57237342D02*
X96123047Y-57332580D01*
X96123047Y-57332580D02*
X96075428Y-57380200D01*
X96075428Y-57380200D02*
X95980190Y-57427819D01*
X95980190Y-57427819D02*
X95694476Y-57427819D01*
X95694476Y-57427819D02*
X95599238Y-57380200D01*
X95599238Y-57380200D02*
X95551619Y-57332580D01*
X94384952Y-59037763D02*
X94384952Y-58037763D01*
X94956380Y-59037763D02*
X94527809Y-58466334D01*
X94956380Y-58037763D02*
X94384952Y-58609191D01*
X95670666Y-58037763D02*
X95670666Y-58752048D01*
X95670666Y-58752048D02*
X95623047Y-58894905D01*
X95623047Y-58894905D02*
X95527809Y-58990144D01*
X95527809Y-58990144D02*
X95384952Y-59037763D01*
X95384952Y-59037763D02*
X95289714Y-59037763D01*
X96575428Y-58371096D02*
X96575428Y-59037763D01*
X96337333Y-57990144D02*
X96099238Y-58704429D01*
X96099238Y-58704429D02*
X96718285Y-58704429D01*
X94384952Y-60647707D02*
X94384952Y-59647707D01*
X94956380Y-60647707D02*
X94527809Y-60076278D01*
X94956380Y-59647707D02*
X94384952Y-60219135D01*
X95670666Y-59647707D02*
X95670666Y-60361992D01*
X95670666Y-60361992D02*
X95623047Y-60504849D01*
X95623047Y-60504849D02*
X95527809Y-60600088D01*
X95527809Y-60600088D02*
X95384952Y-60647707D01*
X95384952Y-60647707D02*
X95289714Y-60647707D01*
X96623047Y-59647707D02*
X96146857Y-59647707D01*
X96146857Y-59647707D02*
X96099238Y-60123897D01*
X96099238Y-60123897D02*
X96146857Y-60076278D01*
X96146857Y-60076278D02*
X96242095Y-60028659D01*
X96242095Y-60028659D02*
X96480190Y-60028659D01*
X96480190Y-60028659D02*
X96575428Y-60076278D01*
X96575428Y-60076278D02*
X96623047Y-60123897D01*
X96623047Y-60123897D02*
X96670666Y-60219135D01*
X96670666Y-60219135D02*
X96670666Y-60457230D01*
X96670666Y-60457230D02*
X96623047Y-60552468D01*
X96623047Y-60552468D02*
X96575428Y-60600088D01*
X96575428Y-60600088D02*
X96480190Y-60647707D01*
X96480190Y-60647707D02*
X96242095Y-60647707D01*
X96242095Y-60647707D02*
X96146857Y-60600088D01*
X96146857Y-60600088D02*
X96099238Y-60552468D01*
X94384952Y-62257651D02*
X94384952Y-61257651D01*
X94956380Y-62257651D02*
X94527809Y-61686222D01*
X94956380Y-61257651D02*
X94384952Y-61829079D01*
X95670666Y-61257651D02*
X95670666Y-61971936D01*
X95670666Y-61971936D02*
X95623047Y-62114793D01*
X95623047Y-62114793D02*
X95527809Y-62210032D01*
X95527809Y-62210032D02*
X95384952Y-62257651D01*
X95384952Y-62257651D02*
X95289714Y-62257651D01*
X96575428Y-61257651D02*
X96384952Y-61257651D01*
X96384952Y-61257651D02*
X96289714Y-61305270D01*
X96289714Y-61305270D02*
X96242095Y-61352889D01*
X96242095Y-61352889D02*
X96146857Y-61495746D01*
X96146857Y-61495746D02*
X96099238Y-61686222D01*
X96099238Y-61686222D02*
X96099238Y-62067174D01*
X96099238Y-62067174D02*
X96146857Y-62162412D01*
X96146857Y-62162412D02*
X96194476Y-62210032D01*
X96194476Y-62210032D02*
X96289714Y-62257651D01*
X96289714Y-62257651D02*
X96480190Y-62257651D01*
X96480190Y-62257651D02*
X96575428Y-62210032D01*
X96575428Y-62210032D02*
X96623047Y-62162412D01*
X96623047Y-62162412D02*
X96670666Y-62067174D01*
X96670666Y-62067174D02*
X96670666Y-61829079D01*
X96670666Y-61829079D02*
X96623047Y-61733841D01*
X96623047Y-61733841D02*
X96575428Y-61686222D01*
X96575428Y-61686222D02*
X96480190Y-61638603D01*
X96480190Y-61638603D02*
X96289714Y-61638603D01*
X96289714Y-61638603D02*
X96194476Y-61686222D01*
X96194476Y-61686222D02*
X96146857Y-61733841D01*
X96146857Y-61733841D02*
X96099238Y-61829079D01*
X94384952Y-63867595D02*
X94384952Y-62867595D01*
X94956380Y-63867595D02*
X94527809Y-63296166D01*
X94956380Y-62867595D02*
X94384952Y-63439023D01*
X95670666Y-62867595D02*
X95670666Y-63581880D01*
X95670666Y-63581880D02*
X95623047Y-63724737D01*
X95623047Y-63724737D02*
X95527809Y-63819976D01*
X95527809Y-63819976D02*
X95384952Y-63867595D01*
X95384952Y-63867595D02*
X95289714Y-63867595D01*
X96051619Y-62867595D02*
X96718285Y-62867595D01*
X96718285Y-62867595D02*
X96289714Y-63867595D01*
X94742095Y-64525158D02*
X94646857Y-64477539D01*
X94646857Y-64477539D02*
X94504000Y-64477539D01*
X94504000Y-64477539D02*
X94361143Y-64525158D01*
X94361143Y-64525158D02*
X94265905Y-64620396D01*
X94265905Y-64620396D02*
X94218286Y-64715634D01*
X94218286Y-64715634D02*
X94170667Y-64906110D01*
X94170667Y-64906110D02*
X94170667Y-65048967D01*
X94170667Y-65048967D02*
X94218286Y-65239443D01*
X94218286Y-65239443D02*
X94265905Y-65334681D01*
X94265905Y-65334681D02*
X94361143Y-65429920D01*
X94361143Y-65429920D02*
X94504000Y-65477539D01*
X94504000Y-65477539D02*
X94599238Y-65477539D01*
X94599238Y-65477539D02*
X94742095Y-65429920D01*
X94742095Y-65429920D02*
X94789714Y-65382300D01*
X94789714Y-65382300D02*
X94789714Y-65048967D01*
X94789714Y-65048967D02*
X94599238Y-65048967D01*
X95218286Y-65477539D02*
X95218286Y-64477539D01*
X95218286Y-64477539D02*
X95789714Y-65477539D01*
X95789714Y-65477539D02*
X95789714Y-64477539D01*
X96265905Y-65477539D02*
X96265905Y-64477539D01*
X96265905Y-64477539D02*
X96504000Y-64477539D01*
X96504000Y-64477539D02*
X96646857Y-64525158D01*
X96646857Y-64525158D02*
X96742095Y-64620396D01*
X96742095Y-64620396D02*
X96789714Y-64715634D01*
X96789714Y-64715634D02*
X96837333Y-64906110D01*
X96837333Y-64906110D02*
X96837333Y-65048967D01*
X96837333Y-65048967D02*
X96789714Y-65239443D01*
X96789714Y-65239443D02*
X96742095Y-65334681D01*
X96742095Y-65334681D02*
X96646857Y-65429920D01*
X96646857Y-65429920D02*
X96504000Y-65477539D01*
X96504000Y-65477539D02*
X96265905Y-65477539D01*
X95504000Y-66992244D02*
X95551619Y-67039864D01*
X95551619Y-67039864D02*
X95504000Y-67087483D01*
X95504000Y-67087483D02*
X95456381Y-67039864D01*
X95456381Y-67039864D02*
X95504000Y-66992244D01*
X95504000Y-66992244D02*
X95504000Y-67087483D01*
X95504000Y-68602188D02*
X95551619Y-68649808D01*
X95551619Y-68649808D02*
X95504000Y-68697427D01*
X95504000Y-68697427D02*
X95456381Y-68649808D01*
X95456381Y-68649808D02*
X95504000Y-68602188D01*
X95504000Y-68602188D02*
X95504000Y-68697427D01*
X95504000Y-70212132D02*
X95551619Y-70259752D01*
X95551619Y-70259752D02*
X95504000Y-70307371D01*
X95504000Y-70307371D02*
X95456381Y-70259752D01*
X95456381Y-70259752D02*
X95504000Y-70212132D01*
X95504000Y-70212132D02*
X95504000Y-70307371D01*
X99107666Y-56427819D02*
X99107666Y-57142104D01*
X99107666Y-57142104D02*
X99060047Y-57284961D01*
X99060047Y-57284961D02*
X98964809Y-57380200D01*
X98964809Y-57380200D02*
X98821952Y-57427819D01*
X98821952Y-57427819D02*
X98726714Y-57427819D01*
X100107666Y-57427819D02*
X99536238Y-57427819D01*
X99821952Y-57427819D02*
X99821952Y-56427819D01*
X99821952Y-56427819D02*
X99726714Y-56570676D01*
X99726714Y-56570676D02*
X99631476Y-56665914D01*
X99631476Y-56665914D02*
X99536238Y-56713533D01*
X97560048Y-58037763D02*
X98226714Y-58037763D01*
X98226714Y-58037763D02*
X97560048Y-59037763D01*
X97560048Y-59037763D02*
X98226714Y-59037763D01*
X98560048Y-58752048D02*
X99036238Y-58752048D01*
X98464810Y-59037763D02*
X98798143Y-58037763D01*
X98798143Y-58037763D02*
X99131476Y-59037763D01*
X99464810Y-59037763D02*
X99464810Y-58037763D01*
X99464810Y-58037763D02*
X99702905Y-58037763D01*
X99702905Y-58037763D02*
X99845762Y-58085382D01*
X99845762Y-58085382D02*
X99941000Y-58180620D01*
X99941000Y-58180620D02*
X99988619Y-58275858D01*
X99988619Y-58275858D02*
X100036238Y-58466334D01*
X100036238Y-58466334D02*
X100036238Y-58609191D01*
X100036238Y-58609191D02*
X99988619Y-58799667D01*
X99988619Y-58799667D02*
X99941000Y-58894905D01*
X99941000Y-58894905D02*
X99845762Y-58990144D01*
X99845762Y-58990144D02*
X99702905Y-59037763D01*
X99702905Y-59037763D02*
X99464810Y-59037763D01*
X100464810Y-58656810D02*
X101226715Y-58656810D01*
X97560048Y-59647707D02*
X98226714Y-59647707D01*
X98226714Y-59647707D02*
X97560048Y-60647707D01*
X97560048Y-60647707D02*
X98226714Y-60647707D01*
X98560048Y-60361992D02*
X99036238Y-60361992D01*
X98464810Y-60647707D02*
X98798143Y-59647707D01*
X98798143Y-59647707D02*
X99131476Y-60647707D01*
X99464810Y-60647707D02*
X99464810Y-59647707D01*
X99464810Y-59647707D02*
X99702905Y-59647707D01*
X99702905Y-59647707D02*
X99845762Y-59695326D01*
X99845762Y-59695326D02*
X99941000Y-59790564D01*
X99941000Y-59790564D02*
X99988619Y-59885802D01*
X99988619Y-59885802D02*
X100036238Y-60076278D01*
X100036238Y-60076278D02*
X100036238Y-60219135D01*
X100036238Y-60219135D02*
X99988619Y-60409611D01*
X99988619Y-60409611D02*
X99941000Y-60504849D01*
X99941000Y-60504849D02*
X99845762Y-60600088D01*
X99845762Y-60600088D02*
X99702905Y-60647707D01*
X99702905Y-60647707D02*
X99464810Y-60647707D01*
X100464810Y-60266754D02*
X101226715Y-60266754D01*
X100845762Y-60647707D02*
X100845762Y-59885802D01*
X97464810Y-62210032D02*
X97607667Y-62257651D01*
X97607667Y-62257651D02*
X97845762Y-62257651D01*
X97845762Y-62257651D02*
X97941000Y-62210032D01*
X97941000Y-62210032D02*
X97988619Y-62162412D01*
X97988619Y-62162412D02*
X98036238Y-62067174D01*
X98036238Y-62067174D02*
X98036238Y-61971936D01*
X98036238Y-61971936D02*
X97988619Y-61876698D01*
X97988619Y-61876698D02*
X97941000Y-61829079D01*
X97941000Y-61829079D02*
X97845762Y-61781460D01*
X97845762Y-61781460D02*
X97655286Y-61733841D01*
X97655286Y-61733841D02*
X97560048Y-61686222D01*
X97560048Y-61686222D02*
X97512429Y-61638603D01*
X97512429Y-61638603D02*
X97464810Y-61543365D01*
X97464810Y-61543365D02*
X97464810Y-61448127D01*
X97464810Y-61448127D02*
X97512429Y-61352889D01*
X97512429Y-61352889D02*
X97560048Y-61305270D01*
X97560048Y-61305270D02*
X97655286Y-61257651D01*
X97655286Y-61257651D02*
X97893381Y-61257651D01*
X97893381Y-61257651D02*
X98036238Y-61305270D01*
X98464810Y-62257651D02*
X98464810Y-61257651D01*
X98464810Y-61257651D02*
X98798143Y-61971936D01*
X98798143Y-61971936D02*
X99131476Y-61257651D01*
X99131476Y-61257651D02*
X99131476Y-62257651D01*
X100179095Y-62257651D02*
X99845762Y-61781460D01*
X99607667Y-62257651D02*
X99607667Y-61257651D01*
X99607667Y-61257651D02*
X99988619Y-61257651D01*
X99988619Y-61257651D02*
X100083857Y-61305270D01*
X100083857Y-61305270D02*
X100131476Y-61352889D01*
X100131476Y-61352889D02*
X100179095Y-61448127D01*
X100179095Y-61448127D02*
X100179095Y-61590984D01*
X100179095Y-61590984D02*
X100131476Y-61686222D01*
X100131476Y-61686222D02*
X100083857Y-61733841D01*
X100083857Y-61733841D02*
X99988619Y-61781460D01*
X99988619Y-61781460D02*
X99607667Y-61781460D01*
X100607667Y-61876698D02*
X101369572Y-61876698D01*
X97464810Y-63819976D02*
X97607667Y-63867595D01*
X97607667Y-63867595D02*
X97845762Y-63867595D01*
X97845762Y-63867595D02*
X97941000Y-63819976D01*
X97941000Y-63819976D02*
X97988619Y-63772356D01*
X97988619Y-63772356D02*
X98036238Y-63677118D01*
X98036238Y-63677118D02*
X98036238Y-63581880D01*
X98036238Y-63581880D02*
X97988619Y-63486642D01*
X97988619Y-63486642D02*
X97941000Y-63439023D01*
X97941000Y-63439023D02*
X97845762Y-63391404D01*
X97845762Y-63391404D02*
X97655286Y-63343785D01*
X97655286Y-63343785D02*
X97560048Y-63296166D01*
X97560048Y-63296166D02*
X97512429Y-63248547D01*
X97512429Y-63248547D02*
X97464810Y-63153309D01*
X97464810Y-63153309D02*
X97464810Y-63058071D01*
X97464810Y-63058071D02*
X97512429Y-62962833D01*
X97512429Y-62962833D02*
X97560048Y-62915214D01*
X97560048Y-62915214D02*
X97655286Y-62867595D01*
X97655286Y-62867595D02*
X97893381Y-62867595D01*
X97893381Y-62867595D02*
X98036238Y-62915214D01*
X98464810Y-63867595D02*
X98464810Y-62867595D01*
X98464810Y-62867595D02*
X98798143Y-63581880D01*
X98798143Y-63581880D02*
X99131476Y-62867595D01*
X99131476Y-62867595D02*
X99131476Y-63867595D01*
X100179095Y-63867595D02*
X99845762Y-63391404D01*
X99607667Y-63867595D02*
X99607667Y-62867595D01*
X99607667Y-62867595D02*
X99988619Y-62867595D01*
X99988619Y-62867595D02*
X100083857Y-62915214D01*
X100083857Y-62915214D02*
X100131476Y-62962833D01*
X100131476Y-62962833D02*
X100179095Y-63058071D01*
X100179095Y-63058071D02*
X100179095Y-63200928D01*
X100179095Y-63200928D02*
X100131476Y-63296166D01*
X100131476Y-63296166D02*
X100083857Y-63343785D01*
X100083857Y-63343785D02*
X99988619Y-63391404D01*
X99988619Y-63391404D02*
X99607667Y-63391404D01*
X100607667Y-63486642D02*
X101369572Y-63486642D01*
X100988619Y-63867595D02*
X100988619Y-63105690D01*
X97560048Y-65429920D02*
X97702905Y-65477539D01*
X97702905Y-65477539D02*
X97941000Y-65477539D01*
X97941000Y-65477539D02*
X98036238Y-65429920D01*
X98036238Y-65429920D02*
X98083857Y-65382300D01*
X98083857Y-65382300D02*
X98131476Y-65287062D01*
X98131476Y-65287062D02*
X98131476Y-65191824D01*
X98131476Y-65191824D02*
X98083857Y-65096586D01*
X98083857Y-65096586D02*
X98036238Y-65048967D01*
X98036238Y-65048967D02*
X97941000Y-65001348D01*
X97941000Y-65001348D02*
X97750524Y-64953729D01*
X97750524Y-64953729D02*
X97655286Y-64906110D01*
X97655286Y-64906110D02*
X97607667Y-64858491D01*
X97607667Y-64858491D02*
X97560048Y-64763253D01*
X97560048Y-64763253D02*
X97560048Y-64668015D01*
X97560048Y-64668015D02*
X97607667Y-64572777D01*
X97607667Y-64572777D02*
X97655286Y-64525158D01*
X97655286Y-64525158D02*
X97750524Y-64477539D01*
X97750524Y-64477539D02*
X97988619Y-64477539D01*
X97988619Y-64477539D02*
X98131476Y-64525158D01*
X98560048Y-65477539D02*
X98560048Y-64477539D01*
X98560048Y-64477539D02*
X98893381Y-65191824D01*
X98893381Y-65191824D02*
X99226714Y-64477539D01*
X99226714Y-64477539D02*
X99226714Y-65477539D01*
X100179095Y-65477539D02*
X99702905Y-65477539D01*
X99702905Y-65477539D02*
X99702905Y-64477539D01*
X100512429Y-65096586D02*
X101274334Y-65096586D01*
X97560048Y-67039864D02*
X97702905Y-67087483D01*
X97702905Y-67087483D02*
X97941000Y-67087483D01*
X97941000Y-67087483D02*
X98036238Y-67039864D01*
X98036238Y-67039864D02*
X98083857Y-66992244D01*
X98083857Y-66992244D02*
X98131476Y-66897006D01*
X98131476Y-66897006D02*
X98131476Y-66801768D01*
X98131476Y-66801768D02*
X98083857Y-66706530D01*
X98083857Y-66706530D02*
X98036238Y-66658911D01*
X98036238Y-66658911D02*
X97941000Y-66611292D01*
X97941000Y-66611292D02*
X97750524Y-66563673D01*
X97750524Y-66563673D02*
X97655286Y-66516054D01*
X97655286Y-66516054D02*
X97607667Y-66468435D01*
X97607667Y-66468435D02*
X97560048Y-66373197D01*
X97560048Y-66373197D02*
X97560048Y-66277959D01*
X97560048Y-66277959D02*
X97607667Y-66182721D01*
X97607667Y-66182721D02*
X97655286Y-66135102D01*
X97655286Y-66135102D02*
X97750524Y-66087483D01*
X97750524Y-66087483D02*
X97988619Y-66087483D01*
X97988619Y-66087483D02*
X98131476Y-66135102D01*
X98560048Y-67087483D02*
X98560048Y-66087483D01*
X98560048Y-66087483D02*
X98893381Y-66801768D01*
X98893381Y-66801768D02*
X99226714Y-66087483D01*
X99226714Y-66087483D02*
X99226714Y-67087483D01*
X100179095Y-67087483D02*
X99702905Y-67087483D01*
X99702905Y-67087483D02*
X99702905Y-66087483D01*
X100512429Y-66706530D02*
X101274334Y-66706530D01*
X100893381Y-67087483D02*
X100893381Y-66325578D01*
X97798143Y-68649808D02*
X97941000Y-68697427D01*
X97941000Y-68697427D02*
X98179095Y-68697427D01*
X98179095Y-68697427D02*
X98274333Y-68649808D01*
X98274333Y-68649808D02*
X98321952Y-68602188D01*
X98321952Y-68602188D02*
X98369571Y-68506950D01*
X98369571Y-68506950D02*
X98369571Y-68411712D01*
X98369571Y-68411712D02*
X98321952Y-68316474D01*
X98321952Y-68316474D02*
X98274333Y-68268855D01*
X98274333Y-68268855D02*
X98179095Y-68221236D01*
X98179095Y-68221236D02*
X97988619Y-68173617D01*
X97988619Y-68173617D02*
X97893381Y-68125998D01*
X97893381Y-68125998D02*
X97845762Y-68078379D01*
X97845762Y-68078379D02*
X97798143Y-67983141D01*
X97798143Y-67983141D02*
X97798143Y-67887903D01*
X97798143Y-67887903D02*
X97845762Y-67792665D01*
X97845762Y-67792665D02*
X97893381Y-67745046D01*
X97893381Y-67745046D02*
X97988619Y-67697427D01*
X97988619Y-67697427D02*
X98226714Y-67697427D01*
X98226714Y-67697427D02*
X98369571Y-67745046D01*
X98798143Y-68697427D02*
X98798143Y-67697427D01*
X98798143Y-67697427D02*
X99179095Y-67697427D01*
X99179095Y-67697427D02*
X99274333Y-67745046D01*
X99274333Y-67745046D02*
X99321952Y-67792665D01*
X99321952Y-67792665D02*
X99369571Y-67887903D01*
X99369571Y-67887903D02*
X99369571Y-68030760D01*
X99369571Y-68030760D02*
X99321952Y-68125998D01*
X99321952Y-68125998D02*
X99274333Y-68173617D01*
X99274333Y-68173617D02*
X99179095Y-68221236D01*
X99179095Y-68221236D02*
X98798143Y-68221236D01*
X99798143Y-68697427D02*
X99798143Y-67697427D01*
X100274333Y-68316474D02*
X101036238Y-68316474D01*
X97798143Y-70259752D02*
X97941000Y-70307371D01*
X97941000Y-70307371D02*
X98179095Y-70307371D01*
X98179095Y-70307371D02*
X98274333Y-70259752D01*
X98274333Y-70259752D02*
X98321952Y-70212132D01*
X98321952Y-70212132D02*
X98369571Y-70116894D01*
X98369571Y-70116894D02*
X98369571Y-70021656D01*
X98369571Y-70021656D02*
X98321952Y-69926418D01*
X98321952Y-69926418D02*
X98274333Y-69878799D01*
X98274333Y-69878799D02*
X98179095Y-69831180D01*
X98179095Y-69831180D02*
X97988619Y-69783561D01*
X97988619Y-69783561D02*
X97893381Y-69735942D01*
X97893381Y-69735942D02*
X97845762Y-69688323D01*
X97845762Y-69688323D02*
X97798143Y-69593085D01*
X97798143Y-69593085D02*
X97798143Y-69497847D01*
X97798143Y-69497847D02*
X97845762Y-69402609D01*
X97845762Y-69402609D02*
X97893381Y-69354990D01*
X97893381Y-69354990D02*
X97988619Y-69307371D01*
X97988619Y-69307371D02*
X98226714Y-69307371D01*
X98226714Y-69307371D02*
X98369571Y-69354990D01*
X98798143Y-70307371D02*
X98798143Y-69307371D01*
X98798143Y-69307371D02*
X99179095Y-69307371D01*
X99179095Y-69307371D02*
X99274333Y-69354990D01*
X99274333Y-69354990D02*
X99321952Y-69402609D01*
X99321952Y-69402609D02*
X99369571Y-69497847D01*
X99369571Y-69497847D02*
X99369571Y-69640704D01*
X99369571Y-69640704D02*
X99321952Y-69735942D01*
X99321952Y-69735942D02*
X99274333Y-69783561D01*
X99274333Y-69783561D02*
X99179095Y-69831180D01*
X99179095Y-69831180D02*
X98798143Y-69831180D01*
X99798143Y-70307371D02*
X99798143Y-69307371D01*
X100274333Y-69926418D02*
X101036238Y-69926418D01*
X100655285Y-70307371D02*
X100655285Y-69545466D01*
X102663714Y-56427819D02*
X102663714Y-57142104D01*
X102663714Y-57142104D02*
X102616095Y-57284961D01*
X102616095Y-57284961D02*
X102520857Y-57380200D01*
X102520857Y-57380200D02*
X102378000Y-57427819D01*
X102378000Y-57427819D02*
X102282762Y-57427819D01*
X103092286Y-56523057D02*
X103139905Y-56475438D01*
X103139905Y-56475438D02*
X103235143Y-56427819D01*
X103235143Y-56427819D02*
X103473238Y-56427819D01*
X103473238Y-56427819D02*
X103568476Y-56475438D01*
X103568476Y-56475438D02*
X103616095Y-56523057D01*
X103616095Y-56523057D02*
X103663714Y-56618295D01*
X103663714Y-56618295D02*
X103663714Y-56713533D01*
X103663714Y-56713533D02*
X103616095Y-56856390D01*
X103616095Y-56856390D02*
X103044667Y-57427819D01*
X103044667Y-57427819D02*
X103663714Y-57427819D01*
X102616095Y-58085382D02*
X102520857Y-58037763D01*
X102520857Y-58037763D02*
X102378000Y-58037763D01*
X102378000Y-58037763D02*
X102235143Y-58085382D01*
X102235143Y-58085382D02*
X102139905Y-58180620D01*
X102139905Y-58180620D02*
X102092286Y-58275858D01*
X102092286Y-58275858D02*
X102044667Y-58466334D01*
X102044667Y-58466334D02*
X102044667Y-58609191D01*
X102044667Y-58609191D02*
X102092286Y-58799667D01*
X102092286Y-58799667D02*
X102139905Y-58894905D01*
X102139905Y-58894905D02*
X102235143Y-58990144D01*
X102235143Y-58990144D02*
X102378000Y-59037763D01*
X102378000Y-59037763D02*
X102473238Y-59037763D01*
X102473238Y-59037763D02*
X102616095Y-58990144D01*
X102616095Y-58990144D02*
X102663714Y-58942524D01*
X102663714Y-58942524D02*
X102663714Y-58609191D01*
X102663714Y-58609191D02*
X102473238Y-58609191D01*
X103092286Y-59037763D02*
X103092286Y-58037763D01*
X103092286Y-58037763D02*
X103663714Y-59037763D01*
X103663714Y-59037763D02*
X103663714Y-58037763D01*
X104139905Y-59037763D02*
X104139905Y-58037763D01*
X104139905Y-58037763D02*
X104378000Y-58037763D01*
X104378000Y-58037763D02*
X104520857Y-58085382D01*
X104520857Y-58085382D02*
X104616095Y-58180620D01*
X104616095Y-58180620D02*
X104663714Y-58275858D01*
X104663714Y-58275858D02*
X104711333Y-58466334D01*
X104711333Y-58466334D02*
X104711333Y-58609191D01*
X104711333Y-58609191D02*
X104663714Y-58799667D01*
X104663714Y-58799667D02*
X104616095Y-58894905D01*
X104616095Y-58894905D02*
X104520857Y-58990144D01*
X104520857Y-58990144D02*
X104378000Y-59037763D01*
X104378000Y-59037763D02*
X104139905Y-59037763D01*
X103187523Y-59647707D02*
X102711333Y-59647707D01*
X102711333Y-59647707D02*
X102663714Y-60123897D01*
X102663714Y-60123897D02*
X102711333Y-60076278D01*
X102711333Y-60076278D02*
X102806571Y-60028659D01*
X102806571Y-60028659D02*
X103044666Y-60028659D01*
X103044666Y-60028659D02*
X103139904Y-60076278D01*
X103139904Y-60076278D02*
X103187523Y-60123897D01*
X103187523Y-60123897D02*
X103235142Y-60219135D01*
X103235142Y-60219135D02*
X103235142Y-60457230D01*
X103235142Y-60457230D02*
X103187523Y-60552468D01*
X103187523Y-60552468D02*
X103139904Y-60600088D01*
X103139904Y-60600088D02*
X103044666Y-60647707D01*
X103044666Y-60647707D02*
X102806571Y-60647707D01*
X102806571Y-60647707D02*
X102711333Y-60600088D01*
X102711333Y-60600088D02*
X102663714Y-60552468D01*
X103520857Y-59647707D02*
X103854190Y-60647707D01*
X103854190Y-60647707D02*
X104187523Y-59647707D01*
X101973238Y-62210032D02*
X102116095Y-62257651D01*
X102116095Y-62257651D02*
X102354190Y-62257651D01*
X102354190Y-62257651D02*
X102449428Y-62210032D01*
X102449428Y-62210032D02*
X102497047Y-62162412D01*
X102497047Y-62162412D02*
X102544666Y-62067174D01*
X102544666Y-62067174D02*
X102544666Y-61971936D01*
X102544666Y-61971936D02*
X102497047Y-61876698D01*
X102497047Y-61876698D02*
X102449428Y-61829079D01*
X102449428Y-61829079D02*
X102354190Y-61781460D01*
X102354190Y-61781460D02*
X102163714Y-61733841D01*
X102163714Y-61733841D02*
X102068476Y-61686222D01*
X102068476Y-61686222D02*
X102020857Y-61638603D01*
X102020857Y-61638603D02*
X101973238Y-61543365D01*
X101973238Y-61543365D02*
X101973238Y-61448127D01*
X101973238Y-61448127D02*
X102020857Y-61352889D01*
X102020857Y-61352889D02*
X102068476Y-61305270D01*
X102068476Y-61305270D02*
X102163714Y-61257651D01*
X102163714Y-61257651D02*
X102401809Y-61257651D01*
X102401809Y-61257651D02*
X102544666Y-61305270D01*
X103306571Y-61733841D02*
X103449428Y-61781460D01*
X103449428Y-61781460D02*
X103497047Y-61829079D01*
X103497047Y-61829079D02*
X103544666Y-61924317D01*
X103544666Y-61924317D02*
X103544666Y-62067174D01*
X103544666Y-62067174D02*
X103497047Y-62162412D01*
X103497047Y-62162412D02*
X103449428Y-62210032D01*
X103449428Y-62210032D02*
X103354190Y-62257651D01*
X103354190Y-62257651D02*
X102973238Y-62257651D01*
X102973238Y-62257651D02*
X102973238Y-61257651D01*
X102973238Y-61257651D02*
X103306571Y-61257651D01*
X103306571Y-61257651D02*
X103401809Y-61305270D01*
X103401809Y-61305270D02*
X103449428Y-61352889D01*
X103449428Y-61352889D02*
X103497047Y-61448127D01*
X103497047Y-61448127D02*
X103497047Y-61543365D01*
X103497047Y-61543365D02*
X103449428Y-61638603D01*
X103449428Y-61638603D02*
X103401809Y-61686222D01*
X103401809Y-61686222D02*
X103306571Y-61733841D01*
X103306571Y-61733841D02*
X102973238Y-61733841D01*
X103973238Y-61257651D02*
X103973238Y-62067174D01*
X103973238Y-62067174D02*
X104020857Y-62162412D01*
X104020857Y-62162412D02*
X104068476Y-62210032D01*
X104068476Y-62210032D02*
X104163714Y-62257651D01*
X104163714Y-62257651D02*
X104354190Y-62257651D01*
X104354190Y-62257651D02*
X104449428Y-62210032D01*
X104449428Y-62210032D02*
X104497047Y-62162412D01*
X104497047Y-62162412D02*
X104544666Y-62067174D01*
X104544666Y-62067174D02*
X104544666Y-61257651D01*
X104973238Y-62210032D02*
X105116095Y-62257651D01*
X105116095Y-62257651D02*
X105354190Y-62257651D01*
X105354190Y-62257651D02*
X105449428Y-62210032D01*
X105449428Y-62210032D02*
X105497047Y-62162412D01*
X105497047Y-62162412D02*
X105544666Y-62067174D01*
X105544666Y-62067174D02*
X105544666Y-61971936D01*
X105544666Y-61971936D02*
X105497047Y-61876698D01*
X105497047Y-61876698D02*
X105449428Y-61829079D01*
X105449428Y-61829079D02*
X105354190Y-61781460D01*
X105354190Y-61781460D02*
X105163714Y-61733841D01*
X105163714Y-61733841D02*
X105068476Y-61686222D01*
X105068476Y-61686222D02*
X105020857Y-61638603D01*
X105020857Y-61638603D02*
X104973238Y-61543365D01*
X104973238Y-61543365D02*
X104973238Y-61448127D01*
X104973238Y-61448127D02*
X105020857Y-61352889D01*
X105020857Y-61352889D02*
X105068476Y-61305270D01*
X105068476Y-61305270D02*
X105163714Y-61257651D01*
X105163714Y-61257651D02*
X105401809Y-61257651D01*
X105401809Y-61257651D02*
X105544666Y-61305270D01*
X103378000Y-63772356D02*
X103425619Y-63819976D01*
X103425619Y-63819976D02*
X103378000Y-63867595D01*
X103378000Y-63867595D02*
X103330381Y-63819976D01*
X103330381Y-63819976D02*
X103378000Y-63772356D01*
X103378000Y-63772356D02*
X103378000Y-63867595D01*
X103378000Y-65382300D02*
X103425619Y-65429920D01*
X103425619Y-65429920D02*
X103378000Y-65477539D01*
X103378000Y-65477539D02*
X103330381Y-65429920D01*
X103330381Y-65429920D02*
X103378000Y-65382300D01*
X103378000Y-65382300D02*
X103378000Y-65477539D01*
X103378000Y-66992244D02*
X103425619Y-67039864D01*
X103425619Y-67039864D02*
X103378000Y-67087483D01*
X103378000Y-67087483D02*
X103330381Y-67039864D01*
X103330381Y-67039864D02*
X103378000Y-66992244D01*
X103378000Y-66992244D02*
X103378000Y-67087483D01*
X103378000Y-68602188D02*
X103425619Y-68649808D01*
X103425619Y-68649808D02*
X103378000Y-68697427D01*
X103378000Y-68697427D02*
X103330381Y-68649808D01*
X103330381Y-68649808D02*
X103378000Y-68602188D01*
X103378000Y-68602188D02*
X103378000Y-68697427D01*
X103378000Y-70212132D02*
X103425619Y-70259752D01*
X103425619Y-70259752D02*
X103378000Y-70307371D01*
X103378000Y-70307371D02*
X103330381Y-70259752D01*
X103330381Y-70259752D02*
X103378000Y-70212132D01*
X103378000Y-70212132D02*
X103378000Y-70307371D01*
X125746095Y-76831866D02*
X126508000Y-76831866D01*
X126127047Y-77212819D02*
X126127047Y-76450914D01*
X128508000Y-76831866D02*
X129269905Y-76831866D01*
X89027095Y-83155819D02*
X89027095Y-83965342D01*
X89027095Y-83965342D02*
X89074714Y-84060580D01*
X89074714Y-84060580D02*
X89122333Y-84108200D01*
X89122333Y-84108200D02*
X89217571Y-84155819D01*
X89217571Y-84155819D02*
X89408047Y-84155819D01*
X89408047Y-84155819D02*
X89503285Y-84108200D01*
X89503285Y-84108200D02*
X89550904Y-84060580D01*
X89550904Y-84060580D02*
X89598523Y-83965342D01*
X89598523Y-83965342D02*
X89598523Y-83155819D01*
X90503285Y-83155819D02*
X90312809Y-83155819D01*
X90312809Y-83155819D02*
X90217571Y-83203438D01*
X90217571Y-83203438D02*
X90169952Y-83251057D01*
X90169952Y-83251057D02*
X90074714Y-83393914D01*
X90074714Y-83393914D02*
X90027095Y-83584390D01*
X90027095Y-83584390D02*
X90027095Y-83965342D01*
X90027095Y-83965342D02*
X90074714Y-84060580D01*
X90074714Y-84060580D02*
X90122333Y-84108200D01*
X90122333Y-84108200D02*
X90217571Y-84155819D01*
X90217571Y-84155819D02*
X90408047Y-84155819D01*
X90408047Y-84155819D02*
X90503285Y-84108200D01*
X90503285Y-84108200D02*
X90550904Y-84060580D01*
X90550904Y-84060580D02*
X90598523Y-83965342D01*
X90598523Y-83965342D02*
X90598523Y-83727247D01*
X90598523Y-83727247D02*
X90550904Y-83632009D01*
X90550904Y-83632009D02*
X90503285Y-83584390D01*
X90503285Y-83584390D02*
X90408047Y-83536771D01*
X90408047Y-83536771D02*
X90217571Y-83536771D01*
X90217571Y-83536771D02*
X90122333Y-83584390D01*
X90122333Y-83584390D02*
X90074714Y-83632009D01*
X90074714Y-83632009D02*
X90027095Y-83727247D01*
X113442761Y-63047057D02*
X113347523Y-62999438D01*
X113347523Y-62999438D02*
X113252285Y-62904200D01*
X113252285Y-62904200D02*
X113109428Y-62761342D01*
X113109428Y-62761342D02*
X113014190Y-62713723D01*
X113014190Y-62713723D02*
X112918952Y-62713723D01*
X112966571Y-62951819D02*
X112871333Y-62904200D01*
X112871333Y-62904200D02*
X112776095Y-62808961D01*
X112776095Y-62808961D02*
X112728476Y-62618485D01*
X112728476Y-62618485D02*
X112728476Y-62285152D01*
X112728476Y-62285152D02*
X112776095Y-62094676D01*
X112776095Y-62094676D02*
X112871333Y-61999438D01*
X112871333Y-61999438D02*
X112966571Y-61951819D01*
X112966571Y-61951819D02*
X113157047Y-61951819D01*
X113157047Y-61951819D02*
X113252285Y-61999438D01*
X113252285Y-61999438D02*
X113347523Y-62094676D01*
X113347523Y-62094676D02*
X113395142Y-62285152D01*
X113395142Y-62285152D02*
X113395142Y-62618485D01*
X113395142Y-62618485D02*
X113347523Y-62808961D01*
X113347523Y-62808961D02*
X113252285Y-62904200D01*
X113252285Y-62904200D02*
X113157047Y-62951819D01*
X113157047Y-62951819D02*
X112966571Y-62951819D01*
X113776095Y-62047057D02*
X113823714Y-61999438D01*
X113823714Y-61999438D02*
X113918952Y-61951819D01*
X113918952Y-61951819D02*
X114157047Y-61951819D01*
X114157047Y-61951819D02*
X114252285Y-61999438D01*
X114252285Y-61999438D02*
X114299904Y-62047057D01*
X114299904Y-62047057D02*
X114347523Y-62142295D01*
X114347523Y-62142295D02*
X114347523Y-62237533D01*
X114347523Y-62237533D02*
X114299904Y-62380390D01*
X114299904Y-62380390D02*
X113728476Y-62951819D01*
X113728476Y-62951819D02*
X114347523Y-62951819D01*
X112863333Y-90497819D02*
X112530000Y-90021628D01*
X112291905Y-90497819D02*
X112291905Y-89497819D01*
X112291905Y-89497819D02*
X112672857Y-89497819D01*
X112672857Y-89497819D02*
X112768095Y-89545438D01*
X112768095Y-89545438D02*
X112815714Y-89593057D01*
X112815714Y-89593057D02*
X112863333Y-89688295D01*
X112863333Y-89688295D02*
X112863333Y-89831152D01*
X112863333Y-89831152D02*
X112815714Y-89926390D01*
X112815714Y-89926390D02*
X112768095Y-89974009D01*
X112768095Y-89974009D02*
X112672857Y-90021628D01*
X112672857Y-90021628D02*
X112291905Y-90021628D01*
X113339524Y-90497819D02*
X113530000Y-90497819D01*
X113530000Y-90497819D02*
X113625238Y-90450200D01*
X113625238Y-90450200D02*
X113672857Y-90402580D01*
X113672857Y-90402580D02*
X113768095Y-90259723D01*
X113768095Y-90259723D02*
X113815714Y-90069247D01*
X113815714Y-90069247D02*
X113815714Y-89688295D01*
X113815714Y-89688295D02*
X113768095Y-89593057D01*
X113768095Y-89593057D02*
X113720476Y-89545438D01*
X113720476Y-89545438D02*
X113625238Y-89497819D01*
X113625238Y-89497819D02*
X113434762Y-89497819D01*
X113434762Y-89497819D02*
X113339524Y-89545438D01*
X113339524Y-89545438D02*
X113291905Y-89593057D01*
X113291905Y-89593057D02*
X113244286Y-89688295D01*
X113244286Y-89688295D02*
X113244286Y-89926390D01*
X113244286Y-89926390D02*
X113291905Y-90021628D01*
X113291905Y-90021628D02*
X113339524Y-90069247D01*
X113339524Y-90069247D02*
X113434762Y-90116866D01*
X113434762Y-90116866D02*
X113625238Y-90116866D01*
X113625238Y-90116866D02*
X113720476Y-90069247D01*
X113720476Y-90069247D02*
X113768095Y-90021628D01*
X113768095Y-90021628D02*
X113815714Y-89926390D01*
X112976819Y-85224857D02*
X112500628Y-85558190D01*
X112976819Y-85796285D02*
X111976819Y-85796285D01*
X111976819Y-85796285D02*
X111976819Y-85415333D01*
X111976819Y-85415333D02*
X112024438Y-85320095D01*
X112024438Y-85320095D02*
X112072057Y-85272476D01*
X112072057Y-85272476D02*
X112167295Y-85224857D01*
X112167295Y-85224857D02*
X112310152Y-85224857D01*
X112310152Y-85224857D02*
X112405390Y-85272476D01*
X112405390Y-85272476D02*
X112453009Y-85320095D01*
X112453009Y-85320095D02*
X112500628Y-85415333D01*
X112500628Y-85415333D02*
X112500628Y-85796285D01*
X112976819Y-84272476D02*
X112976819Y-84843904D01*
X112976819Y-84558190D02*
X111976819Y-84558190D01*
X111976819Y-84558190D02*
X112119676Y-84653428D01*
X112119676Y-84653428D02*
X112214914Y-84748666D01*
X112214914Y-84748666D02*
X112262533Y-84843904D01*
X111976819Y-83653428D02*
X111976819Y-83558190D01*
X111976819Y-83558190D02*
X112024438Y-83462952D01*
X112024438Y-83462952D02*
X112072057Y-83415333D01*
X112072057Y-83415333D02*
X112167295Y-83367714D01*
X112167295Y-83367714D02*
X112357771Y-83320095D01*
X112357771Y-83320095D02*
X112595866Y-83320095D01*
X112595866Y-83320095D02*
X112786342Y-83367714D01*
X112786342Y-83367714D02*
X112881580Y-83415333D01*
X112881580Y-83415333D02*
X112929200Y-83462952D01*
X112929200Y-83462952D02*
X112976819Y-83558190D01*
X112976819Y-83558190D02*
X112976819Y-83653428D01*
X112976819Y-83653428D02*
X112929200Y-83748666D01*
X112929200Y-83748666D02*
X112881580Y-83796285D01*
X112881580Y-83796285D02*
X112786342Y-83843904D01*
X112786342Y-83843904D02*
X112595866Y-83891523D01*
X112595866Y-83891523D02*
X112357771Y-83891523D01*
X112357771Y-83891523D02*
X112167295Y-83843904D01*
X112167295Y-83843904D02*
X112072057Y-83796285D01*
X112072057Y-83796285D02*
X112024438Y-83748666D01*
X112024438Y-83748666D02*
X111976819Y-83653428D01*
X104044761Y-79938057D02*
X103949523Y-79890438D01*
X103949523Y-79890438D02*
X103854285Y-79795200D01*
X103854285Y-79795200D02*
X103711428Y-79652342D01*
X103711428Y-79652342D02*
X103616190Y-79604723D01*
X103616190Y-79604723D02*
X103520952Y-79604723D01*
X103568571Y-79842819D02*
X103473333Y-79795200D01*
X103473333Y-79795200D02*
X103378095Y-79699961D01*
X103378095Y-79699961D02*
X103330476Y-79509485D01*
X103330476Y-79509485D02*
X103330476Y-79176152D01*
X103330476Y-79176152D02*
X103378095Y-78985676D01*
X103378095Y-78985676D02*
X103473333Y-78890438D01*
X103473333Y-78890438D02*
X103568571Y-78842819D01*
X103568571Y-78842819D02*
X103759047Y-78842819D01*
X103759047Y-78842819D02*
X103854285Y-78890438D01*
X103854285Y-78890438D02*
X103949523Y-78985676D01*
X103949523Y-78985676D02*
X103997142Y-79176152D01*
X103997142Y-79176152D02*
X103997142Y-79509485D01*
X103997142Y-79509485D02*
X103949523Y-79699961D01*
X103949523Y-79699961D02*
X103854285Y-79795200D01*
X103854285Y-79795200D02*
X103759047Y-79842819D01*
X103759047Y-79842819D02*
X103568571Y-79842819D01*
X104330476Y-78842819D02*
X104949523Y-78842819D01*
X104949523Y-78842819D02*
X104616190Y-79223771D01*
X104616190Y-79223771D02*
X104759047Y-79223771D01*
X104759047Y-79223771D02*
X104854285Y-79271390D01*
X104854285Y-79271390D02*
X104901904Y-79319009D01*
X104901904Y-79319009D02*
X104949523Y-79414247D01*
X104949523Y-79414247D02*
X104949523Y-79652342D01*
X104949523Y-79652342D02*
X104901904Y-79747580D01*
X104901904Y-79747580D02*
X104854285Y-79795200D01*
X104854285Y-79795200D02*
X104759047Y-79842819D01*
X104759047Y-79842819D02*
X104473333Y-79842819D01*
X104473333Y-79842819D02*
X104378095Y-79795200D01*
X104378095Y-79795200D02*
X104330476Y-79747580D01*
X113611819Y-93225857D02*
X113135628Y-93559190D01*
X113611819Y-93797285D02*
X112611819Y-93797285D01*
X112611819Y-93797285D02*
X112611819Y-93416333D01*
X112611819Y-93416333D02*
X112659438Y-93321095D01*
X112659438Y-93321095D02*
X112707057Y-93273476D01*
X112707057Y-93273476D02*
X112802295Y-93225857D01*
X112802295Y-93225857D02*
X112945152Y-93225857D01*
X112945152Y-93225857D02*
X113040390Y-93273476D01*
X113040390Y-93273476D02*
X113088009Y-93321095D01*
X113088009Y-93321095D02*
X113135628Y-93416333D01*
X113135628Y-93416333D02*
X113135628Y-93797285D01*
X113611819Y-92273476D02*
X113611819Y-92844904D01*
X113611819Y-92559190D02*
X112611819Y-92559190D01*
X112611819Y-92559190D02*
X112754676Y-92654428D01*
X112754676Y-92654428D02*
X112849914Y-92749666D01*
X112849914Y-92749666D02*
X112897533Y-92844904D01*
X112611819Y-91940142D02*
X112611819Y-91321095D01*
X112611819Y-91321095D02*
X112992771Y-91654428D01*
X112992771Y-91654428D02*
X112992771Y-91511571D01*
X112992771Y-91511571D02*
X113040390Y-91416333D01*
X113040390Y-91416333D02*
X113088009Y-91368714D01*
X113088009Y-91368714D02*
X113183247Y-91321095D01*
X113183247Y-91321095D02*
X113421342Y-91321095D01*
X113421342Y-91321095D02*
X113516580Y-91368714D01*
X113516580Y-91368714D02*
X113564200Y-91416333D01*
X113564200Y-91416333D02*
X113611819Y-91511571D01*
X113611819Y-91511571D02*
X113611819Y-91797285D01*
X113611819Y-91797285D02*
X113564200Y-91892523D01*
X113564200Y-91892523D02*
X113516580Y-91940142D01*
X113484819Y-82208666D02*
X113008628Y-82541999D01*
X113484819Y-82780094D02*
X112484819Y-82780094D01*
X112484819Y-82780094D02*
X112484819Y-82399142D01*
X112484819Y-82399142D02*
X112532438Y-82303904D01*
X112532438Y-82303904D02*
X112580057Y-82256285D01*
X112580057Y-82256285D02*
X112675295Y-82208666D01*
X112675295Y-82208666D02*
X112818152Y-82208666D01*
X112818152Y-82208666D02*
X112913390Y-82256285D01*
X112913390Y-82256285D02*
X112961009Y-82303904D01*
X112961009Y-82303904D02*
X113008628Y-82399142D01*
X113008628Y-82399142D02*
X113008628Y-82780094D01*
X112913390Y-81637237D02*
X112865771Y-81732475D01*
X112865771Y-81732475D02*
X112818152Y-81780094D01*
X112818152Y-81780094D02*
X112722914Y-81827713D01*
X112722914Y-81827713D02*
X112675295Y-81827713D01*
X112675295Y-81827713D02*
X112580057Y-81780094D01*
X112580057Y-81780094D02*
X112532438Y-81732475D01*
X112532438Y-81732475D02*
X112484819Y-81637237D01*
X112484819Y-81637237D02*
X112484819Y-81446761D01*
X112484819Y-81446761D02*
X112532438Y-81351523D01*
X112532438Y-81351523D02*
X112580057Y-81303904D01*
X112580057Y-81303904D02*
X112675295Y-81256285D01*
X112675295Y-81256285D02*
X112722914Y-81256285D01*
X112722914Y-81256285D02*
X112818152Y-81303904D01*
X112818152Y-81303904D02*
X112865771Y-81351523D01*
X112865771Y-81351523D02*
X112913390Y-81446761D01*
X112913390Y-81446761D02*
X112913390Y-81637237D01*
X112913390Y-81637237D02*
X112961009Y-81732475D01*
X112961009Y-81732475D02*
X113008628Y-81780094D01*
X113008628Y-81780094D02*
X113103866Y-81827713D01*
X113103866Y-81827713D02*
X113294342Y-81827713D01*
X113294342Y-81827713D02*
X113389580Y-81780094D01*
X113389580Y-81780094D02*
X113437200Y-81732475D01*
X113437200Y-81732475D02*
X113484819Y-81637237D01*
X113484819Y-81637237D02*
X113484819Y-81446761D01*
X113484819Y-81446761D02*
X113437200Y-81351523D01*
X113437200Y-81351523D02*
X113389580Y-81303904D01*
X113389580Y-81303904D02*
X113294342Y-81256285D01*
X113294342Y-81256285D02*
X113103866Y-81256285D01*
X113103866Y-81256285D02*
X113008628Y-81303904D01*
X113008628Y-81303904D02*
X112961009Y-81351523D01*
X112961009Y-81351523D02*
X112913390Y-81446761D01*
X68159333Y-90116819D02*
X67826000Y-89640628D01*
X67587905Y-90116819D02*
X67587905Y-89116819D01*
X67587905Y-89116819D02*
X67968857Y-89116819D01*
X67968857Y-89116819D02*
X68064095Y-89164438D01*
X68064095Y-89164438D02*
X68111714Y-89212057D01*
X68111714Y-89212057D02*
X68159333Y-89307295D01*
X68159333Y-89307295D02*
X68159333Y-89450152D01*
X68159333Y-89450152D02*
X68111714Y-89545390D01*
X68111714Y-89545390D02*
X68064095Y-89593009D01*
X68064095Y-89593009D02*
X67968857Y-89640628D01*
X67968857Y-89640628D02*
X67587905Y-89640628D01*
X69111714Y-90116819D02*
X68540286Y-90116819D01*
X68826000Y-90116819D02*
X68826000Y-89116819D01*
X68826000Y-89116819D02*
X68730762Y-89259676D01*
X68730762Y-89259676D02*
X68635524Y-89354914D01*
X68635524Y-89354914D02*
X68540286Y-89402533D01*
X70318333Y-59668580D02*
X70270714Y-59716200D01*
X70270714Y-59716200D02*
X70127857Y-59763819D01*
X70127857Y-59763819D02*
X70032619Y-59763819D01*
X70032619Y-59763819D02*
X69889762Y-59716200D01*
X69889762Y-59716200D02*
X69794524Y-59620961D01*
X69794524Y-59620961D02*
X69746905Y-59525723D01*
X69746905Y-59525723D02*
X69699286Y-59335247D01*
X69699286Y-59335247D02*
X69699286Y-59192390D01*
X69699286Y-59192390D02*
X69746905Y-59001914D01*
X69746905Y-59001914D02*
X69794524Y-58906676D01*
X69794524Y-58906676D02*
X69889762Y-58811438D01*
X69889762Y-58811438D02*
X70032619Y-58763819D01*
X70032619Y-58763819D02*
X70127857Y-58763819D01*
X70127857Y-58763819D02*
X70270714Y-58811438D01*
X70270714Y-58811438D02*
X70318333Y-58859057D01*
X70651667Y-58763819D02*
X71270714Y-58763819D01*
X71270714Y-58763819D02*
X70937381Y-59144771D01*
X70937381Y-59144771D02*
X71080238Y-59144771D01*
X71080238Y-59144771D02*
X71175476Y-59192390D01*
X71175476Y-59192390D02*
X71223095Y-59240009D01*
X71223095Y-59240009D02*
X71270714Y-59335247D01*
X71270714Y-59335247D02*
X71270714Y-59573342D01*
X71270714Y-59573342D02*
X71223095Y-59668580D01*
X71223095Y-59668580D02*
X71175476Y-59716200D01*
X71175476Y-59716200D02*
X71080238Y-59763819D01*
X71080238Y-59763819D02*
X70794524Y-59763819D01*
X70794524Y-59763819D02*
X70699286Y-59716200D01*
X70699286Y-59716200D02*
X70651667Y-59668580D01*
X67272819Y-65785904D02*
X68082342Y-65785904D01*
X68082342Y-65785904D02*
X68177580Y-65738285D01*
X68177580Y-65738285D02*
X68225200Y-65690666D01*
X68225200Y-65690666D02*
X68272819Y-65595428D01*
X68272819Y-65595428D02*
X68272819Y-65404952D01*
X68272819Y-65404952D02*
X68225200Y-65309714D01*
X68225200Y-65309714D02*
X68177580Y-65262095D01*
X68177580Y-65262095D02*
X68082342Y-65214476D01*
X68082342Y-65214476D02*
X67272819Y-65214476D01*
X67272819Y-64262095D02*
X67272819Y-64738285D01*
X67272819Y-64738285D02*
X67749009Y-64785904D01*
X67749009Y-64785904D02*
X67701390Y-64738285D01*
X67701390Y-64738285D02*
X67653771Y-64643047D01*
X67653771Y-64643047D02*
X67653771Y-64404952D01*
X67653771Y-64404952D02*
X67701390Y-64309714D01*
X67701390Y-64309714D02*
X67749009Y-64262095D01*
X67749009Y-64262095D02*
X67844247Y-64214476D01*
X67844247Y-64214476D02*
X68082342Y-64214476D01*
X68082342Y-64214476D02*
X68177580Y-64262095D01*
X68177580Y-64262095D02*
X68225200Y-64309714D01*
X68225200Y-64309714D02*
X68272819Y-64404952D01*
X68272819Y-64404952D02*
X68272819Y-64643047D01*
X68272819Y-64643047D02*
X68225200Y-64738285D01*
X68225200Y-64738285D02*
X68177580Y-64785904D01*
X76708095Y-72352819D02*
X76708095Y-73162342D01*
X76708095Y-73162342D02*
X76755714Y-73257580D01*
X76755714Y-73257580D02*
X76803333Y-73305200D01*
X76803333Y-73305200D02*
X76898571Y-73352819D01*
X76898571Y-73352819D02*
X77089047Y-73352819D01*
X77089047Y-73352819D02*
X77184285Y-73305200D01*
X77184285Y-73305200D02*
X77231904Y-73257580D01*
X77231904Y-73257580D02*
X77279523Y-73162342D01*
X77279523Y-73162342D02*
X77279523Y-72352819D01*
X78279523Y-73352819D02*
X77708095Y-73352819D01*
X77993809Y-73352819D02*
X77993809Y-72352819D01*
X77993809Y-72352819D02*
X77898571Y-72495676D01*
X77898571Y-72495676D02*
X77803333Y-72590914D01*
X77803333Y-72590914D02*
X77708095Y-72638533D01*
X106727666Y-78829819D02*
X106727666Y-79544104D01*
X106727666Y-79544104D02*
X106680047Y-79686961D01*
X106680047Y-79686961D02*
X106584809Y-79782200D01*
X106584809Y-79782200D02*
X106441952Y-79829819D01*
X106441952Y-79829819D02*
X106346714Y-79829819D01*
X107632428Y-79163152D02*
X107632428Y-79829819D01*
X107394333Y-78782200D02*
X107156238Y-79496485D01*
X107156238Y-79496485D02*
X107775285Y-79496485D01*
X93515142Y-112368819D02*
X93181809Y-111892628D01*
X92943714Y-112368819D02*
X92943714Y-111368819D01*
X92943714Y-111368819D02*
X93324666Y-111368819D01*
X93324666Y-111368819D02*
X93419904Y-111416438D01*
X93419904Y-111416438D02*
X93467523Y-111464057D01*
X93467523Y-111464057D02*
X93515142Y-111559295D01*
X93515142Y-111559295D02*
X93515142Y-111702152D01*
X93515142Y-111702152D02*
X93467523Y-111797390D01*
X93467523Y-111797390D02*
X93419904Y-111845009D01*
X93419904Y-111845009D02*
X93324666Y-111892628D01*
X93324666Y-111892628D02*
X92943714Y-111892628D01*
X93896095Y-111464057D02*
X93943714Y-111416438D01*
X93943714Y-111416438D02*
X94038952Y-111368819D01*
X94038952Y-111368819D02*
X94277047Y-111368819D01*
X94277047Y-111368819D02*
X94372285Y-111416438D01*
X94372285Y-111416438D02*
X94419904Y-111464057D01*
X94419904Y-111464057D02*
X94467523Y-111559295D01*
X94467523Y-111559295D02*
X94467523Y-111654533D01*
X94467523Y-111654533D02*
X94419904Y-111797390D01*
X94419904Y-111797390D02*
X93848476Y-112368819D01*
X93848476Y-112368819D02*
X94467523Y-112368819D01*
X95324666Y-111368819D02*
X95134190Y-111368819D01*
X95134190Y-111368819D02*
X95038952Y-111416438D01*
X95038952Y-111416438D02*
X94991333Y-111464057D01*
X94991333Y-111464057D02*
X94896095Y-111606914D01*
X94896095Y-111606914D02*
X94848476Y-111797390D01*
X94848476Y-111797390D02*
X94848476Y-112178342D01*
X94848476Y-112178342D02*
X94896095Y-112273580D01*
X94896095Y-112273580D02*
X94943714Y-112321200D01*
X94943714Y-112321200D02*
X95038952Y-112368819D01*
X95038952Y-112368819D02*
X95229428Y-112368819D01*
X95229428Y-112368819D02*
X95324666Y-112321200D01*
X95324666Y-112321200D02*
X95372285Y-112273580D01*
X95372285Y-112273580D02*
X95419904Y-112178342D01*
X95419904Y-112178342D02*
X95419904Y-111940247D01*
X95419904Y-111940247D02*
X95372285Y-111845009D01*
X95372285Y-111845009D02*
X95324666Y-111797390D01*
X95324666Y-111797390D02*
X95229428Y-111749771D01*
X95229428Y-111749771D02*
X95038952Y-111749771D01*
X95038952Y-111749771D02*
X94943714Y-111797390D01*
X94943714Y-111797390D02*
X94896095Y-111845009D01*
X94896095Y-111845009D02*
X94848476Y-111940247D01*
X114982666Y-59779819D02*
X114982666Y-60494104D01*
X114982666Y-60494104D02*
X114935047Y-60636961D01*
X114935047Y-60636961D02*
X114839809Y-60732200D01*
X114839809Y-60732200D02*
X114696952Y-60779819D01*
X114696952Y-60779819D02*
X114601714Y-60779819D01*
X115935047Y-59779819D02*
X115458857Y-59779819D01*
X115458857Y-59779819D02*
X115411238Y-60256009D01*
X115411238Y-60256009D02*
X115458857Y-60208390D01*
X115458857Y-60208390D02*
X115554095Y-60160771D01*
X115554095Y-60160771D02*
X115792190Y-60160771D01*
X115792190Y-60160771D02*
X115887428Y-60208390D01*
X115887428Y-60208390D02*
X115935047Y-60256009D01*
X115935047Y-60256009D02*
X115982666Y-60351247D01*
X115982666Y-60351247D02*
X115982666Y-60589342D01*
X115982666Y-60589342D02*
X115935047Y-60684580D01*
X115935047Y-60684580D02*
X115887428Y-60732200D01*
X115887428Y-60732200D02*
X115792190Y-60779819D01*
X115792190Y-60779819D02*
X115554095Y-60779819D01*
X115554095Y-60779819D02*
X115458857Y-60732200D01*
X115458857Y-60732200D02*
X115411238Y-60684580D01*
X68159333Y-91513819D02*
X67826000Y-91037628D01*
X67587905Y-91513819D02*
X67587905Y-90513819D01*
X67587905Y-90513819D02*
X67968857Y-90513819D01*
X67968857Y-90513819D02*
X68064095Y-90561438D01*
X68064095Y-90561438D02*
X68111714Y-90609057D01*
X68111714Y-90609057D02*
X68159333Y-90704295D01*
X68159333Y-90704295D02*
X68159333Y-90847152D01*
X68159333Y-90847152D02*
X68111714Y-90942390D01*
X68111714Y-90942390D02*
X68064095Y-90990009D01*
X68064095Y-90990009D02*
X67968857Y-91037628D01*
X67968857Y-91037628D02*
X67587905Y-91037628D01*
X68540286Y-90609057D02*
X68587905Y-90561438D01*
X68587905Y-90561438D02*
X68683143Y-90513819D01*
X68683143Y-90513819D02*
X68921238Y-90513819D01*
X68921238Y-90513819D02*
X69016476Y-90561438D01*
X69016476Y-90561438D02*
X69064095Y-90609057D01*
X69064095Y-90609057D02*
X69111714Y-90704295D01*
X69111714Y-90704295D02*
X69111714Y-90799533D01*
X69111714Y-90799533D02*
X69064095Y-90942390D01*
X69064095Y-90942390D02*
X68492667Y-91513819D01*
X68492667Y-91513819D02*
X69111714Y-91513819D01*
X112680761Y-72432057D02*
X112585523Y-72384438D01*
X112585523Y-72384438D02*
X112490285Y-72289200D01*
X112490285Y-72289200D02*
X112347428Y-72146342D01*
X112347428Y-72146342D02*
X112252190Y-72098723D01*
X112252190Y-72098723D02*
X112156952Y-72098723D01*
X112204571Y-72336819D02*
X112109333Y-72289200D01*
X112109333Y-72289200D02*
X112014095Y-72193961D01*
X112014095Y-72193961D02*
X111966476Y-72003485D01*
X111966476Y-72003485D02*
X111966476Y-71670152D01*
X111966476Y-71670152D02*
X112014095Y-71479676D01*
X112014095Y-71479676D02*
X112109333Y-71384438D01*
X112109333Y-71384438D02*
X112204571Y-71336819D01*
X112204571Y-71336819D02*
X112395047Y-71336819D01*
X112395047Y-71336819D02*
X112490285Y-71384438D01*
X112490285Y-71384438D02*
X112585523Y-71479676D01*
X112585523Y-71479676D02*
X112633142Y-71670152D01*
X112633142Y-71670152D02*
X112633142Y-72003485D01*
X112633142Y-72003485D02*
X112585523Y-72193961D01*
X112585523Y-72193961D02*
X112490285Y-72289200D01*
X112490285Y-72289200D02*
X112395047Y-72336819D01*
X112395047Y-72336819D02*
X112204571Y-72336819D01*
X113537904Y-71336819D02*
X113061714Y-71336819D01*
X113061714Y-71336819D02*
X113014095Y-71813009D01*
X113014095Y-71813009D02*
X113061714Y-71765390D01*
X113061714Y-71765390D02*
X113156952Y-71717771D01*
X113156952Y-71717771D02*
X113395047Y-71717771D01*
X113395047Y-71717771D02*
X113490285Y-71765390D01*
X113490285Y-71765390D02*
X113537904Y-71813009D01*
X113537904Y-71813009D02*
X113585523Y-71908247D01*
X113585523Y-71908247D02*
X113585523Y-72146342D01*
X113585523Y-72146342D02*
X113537904Y-72241580D01*
X113537904Y-72241580D02*
X113490285Y-72289200D01*
X113490285Y-72289200D02*
X113395047Y-72336819D01*
X113395047Y-72336819D02*
X113156952Y-72336819D01*
X113156952Y-72336819D02*
X113061714Y-72289200D01*
X113061714Y-72289200D02*
X113014095Y-72241580D01*
X112569666Y-98768819D02*
X112569666Y-99483104D01*
X112569666Y-99483104D02*
X112522047Y-99625961D01*
X112522047Y-99625961D02*
X112426809Y-99721200D01*
X112426809Y-99721200D02*
X112283952Y-99768819D01*
X112283952Y-99768819D02*
X112188714Y-99768819D01*
X113474428Y-98768819D02*
X113283952Y-98768819D01*
X113283952Y-98768819D02*
X113188714Y-98816438D01*
X113188714Y-98816438D02*
X113141095Y-98864057D01*
X113141095Y-98864057D02*
X113045857Y-99006914D01*
X113045857Y-99006914D02*
X112998238Y-99197390D01*
X112998238Y-99197390D02*
X112998238Y-99578342D01*
X112998238Y-99578342D02*
X113045857Y-99673580D01*
X113045857Y-99673580D02*
X113093476Y-99721200D01*
X113093476Y-99721200D02*
X113188714Y-99768819D01*
X113188714Y-99768819D02*
X113379190Y-99768819D01*
X113379190Y-99768819D02*
X113474428Y-99721200D01*
X113474428Y-99721200D02*
X113522047Y-99673580D01*
X113522047Y-99673580D02*
X113569666Y-99578342D01*
X113569666Y-99578342D02*
X113569666Y-99340247D01*
X113569666Y-99340247D02*
X113522047Y-99245009D01*
X113522047Y-99245009D02*
X113474428Y-99197390D01*
X113474428Y-99197390D02*
X113379190Y-99149771D01*
X113379190Y-99149771D02*
X113188714Y-99149771D01*
X113188714Y-99149771D02*
X113093476Y-99197390D01*
X113093476Y-99197390D02*
X113045857Y-99245009D01*
X113045857Y-99245009D02*
X112998238Y-99340247D01*
X76668333Y-60017819D02*
X76192143Y-60017819D01*
X76192143Y-60017819D02*
X76192143Y-59017819D01*
X77525476Y-60017819D02*
X76954048Y-60017819D01*
X77239762Y-60017819D02*
X77239762Y-59017819D01*
X77239762Y-59017819D02*
X77144524Y-59160676D01*
X77144524Y-59160676D02*
X77049286Y-59255914D01*
X77049286Y-59255914D02*
X76954048Y-59303533D01*
X114315142Y-112218819D02*
X113981809Y-111742628D01*
X113743714Y-112218819D02*
X113743714Y-111218819D01*
X113743714Y-111218819D02*
X114124666Y-111218819D01*
X114124666Y-111218819D02*
X114219904Y-111266438D01*
X114219904Y-111266438D02*
X114267523Y-111314057D01*
X114267523Y-111314057D02*
X114315142Y-111409295D01*
X114315142Y-111409295D02*
X114315142Y-111552152D01*
X114315142Y-111552152D02*
X114267523Y-111647390D01*
X114267523Y-111647390D02*
X114219904Y-111695009D01*
X114219904Y-111695009D02*
X114124666Y-111742628D01*
X114124666Y-111742628D02*
X113743714Y-111742628D01*
X114696095Y-111314057D02*
X114743714Y-111266438D01*
X114743714Y-111266438D02*
X114838952Y-111218819D01*
X114838952Y-111218819D02*
X115077047Y-111218819D01*
X115077047Y-111218819D02*
X115172285Y-111266438D01*
X115172285Y-111266438D02*
X115219904Y-111314057D01*
X115219904Y-111314057D02*
X115267523Y-111409295D01*
X115267523Y-111409295D02*
X115267523Y-111504533D01*
X115267523Y-111504533D02*
X115219904Y-111647390D01*
X115219904Y-111647390D02*
X114648476Y-112218819D01*
X114648476Y-112218819D02*
X115267523Y-112218819D01*
X115743714Y-112218819D02*
X115934190Y-112218819D01*
X115934190Y-112218819D02*
X116029428Y-112171200D01*
X116029428Y-112171200D02*
X116077047Y-112123580D01*
X116077047Y-112123580D02*
X116172285Y-111980723D01*
X116172285Y-111980723D02*
X116219904Y-111790247D01*
X116219904Y-111790247D02*
X116219904Y-111409295D01*
X116219904Y-111409295D02*
X116172285Y-111314057D01*
X116172285Y-111314057D02*
X116124666Y-111266438D01*
X116124666Y-111266438D02*
X116029428Y-111218819D01*
X116029428Y-111218819D02*
X115838952Y-111218819D01*
X115838952Y-111218819D02*
X115743714Y-111266438D01*
X115743714Y-111266438D02*
X115696095Y-111314057D01*
X115696095Y-111314057D02*
X115648476Y-111409295D01*
X115648476Y-111409295D02*
X115648476Y-111647390D01*
X115648476Y-111647390D02*
X115696095Y-111742628D01*
X115696095Y-111742628D02*
X115743714Y-111790247D01*
X115743714Y-111790247D02*
X115838952Y-111837866D01*
X115838952Y-111837866D02*
X116029428Y-111837866D01*
X116029428Y-111837866D02*
X116124666Y-111790247D01*
X116124666Y-111790247D02*
X116172285Y-111742628D01*
X116172285Y-111742628D02*
X116219904Y-111647390D01*
X70572333Y-71098580D02*
X70524714Y-71146200D01*
X70524714Y-71146200D02*
X70381857Y-71193819D01*
X70381857Y-71193819D02*
X70286619Y-71193819D01*
X70286619Y-71193819D02*
X70143762Y-71146200D01*
X70143762Y-71146200D02*
X70048524Y-71050961D01*
X70048524Y-71050961D02*
X70000905Y-70955723D01*
X70000905Y-70955723D02*
X69953286Y-70765247D01*
X69953286Y-70765247D02*
X69953286Y-70622390D01*
X69953286Y-70622390D02*
X70000905Y-70431914D01*
X70000905Y-70431914D02*
X70048524Y-70336676D01*
X70048524Y-70336676D02*
X70143762Y-70241438D01*
X70143762Y-70241438D02*
X70286619Y-70193819D01*
X70286619Y-70193819D02*
X70381857Y-70193819D01*
X70381857Y-70193819D02*
X70524714Y-70241438D01*
X70524714Y-70241438D02*
X70572333Y-70289057D01*
X71524714Y-71193819D02*
X70953286Y-71193819D01*
X71239000Y-71193819D02*
X71239000Y-70193819D01*
X71239000Y-70193819D02*
X71143762Y-70336676D01*
X71143762Y-70336676D02*
X71048524Y-70431914D01*
X71048524Y-70431914D02*
X70953286Y-70479533D01*
X68159333Y-94561819D02*
X67826000Y-94085628D01*
X67587905Y-94561819D02*
X67587905Y-93561819D01*
X67587905Y-93561819D02*
X67968857Y-93561819D01*
X67968857Y-93561819D02*
X68064095Y-93609438D01*
X68064095Y-93609438D02*
X68111714Y-93657057D01*
X68111714Y-93657057D02*
X68159333Y-93752295D01*
X68159333Y-93752295D02*
X68159333Y-93895152D01*
X68159333Y-93895152D02*
X68111714Y-93990390D01*
X68111714Y-93990390D02*
X68064095Y-94038009D01*
X68064095Y-94038009D02*
X67968857Y-94085628D01*
X67968857Y-94085628D02*
X67587905Y-94085628D01*
X69016476Y-93895152D02*
X69016476Y-94561819D01*
X68778381Y-93514200D02*
X68540286Y-94228485D01*
X68540286Y-94228485D02*
X69159333Y-94228485D01*
X145481866Y-70837809D02*
X145481866Y-70075905D01*
X145862819Y-70456857D02*
X145100914Y-70456857D01*
X145481866Y-66552094D02*
X145481866Y-65790190D01*
X68159333Y-93037819D02*
X67826000Y-92561628D01*
X67587905Y-93037819D02*
X67587905Y-92037819D01*
X67587905Y-92037819D02*
X67968857Y-92037819D01*
X67968857Y-92037819D02*
X68064095Y-92085438D01*
X68064095Y-92085438D02*
X68111714Y-92133057D01*
X68111714Y-92133057D02*
X68159333Y-92228295D01*
X68159333Y-92228295D02*
X68159333Y-92371152D01*
X68159333Y-92371152D02*
X68111714Y-92466390D01*
X68111714Y-92466390D02*
X68064095Y-92514009D01*
X68064095Y-92514009D02*
X67968857Y-92561628D01*
X67968857Y-92561628D02*
X67587905Y-92561628D01*
X68492667Y-92037819D02*
X69111714Y-92037819D01*
X69111714Y-92037819D02*
X68778381Y-92418771D01*
X68778381Y-92418771D02*
X68921238Y-92418771D01*
X68921238Y-92418771D02*
X69016476Y-92466390D01*
X69016476Y-92466390D02*
X69064095Y-92514009D01*
X69064095Y-92514009D02*
X69111714Y-92609247D01*
X69111714Y-92609247D02*
X69111714Y-92847342D01*
X69111714Y-92847342D02*
X69064095Y-92942580D01*
X69064095Y-92942580D02*
X69016476Y-92990200D01*
X69016476Y-92990200D02*
X68921238Y-93037819D01*
X68921238Y-93037819D02*
X68635524Y-93037819D01*
X68635524Y-93037819D02*
X68540286Y-92990200D01*
X68540286Y-92990200D02*
X68492667Y-92942580D01*
X63115142Y-112468819D02*
X62781809Y-111992628D01*
X62543714Y-112468819D02*
X62543714Y-111468819D01*
X62543714Y-111468819D02*
X62924666Y-111468819D01*
X62924666Y-111468819D02*
X63019904Y-111516438D01*
X63019904Y-111516438D02*
X63067523Y-111564057D01*
X63067523Y-111564057D02*
X63115142Y-111659295D01*
X63115142Y-111659295D02*
X63115142Y-111802152D01*
X63115142Y-111802152D02*
X63067523Y-111897390D01*
X63067523Y-111897390D02*
X63019904Y-111945009D01*
X63019904Y-111945009D02*
X62924666Y-111992628D01*
X62924666Y-111992628D02*
X62543714Y-111992628D01*
X63496095Y-111564057D02*
X63543714Y-111516438D01*
X63543714Y-111516438D02*
X63638952Y-111468819D01*
X63638952Y-111468819D02*
X63877047Y-111468819D01*
X63877047Y-111468819D02*
X63972285Y-111516438D01*
X63972285Y-111516438D02*
X64019904Y-111564057D01*
X64019904Y-111564057D02*
X64067523Y-111659295D01*
X64067523Y-111659295D02*
X64067523Y-111754533D01*
X64067523Y-111754533D02*
X64019904Y-111897390D01*
X64019904Y-111897390D02*
X63448476Y-112468819D01*
X63448476Y-112468819D02*
X64067523Y-112468819D01*
X64448476Y-111564057D02*
X64496095Y-111516438D01*
X64496095Y-111516438D02*
X64591333Y-111468819D01*
X64591333Y-111468819D02*
X64829428Y-111468819D01*
X64829428Y-111468819D02*
X64924666Y-111516438D01*
X64924666Y-111516438D02*
X64972285Y-111564057D01*
X64972285Y-111564057D02*
X65019904Y-111659295D01*
X65019904Y-111659295D02*
X65019904Y-111754533D01*
X65019904Y-111754533D02*
X64972285Y-111897390D01*
X64972285Y-111897390D02*
X64400857Y-112468819D01*
X64400857Y-112468819D02*
X65019904Y-112468819D01*
X83415142Y-112218819D02*
X83081809Y-111742628D01*
X82843714Y-112218819D02*
X82843714Y-111218819D01*
X82843714Y-111218819D02*
X83224666Y-111218819D01*
X83224666Y-111218819D02*
X83319904Y-111266438D01*
X83319904Y-111266438D02*
X83367523Y-111314057D01*
X83367523Y-111314057D02*
X83415142Y-111409295D01*
X83415142Y-111409295D02*
X83415142Y-111552152D01*
X83415142Y-111552152D02*
X83367523Y-111647390D01*
X83367523Y-111647390D02*
X83319904Y-111695009D01*
X83319904Y-111695009D02*
X83224666Y-111742628D01*
X83224666Y-111742628D02*
X82843714Y-111742628D01*
X83796095Y-111314057D02*
X83843714Y-111266438D01*
X83843714Y-111266438D02*
X83938952Y-111218819D01*
X83938952Y-111218819D02*
X84177047Y-111218819D01*
X84177047Y-111218819D02*
X84272285Y-111266438D01*
X84272285Y-111266438D02*
X84319904Y-111314057D01*
X84319904Y-111314057D02*
X84367523Y-111409295D01*
X84367523Y-111409295D02*
X84367523Y-111504533D01*
X84367523Y-111504533D02*
X84319904Y-111647390D01*
X84319904Y-111647390D02*
X83748476Y-112218819D01*
X83748476Y-112218819D02*
X84367523Y-112218819D01*
X85272285Y-111218819D02*
X84796095Y-111218819D01*
X84796095Y-111218819D02*
X84748476Y-111695009D01*
X84748476Y-111695009D02*
X84796095Y-111647390D01*
X84796095Y-111647390D02*
X84891333Y-111599771D01*
X84891333Y-111599771D02*
X85129428Y-111599771D01*
X85129428Y-111599771D02*
X85224666Y-111647390D01*
X85224666Y-111647390D02*
X85272285Y-111695009D01*
X85272285Y-111695009D02*
X85319904Y-111790247D01*
X85319904Y-111790247D02*
X85319904Y-112028342D01*
X85319904Y-112028342D02*
X85272285Y-112123580D01*
X85272285Y-112123580D02*
X85224666Y-112171200D01*
X85224666Y-112171200D02*
X85129428Y-112218819D01*
X85129428Y-112218819D02*
X84891333Y-112218819D01*
X84891333Y-112218819D02*
X84796095Y-112171200D01*
X84796095Y-112171200D02*
X84748476Y-112123580D01*
X110146261Y-57332057D02*
X110051023Y-57284438D01*
X110051023Y-57284438D02*
X109955785Y-57189200D01*
X109955785Y-57189200D02*
X109812928Y-57046342D01*
X109812928Y-57046342D02*
X109717690Y-56998723D01*
X109717690Y-56998723D02*
X109622452Y-56998723D01*
X109670071Y-57236819D02*
X109574833Y-57189200D01*
X109574833Y-57189200D02*
X109479595Y-57093961D01*
X109479595Y-57093961D02*
X109431976Y-56903485D01*
X109431976Y-56903485D02*
X109431976Y-56570152D01*
X109431976Y-56570152D02*
X109479595Y-56379676D01*
X109479595Y-56379676D02*
X109574833Y-56284438D01*
X109574833Y-56284438D02*
X109670071Y-56236819D01*
X109670071Y-56236819D02*
X109860547Y-56236819D01*
X109860547Y-56236819D02*
X109955785Y-56284438D01*
X109955785Y-56284438D02*
X110051023Y-56379676D01*
X110051023Y-56379676D02*
X110098642Y-56570152D01*
X110098642Y-56570152D02*
X110098642Y-56903485D01*
X110098642Y-56903485D02*
X110051023Y-57093961D01*
X110051023Y-57093961D02*
X109955785Y-57189200D01*
X109955785Y-57189200D02*
X109860547Y-57236819D01*
X109860547Y-57236819D02*
X109670071Y-57236819D01*
X111051023Y-57236819D02*
X110479595Y-57236819D01*
X110765309Y-57236819D02*
X110765309Y-56236819D01*
X110765309Y-56236819D02*
X110670071Y-56379676D01*
X110670071Y-56379676D02*
X110574833Y-56474914D01*
X110574833Y-56474914D02*
X110479595Y-56522533D01*
X102917666Y-71209819D02*
X102917666Y-71924104D01*
X102917666Y-71924104D02*
X102870047Y-72066961D01*
X102870047Y-72066961D02*
X102774809Y-72162200D01*
X102774809Y-72162200D02*
X102631952Y-72209819D01*
X102631952Y-72209819D02*
X102536714Y-72209819D01*
X103298619Y-71209819D02*
X103917666Y-71209819D01*
X103917666Y-71209819D02*
X103584333Y-71590771D01*
X103584333Y-71590771D02*
X103727190Y-71590771D01*
X103727190Y-71590771D02*
X103822428Y-71638390D01*
X103822428Y-71638390D02*
X103870047Y-71686009D01*
X103870047Y-71686009D02*
X103917666Y-71781247D01*
X103917666Y-71781247D02*
X103917666Y-72019342D01*
X103917666Y-72019342D02*
X103870047Y-72114580D01*
X103870047Y-72114580D02*
X103822428Y-72162200D01*
X103822428Y-72162200D02*
X103727190Y-72209819D01*
X103727190Y-72209819D02*
X103441476Y-72209819D01*
X103441476Y-72209819D02*
X103346238Y-72162200D01*
X103346238Y-72162200D02*
X103298619Y-72114580D01*
X76708095Y-80607819D02*
X76708095Y-81417342D01*
X76708095Y-81417342D02*
X76755714Y-81512580D01*
X76755714Y-81512580D02*
X76803333Y-81560200D01*
X76803333Y-81560200D02*
X76898571Y-81607819D01*
X76898571Y-81607819D02*
X77089047Y-81607819D01*
X77089047Y-81607819D02*
X77184285Y-81560200D01*
X77184285Y-81560200D02*
X77231904Y-81512580D01*
X77231904Y-81512580D02*
X77279523Y-81417342D01*
X77279523Y-81417342D02*
X77279523Y-80607819D01*
X77660476Y-80607819D02*
X78279523Y-80607819D01*
X78279523Y-80607819D02*
X77946190Y-80988771D01*
X77946190Y-80988771D02*
X78089047Y-80988771D01*
X78089047Y-80988771D02*
X78184285Y-81036390D01*
X78184285Y-81036390D02*
X78231904Y-81084009D01*
X78231904Y-81084009D02*
X78279523Y-81179247D01*
X78279523Y-81179247D02*
X78279523Y-81417342D01*
X78279523Y-81417342D02*
X78231904Y-81512580D01*
X78231904Y-81512580D02*
X78184285Y-81560200D01*
X78184285Y-81560200D02*
X78089047Y-81607819D01*
X78089047Y-81607819D02*
X77803333Y-81607819D01*
X77803333Y-81607819D02*
X77708095Y-81560200D01*
X77708095Y-81560200D02*
X77660476Y-81512580D01*
X76581095Y-84671819D02*
X76581095Y-85481342D01*
X76581095Y-85481342D02*
X76628714Y-85576580D01*
X76628714Y-85576580D02*
X76676333Y-85624200D01*
X76676333Y-85624200D02*
X76771571Y-85671819D01*
X76771571Y-85671819D02*
X76962047Y-85671819D01*
X76962047Y-85671819D02*
X77057285Y-85624200D01*
X77057285Y-85624200D02*
X77104904Y-85576580D01*
X77104904Y-85576580D02*
X77152523Y-85481342D01*
X77152523Y-85481342D02*
X77152523Y-84671819D01*
X78057285Y-85005152D02*
X78057285Y-85671819D01*
X77819190Y-84624200D02*
X77581095Y-85338485D01*
X77581095Y-85338485D02*
X78200142Y-85338485D01*
X108743761Y-63047057D02*
X108648523Y-62999438D01*
X108648523Y-62999438D02*
X108553285Y-62904200D01*
X108553285Y-62904200D02*
X108410428Y-62761342D01*
X108410428Y-62761342D02*
X108315190Y-62713723D01*
X108315190Y-62713723D02*
X108219952Y-62713723D01*
X108267571Y-62951819D02*
X108172333Y-62904200D01*
X108172333Y-62904200D02*
X108077095Y-62808961D01*
X108077095Y-62808961D02*
X108029476Y-62618485D01*
X108029476Y-62618485D02*
X108029476Y-62285152D01*
X108029476Y-62285152D02*
X108077095Y-62094676D01*
X108077095Y-62094676D02*
X108172333Y-61999438D01*
X108172333Y-61999438D02*
X108267571Y-61951819D01*
X108267571Y-61951819D02*
X108458047Y-61951819D01*
X108458047Y-61951819D02*
X108553285Y-61999438D01*
X108553285Y-61999438D02*
X108648523Y-62094676D01*
X108648523Y-62094676D02*
X108696142Y-62285152D01*
X108696142Y-62285152D02*
X108696142Y-62618485D01*
X108696142Y-62618485D02*
X108648523Y-62808961D01*
X108648523Y-62808961D02*
X108553285Y-62904200D01*
X108553285Y-62904200D02*
X108458047Y-62951819D01*
X108458047Y-62951819D02*
X108267571Y-62951819D01*
X109553285Y-62285152D02*
X109553285Y-62951819D01*
X109315190Y-61904200D02*
X109077095Y-62618485D01*
X109077095Y-62618485D02*
X109696142Y-62618485D01*
X105568761Y-69003057D02*
X105473523Y-68955438D01*
X105473523Y-68955438D02*
X105378285Y-68860200D01*
X105378285Y-68860200D02*
X105235428Y-68717342D01*
X105235428Y-68717342D02*
X105140190Y-68669723D01*
X105140190Y-68669723D02*
X105044952Y-68669723D01*
X105092571Y-68907819D02*
X104997333Y-68860200D01*
X104997333Y-68860200D02*
X104902095Y-68764961D01*
X104902095Y-68764961D02*
X104854476Y-68574485D01*
X104854476Y-68574485D02*
X104854476Y-68241152D01*
X104854476Y-68241152D02*
X104902095Y-68050676D01*
X104902095Y-68050676D02*
X104997333Y-67955438D01*
X104997333Y-67955438D02*
X105092571Y-67907819D01*
X105092571Y-67907819D02*
X105283047Y-67907819D01*
X105283047Y-67907819D02*
X105378285Y-67955438D01*
X105378285Y-67955438D02*
X105473523Y-68050676D01*
X105473523Y-68050676D02*
X105521142Y-68241152D01*
X105521142Y-68241152D02*
X105521142Y-68574485D01*
X105521142Y-68574485D02*
X105473523Y-68764961D01*
X105473523Y-68764961D02*
X105378285Y-68860200D01*
X105378285Y-68860200D02*
X105283047Y-68907819D01*
X105283047Y-68907819D02*
X105092571Y-68907819D01*
X106378285Y-67907819D02*
X106187809Y-67907819D01*
X106187809Y-67907819D02*
X106092571Y-67955438D01*
X106092571Y-67955438D02*
X106044952Y-68003057D01*
X106044952Y-68003057D02*
X105949714Y-68145914D01*
X105949714Y-68145914D02*
X105902095Y-68336390D01*
X105902095Y-68336390D02*
X105902095Y-68717342D01*
X105902095Y-68717342D02*
X105949714Y-68812580D01*
X105949714Y-68812580D02*
X105997333Y-68860200D01*
X105997333Y-68860200D02*
X106092571Y-68907819D01*
X106092571Y-68907819D02*
X106283047Y-68907819D01*
X106283047Y-68907819D02*
X106378285Y-68860200D01*
X106378285Y-68860200D02*
X106425904Y-68812580D01*
X106425904Y-68812580D02*
X106473523Y-68717342D01*
X106473523Y-68717342D02*
X106473523Y-68479247D01*
X106473523Y-68479247D02*
X106425904Y-68384009D01*
X106425904Y-68384009D02*
X106378285Y-68336390D01*
X106378285Y-68336390D02*
X106283047Y-68288771D01*
X106283047Y-68288771D02*
X106092571Y-68288771D01*
X106092571Y-68288771D02*
X105997333Y-68336390D01*
X105997333Y-68336390D02*
X105949714Y-68384009D01*
X105949714Y-68384009D02*
X105902095Y-68479247D01*
X60287819Y-68786333D02*
X61002104Y-68786333D01*
X61002104Y-68786333D02*
X61144961Y-68833952D01*
X61144961Y-68833952D02*
X61240200Y-68929190D01*
X61240200Y-68929190D02*
X61287819Y-69072047D01*
X61287819Y-69072047D02*
X61287819Y-69167285D01*
X60383057Y-68357761D02*
X60335438Y-68310142D01*
X60335438Y-68310142D02*
X60287819Y-68214904D01*
X60287819Y-68214904D02*
X60287819Y-67976809D01*
X60287819Y-67976809D02*
X60335438Y-67881571D01*
X60335438Y-67881571D02*
X60383057Y-67833952D01*
X60383057Y-67833952D02*
X60478295Y-67786333D01*
X60478295Y-67786333D02*
X60573533Y-67786333D01*
X60573533Y-67786333D02*
X60716390Y-67833952D01*
X60716390Y-67833952D02*
X61287819Y-68405380D01*
X61287819Y-68405380D02*
X61287819Y-67786333D01*
X108415142Y-112368819D02*
X108081809Y-111892628D01*
X107843714Y-112368819D02*
X107843714Y-111368819D01*
X107843714Y-111368819D02*
X108224666Y-111368819D01*
X108224666Y-111368819D02*
X108319904Y-111416438D01*
X108319904Y-111416438D02*
X108367523Y-111464057D01*
X108367523Y-111464057D02*
X108415142Y-111559295D01*
X108415142Y-111559295D02*
X108415142Y-111702152D01*
X108415142Y-111702152D02*
X108367523Y-111797390D01*
X108367523Y-111797390D02*
X108319904Y-111845009D01*
X108319904Y-111845009D02*
X108224666Y-111892628D01*
X108224666Y-111892628D02*
X107843714Y-111892628D01*
X108796095Y-111464057D02*
X108843714Y-111416438D01*
X108843714Y-111416438D02*
X108938952Y-111368819D01*
X108938952Y-111368819D02*
X109177047Y-111368819D01*
X109177047Y-111368819D02*
X109272285Y-111416438D01*
X109272285Y-111416438D02*
X109319904Y-111464057D01*
X109319904Y-111464057D02*
X109367523Y-111559295D01*
X109367523Y-111559295D02*
X109367523Y-111654533D01*
X109367523Y-111654533D02*
X109319904Y-111797390D01*
X109319904Y-111797390D02*
X108748476Y-112368819D01*
X108748476Y-112368819D02*
X109367523Y-112368819D01*
X109938952Y-111797390D02*
X109843714Y-111749771D01*
X109843714Y-111749771D02*
X109796095Y-111702152D01*
X109796095Y-111702152D02*
X109748476Y-111606914D01*
X109748476Y-111606914D02*
X109748476Y-111559295D01*
X109748476Y-111559295D02*
X109796095Y-111464057D01*
X109796095Y-111464057D02*
X109843714Y-111416438D01*
X109843714Y-111416438D02*
X109938952Y-111368819D01*
X109938952Y-111368819D02*
X110129428Y-111368819D01*
X110129428Y-111368819D02*
X110224666Y-111416438D01*
X110224666Y-111416438D02*
X110272285Y-111464057D01*
X110272285Y-111464057D02*
X110319904Y-111559295D01*
X110319904Y-111559295D02*
X110319904Y-111606914D01*
X110319904Y-111606914D02*
X110272285Y-111702152D01*
X110272285Y-111702152D02*
X110224666Y-111749771D01*
X110224666Y-111749771D02*
X110129428Y-111797390D01*
X110129428Y-111797390D02*
X109938952Y-111797390D01*
X109938952Y-111797390D02*
X109843714Y-111845009D01*
X109843714Y-111845009D02*
X109796095Y-111892628D01*
X109796095Y-111892628D02*
X109748476Y-111987866D01*
X109748476Y-111987866D02*
X109748476Y-112178342D01*
X109748476Y-112178342D02*
X109796095Y-112273580D01*
X109796095Y-112273580D02*
X109843714Y-112321200D01*
X109843714Y-112321200D02*
X109938952Y-112368819D01*
X109938952Y-112368819D02*
X110129428Y-112368819D01*
X110129428Y-112368819D02*
X110224666Y-112321200D01*
X110224666Y-112321200D02*
X110272285Y-112273580D01*
X110272285Y-112273580D02*
X110319904Y-112178342D01*
X110319904Y-112178342D02*
X110319904Y-111987866D01*
X110319904Y-111987866D02*
X110272285Y-111892628D01*
X110272285Y-111892628D02*
X110224666Y-111845009D01*
X110224666Y-111845009D02*
X110129428Y-111797390D01*
X113611819Y-96781857D02*
X113135628Y-97115190D01*
X113611819Y-97353285D02*
X112611819Y-97353285D01*
X112611819Y-97353285D02*
X112611819Y-96972333D01*
X112611819Y-96972333D02*
X112659438Y-96877095D01*
X112659438Y-96877095D02*
X112707057Y-96829476D01*
X112707057Y-96829476D02*
X112802295Y-96781857D01*
X112802295Y-96781857D02*
X112945152Y-96781857D01*
X112945152Y-96781857D02*
X113040390Y-96829476D01*
X113040390Y-96829476D02*
X113088009Y-96877095D01*
X113088009Y-96877095D02*
X113135628Y-96972333D01*
X113135628Y-96972333D02*
X113135628Y-97353285D01*
X113611819Y-95829476D02*
X113611819Y-96400904D01*
X113611819Y-96115190D02*
X112611819Y-96115190D01*
X112611819Y-96115190D02*
X112754676Y-96210428D01*
X112754676Y-96210428D02*
X112849914Y-96305666D01*
X112849914Y-96305666D02*
X112897533Y-96400904D01*
X112945152Y-94972333D02*
X113611819Y-94972333D01*
X112564200Y-95210428D02*
X113278485Y-95448523D01*
X113278485Y-95448523D02*
X113278485Y-94829476D01*
X78015142Y-112468819D02*
X77681809Y-111992628D01*
X77443714Y-112468819D02*
X77443714Y-111468819D01*
X77443714Y-111468819D02*
X77824666Y-111468819D01*
X77824666Y-111468819D02*
X77919904Y-111516438D01*
X77919904Y-111516438D02*
X77967523Y-111564057D01*
X77967523Y-111564057D02*
X78015142Y-111659295D01*
X78015142Y-111659295D02*
X78015142Y-111802152D01*
X78015142Y-111802152D02*
X77967523Y-111897390D01*
X77967523Y-111897390D02*
X77919904Y-111945009D01*
X77919904Y-111945009D02*
X77824666Y-111992628D01*
X77824666Y-111992628D02*
X77443714Y-111992628D01*
X78396095Y-111564057D02*
X78443714Y-111516438D01*
X78443714Y-111516438D02*
X78538952Y-111468819D01*
X78538952Y-111468819D02*
X78777047Y-111468819D01*
X78777047Y-111468819D02*
X78872285Y-111516438D01*
X78872285Y-111516438D02*
X78919904Y-111564057D01*
X78919904Y-111564057D02*
X78967523Y-111659295D01*
X78967523Y-111659295D02*
X78967523Y-111754533D01*
X78967523Y-111754533D02*
X78919904Y-111897390D01*
X78919904Y-111897390D02*
X78348476Y-112468819D01*
X78348476Y-112468819D02*
X78967523Y-112468819D01*
X79824666Y-111802152D02*
X79824666Y-112468819D01*
X79586571Y-111421200D02*
X79348476Y-112135485D01*
X79348476Y-112135485D02*
X79967523Y-112135485D01*
X106499819Y-85732857D02*
X106023628Y-86066190D01*
X106499819Y-86304285D02*
X105499819Y-86304285D01*
X105499819Y-86304285D02*
X105499819Y-85923333D01*
X105499819Y-85923333D02*
X105547438Y-85828095D01*
X105547438Y-85828095D02*
X105595057Y-85780476D01*
X105595057Y-85780476D02*
X105690295Y-85732857D01*
X105690295Y-85732857D02*
X105833152Y-85732857D01*
X105833152Y-85732857D02*
X105928390Y-85780476D01*
X105928390Y-85780476D02*
X105976009Y-85828095D01*
X105976009Y-85828095D02*
X106023628Y-85923333D01*
X106023628Y-85923333D02*
X106023628Y-86304285D01*
X106499819Y-84780476D02*
X106499819Y-85351904D01*
X106499819Y-85066190D02*
X105499819Y-85066190D01*
X105499819Y-85066190D02*
X105642676Y-85161428D01*
X105642676Y-85161428D02*
X105737914Y-85256666D01*
X105737914Y-85256666D02*
X105785533Y-85351904D01*
X106499819Y-83828095D02*
X106499819Y-84399523D01*
X106499819Y-84113809D02*
X105499819Y-84113809D01*
X105499819Y-84113809D02*
X105642676Y-84209047D01*
X105642676Y-84209047D02*
X105737914Y-84304285D01*
X105737914Y-84304285D02*
X105785533Y-84399523D01*
X102150057Y-94964238D02*
X102102438Y-95059476D01*
X102102438Y-95059476D02*
X102007200Y-95154714D01*
X102007200Y-95154714D02*
X101864342Y-95297571D01*
X101864342Y-95297571D02*
X101816723Y-95392809D01*
X101816723Y-95392809D02*
X101816723Y-95488047D01*
X102054819Y-95440428D02*
X102007200Y-95535666D01*
X102007200Y-95535666D02*
X101911961Y-95630904D01*
X101911961Y-95630904D02*
X101721485Y-95678523D01*
X101721485Y-95678523D02*
X101388152Y-95678523D01*
X101388152Y-95678523D02*
X101197676Y-95630904D01*
X101197676Y-95630904D02*
X101102438Y-95535666D01*
X101102438Y-95535666D02*
X101054819Y-95440428D01*
X101054819Y-95440428D02*
X101054819Y-95249952D01*
X101054819Y-95249952D02*
X101102438Y-95154714D01*
X101102438Y-95154714D02*
X101197676Y-95059476D01*
X101197676Y-95059476D02*
X101388152Y-95011857D01*
X101388152Y-95011857D02*
X101721485Y-95011857D01*
X101721485Y-95011857D02*
X101911961Y-95059476D01*
X101911961Y-95059476D02*
X102007200Y-95154714D01*
X102007200Y-95154714D02*
X102054819Y-95249952D01*
X102054819Y-95249952D02*
X102054819Y-95440428D01*
X101054819Y-94678523D02*
X101054819Y-94011857D01*
X101054819Y-94011857D02*
X102054819Y-94440428D01*
X71280580Y-91733666D02*
X71328200Y-91781285D01*
X71328200Y-91781285D02*
X71375819Y-91924142D01*
X71375819Y-91924142D02*
X71375819Y-92019380D01*
X71375819Y-92019380D02*
X71328200Y-92162237D01*
X71328200Y-92162237D02*
X71232961Y-92257475D01*
X71232961Y-92257475D02*
X71137723Y-92305094D01*
X71137723Y-92305094D02*
X70947247Y-92352713D01*
X70947247Y-92352713D02*
X70804390Y-92352713D01*
X70804390Y-92352713D02*
X70613914Y-92305094D01*
X70613914Y-92305094D02*
X70518676Y-92257475D01*
X70518676Y-92257475D02*
X70423438Y-92162237D01*
X70423438Y-92162237D02*
X70375819Y-92019380D01*
X70375819Y-92019380D02*
X70375819Y-91924142D01*
X70375819Y-91924142D02*
X70423438Y-91781285D01*
X70423438Y-91781285D02*
X70471057Y-91733666D01*
X70471057Y-91352713D02*
X70423438Y-91305094D01*
X70423438Y-91305094D02*
X70375819Y-91209856D01*
X70375819Y-91209856D02*
X70375819Y-90971761D01*
X70375819Y-90971761D02*
X70423438Y-90876523D01*
X70423438Y-90876523D02*
X70471057Y-90828904D01*
X70471057Y-90828904D02*
X70566295Y-90781285D01*
X70566295Y-90781285D02*
X70661533Y-90781285D01*
X70661533Y-90781285D02*
X70804390Y-90828904D01*
X70804390Y-90828904D02*
X71375819Y-91400332D01*
X71375819Y-91400332D02*
X71375819Y-90781285D01*
X113484819Y-79033666D02*
X113008628Y-79366999D01*
X113484819Y-79605094D02*
X112484819Y-79605094D01*
X112484819Y-79605094D02*
X112484819Y-79224142D01*
X112484819Y-79224142D02*
X112532438Y-79128904D01*
X112532438Y-79128904D02*
X112580057Y-79081285D01*
X112580057Y-79081285D02*
X112675295Y-79033666D01*
X112675295Y-79033666D02*
X112818152Y-79033666D01*
X112818152Y-79033666D02*
X112913390Y-79081285D01*
X112913390Y-79081285D02*
X112961009Y-79128904D01*
X112961009Y-79128904D02*
X113008628Y-79224142D01*
X113008628Y-79224142D02*
X113008628Y-79605094D01*
X112484819Y-78700332D02*
X112484819Y-78033666D01*
X112484819Y-78033666D02*
X113484819Y-78462237D01*
X77542819Y-91606666D02*
X77066628Y-91939999D01*
X77542819Y-92178094D02*
X76542819Y-92178094D01*
X76542819Y-92178094D02*
X76542819Y-91797142D01*
X76542819Y-91797142D02*
X76590438Y-91701904D01*
X76590438Y-91701904D02*
X76638057Y-91654285D01*
X76638057Y-91654285D02*
X76733295Y-91606666D01*
X76733295Y-91606666D02*
X76876152Y-91606666D01*
X76876152Y-91606666D02*
X76971390Y-91654285D01*
X76971390Y-91654285D02*
X77019009Y-91701904D01*
X77019009Y-91701904D02*
X77066628Y-91797142D01*
X77066628Y-91797142D02*
X77066628Y-92178094D01*
X76542819Y-90749523D02*
X76542819Y-90939999D01*
X76542819Y-90939999D02*
X76590438Y-91035237D01*
X76590438Y-91035237D02*
X76638057Y-91082856D01*
X76638057Y-91082856D02*
X76780914Y-91178094D01*
X76780914Y-91178094D02*
X76971390Y-91225713D01*
X76971390Y-91225713D02*
X77352342Y-91225713D01*
X77352342Y-91225713D02*
X77447580Y-91178094D01*
X77447580Y-91178094D02*
X77495200Y-91130475D01*
X77495200Y-91130475D02*
X77542819Y-91035237D01*
X77542819Y-91035237D02*
X77542819Y-90844761D01*
X77542819Y-90844761D02*
X77495200Y-90749523D01*
X77495200Y-90749523D02*
X77447580Y-90701904D01*
X77447580Y-90701904D02*
X77352342Y-90654285D01*
X77352342Y-90654285D02*
X77114247Y-90654285D01*
X77114247Y-90654285D02*
X77019009Y-90701904D01*
X77019009Y-90701904D02*
X76971390Y-90749523D01*
X76971390Y-90749523D02*
X76923771Y-90844761D01*
X76923771Y-90844761D02*
X76923771Y-91035237D01*
X76923771Y-91035237D02*
X76971390Y-91130475D01*
X76971390Y-91130475D02*
X77019009Y-91178094D01*
X77019009Y-91178094D02*
X77114247Y-91225713D01*
X60054819Y-83376333D02*
X60769104Y-83376333D01*
X60769104Y-83376333D02*
X60911961Y-83423952D01*
X60911961Y-83423952D02*
X61007200Y-83519190D01*
X61007200Y-83519190D02*
X61054819Y-83662047D01*
X61054819Y-83662047D02*
X61054819Y-83757285D01*
X61054819Y-82376333D02*
X61054819Y-82947761D01*
X61054819Y-82662047D02*
X60054819Y-82662047D01*
X60054819Y-82662047D02*
X60197676Y-82757285D01*
X60197676Y-82757285D02*
X60292914Y-82852523D01*
X60292914Y-82852523D02*
X60340533Y-82947761D01*
X67815142Y-112368819D02*
X67481809Y-111892628D01*
X67243714Y-112368819D02*
X67243714Y-111368819D01*
X67243714Y-111368819D02*
X67624666Y-111368819D01*
X67624666Y-111368819D02*
X67719904Y-111416438D01*
X67719904Y-111416438D02*
X67767523Y-111464057D01*
X67767523Y-111464057D02*
X67815142Y-111559295D01*
X67815142Y-111559295D02*
X67815142Y-111702152D01*
X67815142Y-111702152D02*
X67767523Y-111797390D01*
X67767523Y-111797390D02*
X67719904Y-111845009D01*
X67719904Y-111845009D02*
X67624666Y-111892628D01*
X67624666Y-111892628D02*
X67243714Y-111892628D01*
X68196095Y-111464057D02*
X68243714Y-111416438D01*
X68243714Y-111416438D02*
X68338952Y-111368819D01*
X68338952Y-111368819D02*
X68577047Y-111368819D01*
X68577047Y-111368819D02*
X68672285Y-111416438D01*
X68672285Y-111416438D02*
X68719904Y-111464057D01*
X68719904Y-111464057D02*
X68767523Y-111559295D01*
X68767523Y-111559295D02*
X68767523Y-111654533D01*
X68767523Y-111654533D02*
X68719904Y-111797390D01*
X68719904Y-111797390D02*
X68148476Y-112368819D01*
X68148476Y-112368819D02*
X68767523Y-112368819D01*
X69100857Y-111368819D02*
X69719904Y-111368819D01*
X69719904Y-111368819D02*
X69386571Y-111749771D01*
X69386571Y-111749771D02*
X69529428Y-111749771D01*
X69529428Y-111749771D02*
X69624666Y-111797390D01*
X69624666Y-111797390D02*
X69672285Y-111845009D01*
X69672285Y-111845009D02*
X69719904Y-111940247D01*
X69719904Y-111940247D02*
X69719904Y-112178342D01*
X69719904Y-112178342D02*
X69672285Y-112273580D01*
X69672285Y-112273580D02*
X69624666Y-112321200D01*
X69624666Y-112321200D02*
X69529428Y-112368819D01*
X69529428Y-112368819D02*
X69243714Y-112368819D01*
X69243714Y-112368819D02*
X69148476Y-112321200D01*
X69148476Y-112321200D02*
X69100857Y-112273580D01*
X106137833Y-57223819D02*
X105804500Y-56747628D01*
X105566405Y-57223819D02*
X105566405Y-56223819D01*
X105566405Y-56223819D02*
X105947357Y-56223819D01*
X105947357Y-56223819D02*
X106042595Y-56271438D01*
X106042595Y-56271438D02*
X106090214Y-56319057D01*
X106090214Y-56319057D02*
X106137833Y-56414295D01*
X106137833Y-56414295D02*
X106137833Y-56557152D01*
X106137833Y-56557152D02*
X106090214Y-56652390D01*
X106090214Y-56652390D02*
X106042595Y-56700009D01*
X106042595Y-56700009D02*
X105947357Y-56747628D01*
X105947357Y-56747628D02*
X105566405Y-56747628D01*
X107042595Y-56223819D02*
X106566405Y-56223819D01*
X106566405Y-56223819D02*
X106518786Y-56700009D01*
X106518786Y-56700009D02*
X106566405Y-56652390D01*
X106566405Y-56652390D02*
X106661643Y-56604771D01*
X106661643Y-56604771D02*
X106899738Y-56604771D01*
X106899738Y-56604771D02*
X106994976Y-56652390D01*
X106994976Y-56652390D02*
X107042595Y-56700009D01*
X107042595Y-56700009D02*
X107090214Y-56795247D01*
X107090214Y-56795247D02*
X107090214Y-57033342D01*
X107090214Y-57033342D02*
X107042595Y-57128580D01*
X107042595Y-57128580D02*
X106994976Y-57176200D01*
X106994976Y-57176200D02*
X106899738Y-57223819D01*
X106899738Y-57223819D02*
X106661643Y-57223819D01*
X106661643Y-57223819D02*
X106566405Y-57176200D01*
X106566405Y-57176200D02*
X106518786Y-57128580D01*
X80496580Y-67730666D02*
X80544200Y-67778285D01*
X80544200Y-67778285D02*
X80591819Y-67921142D01*
X80591819Y-67921142D02*
X80591819Y-68016380D01*
X80591819Y-68016380D02*
X80544200Y-68159237D01*
X80544200Y-68159237D02*
X80448961Y-68254475D01*
X80448961Y-68254475D02*
X80353723Y-68302094D01*
X80353723Y-68302094D02*
X80163247Y-68349713D01*
X80163247Y-68349713D02*
X80020390Y-68349713D01*
X80020390Y-68349713D02*
X79829914Y-68302094D01*
X79829914Y-68302094D02*
X79734676Y-68254475D01*
X79734676Y-68254475D02*
X79639438Y-68159237D01*
X79639438Y-68159237D02*
X79591819Y-68016380D01*
X79591819Y-68016380D02*
X79591819Y-67921142D01*
X79591819Y-67921142D02*
X79639438Y-67778285D01*
X79639438Y-67778285D02*
X79687057Y-67730666D01*
X79925152Y-66873523D02*
X80591819Y-66873523D01*
X79544200Y-67111618D02*
X80258485Y-67349713D01*
X80258485Y-67349713D02*
X80258485Y-66730666D01*
X80496580Y-70270666D02*
X80544200Y-70318285D01*
X80544200Y-70318285D02*
X80591819Y-70461142D01*
X80591819Y-70461142D02*
X80591819Y-70556380D01*
X80591819Y-70556380D02*
X80544200Y-70699237D01*
X80544200Y-70699237D02*
X80448961Y-70794475D01*
X80448961Y-70794475D02*
X80353723Y-70842094D01*
X80353723Y-70842094D02*
X80163247Y-70889713D01*
X80163247Y-70889713D02*
X80020390Y-70889713D01*
X80020390Y-70889713D02*
X79829914Y-70842094D01*
X79829914Y-70842094D02*
X79734676Y-70794475D01*
X79734676Y-70794475D02*
X79639438Y-70699237D01*
X79639438Y-70699237D02*
X79591819Y-70556380D01*
X79591819Y-70556380D02*
X79591819Y-70461142D01*
X79591819Y-70461142D02*
X79639438Y-70318285D01*
X79639438Y-70318285D02*
X79687057Y-70270666D01*
X79591819Y-69365904D02*
X79591819Y-69842094D01*
X79591819Y-69842094D02*
X80068009Y-69889713D01*
X80068009Y-69889713D02*
X80020390Y-69842094D01*
X80020390Y-69842094D02*
X79972771Y-69746856D01*
X79972771Y-69746856D02*
X79972771Y-69508761D01*
X79972771Y-69508761D02*
X80020390Y-69413523D01*
X80020390Y-69413523D02*
X80068009Y-69365904D01*
X80068009Y-69365904D02*
X80163247Y-69318285D01*
X80163247Y-69318285D02*
X80401342Y-69318285D01*
X80401342Y-69318285D02*
X80496580Y-69365904D01*
X80496580Y-69365904D02*
X80544200Y-69413523D01*
X80544200Y-69413523D02*
X80591819Y-69508761D01*
X80591819Y-69508761D02*
X80591819Y-69746856D01*
X80591819Y-69746856D02*
X80544200Y-69842094D01*
X80544200Y-69842094D02*
X80496580Y-69889713D01*
X101292819Y-86137357D02*
X100816628Y-86470690D01*
X101292819Y-86708785D02*
X100292819Y-86708785D01*
X100292819Y-86708785D02*
X100292819Y-86327833D01*
X100292819Y-86327833D02*
X100340438Y-86232595D01*
X100340438Y-86232595D02*
X100388057Y-86184976D01*
X100388057Y-86184976D02*
X100483295Y-86137357D01*
X100483295Y-86137357D02*
X100626152Y-86137357D01*
X100626152Y-86137357D02*
X100721390Y-86184976D01*
X100721390Y-86184976D02*
X100769009Y-86232595D01*
X100769009Y-86232595D02*
X100816628Y-86327833D01*
X100816628Y-86327833D02*
X100816628Y-86708785D01*
X101292819Y-85184976D02*
X101292819Y-85756404D01*
X101292819Y-85470690D02*
X100292819Y-85470690D01*
X100292819Y-85470690D02*
X100435676Y-85565928D01*
X100435676Y-85565928D02*
X100530914Y-85661166D01*
X100530914Y-85661166D02*
X100578533Y-85756404D01*
X100388057Y-84804023D02*
X100340438Y-84756404D01*
X100340438Y-84756404D02*
X100292819Y-84661166D01*
X100292819Y-84661166D02*
X100292819Y-84423071D01*
X100292819Y-84423071D02*
X100340438Y-84327833D01*
X100340438Y-84327833D02*
X100388057Y-84280214D01*
X100388057Y-84280214D02*
X100483295Y-84232595D01*
X100483295Y-84232595D02*
X100578533Y-84232595D01*
X100578533Y-84232595D02*
X100721390Y-84280214D01*
X100721390Y-84280214D02*
X101292819Y-84851642D01*
X101292819Y-84851642D02*
X101292819Y-84232595D01*
X102150057Y-90392238D02*
X102102438Y-90487476D01*
X102102438Y-90487476D02*
X102007200Y-90582714D01*
X102007200Y-90582714D02*
X101864342Y-90725571D01*
X101864342Y-90725571D02*
X101816723Y-90820809D01*
X101816723Y-90820809D02*
X101816723Y-90916047D01*
X102054819Y-90868428D02*
X102007200Y-90963666D01*
X102007200Y-90963666D02*
X101911961Y-91058904D01*
X101911961Y-91058904D02*
X101721485Y-91106523D01*
X101721485Y-91106523D02*
X101388152Y-91106523D01*
X101388152Y-91106523D02*
X101197676Y-91058904D01*
X101197676Y-91058904D02*
X101102438Y-90963666D01*
X101102438Y-90963666D02*
X101054819Y-90868428D01*
X101054819Y-90868428D02*
X101054819Y-90677952D01*
X101054819Y-90677952D02*
X101102438Y-90582714D01*
X101102438Y-90582714D02*
X101197676Y-90487476D01*
X101197676Y-90487476D02*
X101388152Y-90439857D01*
X101388152Y-90439857D02*
X101721485Y-90439857D01*
X101721485Y-90439857D02*
X101911961Y-90487476D01*
X101911961Y-90487476D02*
X102007200Y-90582714D01*
X102007200Y-90582714D02*
X102054819Y-90677952D01*
X102054819Y-90677952D02*
X102054819Y-90868428D01*
X101483390Y-89868428D02*
X101435771Y-89963666D01*
X101435771Y-89963666D02*
X101388152Y-90011285D01*
X101388152Y-90011285D02*
X101292914Y-90058904D01*
X101292914Y-90058904D02*
X101245295Y-90058904D01*
X101245295Y-90058904D02*
X101150057Y-90011285D01*
X101150057Y-90011285D02*
X101102438Y-89963666D01*
X101102438Y-89963666D02*
X101054819Y-89868428D01*
X101054819Y-89868428D02*
X101054819Y-89677952D01*
X101054819Y-89677952D02*
X101102438Y-89582714D01*
X101102438Y-89582714D02*
X101150057Y-89535095D01*
X101150057Y-89535095D02*
X101245295Y-89487476D01*
X101245295Y-89487476D02*
X101292914Y-89487476D01*
X101292914Y-89487476D02*
X101388152Y-89535095D01*
X101388152Y-89535095D02*
X101435771Y-89582714D01*
X101435771Y-89582714D02*
X101483390Y-89677952D01*
X101483390Y-89677952D02*
X101483390Y-89868428D01*
X101483390Y-89868428D02*
X101531009Y-89963666D01*
X101531009Y-89963666D02*
X101578628Y-90011285D01*
X101578628Y-90011285D02*
X101673866Y-90058904D01*
X101673866Y-90058904D02*
X101864342Y-90058904D01*
X101864342Y-90058904D02*
X101959580Y-90011285D01*
X101959580Y-90011285D02*
X102007200Y-89963666D01*
X102007200Y-89963666D02*
X102054819Y-89868428D01*
X102054819Y-89868428D02*
X102054819Y-89677952D01*
X102054819Y-89677952D02*
X102007200Y-89582714D01*
X102007200Y-89582714D02*
X101959580Y-89535095D01*
X101959580Y-89535095D02*
X101864342Y-89487476D01*
X101864342Y-89487476D02*
X101673866Y-89487476D01*
X101673866Y-89487476D02*
X101578628Y-89535095D01*
X101578628Y-89535095D02*
X101531009Y-89582714D01*
X101531009Y-89582714D02*
X101483390Y-89677952D01*
X76708095Y-76543819D02*
X76708095Y-77353342D01*
X76708095Y-77353342D02*
X76755714Y-77448580D01*
X76755714Y-77448580D02*
X76803333Y-77496200D01*
X76803333Y-77496200D02*
X76898571Y-77543819D01*
X76898571Y-77543819D02*
X77089047Y-77543819D01*
X77089047Y-77543819D02*
X77184285Y-77496200D01*
X77184285Y-77496200D02*
X77231904Y-77448580D01*
X77231904Y-77448580D02*
X77279523Y-77353342D01*
X77279523Y-77353342D02*
X77279523Y-76543819D01*
X77708095Y-76639057D02*
X77755714Y-76591438D01*
X77755714Y-76591438D02*
X77850952Y-76543819D01*
X77850952Y-76543819D02*
X78089047Y-76543819D01*
X78089047Y-76543819D02*
X78184285Y-76591438D01*
X78184285Y-76591438D02*
X78231904Y-76639057D01*
X78231904Y-76639057D02*
X78279523Y-76734295D01*
X78279523Y-76734295D02*
X78279523Y-76829533D01*
X78279523Y-76829533D02*
X78231904Y-76972390D01*
X78231904Y-76972390D02*
X77660476Y-77543819D01*
X77660476Y-77543819D02*
X78279523Y-77543819D01*
X99515142Y-112218819D02*
X99181809Y-111742628D01*
X98943714Y-112218819D02*
X98943714Y-111218819D01*
X98943714Y-111218819D02*
X99324666Y-111218819D01*
X99324666Y-111218819D02*
X99419904Y-111266438D01*
X99419904Y-111266438D02*
X99467523Y-111314057D01*
X99467523Y-111314057D02*
X99515142Y-111409295D01*
X99515142Y-111409295D02*
X99515142Y-111552152D01*
X99515142Y-111552152D02*
X99467523Y-111647390D01*
X99467523Y-111647390D02*
X99419904Y-111695009D01*
X99419904Y-111695009D02*
X99324666Y-111742628D01*
X99324666Y-111742628D02*
X98943714Y-111742628D01*
X99896095Y-111314057D02*
X99943714Y-111266438D01*
X99943714Y-111266438D02*
X100038952Y-111218819D01*
X100038952Y-111218819D02*
X100277047Y-111218819D01*
X100277047Y-111218819D02*
X100372285Y-111266438D01*
X100372285Y-111266438D02*
X100419904Y-111314057D01*
X100419904Y-111314057D02*
X100467523Y-111409295D01*
X100467523Y-111409295D02*
X100467523Y-111504533D01*
X100467523Y-111504533D02*
X100419904Y-111647390D01*
X100419904Y-111647390D02*
X99848476Y-112218819D01*
X99848476Y-112218819D02*
X100467523Y-112218819D01*
X100800857Y-111218819D02*
X101467523Y-111218819D01*
X101467523Y-111218819D02*
X101038952Y-112218819D01*
%TO.C,R19*%
D11*
X140330936Y-107879000D02*
X140785064Y-107879000D01*
X140330936Y-109349000D02*
X140785064Y-109349000D01*
%TO.C,R21*%
X152930936Y-107879000D02*
X153385064Y-107879000D01*
X152930936Y-109349000D02*
X153385064Y-109349000D01*
%TO.C,R20*%
X146630936Y-107879000D02*
X147085064Y-107879000D01*
X146630936Y-109349000D02*
X147085064Y-109349000D01*
%TO.C,R19*%
X140330936Y-96979000D02*
X140785064Y-96979000D01*
X140330936Y-98449000D02*
X140785064Y-98449000D01*
%TO.C,R21*%
X152930936Y-96979000D02*
X153385064Y-96979000D01*
X152930936Y-98449000D02*
X153385064Y-98449000D01*
%TO.C,R20*%
X146630936Y-96979000D02*
X147085064Y-96979000D01*
X146630936Y-98449000D02*
X147085064Y-98449000D01*
%TO.C,U6*%
X96139000Y-96139000D02*
X99949000Y-96139000D01*
X95377000Y-72263000D02*
X99949000Y-72263000D01*
X79629000Y-96139000D02*
X83439000Y-96139000D01*
X79629000Y-72263000D02*
X84201000Y-72263000D01*
%TO.C,Q2*%
X112628000Y-63337000D02*
X114448000Y-63337000D01*
X112628000Y-63387000D02*
X112628000Y-63337000D01*
X112628000Y-65287000D02*
X112628000Y-64507000D01*
X112628000Y-66457000D02*
X112628000Y-66407000D01*
X114448000Y-63337000D02*
X114448000Y-64337000D01*
X114448000Y-65457000D02*
X114448000Y-66457000D01*
X114448000Y-66457000D02*
X112628000Y-66457000D01*
X112088000Y-64517000D02*
X112328000Y-64847000D01*
X111848000Y-64847000D01*
X112088000Y-64517000D01*
G36*
X112328000Y-64847000D02*
G01*
X111848000Y-64847000D01*
X112088000Y-64517000D01*
X112328000Y-64847000D01*
G37*
%TO.C,R9*%
X113946000Y-87857064D02*
X113946000Y-87402936D01*
X115416000Y-87857064D02*
X115416000Y-87402936D01*
%TO.C,R10*%
X112041000Y-87857064D02*
X112041000Y-87402936D01*
X113511000Y-87857064D02*
X113511000Y-87402936D01*
%TO.C,Q3*%
X103230000Y-80228000D02*
X105050000Y-80228000D01*
X103230000Y-80278000D02*
X103230000Y-80228000D01*
X103230000Y-82178000D02*
X103230000Y-81398000D01*
X103230000Y-83348000D02*
X103230000Y-83298000D01*
X105050000Y-80228000D02*
X105050000Y-81228000D01*
X105050000Y-82348000D02*
X105050000Y-83348000D01*
X105050000Y-83348000D02*
X103230000Y-83348000D01*
X102690000Y-81408000D02*
X102930000Y-81738000D01*
X102450000Y-81738000D01*
X102690000Y-81408000D01*
G36*
X102930000Y-81738000D02*
G01*
X102450000Y-81738000D01*
X102690000Y-81408000D01*
X102930000Y-81738000D01*
G37*
%TO.C,R13*%
X114073000Y-91871436D02*
X114073000Y-92325564D01*
X115543000Y-91871436D02*
X115543000Y-92325564D01*
%TO.C,D4*%
X134000000Y-93241500D02*
X134000000Y-97301500D01*
X136270000Y-93241500D02*
X134000000Y-93241500D01*
X136270000Y-97301500D02*
X136270000Y-93241500D01*
%TO.C,R8*%
X113946000Y-84174064D02*
X113946000Y-83719936D01*
X115416000Y-84174064D02*
X115416000Y-83719936D01*
%TO.C,R1*%
X67591000Y-74268064D02*
X67591000Y-73813936D01*
X69061000Y-74268064D02*
X69061000Y-73813936D01*
%TO.C,C3*%
X71323252Y-60304000D02*
X69900748Y-60304000D01*
X71323252Y-62124000D02*
X69900748Y-62124000D01*
%TO.C,U5*%
X69780000Y-62702000D02*
X71600000Y-62702000D01*
X69780000Y-62752000D02*
X69780000Y-62702000D01*
X69780000Y-65822000D02*
X69780000Y-65772000D01*
X71600000Y-62702000D02*
X71600000Y-62752000D01*
X71600000Y-65772000D02*
X71600000Y-65822000D01*
X71600000Y-65822000D02*
X69780000Y-65822000D01*
X69240000Y-62752000D02*
X69000000Y-62422000D01*
X69480000Y-62422000D01*
X69240000Y-62752000D01*
G36*
X69240000Y-62752000D02*
G01*
X69000000Y-62422000D01*
X69480000Y-62422000D01*
X69240000Y-62752000D01*
G37*
%TO.C,J9*%
D10*
X133043000Y-66214000D02*
X136543000Y-66214000D01*
X133043000Y-66714000D02*
X133043000Y-66214000D01*
X133043000Y-70714000D02*
X133043000Y-69714000D01*
X133043000Y-74214000D02*
X133043000Y-73714000D01*
X136543000Y-74214000D02*
X133043000Y-74214000D01*
X136543000Y-74214000D02*
X136543000Y-66214000D01*
%TO.C,U1*%
D11*
X71731000Y-73266000D02*
X76351000Y-73266000D01*
X71731000Y-73481000D02*
X71731000Y-73266000D01*
X71731000Y-76086000D02*
X71731000Y-75871000D01*
X76351000Y-73266000D02*
X76351000Y-73481000D01*
X76351000Y-75871000D02*
X76351000Y-76086000D01*
X76351000Y-76086000D02*
X71731000Y-76086000D01*
X70851000Y-73476000D02*
X70611000Y-73146000D01*
X71091000Y-73146000D01*
X70851000Y-73476000D01*
G36*
X70851000Y-73476000D02*
G01*
X70611000Y-73146000D01*
X71091000Y-73146000D01*
X70851000Y-73476000D01*
G37*
%TO.C,D1*%
X133991000Y-58254000D02*
X133991000Y-62314000D01*
X136261000Y-58254000D02*
X133991000Y-58254000D01*
X136261000Y-62314000D02*
X136261000Y-58254000D01*
%TO.C,J4*%
X107301000Y-81100000D02*
X107301000Y-96000000D01*
X107301000Y-83450000D02*
X107801000Y-83450000D01*
X107301000Y-83550000D02*
X107801000Y-83550000D01*
X107301000Y-85450000D02*
X107801000Y-85450000D01*
X107301000Y-85550000D02*
X107801000Y-85550000D01*
X107301000Y-87450000D02*
X107801000Y-87450000D01*
X107301000Y-87550000D02*
X107801000Y-87550000D01*
X107301000Y-89450000D02*
X107801000Y-89450000D01*
X107301000Y-89550000D02*
X107801000Y-89550000D01*
X107301000Y-91450000D02*
X107801000Y-91450000D01*
X107301000Y-91550000D02*
X107801000Y-91550000D01*
X107301000Y-93450000D02*
X107801000Y-93450000D01*
X107301000Y-93550000D02*
X107801000Y-93550000D01*
X107301000Y-96000000D02*
X110801000Y-96000000D01*
X107801000Y-83450000D02*
X107801000Y-83650000D01*
X107801000Y-83650000D02*
X107301000Y-83650000D01*
X107801000Y-85450000D02*
X107801000Y-85650000D01*
X107801000Y-85650000D02*
X107301000Y-85650000D01*
X107801000Y-87450000D02*
X107801000Y-87650000D01*
X107801000Y-87650000D02*
X107301000Y-87650000D01*
X107801000Y-89450000D02*
X107801000Y-89650000D01*
X107801000Y-89650000D02*
X107301000Y-89650000D01*
X107801000Y-91450000D02*
X107801000Y-91650000D01*
X107801000Y-91650000D02*
X107301000Y-91650000D01*
X107801000Y-93450000D02*
X107801000Y-93650000D01*
X107801000Y-93650000D02*
X107301000Y-93650000D01*
X108801000Y-80490000D02*
X108801000Y-81100000D01*
X108801000Y-96610000D02*
X108801000Y-96000000D01*
X110101000Y-80490000D02*
X110101000Y-81100000D01*
X110101000Y-96610000D02*
X110101000Y-96000000D01*
X110801000Y-81100000D02*
X107301000Y-81100000D01*
X110801000Y-83050000D02*
X110801000Y-81100000D01*
X110801000Y-94050000D02*
X111411000Y-94050000D01*
X110801000Y-96000000D02*
X110801000Y-94050000D01*
X111411000Y-82250000D02*
X111611000Y-82250000D01*
X111411000Y-83050000D02*
X110801000Y-83050000D01*
X111511000Y-82250000D02*
X111511000Y-81950000D01*
X111611000Y-81950000D02*
X111411000Y-81950000D01*
X111611000Y-82250000D02*
X111611000Y-81950000D01*
X111711000Y-80190000D02*
X110461000Y-80190000D01*
X111711000Y-81440000D02*
X111711000Y-80190000D01*
X106691000Y-80490000D02*
X111411000Y-80490000D01*
X111411000Y-96610000D01*
X106691000Y-96610000D01*
X106691000Y-80490000D01*
%TO.C,R20*%
X146620936Y-86079000D02*
X147075064Y-86079000D01*
X146620936Y-87549000D02*
X147075064Y-87549000D01*
%TO.C,R26*%
X93830936Y-109379000D02*
X94285064Y-109379000D01*
X93830936Y-110849000D02*
X94285064Y-110849000D01*
%TO.C,R17*%
X134100000Y-85928564D02*
X134100000Y-85474436D01*
X135570000Y-85928564D02*
X135570000Y-85474436D01*
%TO.C,J5*%
X116826000Y-62020000D02*
X116826000Y-76920000D01*
X116826000Y-64370000D02*
X117326000Y-64370000D01*
X116826000Y-64470000D02*
X117326000Y-64470000D01*
X116826000Y-66370000D02*
X117326000Y-66370000D01*
X116826000Y-66470000D02*
X117326000Y-66470000D01*
X116826000Y-68370000D02*
X117326000Y-68370000D01*
X116826000Y-68470000D02*
X117326000Y-68470000D01*
X116826000Y-70370000D02*
X117326000Y-70370000D01*
X116826000Y-70470000D02*
X117326000Y-70470000D01*
X116826000Y-72370000D02*
X117326000Y-72370000D01*
X116826000Y-72470000D02*
X117326000Y-72470000D01*
X116826000Y-74370000D02*
X117326000Y-74370000D01*
X116826000Y-74470000D02*
X117326000Y-74470000D01*
X116826000Y-76920000D02*
X120326000Y-76920000D01*
X117326000Y-64370000D02*
X117326000Y-64570000D01*
X117326000Y-64570000D02*
X116826000Y-64570000D01*
X117326000Y-66370000D02*
X117326000Y-66570000D01*
X117326000Y-66570000D02*
X116826000Y-66570000D01*
X117326000Y-68370000D02*
X117326000Y-68570000D01*
X117326000Y-68570000D02*
X116826000Y-68570000D01*
X117326000Y-70370000D02*
X117326000Y-70570000D01*
X117326000Y-70570000D02*
X116826000Y-70570000D01*
X117326000Y-72370000D02*
X117326000Y-72570000D01*
X117326000Y-72570000D02*
X116826000Y-72570000D01*
X117326000Y-74370000D02*
X117326000Y-74570000D01*
X117326000Y-74570000D02*
X116826000Y-74570000D01*
X118326000Y-61410000D02*
X118326000Y-62020000D01*
X118326000Y-77530000D02*
X118326000Y-76920000D01*
X119626000Y-61410000D02*
X119626000Y-62020000D01*
X119626000Y-77530000D02*
X119626000Y-76920000D01*
X120326000Y-62020000D02*
X116826000Y-62020000D01*
X120326000Y-63970000D02*
X120326000Y-62020000D01*
X120326000Y-74970000D02*
X120936000Y-74970000D01*
X120326000Y-76920000D02*
X120326000Y-74970000D01*
X120936000Y-63170000D02*
X121136000Y-63170000D01*
X120936000Y-63970000D02*
X120326000Y-63970000D01*
X121036000Y-63170000D02*
X121036000Y-62870000D01*
X121136000Y-62870000D02*
X120936000Y-62870000D01*
X121136000Y-63170000D02*
X121136000Y-62870000D01*
X121236000Y-61110000D02*
X119986000Y-61110000D01*
X121236000Y-62360000D02*
X121236000Y-61110000D01*
X116216000Y-61410000D02*
X120936000Y-61410000D01*
X120936000Y-77530000D01*
X116216000Y-77530000D01*
X116216000Y-61410000D01*
%TO.C,R2*%
X67591000Y-78459064D02*
X67591000Y-78004936D01*
X69061000Y-78459064D02*
X69061000Y-78004936D01*
%TO.C,Q5*%
X112628000Y-67909000D02*
X114448000Y-67909000D01*
X112628000Y-67959000D02*
X112628000Y-67909000D01*
X112628000Y-69859000D02*
X112628000Y-69079000D01*
X112628000Y-71029000D02*
X112628000Y-70979000D01*
X114448000Y-67909000D02*
X114448000Y-68909000D01*
X114448000Y-70029000D02*
X114448000Y-71029000D01*
X114448000Y-71029000D02*
X112628000Y-71029000D01*
X112088000Y-69089000D02*
X112328000Y-69419000D01*
X111848000Y-69419000D01*
X112088000Y-69089000D01*
G36*
X112328000Y-69419000D02*
G01*
X111848000Y-69419000D01*
X112088000Y-69089000D01*
X112328000Y-69419000D01*
G37*
%TO.C,J6*%
X116826000Y-79195000D02*
X116826000Y-96095000D01*
X116826000Y-81545000D02*
X117326000Y-81545000D01*
X116826000Y-81645000D02*
X117326000Y-81645000D01*
X116826000Y-83545000D02*
X117326000Y-83545000D01*
X116826000Y-83645000D02*
X117326000Y-83645000D01*
X116826000Y-85545000D02*
X117326000Y-85545000D01*
X116826000Y-85645000D02*
X117326000Y-85645000D01*
X116826000Y-87545000D02*
X117326000Y-87545000D01*
X116826000Y-87645000D02*
X117326000Y-87645000D01*
X116826000Y-89545000D02*
X117326000Y-89545000D01*
X116826000Y-89645000D02*
X117326000Y-89645000D01*
X116826000Y-91545000D02*
X117326000Y-91545000D01*
X116826000Y-91645000D02*
X117326000Y-91645000D01*
X116826000Y-93545000D02*
X117326000Y-93545000D01*
X116826000Y-93645000D02*
X117326000Y-93645000D01*
X116826000Y-96095000D02*
X120326000Y-96095000D01*
X117326000Y-81545000D02*
X117326000Y-81745000D01*
X117326000Y-81745000D02*
X116826000Y-81745000D01*
X117326000Y-83545000D02*
X117326000Y-83745000D01*
X117326000Y-83745000D02*
X116826000Y-83745000D01*
X117326000Y-85545000D02*
X117326000Y-85745000D01*
X117326000Y-85745000D02*
X116826000Y-85745000D01*
X117326000Y-87545000D02*
X117326000Y-87745000D01*
X117326000Y-87745000D02*
X116826000Y-87745000D01*
X117326000Y-89545000D02*
X117326000Y-89745000D01*
X117326000Y-89745000D02*
X116826000Y-89745000D01*
X117326000Y-91545000D02*
X117326000Y-91745000D01*
X117326000Y-91745000D02*
X116826000Y-91745000D01*
X117326000Y-93545000D02*
X117326000Y-93745000D01*
X117326000Y-93745000D02*
X116826000Y-93745000D01*
X118326000Y-78585000D02*
X118326000Y-79195000D01*
X118326000Y-96705000D02*
X118326000Y-96095000D01*
X119626000Y-78585000D02*
X119626000Y-79195000D01*
X119626000Y-96705000D02*
X119626000Y-96095000D01*
X120326000Y-79195000D02*
X116826000Y-79195000D01*
X120326000Y-81145000D02*
X120326000Y-79195000D01*
X120326000Y-94145000D02*
X120936000Y-94145000D01*
X120326000Y-96095000D02*
X120326000Y-94145000D01*
X120936000Y-80345000D02*
X121136000Y-80345000D01*
X120936000Y-81145000D02*
X120326000Y-81145000D01*
X121036000Y-80345000D02*
X121036000Y-80045000D01*
X121136000Y-80045000D02*
X120936000Y-80045000D01*
X121136000Y-80345000D02*
X121136000Y-80045000D01*
X121236000Y-78285000D02*
X119986000Y-78285000D01*
X121236000Y-79535000D02*
X121236000Y-78285000D01*
X116216000Y-78585000D02*
X120936000Y-78585000D01*
X120936000Y-96705000D01*
X116216000Y-96705000D01*
X116216000Y-78585000D01*
%TO.C,L1*%
X74078400Y-60626000D02*
X79798400Y-60626000D01*
X74078400Y-61176000D02*
X74078400Y-60626000D01*
X74078400Y-65846000D02*
X74078400Y-65296000D01*
X79798400Y-60626000D02*
X79798400Y-61176000D01*
X79798400Y-65296000D02*
X79798400Y-65846000D01*
X79798400Y-65846000D02*
X74078400Y-65846000D01*
%TO.C,R29*%
X115185064Y-109379000D02*
X114730936Y-109379000D01*
X115185064Y-110849000D02*
X114730936Y-110849000D01*
%TO.C,R16*%
X134391000Y-70441064D02*
X134391000Y-69986936D01*
X135861000Y-70441064D02*
X135861000Y-69986936D01*
%TO.C,C1*%
X69851748Y-66966000D02*
X71274252Y-66966000D01*
X69851748Y-69686000D02*
X71274252Y-69686000D01*
%TO.C,R4*%
X67591000Y-87222064D02*
X67591000Y-86767936D01*
X69061000Y-87222064D02*
X69061000Y-86767936D01*
%TO.C,J10*%
D10*
X139593000Y-56514000D02*
X139593000Y-55814000D01*
X139593000Y-73314000D02*
X139593000Y-63314000D01*
X139593000Y-80814000D02*
X139593000Y-80214000D01*
X155593000Y-55814000D02*
X139593000Y-55814000D01*
X155593000Y-55814000D02*
X155593000Y-80814000D01*
X155593000Y-80814000D02*
X139593000Y-80814000D01*
%TO.C,R3*%
D11*
X67591000Y-82904064D02*
X67591000Y-82449936D01*
X69061000Y-82904064D02*
X69061000Y-82449936D01*
%TO.C,R22*%
X63530936Y-109379000D02*
X63985064Y-109379000D01*
X63530936Y-110849000D02*
X63985064Y-110849000D01*
%TO.C,R25*%
X84285064Y-109379000D02*
X83830936Y-109379000D01*
X84285064Y-110849000D02*
X83830936Y-110849000D01*
%TO.C,Q1*%
X109331500Y-57622000D02*
X111151500Y-57622000D01*
X109331500Y-57672000D02*
X109331500Y-57622000D01*
X109331500Y-59572000D02*
X109331500Y-58792000D01*
X109331500Y-60742000D02*
X109331500Y-60692000D01*
X111151500Y-57622000D02*
X111151500Y-58622000D01*
X111151500Y-59742000D02*
X111151500Y-60742000D01*
X111151500Y-60742000D02*
X109331500Y-60742000D01*
X108791500Y-58802000D02*
X109031500Y-59132000D01*
X108551500Y-59132000D01*
X108791500Y-58802000D01*
G36*
X109031500Y-59132000D02*
G01*
X108551500Y-59132000D01*
X108791500Y-58802000D01*
X109031500Y-59132000D01*
G37*
%TO.C,R21*%
X152920936Y-86079000D02*
X153375064Y-86079000D01*
X152920936Y-87549000D02*
X153375064Y-87549000D01*
%TO.C,J3*%
X100445000Y-72378000D02*
X100445000Y-73628000D01*
X100745000Y-73988000D02*
X101355000Y-73988000D01*
X100745000Y-75288000D02*
X101355000Y-75288000D01*
X101355000Y-73288000D02*
X101355000Y-76788000D01*
X101355000Y-76788000D02*
X112255000Y-76788000D01*
X101695000Y-72378000D02*
X100445000Y-72378000D01*
X102205000Y-72478000D02*
X102205000Y-72678000D01*
X102505000Y-72478000D02*
X102205000Y-72478000D01*
X102505000Y-72578000D02*
X102205000Y-72578000D01*
X102505000Y-72678000D02*
X102505000Y-72478000D01*
X103305000Y-72678000D02*
X103305000Y-73288000D01*
X103305000Y-73288000D02*
X101355000Y-73288000D01*
X103705000Y-76288000D02*
X103905000Y-76288000D01*
X103705000Y-76788000D02*
X103705000Y-76288000D01*
X103805000Y-76788000D02*
X103805000Y-76288000D01*
X103905000Y-76288000D02*
X103905000Y-76788000D01*
X105705000Y-76288000D02*
X105905000Y-76288000D01*
X105705000Y-76788000D02*
X105705000Y-76288000D01*
X105805000Y-76788000D02*
X105805000Y-76288000D01*
X105905000Y-76288000D02*
X105905000Y-76788000D01*
X107705000Y-76288000D02*
X107905000Y-76288000D01*
X107705000Y-76788000D02*
X107705000Y-76288000D01*
X107805000Y-76788000D02*
X107805000Y-76288000D01*
X107905000Y-76288000D02*
X107905000Y-76788000D01*
X109705000Y-76288000D02*
X109905000Y-76288000D01*
X109705000Y-76788000D02*
X109705000Y-76288000D01*
X109805000Y-76788000D02*
X109805000Y-76288000D01*
X109905000Y-76288000D02*
X109905000Y-76788000D01*
X110305000Y-73288000D02*
X110305000Y-72678000D01*
X112255000Y-73288000D02*
X110305000Y-73288000D01*
X112255000Y-76788000D02*
X112255000Y-73288000D01*
X112865000Y-73988000D02*
X112255000Y-73988000D01*
X112865000Y-75288000D02*
X112255000Y-75288000D01*
X100745000Y-72678000D02*
X112865000Y-72678000D01*
X112865000Y-77398000D01*
X100745000Y-77398000D01*
X100745000Y-72678000D01*
%TO.C,U3*%
X71731000Y-81394000D02*
X76351000Y-81394000D01*
X71731000Y-81609000D02*
X71731000Y-81394000D01*
X71731000Y-84214000D02*
X71731000Y-83999000D01*
X76351000Y-81394000D02*
X76351000Y-81609000D01*
X76351000Y-83999000D02*
X76351000Y-84214000D01*
X76351000Y-84214000D02*
X71731000Y-84214000D01*
X70851000Y-81604000D02*
X70611000Y-81274000D01*
X71091000Y-81274000D01*
X70851000Y-81604000D01*
G36*
X70851000Y-81604000D02*
G01*
X70611000Y-81274000D01*
X71091000Y-81274000D01*
X70851000Y-81604000D01*
G37*
%TO.C,U4*%
X71731000Y-85458000D02*
X76351000Y-85458000D01*
X71731000Y-85673000D02*
X71731000Y-85458000D01*
X71731000Y-88278000D02*
X71731000Y-88063000D01*
X76351000Y-85458000D02*
X76351000Y-85673000D01*
X76351000Y-88063000D02*
X76351000Y-88278000D01*
X76351000Y-88278000D02*
X71731000Y-88278000D01*
X70851000Y-85668000D02*
X70611000Y-85338000D01*
X71091000Y-85338000D01*
X70851000Y-85668000D01*
G36*
X70851000Y-85668000D02*
G01*
X70611000Y-85338000D01*
X71091000Y-85338000D01*
X70851000Y-85668000D01*
G37*
%TO.C,J11*%
D10*
X133035000Y-75701500D02*
X136535000Y-75701500D01*
X133035000Y-76701500D02*
X133035000Y-75701500D01*
X133035000Y-93701500D02*
X133035000Y-82701500D01*
X133035000Y-100701500D02*
X133035000Y-99701500D01*
X136535000Y-100701500D02*
X133035000Y-100701500D01*
X136535000Y-100701500D02*
X136535000Y-75701500D01*
%TO.C,Q4*%
D11*
X107929000Y-63337000D02*
X109749000Y-63337000D01*
X107929000Y-63387000D02*
X107929000Y-63337000D01*
X107929000Y-65287000D02*
X107929000Y-64507000D01*
X107929000Y-66457000D02*
X107929000Y-66407000D01*
X109749000Y-63337000D02*
X109749000Y-64337000D01*
X109749000Y-65457000D02*
X109749000Y-66457000D01*
X109749000Y-66457000D02*
X107929000Y-66457000D01*
X107389000Y-64517000D02*
X107629000Y-64847000D01*
X107149000Y-64847000D01*
X107389000Y-64517000D01*
G36*
X107629000Y-64847000D02*
G01*
X107149000Y-64847000D01*
X107389000Y-64517000D01*
X107629000Y-64847000D01*
G37*
%TO.C,J20*%
X100118000Y-114814000D02*
X100118000Y-113484000D01*
%TO.C,Q6*%
X107929000Y-68036000D02*
X109749000Y-68036000D01*
X107929000Y-68086000D02*
X107929000Y-68036000D01*
X107929000Y-69986000D02*
X107929000Y-69206000D01*
X107929000Y-71156000D02*
X107929000Y-71106000D01*
X109749000Y-68036000D02*
X109749000Y-69036000D01*
X109749000Y-70156000D02*
X109749000Y-71156000D01*
X109749000Y-71156000D02*
X107929000Y-71156000D01*
X107389000Y-69216000D02*
X107629000Y-69546000D01*
X107149000Y-69546000D01*
X107389000Y-69216000D01*
G36*
X107629000Y-69546000D02*
G01*
X107149000Y-69546000D01*
X107389000Y-69216000D01*
X107629000Y-69546000D01*
G37*
%TO.C,J2*%
X61390000Y-71341000D02*
X61390000Y-72591000D01*
X61390000Y-72591000D02*
X62640000Y-72591000D01*
X61490000Y-70531000D02*
X61490000Y-70831000D01*
X61490000Y-70831000D02*
X61690000Y-70831000D01*
X61590000Y-70531000D02*
X61590000Y-70831000D01*
X61690000Y-69731000D02*
X62300000Y-69731000D01*
X61690000Y-70531000D02*
X61490000Y-70531000D01*
X62300000Y-64781000D02*
X62300000Y-66731000D01*
X62300000Y-66731000D02*
X61690000Y-66731000D01*
X62300000Y-69731000D02*
X62300000Y-71681000D01*
X62300000Y-71681000D02*
X65800000Y-71681000D01*
X63000000Y-64171000D02*
X63000000Y-64781000D01*
X63000000Y-72291000D02*
X63000000Y-71681000D01*
X64300000Y-64171000D02*
X64300000Y-64781000D01*
X64300000Y-72291000D02*
X64300000Y-71681000D01*
X65300000Y-67131000D02*
X65800000Y-67131000D01*
X65300000Y-67331000D02*
X65300000Y-67131000D01*
X65300000Y-69131000D02*
X65800000Y-69131000D01*
X65300000Y-69331000D02*
X65300000Y-69131000D01*
X65800000Y-64781000D02*
X62300000Y-64781000D01*
X65800000Y-67231000D02*
X65300000Y-67231000D01*
X65800000Y-67331000D02*
X65300000Y-67331000D01*
X65800000Y-69231000D02*
X65300000Y-69231000D01*
X65800000Y-69331000D02*
X65300000Y-69331000D01*
X65800000Y-71681000D02*
X65800000Y-64781000D01*
X61690000Y-64171000D02*
X66410000Y-64171000D01*
X66410000Y-72291000D01*
X61690000Y-72291000D01*
X61690000Y-64171000D01*
%TO.C,R28*%
X109285064Y-109379000D02*
X108830936Y-109379000D01*
X109285064Y-110849000D02*
X108830936Y-110849000D01*
%TO.C,J7*%
D10*
X123508000Y-98989000D02*
X123508000Y-58589000D01*
X123708000Y-58589000D02*
X123508000Y-58589000D01*
X123708000Y-98989000D02*
X123508000Y-98989000D01*
X127708000Y-58589000D02*
X127308000Y-58589000D01*
X127708000Y-98989000D02*
X127308000Y-98989000D01*
X131508000Y-58589000D02*
X131308000Y-58589000D01*
X131508000Y-58589000D02*
X131508000Y-98989000D01*
X131508000Y-98989000D02*
X131308000Y-98989000D01*
%TO.C,J8*%
X133043000Y-56714000D02*
X136543000Y-56714000D01*
X133043000Y-57214000D02*
X133043000Y-56714000D01*
X133043000Y-61214000D02*
X133043000Y-60214000D01*
X133043000Y-64714000D02*
X133043000Y-64214000D01*
X136543000Y-64714000D02*
X133043000Y-64714000D01*
X136543000Y-64714000D02*
X136543000Y-56714000D01*
%TO.C,R14*%
D11*
X114073000Y-96008564D02*
X114073000Y-95554436D01*
X115543000Y-96008564D02*
X115543000Y-95554436D01*
%TO.C,R24*%
X78430936Y-109379000D02*
X78885064Y-109379000D01*
X78430936Y-110849000D02*
X78885064Y-110849000D01*
%TO.C,R11*%
X103659000Y-85721564D02*
X103659000Y-85267436D01*
X105129000Y-85721564D02*
X105129000Y-85267436D01*
%TO.C,Q7*%
X102453000Y-93959000D02*
X103453000Y-93959000D01*
X102453000Y-95779000D02*
X102453000Y-93959000D01*
X102503000Y-95779000D02*
X102453000Y-95779000D01*
X104403000Y-95779000D02*
X103623000Y-95779000D01*
X104573000Y-93959000D02*
X105573000Y-93959000D01*
X105573000Y-93959000D02*
X105573000Y-95779000D01*
X105573000Y-95779000D02*
X105523000Y-95779000D01*
X103633000Y-96319000D02*
X103963000Y-96079000D01*
X103963000Y-96559000D01*
X103633000Y-96319000D01*
G36*
X103963000Y-96559000D02*
G01*
X103633000Y-96319000D01*
X103963000Y-96079000D01*
X103963000Y-96559000D01*
G37*
%TO.C,C2*%
X71861000Y-92278252D02*
X71861000Y-90855748D01*
X73681000Y-92278252D02*
X73681000Y-90855748D01*
%TO.C,D3*%
X133983000Y-78241500D02*
X133983000Y-82301500D01*
X136253000Y-78241500D02*
X133983000Y-78241500D01*
X136253000Y-82301500D02*
X136253000Y-78241500D01*
%TO.C,R19*%
X140320936Y-86079000D02*
X140775064Y-86079000D01*
X140320936Y-87549000D02*
X140775064Y-87549000D01*
%TO.C,R7*%
X113946000Y-80036936D02*
X113946000Y-80491064D01*
X115416000Y-80036936D02*
X115416000Y-80491064D01*
%TO.C,R6*%
X74703000Y-91212936D02*
X74703000Y-91667064D01*
X76173000Y-91212936D02*
X76173000Y-91667064D01*
%TO.C,J1*%
X61390000Y-91153000D02*
X61390000Y-92403000D01*
X61390000Y-92403000D02*
X62640000Y-92403000D01*
X61490000Y-90343000D02*
X61490000Y-90643000D01*
X61490000Y-90643000D02*
X61690000Y-90643000D01*
X61590000Y-90343000D02*
X61590000Y-90643000D01*
X61690000Y-89543000D02*
X62300000Y-89543000D01*
X61690000Y-90343000D02*
X61490000Y-90343000D01*
X62300000Y-74593000D02*
X62300000Y-76543000D01*
X62300000Y-76543000D02*
X61690000Y-76543000D01*
X62300000Y-89543000D02*
X62300000Y-91493000D01*
X62300000Y-91493000D02*
X65800000Y-91493000D01*
X63000000Y-73983000D02*
X63000000Y-74593000D01*
X63000000Y-92103000D02*
X63000000Y-91493000D01*
X64300000Y-73983000D02*
X64300000Y-74593000D01*
X64300000Y-92103000D02*
X64300000Y-91493000D01*
X65300000Y-76943000D02*
X65800000Y-76943000D01*
X65300000Y-77143000D02*
X65300000Y-76943000D01*
X65300000Y-78943000D02*
X65800000Y-78943000D01*
X65300000Y-79143000D02*
X65300000Y-78943000D01*
X65300000Y-80943000D02*
X65800000Y-80943000D01*
X65300000Y-81143000D02*
X65300000Y-80943000D01*
X65300000Y-82943000D02*
X65800000Y-82943000D01*
X65300000Y-83143000D02*
X65300000Y-82943000D01*
X65300000Y-84943000D02*
X65800000Y-84943000D01*
X65300000Y-85143000D02*
X65300000Y-84943000D01*
X65300000Y-86943000D02*
X65800000Y-86943000D01*
X65300000Y-87143000D02*
X65300000Y-86943000D01*
X65300000Y-88943000D02*
X65800000Y-88943000D01*
X65300000Y-89143000D02*
X65300000Y-88943000D01*
X65800000Y-74593000D02*
X62300000Y-74593000D01*
X65800000Y-77043000D02*
X65300000Y-77043000D01*
X65800000Y-77143000D02*
X65300000Y-77143000D01*
X65800000Y-79043000D02*
X65300000Y-79043000D01*
X65800000Y-79143000D02*
X65300000Y-79143000D01*
X65800000Y-81043000D02*
X65300000Y-81043000D01*
X65800000Y-81143000D02*
X65300000Y-81143000D01*
X65800000Y-83043000D02*
X65300000Y-83043000D01*
X65800000Y-83143000D02*
X65300000Y-83143000D01*
X65800000Y-85043000D02*
X65300000Y-85043000D01*
X65800000Y-85143000D02*
X65300000Y-85143000D01*
X65800000Y-87043000D02*
X65300000Y-87043000D01*
X65800000Y-87143000D02*
X65300000Y-87143000D01*
X65800000Y-89043000D02*
X65300000Y-89043000D01*
X65800000Y-89143000D02*
X65300000Y-89143000D01*
X65800000Y-91493000D02*
X65800000Y-74593000D01*
X61690000Y-73983000D02*
X66410000Y-73983000D01*
X66410000Y-92103000D01*
X61690000Y-92103000D01*
X61690000Y-73983000D01*
%TO.C,R23*%
X68685064Y-109379000D02*
X68230936Y-109379000D01*
X68685064Y-110849000D02*
X68230936Y-110849000D01*
%TO.C,R5*%
X105569500Y-59409064D02*
X105569500Y-58954936D01*
X107039500Y-59409064D02*
X107039500Y-58954936D01*
%TO.C,C4*%
X77678452Y-66644000D02*
X76255948Y-66644000D01*
X77678452Y-68464000D02*
X76255948Y-68464000D01*
%TO.C,C5*%
X77678452Y-69184000D02*
X76255948Y-69184000D01*
X77678452Y-71004000D02*
X76255948Y-71004000D01*
%TO.C,J19*%
X69428000Y-114814000D02*
X69428000Y-113484000D01*
%TO.C,R18*%
X134100000Y-90474436D02*
X134100000Y-90928564D01*
X135570000Y-90474436D02*
X135570000Y-90928564D01*
%TO.C,R12*%
X101627000Y-85721564D02*
X101627000Y-85267436D01*
X103097000Y-85721564D02*
X103097000Y-85267436D01*
%TO.C,Q8*%
X102453000Y-89387000D02*
X103453000Y-89387000D01*
X102453000Y-91207000D02*
X102453000Y-89387000D01*
X102503000Y-91207000D02*
X102453000Y-91207000D01*
X104403000Y-91207000D02*
X103623000Y-91207000D01*
X104573000Y-89387000D02*
X105573000Y-89387000D01*
X105573000Y-89387000D02*
X105573000Y-91207000D01*
X105573000Y-91207000D02*
X105523000Y-91207000D01*
X103633000Y-91747000D02*
X103963000Y-91507000D01*
X103963000Y-91987000D01*
X103633000Y-91747000D01*
G36*
X103963000Y-91987000D02*
G01*
X103633000Y-91747000D01*
X103963000Y-91507000D01*
X103963000Y-91987000D01*
G37*
%TO.C,U2*%
X71731000Y-77330000D02*
X76351000Y-77330000D01*
X71731000Y-77545000D02*
X71731000Y-77330000D01*
X71731000Y-80150000D02*
X71731000Y-79935000D01*
X76351000Y-77330000D02*
X76351000Y-77545000D01*
X76351000Y-79935000D02*
X76351000Y-80150000D01*
X76351000Y-80150000D02*
X71731000Y-80150000D01*
X70851000Y-77540000D02*
X70611000Y-77210000D01*
X71091000Y-77210000D01*
X70851000Y-77540000D01*
G36*
X70851000Y-77540000D02*
G01*
X70611000Y-77210000D01*
X71091000Y-77210000D01*
X70851000Y-77540000D01*
G37*
%TO.C,R27*%
X100385064Y-109379000D02*
X99930936Y-109379000D01*
X100385064Y-110849000D02*
X99930936Y-110849000D01*
%TD*%
M02*
