%TF.GenerationSoftware,KiCad,Pcbnew,10.0.5*%
%TF.CreationDate,2026-08-20T01:00:13+02:00*%
%TF.ProjectId,HW_MFC01,48575f4d-4643-4303-912e-6b696361645f,rev?*%
%TF.SameCoordinates,Original*%
%TF.FileFunction,Paste,Top*%
%TF.FilePolarity,Positive*%
%FSLAX46Y46*%
G04 Gerber Fmt 4.6, Leading zero omitted, Abs format (unit mm)*
G04 Created by KiCad (PCBNEW 10.0.5) date 2026-08-20 01:00:13*
%MOMM*%
%LPD*%
G01*
G04 APERTURE LIST*
G04 Aperture macros list*
%AMRoundRect*
0 Rectangle with rounded corners*
0 $1 Rounding radius*
0 $2 $3 $4 $5 $6 $7 $8 $9 X,Y pos of 4 corners*
0 Add a 4 corners polygon primitive as box body*
4,1,4,$2,$3,$4,$5,$6,$7,$8,$9,$2,$3,0*
0 Add four circle primitives for the rounded corners*
1,1,$1+$1,$2,$3*
1,1,$1+$1,$4,$5*
1,1,$1+$1,$6,$7*
1,1,$1+$1,$8,$9*
0 Add four rect primitives between the rounded corners*
20,1,$1+$1,$2,$3,$4,$5,0*
20,1,$1+$1,$4,$5,$6,$7,0*
20,1,$1+$1,$6,$7,$8,$9,0*
20,1,$1+$1,$8,$9,$2,$3,0*%
G04 Aperture macros list end*
%ADD10RoundRect,0.250000X-0.350000X-0.450000X0.350000X-0.450000X0.350000X0.450000X-0.350000X0.450000X0*%
%ADD11RoundRect,0.150000X-0.512500X-0.150000X0.512500X-0.150000X0.512500X0.150000X-0.512500X0.150000X0*%
%ADD12RoundRect,0.250000X0.450000X-0.262500X0.450000X0.262500X-0.450000X0.262500X-0.450000X-0.262500X0*%
%ADD13RoundRect,0.250000X-0.450000X0.262500X-0.450000X-0.262500X0.450000X-0.262500X0.450000X0.262500X0*%
%ADD14RoundRect,0.250001X-0.624999X0.462499X-0.624999X-0.462499X0.624999X-0.462499X0.624999X0.462499X0*%
%ADD15RoundRect,0.250000X0.325000X0.650000X-0.325000X0.650000X-0.325000X-0.650000X0.325000X-0.650000X0*%
%ADD16RoundRect,0.150000X-0.662500X-0.150000X0.662500X-0.150000X0.662500X0.150000X-0.662500X0.150000X0*%
%ADD17RoundRect,0.250000X0.450000X-0.350000X0.450000X0.350000X-0.450000X0.350000X-0.450000X-0.350000X0*%
%ADD18RoundRect,0.250000X-1.000000X-1.550000X1.000000X-1.550000X1.000000X1.550000X-1.000000X1.550000X0*%
%ADD19RoundRect,0.250000X0.350000X0.450000X-0.350000X0.450000X-0.350000X-0.450000X0.350000X-0.450000X0*%
%ADD20RoundRect,0.250000X-0.325000X-1.100000X0.325000X-1.100000X0.325000X1.100000X-0.325000X1.100000X0*%
%ADD21RoundRect,0.225000X-0.525000X-1.525000X0.525000X-1.525000X0.525000X1.525000X-0.525000X1.525000X0*%
%ADD22RoundRect,0.150000X0.150000X-0.512500X0.150000X0.512500X-0.150000X0.512500X-0.150000X-0.512500X0*%
%ADD23RoundRect,0.250000X0.650000X-0.325000X0.650000X0.325000X-0.650000X0.325000X-0.650000X-0.325000X0*%
%ADD24RoundRect,0.250000X-0.450000X0.350000X-0.450000X-0.350000X0.450000X-0.350000X0.450000X0.350000X0*%
G04 APERTURE END LIST*
D10*
%TO.C,R19*%
X139558000Y-108614000D03*
X141558000Y-108614000D03*
%TD*%
%TO.C,R21*%
X152158000Y-108614000D03*
X154158000Y-108614000D03*
%TD*%
%TO.C,R20*%
X145858000Y-108614000D03*
X147858000Y-108614000D03*
%TD*%
%TO.C,R19*%
X139558000Y-97714000D03*
X141558000Y-97714000D03*
%TD*%
%TO.C,R21*%
X152158000Y-97714000D03*
X154158000Y-97714000D03*
%TD*%
%TO.C,R20*%
X145858000Y-97714000D03*
X147858000Y-97714000D03*
%TD*%
D11*
%TO.C,Q2*%
X112400500Y-63947000D03*
X112400500Y-65847000D03*
X114675500Y-64897000D03*
%TD*%
D12*
%TO.C,R9*%
X114681000Y-88542500D03*
X114681000Y-86717500D03*
%TD*%
%TO.C,R10*%
X112776000Y-88542500D03*
X112776000Y-86717500D03*
%TD*%
D11*
%TO.C,Q3*%
X103002500Y-80838000D03*
X103002500Y-82738000D03*
X105277500Y-81788000D03*
%TD*%
D13*
%TO.C,R13*%
X114808000Y-91186000D03*
X114808000Y-93011000D03*
%TD*%
D14*
%TO.C,D4*%
X135135000Y-94214000D03*
X135135000Y-97189000D03*
%TD*%
D12*
%TO.C,R8*%
X114681000Y-84859500D03*
X114681000Y-83034500D03*
%TD*%
%TO.C,R1*%
X68326000Y-74953500D03*
X68326000Y-73128500D03*
%TD*%
D15*
%TO.C,C3*%
X72087000Y-61214000D03*
X69137000Y-61214000D03*
%TD*%
D11*
%TO.C,U5*%
X69552500Y-63312000D03*
X69552500Y-64262000D03*
X69552500Y-65212000D03*
X71827500Y-65212000D03*
X71827500Y-64262000D03*
X71827500Y-63312000D03*
%TD*%
D16*
%TO.C,U1*%
X70853500Y-74041000D03*
X70853500Y-75311000D03*
X77228500Y-75311000D03*
X77228500Y-74041000D03*
%TD*%
D14*
%TO.C,D1*%
X135126000Y-59226500D03*
X135126000Y-62201500D03*
%TD*%
D10*
%TO.C,R20*%
X145848000Y-86814000D03*
X147848000Y-86814000D03*
%TD*%
%TO.C,R26*%
X93058000Y-110114000D03*
X95058000Y-110114000D03*
%TD*%
D17*
%TO.C,R17*%
X134835000Y-86701500D03*
X134835000Y-84701500D03*
%TD*%
D12*
%TO.C,R2*%
X68326000Y-79144500D03*
X68326000Y-77319500D03*
%TD*%
D11*
%TO.C,Q5*%
X112400500Y-68519000D03*
X112400500Y-70419000D03*
X114675500Y-69469000D03*
%TD*%
D18*
%TO.C,L1*%
X74588400Y-63236000D03*
X79288400Y-63236000D03*
%TD*%
D19*
%TO.C,R29*%
X115958000Y-110114000D03*
X113958000Y-110114000D03*
%TD*%
D17*
%TO.C,R16*%
X135126000Y-71214000D03*
X135126000Y-69214000D03*
%TD*%
D20*
%TO.C,C1*%
X69088000Y-68326000D03*
X72038000Y-68326000D03*
%TD*%
D12*
%TO.C,R4*%
X68326000Y-87907500D03*
X68326000Y-86082500D03*
%TD*%
%TO.C,R3*%
X68326000Y-83589500D03*
X68326000Y-81764500D03*
%TD*%
D10*
%TO.C,R22*%
X62758000Y-110114000D03*
X64758000Y-110114000D03*
%TD*%
D19*
%TO.C,R25*%
X85058000Y-110114000D03*
X83058000Y-110114000D03*
%TD*%
D11*
%TO.C,Q1*%
X109104000Y-58232000D03*
X109104000Y-60132000D03*
X111379000Y-59182000D03*
%TD*%
D21*
%TO.C,J18*%
X92258000Y-106314000D03*
X94258000Y-106314000D03*
X100258000Y-106314000D03*
X102258000Y-106314000D03*
X108258000Y-106314000D03*
X110258000Y-106314000D03*
X116258000Y-106314000D03*
X118258000Y-106314000D03*
%TD*%
D10*
%TO.C,R21*%
X152148000Y-86814000D03*
X154148000Y-86814000D03*
%TD*%
D16*
%TO.C,U3*%
X70853500Y-82169000D03*
X70853500Y-83439000D03*
X77228500Y-83439000D03*
X77228500Y-82169000D03*
%TD*%
%TO.C,U4*%
X70853500Y-86233000D03*
X70853500Y-87503000D03*
X77228500Y-87503000D03*
X77228500Y-86233000D03*
%TD*%
D21*
%TO.C,J15*%
X61558000Y-106314000D03*
X63558000Y-106314000D03*
X69558000Y-106314000D03*
X71558000Y-106314000D03*
X77558000Y-106314000D03*
X79558000Y-106314000D03*
X85558000Y-106314000D03*
X87558000Y-106314000D03*
%TD*%
D11*
%TO.C,Q4*%
X107701500Y-63947000D03*
X107701500Y-65847000D03*
X109976500Y-64897000D03*
%TD*%
%TO.C,Q6*%
X107701500Y-68646000D03*
X107701500Y-70546000D03*
X109976500Y-69596000D03*
%TD*%
D19*
%TO.C,R28*%
X110058000Y-110114000D03*
X108058000Y-110114000D03*
%TD*%
D12*
%TO.C,R14*%
X114808000Y-96694000D03*
X114808000Y-94869000D03*
%TD*%
D10*
%TO.C,R24*%
X77658000Y-110114000D03*
X79658000Y-110114000D03*
%TD*%
D12*
%TO.C,R11*%
X104394000Y-86407000D03*
X104394000Y-84582000D03*
%TD*%
D22*
%TO.C,Q7*%
X103063000Y-96006500D03*
X104963000Y-96006500D03*
X104013000Y-93731500D03*
%TD*%
D23*
%TO.C,C2*%
X72771000Y-93042000D03*
X72771000Y-90092000D03*
%TD*%
D14*
%TO.C,D3*%
X135118000Y-79214000D03*
X135118000Y-82189000D03*
%TD*%
D10*
%TO.C,R19*%
X139548000Y-86814000D03*
X141548000Y-86814000D03*
%TD*%
D13*
%TO.C,R7*%
X114681000Y-79351500D03*
X114681000Y-81176500D03*
%TD*%
%TO.C,R6*%
X75438000Y-90527500D03*
X75438000Y-92352500D03*
%TD*%
D19*
%TO.C,R23*%
X69458000Y-110114000D03*
X67458000Y-110114000D03*
%TD*%
D12*
%TO.C,R5*%
X106304500Y-60094500D03*
X106304500Y-58269500D03*
%TD*%
D15*
%TO.C,C4*%
X78442200Y-67554000D03*
X75492200Y-67554000D03*
%TD*%
%TO.C,C5*%
X78442200Y-70094000D03*
X75492200Y-70094000D03*
%TD*%
D24*
%TO.C,R18*%
X134835000Y-89701500D03*
X134835000Y-91701500D03*
%TD*%
D12*
%TO.C,R12*%
X102362000Y-86407000D03*
X102362000Y-84582000D03*
%TD*%
D22*
%TO.C,Q8*%
X103063000Y-91434500D03*
X104963000Y-91434500D03*
X104013000Y-89159500D03*
%TD*%
D16*
%TO.C,U2*%
X70853500Y-78105000D03*
X70853500Y-79375000D03*
X77228500Y-79375000D03*
X77228500Y-78105000D03*
%TD*%
D19*
%TO.C,R27*%
X101158000Y-110114000D03*
X99158000Y-110114000D03*
%TD*%
M02*
