%TF.GenerationSoftware,KiCad,Pcbnew,10.0.5*%
%TF.CreationDate,2026-08-20T01:00:13+02:00*%
%TF.ProjectId,HW_MFC01,48575f4d-4643-4303-912e-6b696361645f,rev?*%
%TF.SameCoordinates,Original*%
%TF.FileFunction,Copper,L1,Top*%
%TF.FilePolarity,Positive*%
%FSLAX46Y46*%
G04 Gerber Fmt 4.6, Leading zero omitted, Abs format (unit mm)*
G04 Created by KiCad (PCBNEW 10.0.5) date 2026-08-20 01:00:13*
%MOMM*%
%LPD*%
G01*
G04 APERTURE LIST*
G04 Aperture macros list*
%AMRoundRect*
0 Rectangle with rounded corners*
0 $1 Rounding radius*
0 $2 $3 $4 $5 $6 $7 $8 $9 X,Y pos of 4 corners*
0 Add a 4 corners polygon primitive as box body*
4,1,4,$2,$3,$4,$5,$6,$7,$8,$9,$2,$3,0*
0 Add four circle primitives for the rounded corners*
1,1,$1+$1,$2,$3*
1,1,$1+$1,$4,$5*
1,1,$1+$1,$6,$7*
1,1,$1+$1,$8,$9*
0 Add four rect primitives between the rounded corners*
20,1,$1+$1,$2,$3,$4,$5,0*
20,1,$1+$1,$4,$5,$6,$7,0*
20,1,$1+$1,$6,$7,$8,$9,0*
20,1,$1+$1,$8,$9,$2,$3,0*%
G04 Aperture macros list end*
%TA.AperFunction,SMDPad,CuDef*%
%ADD10RoundRect,0.250000X-0.350000X-0.450000X0.350000X-0.450000X0.350000X0.450000X-0.350000X0.450000X0*%
%TD*%
%TA.AperFunction,ComponentPad*%
%ADD11RoundRect,0.250000X-0.600000X1.250000X-0.600000X-1.250000X0.600000X-1.250000X0.600000X1.250000X0*%
%TD*%
%TA.AperFunction,ComponentPad*%
%ADD12RoundRect,0.250000X0.650000X1.250000X-0.650000X1.250000X-0.650000X-1.250000X0.650000X-1.250000X0*%
%TD*%
%TA.AperFunction,SMDPad,CuDef*%
%ADD13R,1.700000X3.500000*%
%TD*%
%TA.AperFunction,ComponentPad*%
%ADD14C,1.700000*%
%TD*%
%TA.AperFunction,SMDPad,CuDef*%
%ADD15R,3.500000X1.700000*%
%TD*%
%TA.AperFunction,SMDPad,CuDef*%
%ADD16RoundRect,0.150000X-0.512500X-0.150000X0.512500X-0.150000X0.512500X0.150000X-0.512500X0.150000X0*%
%TD*%
%TA.AperFunction,SMDPad,CuDef*%
%ADD17RoundRect,0.250000X0.450000X-0.262500X0.450000X0.262500X-0.450000X0.262500X-0.450000X-0.262500X0*%
%TD*%
%TA.AperFunction,SMDPad,CuDef*%
%ADD18RoundRect,0.250000X-0.450000X0.262500X-0.450000X-0.262500X0.450000X-0.262500X0.450000X0.262500X0*%
%TD*%
%TA.AperFunction,SMDPad,CuDef*%
%ADD19RoundRect,0.250001X-0.624999X0.462499X-0.624999X-0.462499X0.624999X-0.462499X0.624999X0.462499X0*%
%TD*%
%TA.AperFunction,SMDPad,CuDef*%
%ADD20RoundRect,0.250000X0.325000X0.650000X-0.325000X0.650000X-0.325000X-0.650000X0.325000X-0.650000X0*%
%TD*%
%TA.AperFunction,ComponentPad*%
%ADD21C,1.200000*%
%TD*%
%TA.AperFunction,SMDPad,CuDef*%
%ADD22RoundRect,0.150000X-0.662500X-0.150000X0.662500X-0.150000X0.662500X0.150000X-0.662500X0.150000X0*%
%TD*%
%TA.AperFunction,ComponentPad*%
%ADD23RoundRect,0.250000X-1.000000X0.350000X-1.000000X-0.350000X1.000000X-0.350000X1.000000X0.350000X0*%
%TD*%
%TA.AperFunction,SMDPad,CuDef*%
%ADD24RoundRect,0.250000X0.450000X-0.350000X0.450000X0.350000X-0.450000X0.350000X-0.450000X-0.350000X0*%
%TD*%
%TA.AperFunction,SMDPad,CuDef*%
%ADD25RoundRect,0.250000X-1.000000X-1.550000X1.000000X-1.550000X1.000000X1.550000X-1.000000X1.550000X0*%
%TD*%
%TA.AperFunction,SMDPad,CuDef*%
%ADD26RoundRect,0.250000X0.350000X0.450000X-0.350000X0.450000X-0.350000X-0.450000X0.350000X-0.450000X0*%
%TD*%
%TA.AperFunction,SMDPad,CuDef*%
%ADD27RoundRect,0.250000X-0.325000X-1.100000X0.325000X-1.100000X0.325000X1.100000X-0.325000X1.100000X0*%
%TD*%
%TA.AperFunction,ComponentPad*%
%ADD28RoundRect,0.450000X-1.550000X-1.050000X1.550000X-1.050000X1.550000X1.050000X-1.550000X1.050000X0*%
%TD*%
%TA.AperFunction,ComponentPad*%
%ADD29RoundRect,0.450000X1.550000X1.050000X-1.550000X1.050000X-1.550000X-1.050000X1.550000X-1.050000X0*%
%TD*%
%TA.AperFunction,ComponentPad*%
%ADD30RoundRect,0.300000X0.700000X-0.700000X0.700000X0.700000X-0.700000X0.700000X-0.700000X-0.700000X0*%
%TD*%
%TA.AperFunction,SMDPad,CuDef*%
%ADD31RoundRect,0.225000X-0.525000X-1.525000X0.525000X-1.525000X0.525000X1.525000X-0.525000X1.525000X0*%
%TD*%
%TA.AperFunction,ComponentPad*%
%ADD32RoundRect,0.250000X-0.350000X-1.000000X0.350000X-1.000000X0.350000X1.000000X-0.350000X1.000000X0*%
%TD*%
%TA.AperFunction,ComponentPad*%
%ADD33RoundRect,0.250000X0.600000X-1.250000X0.600000X1.250000X-0.600000X1.250000X-0.600000X-1.250000X0*%
%TD*%
%TA.AperFunction,ComponentPad*%
%ADD34RoundRect,0.141667X0.708333X-1.358333X0.708333X1.358333X-0.708333X1.358333X-0.708333X-1.358333X0*%
%TD*%
%TA.AperFunction,ComponentPad*%
%ADD35RoundRect,0.250000X1.000000X-0.350000X1.000000X0.350000X-1.000000X0.350000X-1.000000X-0.350000X0*%
%TD*%
%TA.AperFunction,ComponentPad*%
%ADD36RoundRect,0.450000X1.050000X-1.550000X1.050000X1.550000X-1.050000X1.550000X-1.050000X-1.550000X0*%
%TD*%
%TA.AperFunction,SMDPad,CuDef*%
%ADD37RoundRect,0.150000X0.150000X-0.512500X0.150000X0.512500X-0.150000X0.512500X-0.150000X-0.512500X0*%
%TD*%
%TA.AperFunction,SMDPad,CuDef*%
%ADD38RoundRect,0.250000X0.650000X-0.325000X0.650000X0.325000X-0.650000X0.325000X-0.650000X-0.325000X0*%
%TD*%
%TA.AperFunction,SMDPad,CuDef*%
%ADD39RoundRect,0.250000X-0.450000X0.350000X-0.450000X-0.350000X0.450000X-0.350000X0.450000X0.350000X0*%
%TD*%
%TA.AperFunction,ViaPad*%
%ADD40C,0.800000*%
%TD*%
%TA.AperFunction,Conductor*%
%ADD41C,0.350000*%
%TD*%
%TA.AperFunction,Conductor*%
%ADD42C,0.250000*%
%TD*%
%TA.AperFunction,Conductor*%
%ADD43C,0.500000*%
%TD*%
%TA.AperFunction,Conductor*%
%ADD44C,1.200000*%
%TD*%
%TA.AperFunction,Conductor*%
%ADD45C,0.800000*%
%TD*%
%TA.AperFunction,Conductor*%
%ADD46C,1.500000*%
%TD*%
%TA.AperFunction,Conductor*%
%ADD47C,1.000000*%
%TD*%
G04 APERTURE END LIST*
D10*
%TO.P,R19,1*%
%TO.N,Net-(J12-Pin_2)*%
X139558000Y-108614000D03*
%TO.P,R19,2*%
%TO.N,Net-(D5-K)*%
X141558000Y-108614000D03*
%TD*%
D11*
%TO.P,J12,1,Pin_1_1*%
%TO.N,Net-(D5-A)*%
X141828000Y-111414000D03*
%TO.P,J12,2,Pin_2_2*%
%TO.N,Net-(J12-Pin_2)*%
X139288000Y-111414000D03*
%TD*%
D12*
%TO.P,D7,1,K_1*%
%TO.N,Net-(D7-K)*%
X154428000Y-105614000D03*
%TO.P,D7,2,A_2*%
%TO.N,Net-(D7-A)*%
X151888000Y-105614000D03*
%TD*%
D10*
%TO.P,R21,1*%
%TO.N,Net-(J14-Pin_2)*%
X152158000Y-108614000D03*
%TO.P,R21,2*%
%TO.N,Net-(D7-K)*%
X154158000Y-108614000D03*
%TD*%
D11*
%TO.P,J13,1,Pin_1_1*%
%TO.N,Net-(D6-A)*%
X148128000Y-111414000D03*
%TO.P,J13,2,Pin_2_2*%
%TO.N,Net-(J13-Pin_2)*%
X145588000Y-111414000D03*
%TD*%
D10*
%TO.P,R20,1*%
%TO.N,Net-(J13-Pin_2)*%
X145858000Y-108614000D03*
%TO.P,R20,2*%
%TO.N,Net-(D6-K)*%
X147858000Y-108614000D03*
%TD*%
D11*
%TO.P,J14,1,Pin_1_1*%
%TO.N,Net-(D7-A)*%
X154428000Y-111414000D03*
%TO.P,J14,2,Pin_2_2*%
%TO.N,Net-(J14-Pin_2)*%
X151888000Y-111414000D03*
%TD*%
D12*
%TO.P,D5,1,K_1*%
%TO.N,Net-(D5-K)*%
X141828000Y-105614000D03*
%TO.P,D5,2,A_2*%
%TO.N,Net-(D5-A)*%
X139288000Y-105614000D03*
%TD*%
%TO.P,D6,1,K_1*%
%TO.N,Net-(D6-K)*%
X148128000Y-105614000D03*
%TO.P,D6,2,A_2*%
%TO.N,Net-(D6-A)*%
X145588000Y-105614000D03*
%TD*%
D10*
%TO.P,R19,1*%
%TO.N,Net-(J12-Pin_2)*%
X139558000Y-97714000D03*
%TO.P,R19,2*%
%TO.N,Net-(D5-K)*%
X141558000Y-97714000D03*
%TD*%
D11*
%TO.P,J12,1,Pin_1_1*%
%TO.N,Net-(D5-A)*%
X141828000Y-100514000D03*
%TO.P,J12,2,Pin_2_2*%
%TO.N,Net-(J12-Pin_2)*%
X139288000Y-100514000D03*
%TD*%
D12*
%TO.P,D7,1,K_1*%
%TO.N,Net-(D7-K)*%
X154428000Y-94714000D03*
%TO.P,D7,2,A_2*%
%TO.N,Net-(D7-A)*%
X151888000Y-94714000D03*
%TD*%
D10*
%TO.P,R21,1*%
%TO.N,Net-(J14-Pin_2)*%
X152158000Y-97714000D03*
%TO.P,R21,2*%
%TO.N,Net-(D7-K)*%
X154158000Y-97714000D03*
%TD*%
D11*
%TO.P,J13,1,Pin_1_1*%
%TO.N,Net-(D6-A)*%
X148128000Y-100514000D03*
%TO.P,J13,2,Pin_2_2*%
%TO.N,Net-(J13-Pin_2)*%
X145588000Y-100514000D03*
%TD*%
D10*
%TO.P,R20,1*%
%TO.N,Net-(J13-Pin_2)*%
X145858000Y-97714000D03*
%TO.P,R20,2*%
%TO.N,Net-(D6-K)*%
X147858000Y-97714000D03*
%TD*%
D11*
%TO.P,J14,1,Pin_1_1*%
%TO.N,Net-(D7-A)*%
X154428000Y-100514000D03*
%TO.P,J14,2,Pin_2_2*%
%TO.N,Net-(J14-Pin_2)*%
X151888000Y-100514000D03*
%TD*%
D12*
%TO.P,D5,1,K_1*%
%TO.N,Net-(D5-K)*%
X141828000Y-94714000D03*
%TO.P,D5,2,A_2*%
%TO.N,Net-(D5-A)*%
X139288000Y-94714000D03*
%TD*%
%TO.P,D6,1,K_1*%
%TO.N,Net-(D6-K)*%
X148128000Y-94714000D03*
%TO.P,D6,2,A_2*%
%TO.N,Net-(D6-A)*%
X145588000Y-94714000D03*
%TD*%
D13*
%TO.P,U6,23,GP9_23*%
%TO.N,/SBUS_IN*%
X94869000Y-95211000D03*
D14*
X94869000Y-94361000D03*
D13*
%TO.P,U6,22,GP10_22*%
%TO.N,/SIDE_LIGHTS*%
X92329000Y-95211000D03*
D14*
X92329000Y-94361000D03*
D13*
%TO.P,U6,21,GP11_21*%
%TO.N,/BEACON_OUT*%
X89789000Y-95211000D03*
D14*
X89789000Y-94361000D03*
D13*
%TO.P,U6,20,GP12_20*%
%TO.N,/HEAD_LIGHTS*%
X87249000Y-95211000D03*
D14*
X87249000Y-94361000D03*
D13*
%TO.P,U6,19,GP13_19*%
%TO.N,unconnected-(U6-GP13-Pad19)_1*%
X84709000Y-95261000D03*
D14*
%TO.N,unconnected-(U6-GP13-Pad19)*%
X84709000Y-94361000D03*
D15*
%TO.P,U6,18,GP8_18*%
%TO.N,/REAR_PWM_OUT*%
X98309000Y-94361000D03*
D14*
X97409000Y-94361000D03*
D15*
%TO.P,U6,17,GP7_17*%
%TO.N,/TURN_R_PWM_OUT*%
X98309000Y-91821000D03*
D14*
X97409000Y-91821000D03*
D15*
%TO.P,U6,16,GP6_16*%
%TO.N,/TURN_L_PWM_OUT*%
X98309000Y-89281000D03*
D14*
X97409000Y-89281000D03*
D15*
%TO.P,U6,15,GP5_15*%
%TO.N,/J7*%
X98309000Y-86741000D03*
D14*
X97409000Y-86741000D03*
D15*
%TO.P,U6,14,GP4_14*%
%TO.N,/J6*%
X98309000Y-84201000D03*
D14*
X97409000Y-84201000D03*
D15*
%TO.P,U6,13,GP3_13*%
%TO.N,/J5*%
X98309000Y-81661000D03*
D14*
X97409000Y-81661000D03*
D15*
%TO.P,U6,12,GP2_12*%
%TO.N,/J4*%
X98309000Y-79121000D03*
D14*
X97409000Y-79121000D03*
D15*
%TO.P,U6,11,GP1_11*%
%TO.N,unconnected-(U6-GP1-Pad11)_1*%
X98309000Y-76581000D03*
D14*
%TO.N,unconnected-(U6-GP1-Pad11)*%
X97409000Y-76581000D03*
D15*
%TO.P,U6,10,GP0_10*%
%TO.N,unconnected-(U6-GP0-Pad10)*%
X98309000Y-74041000D03*
D14*
%TO.N,unconnected-(U6-GP0-Pad10)_1*%
X97409000Y-74041000D03*
%TO.P,U6,9,GP14_9*%
%TO.N,unconnected-(U6-GP14-Pad9)_1*%
X82169000Y-94361000D03*
D15*
%TO.N,unconnected-(U6-GP14-Pad9)*%
X81319000Y-94361000D03*
D14*
%TO.P,U6,8,GP15_8*%
%TO.N,unconnected-(U6-GP15-Pad8)*%
X82169000Y-91821000D03*
D15*
%TO.N,unconnected-(U6-GP15-Pad8)_1*%
X81319000Y-91821000D03*
D14*
%TO.P,U6,7,GP26_7*%
%TO.N,/REAR_LIGHT_IN*%
X82169000Y-89281000D03*
D15*
X81319000Y-89281000D03*
D14*
%TO.P,U6,6,GP27_6*%
%TO.N,/FRONT_BEACON_PWM*%
X82169000Y-86741000D03*
D15*
X81319000Y-86741000D03*
D14*
%TO.P,U6,5,GP28_5*%
%TO.N,/TURN_L_IN*%
X82169000Y-84201000D03*
D15*
X81269000Y-84201000D03*
D14*
%TO.P,U6,4,GP29_4*%
%TO.N,/TURN_R_IN*%
X82169000Y-81661000D03*
D15*
X81269000Y-81661000D03*
D14*
%TO.P,U6,3,3V3_3*%
%TO.N,+3.3V*%
X82169000Y-79121000D03*
D15*
X81269000Y-79121000D03*
D14*
%TO.P,U6,2,GND_2*%
%TO.N,GND*%
X82169000Y-76581000D03*
D15*
X81269000Y-76581000D03*
D14*
%TO.P,U6,1,5V_1*%
%TO.N,unconnected-(U6-5V-Pad1)*%
X82169000Y-74041000D03*
D15*
%TO.N,unconnected-(U6-5V-Pad1)_1*%
X81269000Y-74041000D03*
%TD*%
D16*
%TO.P,Q2,1,G_1*%
%TO.N,/TURN_L_PWM_OUT*%
X112400500Y-63947000D03*
%TO.P,Q2,2,S_2*%
%TO.N,GND*%
X112400500Y-65847000D03*
%TO.P,Q2,3,D_3*%
%TO.N,/TRA TURN L*%
X114675500Y-64897000D03*
%TD*%
D17*
%TO.P,R9,1*%
%TO.N,/TURN L*%
X114681000Y-88542500D03*
%TO.P,R9,2*%
%TO.N,/TRA TURN L*%
X114681000Y-86717500D03*
%TD*%
%TO.P,R10,1*%
%TO.N,/TURN F L*%
X112776000Y-88542500D03*
%TO.P,R10,2*%
%TO.N,/TRA TURN L*%
X112776000Y-86717500D03*
%TD*%
D16*
%TO.P,Q3,1,G_1*%
%TO.N,/TURN_R_PWM_OUT*%
X103002500Y-80838000D03*
%TO.P,Q3,2,S_2*%
%TO.N,GND*%
X103002500Y-82738000D03*
%TO.P,Q3,3,D_3*%
%TO.N,/TRA TURN R*%
X105277500Y-81788000D03*
%TD*%
D18*
%TO.P,R13,1*%
%TO.N,/REAR L*%
X114808000Y-91186000D03*
%TO.P,R13,2*%
%TO.N,/TRA REAR*%
X114808000Y-93011000D03*
%TD*%
D19*
%TO.P,D4,1,K_1*%
%TO.N,Net-(D4-K)*%
X135135000Y-94214000D03*
%TO.P,D4,2,A_2*%
%TO.N,Net-(D4-A)*%
X135135000Y-97189000D03*
%TD*%
D12*
%TO.P,D6,1,K_1*%
%TO.N,Net-(D6-K)*%
X148118000Y-83814000D03*
%TO.P,D6,2,A_2*%
%TO.N,Net-(D6-A)*%
X145578000Y-83814000D03*
%TD*%
D17*
%TO.P,R8,1*%
%TO.N,/REVERSE R*%
X114681000Y-84859500D03*
%TO.P,R8,2*%
%TO.N,/TRA REVERSE*%
X114681000Y-83034500D03*
%TD*%
%TO.P,R1,1*%
%TO.N,/REV+*%
X68326000Y-74953500D03*
%TO.P,R1,2*%
%TO.N,Net-(R1-Pad2)*%
X68326000Y-73128500D03*
%TD*%
D20*
%TO.P,C3,1*%
%TO.N,Net-(U5-SW)*%
X72087000Y-61214000D03*
%TO.P,C3,2*%
%TO.N,Net-(U5-BST)*%
X69137000Y-61214000D03*
%TD*%
D16*
%TO.P,U5,1,FB_1*%
%TO.N,+3.3V*%
X69552500Y-63312000D03*
%TO.P,U5,2,EN_2*%
%TO.N,+5V*%
X69552500Y-64262000D03*
%TO.P,U5,3,IN_3*%
X69552500Y-65212000D03*
%TO.P,U5,4,GND_4*%
%TO.N,GND*%
X71827500Y-65212000D03*
%TO.P,U5,5,SW_5*%
%TO.N,Net-(U5-SW)*%
X71827500Y-64262000D03*
%TO.P,U5,6,BST_6*%
%TO.N,Net-(U5-BST)*%
X71827500Y-63312000D03*
%TD*%
D21*
%TO.P,J9,1,Pin_1_1*%
%TO.N,Net-(D2-A)*%
X133043000Y-68814000D03*
X133043000Y-67614000D03*
%TO.P,J9,2,Pin_2_2*%
%TO.N,Net-(J9-Pin_2)*%
X133043000Y-72814000D03*
X133043000Y-71614000D03*
%TD*%
D12*
%TO.P,D5,1,K_1*%
%TO.N,Net-(D5-K)*%
X141818000Y-83814000D03*
%TO.P,D5,2,A_2*%
%TO.N,Net-(D5-A)*%
X139278000Y-83814000D03*
%TD*%
D11*
%TO.P,J14,1,Pin_1_1*%
%TO.N,Net-(D7-A)*%
X154418000Y-89614000D03*
%TO.P,J14,2,Pin_2_2*%
%TO.N,Net-(J14-Pin_2)*%
X151878000Y-89614000D03*
%TD*%
D22*
%TO.P,U1,1*%
%TO.N,Net-(R1-Pad2)*%
X70853500Y-74041000D03*
%TO.P,U1,2*%
%TO.N,/REV-*%
X70853500Y-75311000D03*
%TO.P,U1,3*%
%TO.N,/REVERSE_LIGHTS_IN*%
X77228500Y-75311000D03*
%TO.P,U1,4*%
%TO.N,+5V*%
X77228500Y-74041000D03*
%TD*%
D19*
%TO.P,D1,1,K_1*%
%TO.N,Net-(D1-K)*%
X135126000Y-59226500D03*
%TO.P,D1,2,A_2*%
%TO.N,Net-(D1-A)*%
X135126000Y-62201500D03*
%TD*%
D23*
%TO.P,J4,1,Pin_1_1*%
%TO.N,+3.3V*%
X109201000Y-82550000D03*
%TO.P,J4,2,Pin_2_2*%
%TO.N,+5V*%
X109201000Y-84550000D03*
%TO.P,J4,3,Pin_3_3*%
%TO.N,/TURN F L*%
X109201000Y-86550000D03*
%TO.P,J4,4,Pin_4_4*%
%TO.N,/TURN F R*%
X109201000Y-88550000D03*
%TO.P,J4,5,Pin_5_5*%
%TO.N,/BEACON F*%
X109201000Y-90550000D03*
%TO.P,J4,6,Pin_6_6*%
%TO.N,/HEAD LIGHTS*%
X109201000Y-92550000D03*
%TO.P,J4,7,Pin_7_7*%
%TO.N,/FRONT_BEACON_PWM*%
X109201000Y-94550000D03*
%TD*%
D10*
%TO.P,R20,1*%
%TO.N,Net-(J13-Pin_2)*%
X145848000Y-86814000D03*
%TO.P,R20,2*%
%TO.N,Net-(D6-K)*%
X147848000Y-86814000D03*
%TD*%
%TO.P,R26,1*%
%TO.N,Net-(J18-Pin_1)*%
X93058000Y-110114000D03*
%TO.P,R26,2*%
%TO.N,Net-(J20-Pin_1)*%
X95058000Y-110114000D03*
%TD*%
D24*
%TO.P,R17,1*%
%TO.N,Net-(D4-A)*%
X134835000Y-86701500D03*
%TO.P,R17,2*%
%TO.N,Net-(D3-A)*%
X134835000Y-84701500D03*
%TD*%
D23*
%TO.P,J5,1,Pin_1_1*%
%TO.N,+3.3V*%
X118726000Y-63470000D03*
%TO.P,J5,2,Pin_2_2*%
%TO.N,/TRA REVERSE*%
X118726000Y-65470000D03*
%TO.P,J5,3,Pin_3_3*%
%TO.N,/TRA TURN L*%
X118726000Y-67470000D03*
%TO.P,J5,4,Pin_4_4*%
%TO.N,/TRA TURN R*%
X118726000Y-69470000D03*
%TO.P,J5,5,Pin_5_5*%
%TO.N,/TRA REAR*%
X118726000Y-71470000D03*
%TO.P,J5,6,Pin_6_6*%
%TO.N,/TRA SIDE LIGHTS{slash}SPZ*%
X118726000Y-73470000D03*
%TO.P,J5,7,Pin_7_7*%
%TO.N,/TRA BEACON*%
X118726000Y-75470000D03*
%TD*%
D17*
%TO.P,R2,1*%
%TO.N,/TURNL+*%
X68326000Y-79144500D03*
%TO.P,R2,2*%
%TO.N,Net-(R2-Pad2)*%
X68326000Y-77319500D03*
%TD*%
D16*
%TO.P,Q5,1,G_1*%
%TO.N,/SIDE_LIGHTS*%
X112400500Y-68519000D03*
%TO.P,Q5,2,S_2*%
%TO.N,GND*%
X112400500Y-70419000D03*
%TO.P,Q5,3,D_3*%
%TO.N,/TRA SIDE LIGHTS{slash}SPZ*%
X114675500Y-69469000D03*
%TD*%
D23*
%TO.P,J6,1,Pin_1_1*%
%TO.N,+3.3V*%
X118726000Y-80645000D03*
%TO.P,J6,2,Pin_2_2*%
%TO.N,/REVERSE L*%
X118726000Y-82645000D03*
%TO.P,J6,3,Pin_3_3*%
%TO.N,/REVERSE R*%
X118726000Y-84645000D03*
%TO.P,J6,4,Pin_4_4*%
%TO.N,/TURN L*%
X118726000Y-86645000D03*
%TO.P,J6,5,Pin_5_5*%
%TO.N,/TURN R*%
X118726000Y-88645000D03*
%TO.P,J6,6,Pin_6_6*%
%TO.N,/REAR L*%
X118726000Y-90645000D03*
%TO.P,J6,7,Pin_7_7*%
%TO.N,/REAR R*%
X118726000Y-92645000D03*
%TO.P,J6,8,Pin_8_8*%
%TO.N,/TRA SIDE LIGHTS{slash}SPZ*%
X118726000Y-94645000D03*
%TD*%
D25*
%TO.P,L1,1,1_1*%
%TO.N,Net-(U5-SW)*%
X74588400Y-63236000D03*
%TO.P,L1,2,2_2*%
%TO.N,+3.3V*%
X79288400Y-63236000D03*
%TD*%
D26*
%TO.P,R29,1*%
%TO.N,Net-(J18-Pin_7)*%
X115958000Y-110114000D03*
%TO.P,R29,2*%
%TO.N,Net-(J20-Pin_1)*%
X113958000Y-110114000D03*
%TD*%
D24*
%TO.P,R16,1*%
%TO.N,Net-(J9-Pin_2)*%
X135126000Y-71214000D03*
%TO.P,R16,2*%
%TO.N,Net-(D2-K)*%
X135126000Y-69214000D03*
%TD*%
D11*
%TO.P,J13,1,Pin_1_1*%
%TO.N,Net-(D6-A)*%
X148118000Y-89614000D03*
%TO.P,J13,2,Pin_2_2*%
%TO.N,Net-(J13-Pin_2)*%
X145578000Y-89614000D03*
%TD*%
D27*
%TO.P,C1,1*%
%TO.N,+5V*%
X69088000Y-68326000D03*
%TO.P,C1,2*%
%TO.N,GND*%
X72038000Y-68326000D03*
%TD*%
D17*
%TO.P,R4,1*%
%TO.N,/REAR+*%
X68326000Y-87907500D03*
%TO.P,R4,2*%
%TO.N,Net-(R4-Pad2)*%
X68326000Y-86082500D03*
%TD*%
D28*
%TO.P,J10,1,Pin_1_1*%
%TO.N,Net-(J10-Pin_1)*%
X139593000Y-78314000D03*
D29*
X139593000Y-75314000D03*
%TO.P,J10,2,Pin_2_2*%
%TO.N,Net-(J10-Pin_2)*%
X139593000Y-61314000D03*
D28*
X139593000Y-58314000D03*
D30*
%TO.P,J10,3,Pin_3_3*%
%TO.N,Net-(J10-Pin_1)*%
X143593000Y-70314000D03*
%TO.P,J10,4,Pin_4_4*%
%TO.N,Net-(J10-Pin_2)*%
X143593000Y-66314000D03*
%TD*%
D17*
%TO.P,R3,1*%
%TO.N,/TURNR+*%
X68326000Y-83589500D03*
%TO.P,R3,2*%
%TO.N,Net-(R3-Pad2)*%
X68326000Y-81764500D03*
%TD*%
D10*
%TO.P,R22,1*%
%TO.N,Net-(J15-Pin_1)*%
X62758000Y-110114000D03*
%TO.P,R22,2*%
%TO.N,Net-(J19-Pin_1)*%
X64758000Y-110114000D03*
%TD*%
D26*
%TO.P,R25,1*%
%TO.N,Net-(J15-Pin_7)*%
X85058000Y-110114000D03*
%TO.P,R25,2*%
%TO.N,Net-(J19-Pin_1)*%
X83058000Y-110114000D03*
%TD*%
D16*
%TO.P,Q1,1,G_1*%
%TO.N,/REVERSE_LIGHTS_IN*%
X109104000Y-58232000D03*
%TO.P,Q1,2,S_2*%
%TO.N,GND*%
X109104000Y-60132000D03*
%TO.P,Q1,3,D_3*%
%TO.N,/TRA REVERSE*%
X111379000Y-59182000D03*
%TD*%
D31*
%TO.P,J18,1,Pin_1_1*%
%TO.N,Net-(J18-Pin_1)*%
X92258000Y-106314000D03*
%TO.P,J18,2,Pin_2_2*%
%TO.N,Net-(J18-Pin_2)*%
X94258000Y-106314000D03*
%TO.P,J18,3,Pin_3_3*%
%TO.N,Net-(J18-Pin_3)*%
X100258000Y-106314000D03*
%TO.P,J18,4,Pin_4_4*%
%TO.N,Net-(J18-Pin_4)*%
X102258000Y-106314000D03*
%TO.P,J18,5,Pin_5_5*%
%TO.N,Net-(J18-Pin_3)*%
X108258000Y-106314000D03*
%TO.P,J18,6,Pin_6_6*%
%TO.N,Net-(J18-Pin_6)*%
X110258000Y-106314000D03*
%TO.P,J18,7,Pin_7_7*%
%TO.N,Net-(J18-Pin_7)*%
X116258000Y-106314000D03*
%TO.P,J18,8,Pin_8_8*%
%TO.N,Net-(J18-Pin_8)*%
X118258000Y-106314000D03*
%TD*%
D10*
%TO.P,R21,1*%
%TO.N,Net-(J14-Pin_2)*%
X152148000Y-86814000D03*
%TO.P,R21,2*%
%TO.N,Net-(D7-K)*%
X154148000Y-86814000D03*
%TD*%
D32*
%TO.P,J3,1,Pin_1_1*%
%TO.N,/J4*%
X102805000Y-74888000D03*
%TO.P,J3,2,Pin_2_2*%
%TO.N,/J5*%
X104805000Y-74888000D03*
%TO.P,J3,3,Pin_3_3*%
%TO.N,/J6*%
X106805000Y-74888000D03*
%TO.P,J3,4,Pin_4_4*%
%TO.N,/J7*%
X108805000Y-74888000D03*
%TO.P,J3,5,Pin_5_5*%
%TO.N,GND*%
X110805000Y-74888000D03*
%TD*%
D22*
%TO.P,U3,1*%
%TO.N,Net-(R3-Pad2)*%
X70853500Y-82169000D03*
%TO.P,U3,2*%
%TO.N,/TURNR-*%
X70853500Y-83439000D03*
%TO.P,U3,3*%
%TO.N,GND*%
X77228500Y-83439000D03*
%TO.P,U3,4*%
%TO.N,/TURN_R_IN*%
X77228500Y-82169000D03*
%TD*%
%TO.P,U4,1*%
%TO.N,Net-(R4-Pad2)*%
X70853500Y-86233000D03*
%TO.P,U4,2*%
%TO.N,/REAR-*%
X70853500Y-87503000D03*
%TO.P,U4,3*%
%TO.N,GND*%
X77228500Y-87503000D03*
%TO.P,U4,4*%
%TO.N,/REAR_LIGHT_IN*%
X77228500Y-86233000D03*
%TD*%
D21*
%TO.P,J11,1,Pin_1_1*%
%TO.N,Net-(D3-K)*%
X133035000Y-81801500D03*
X133035000Y-80601500D03*
X133035000Y-78801500D03*
X133035000Y-77601500D03*
%TO.P,J11,2,Pin_2_2*%
%TO.N,Net-(D4-A)*%
X133035000Y-98801500D03*
X133035000Y-97601500D03*
X133035000Y-95801500D03*
X133035000Y-94601500D03*
%TD*%
D31*
%TO.P,J15,1,Pin_1_1*%
%TO.N,Net-(J15-Pin_1)*%
X61558000Y-106314000D03*
%TO.P,J15,2,Pin_2_2*%
%TO.N,Net-(J15-Pin_2)*%
X63558000Y-106314000D03*
%TO.P,J15,3,Pin_3_3*%
%TO.N,Net-(J15-Pin_3)*%
X69558000Y-106314000D03*
%TO.P,J15,4,Pin_4_4*%
%TO.N,Net-(J15-Pin_4)*%
X71558000Y-106314000D03*
%TO.P,J15,5,Pin_5_5*%
%TO.N,Net-(J15-Pin_5)*%
X77558000Y-106314000D03*
%TO.P,J15,6,Pin_6_6*%
%TO.N,Net-(J15-Pin_4)*%
X79558000Y-106314000D03*
%TO.P,J15,7,Pin_7_7*%
%TO.N,Net-(J15-Pin_7)*%
X85558000Y-106314000D03*
%TO.P,J15,8,Pin_8_8*%
%TO.N,Net-(J15-Pin_8)*%
X87558000Y-106314000D03*
%TD*%
D16*
%TO.P,Q4,1,G_1*%
%TO.N,/REAR_PWM_OUT*%
X107701500Y-63947000D03*
%TO.P,Q4,2,S_2*%
%TO.N,GND*%
X107701500Y-65847000D03*
%TO.P,Q4,3,D_3*%
%TO.N,/TRA REAR*%
X109976500Y-64897000D03*
%TD*%
D33*
%TO.P,J20,1,Pin_1_1*%
%TO.N,Net-(J20-Pin_1)*%
X101448000Y-114814000D03*
D34*
%TO.P,J20,2,Pin_2_2*%
%TO.N,Net-(J18-Pin_2)*%
X103988000Y-114814000D03*
%TO.P,J20,3,Pin_3_3*%
%TO.N,Net-(J18-Pin_3)*%
X106528000Y-114814000D03*
%TO.P,J20,4,Pin_4_4*%
%TO.N,Net-(J18-Pin_8)*%
X109068000Y-114814000D03*
%TD*%
D16*
%TO.P,Q6,1,G_1*%
%TO.N,/BEACON_OUT*%
X107701500Y-68646000D03*
%TO.P,Q6,2,S_2*%
%TO.N,GND*%
X107701500Y-70546000D03*
%TO.P,Q6,3,D_3*%
%TO.N,/TRA BEACON*%
X109976500Y-69596000D03*
%TD*%
D35*
%TO.P,J2,1,Pin_1_1*%
%TO.N,GND*%
X63900000Y-70231000D03*
%TO.P,J2,2,Pin_2_2*%
%TO.N,+5V*%
X63900000Y-68231000D03*
%TO.P,J2,3,Pin_3_3*%
%TO.N,/SBUS_IN*%
X63900000Y-66231000D03*
%TD*%
D26*
%TO.P,R28,1*%
%TO.N,Net-(J18-Pin_6)*%
X110058000Y-110114000D03*
%TO.P,R28,2*%
%TO.N,Net-(J20-Pin_1)*%
X108058000Y-110114000D03*
%TD*%
D36*
%TO.P,J7,1,Pin_1_1*%
%TO.N,Net-(J7-Pin_1)*%
X125508000Y-98989000D03*
%TO.P,J7,2,Pin_2_2*%
%TO.N,Net-(J7-Pin_2)*%
X129508000Y-98989000D03*
%TO.P,J7,3,Pin_3_3*%
%TO.N,Net-(J7-Pin_1)*%
X125508000Y-58589000D03*
%TO.P,J7,4,Pin_4_4*%
%TO.N,Net-(J7-Pin_2)*%
X129508000Y-58589000D03*
D30*
%TO.P,J7,5,Pin_5_5*%
%TO.N,Net-(J7-Pin_1)*%
X125508000Y-78789000D03*
%TO.P,J7,6,Pin_6_6*%
%TO.N,Net-(J7-Pin_2)*%
X129508000Y-78789000D03*
%TD*%
D21*
%TO.P,J8,1,Pin_1_1*%
%TO.N,Net-(D1-A)*%
X133043000Y-59314000D03*
X133043000Y-58114000D03*
%TO.P,J8,2,Pin_2_2*%
%TO.N,Net-(J8-Pin_2)*%
X133043000Y-63314000D03*
X133043000Y-62114000D03*
%TD*%
D17*
%TO.P,R14,1*%
%TO.N,/REAR R*%
X114808000Y-96694000D03*
%TO.P,R14,2*%
%TO.N,/TRA REAR*%
X114808000Y-94869000D03*
%TD*%
D10*
%TO.P,R24,1*%
%TO.N,Net-(J15-Pin_5)*%
X77658000Y-110114000D03*
%TO.P,R24,2*%
%TO.N,Net-(J19-Pin_1)*%
X79658000Y-110114000D03*
%TD*%
D17*
%TO.P,R11,1*%
%TO.N,/TURN R*%
X104394000Y-86407000D03*
%TO.P,R11,2*%
%TO.N,/TRA TURN R*%
X104394000Y-84582000D03*
%TD*%
D37*
%TO.P,Q7,1,G_1*%
%TO.N,/HEAD_LIGHTS*%
X103063000Y-96006500D03*
%TO.P,Q7,2,S_2*%
%TO.N,GND*%
X104963000Y-96006500D03*
%TO.P,Q7,3,D_3*%
%TO.N,/HEAD LIGHTS*%
X104013000Y-93731500D03*
%TD*%
D38*
%TO.P,C2,1*%
%TO.N,/REAR_LIGHT_IN*%
X72771000Y-93042000D03*
%TO.P,C2,2*%
%TO.N,GND*%
X72771000Y-90092000D03*
%TD*%
D12*
%TO.P,D7,1,K_1*%
%TO.N,Net-(D7-K)*%
X154418000Y-83814000D03*
%TO.P,D7,2,A_2*%
%TO.N,Net-(D7-A)*%
X151878000Y-83814000D03*
%TD*%
D11*
%TO.P,J12,1,Pin_1_1*%
%TO.N,Net-(D5-A)*%
X141818000Y-89614000D03*
%TO.P,J12,2,Pin_2_2*%
%TO.N,Net-(J12-Pin_2)*%
X139278000Y-89614000D03*
%TD*%
D19*
%TO.P,D3,1,K_1*%
%TO.N,Net-(D3-K)*%
X135118000Y-79214000D03*
%TO.P,D3,2,A_2*%
%TO.N,Net-(D3-A)*%
X135118000Y-82189000D03*
%TD*%
D10*
%TO.P,R19,1*%
%TO.N,Net-(J12-Pin_2)*%
X139548000Y-86814000D03*
%TO.P,R19,2*%
%TO.N,Net-(D5-K)*%
X141548000Y-86814000D03*
%TD*%
D18*
%TO.P,R7,1*%
%TO.N,/REVERSE L*%
X114681000Y-79351500D03*
%TO.P,R7,2*%
%TO.N,/TRA REVERSE*%
X114681000Y-81176500D03*
%TD*%
%TO.P,R6,1*%
%TO.N,+3.3V*%
X75438000Y-90527500D03*
%TO.P,R6,2*%
%TO.N,/REAR_LIGHT_IN*%
X75438000Y-92352500D03*
%TD*%
D35*
%TO.P,J1,1,Pin_1_1*%
%TO.N,/REAR-*%
X63900000Y-90043000D03*
%TO.P,J1,2,Pin_2_2*%
%TO.N,/REAR+*%
X63900000Y-88043000D03*
%TO.P,J1,3,Pin_3_3*%
%TO.N,/TURNR-*%
X63900000Y-86043000D03*
%TO.P,J1,4,Pin_4_4*%
%TO.N,/TURNR+*%
X63900000Y-84043000D03*
%TO.P,J1,5,Pin_5_5*%
%TO.N,/TURNL-*%
X63900000Y-82043000D03*
%TO.P,J1,6,Pin_6_6*%
%TO.N,/TURNL+*%
X63900000Y-80043000D03*
%TO.P,J1,7,Pin_7_7*%
%TO.N,/REV-*%
X63900000Y-78043000D03*
%TO.P,J1,8,Pin_8_8*%
%TO.N,/REV+*%
X63900000Y-76043000D03*
%TD*%
D26*
%TO.P,R23,1*%
%TO.N,Net-(J15-Pin_3)*%
X69458000Y-110114000D03*
%TO.P,R23,2*%
%TO.N,Net-(J19-Pin_1)*%
X67458000Y-110114000D03*
%TD*%
D17*
%TO.P,R5,1*%
%TO.N,GND*%
X106304500Y-60094500D03*
%TO.P,R5,2*%
%TO.N,/REVERSE_LIGHTS_IN*%
X106304500Y-58269500D03*
%TD*%
D20*
%TO.P,C4,1*%
%TO.N,+3.3V*%
X78442200Y-67554000D03*
%TO.P,C4,2*%
%TO.N,GND*%
X75492200Y-67554000D03*
%TD*%
%TO.P,C5,1*%
%TO.N,+3.3V*%
X78442200Y-70094000D03*
%TO.P,C5,2*%
%TO.N,GND*%
X75492200Y-70094000D03*
%TD*%
D33*
%TO.P,J19,1,Pin_1_1*%
%TO.N,Net-(J19-Pin_1)*%
X70758000Y-114814000D03*
D34*
%TO.P,J19,2,Pin_2_2*%
%TO.N,Net-(J15-Pin_2)*%
X73298000Y-114814000D03*
%TO.P,J19,3,Pin_3_3*%
%TO.N,Net-(J15-Pin_4)*%
X75838000Y-114814000D03*
%TO.P,J19,4,Pin_4_4*%
%TO.N,Net-(J15-Pin_8)*%
X78378000Y-114814000D03*
%TD*%
D39*
%TO.P,R18,1*%
%TO.N,Net-(D3-K)*%
X134835000Y-89701500D03*
%TO.P,R18,2*%
%TO.N,Net-(D4-K)*%
X134835000Y-91701500D03*
%TD*%
D17*
%TO.P,R12,1*%
%TO.N,/TURN F R*%
X102362000Y-86407000D03*
%TO.P,R12,2*%
%TO.N,/TRA TURN R*%
X102362000Y-84582000D03*
%TD*%
D37*
%TO.P,Q8,1,G_1*%
%TO.N,/BEACON_OUT*%
X103063000Y-91434500D03*
%TO.P,Q8,2,S_2*%
%TO.N,GND*%
X104963000Y-91434500D03*
%TO.P,Q8,3,D_3*%
%TO.N,/BEACON F*%
X104013000Y-89159500D03*
%TD*%
D22*
%TO.P,U2,1*%
%TO.N,Net-(R2-Pad2)*%
X70853500Y-78105000D03*
%TO.P,U2,2*%
%TO.N,/TURNL-*%
X70853500Y-79375000D03*
%TO.P,U2,3*%
%TO.N,GND*%
X77228500Y-79375000D03*
%TO.P,U2,4*%
%TO.N,/TURN_L_IN*%
X77228500Y-78105000D03*
%TD*%
D26*
%TO.P,R27,1*%
%TO.N,Net-(J18-Pin_4)*%
X101158000Y-110114000D03*
%TO.P,R27,2*%
%TO.N,Net-(J20-Pin_1)*%
X99158000Y-110114000D03*
%TD*%
D40*
%TO.N,/TURN_L_PWM_OUT*%
X98679000Y-71374000D03*
%TO.N,GND*%
X77343000Y-80264000D03*
X107828500Y-60071000D03*
X75946000Y-87503000D03*
X73152000Y-66167000D03*
X106426000Y-70485000D03*
X75819000Y-83439000D03*
X111760000Y-69596000D03*
X73787000Y-68961000D03*
X73787000Y-67945000D03*
X105791000Y-90805000D03*
X73787000Y-66929000D03*
X108839000Y-66040000D03*
X105410000Y-94869000D03*
X73787000Y-70993000D03*
X73787000Y-69977000D03*
X103759000Y-82042000D03*
X72771000Y-89027000D03*
X113538000Y-65913000D03*
%TO.N,/TRA TURN L*%
X113284000Y-85598000D03*
%TO.N,/TRA TURN R*%
X115316000Y-75819000D03*
%TO.N,/TRA REAR*%
X113665000Y-93853000D03*
%TO.N,/TRA REVERSE*%
X113538000Y-80772000D03*
X113162500Y-59182000D03*
X114554000Y-63373000D03*
%TO.N,+3.3V*%
X79121000Y-65786000D03*
X77089000Y-89662000D03*
X77343000Y-71501000D03*
X78232000Y-65786000D03*
X78232000Y-71501000D03*
X68326000Y-63246000D03*
X79121000Y-71501000D03*
%TO.N,/REVERSE_LIGHTS_IN*%
X104140000Y-63246000D03*
X104267000Y-58547000D03*
%TO.N,Net-(D1-K)*%
X134237000Y-57412000D03*
%TO.N,/FRONT_BEACON_PWM*%
X105664000Y-97091500D03*
%TO.N,/SIDE_LIGHTS*%
X100584000Y-70739000D03*
%TO.N,/TURN R*%
X106934000Y-88773000D03*
X106426000Y-86741000D03*
%TO.N,Net-(D2-K)*%
X134427500Y-66975500D03*
%TO.N,/REAR_PWM_OUT*%
X99441000Y-70739000D03*
%TO.N,/BEACON_OUT*%
X101727000Y-91440000D03*
X101219000Y-71501000D03*
%TO.N,/HEAD_LIGHTS*%
X101981000Y-96520000D03*
%TO.N,Net-(J19-Pin_1)*%
X81268000Y-109714000D03*
%TO.N,Net-(J20-Pin_1)*%
X108058000Y-111914000D03*
X99158000Y-111614000D03*
%TD*%
%TO.N,Net-(D6-A)*%
D41*
X146858000Y-107499000D02*
X146858000Y-109514000D01*
%TO.N,Net-(D5-A)*%
X139288000Y-105314000D02*
X139288000Y-106134000D01*
%TO.N,Net-(D6-A)*%
X146858000Y-109514000D02*
X147158000Y-109814000D01*
%TO.N,Net-(D6-K)*%
X148128000Y-105314000D02*
X148128000Y-108344000D01*
%TO.N,Net-(D5-A)*%
X140958000Y-110544000D02*
X141828000Y-111414000D01*
%TO.N,Net-(D6-A)*%
X145588000Y-105314000D02*
X145588000Y-106229000D01*
%TO.N,Net-(J14-Pin_2)*%
X151888000Y-108884000D02*
X152158000Y-108614000D01*
%TO.N,Net-(D6-A)*%
X147158000Y-109814000D02*
X147158000Y-110444000D01*
%TO.N,Net-(D7-A)*%
X153158000Y-107504000D02*
X153158000Y-109614000D01*
%TO.N,Net-(D5-A)*%
X140558000Y-107404000D02*
X140558000Y-109514000D01*
X140558000Y-109514000D02*
X140958000Y-109914000D01*
%TO.N,Net-(D6-K)*%
X148128000Y-108344000D02*
X147858000Y-108614000D01*
%TO.N,Net-(D5-K)*%
X141828000Y-108344000D02*
X141558000Y-108614000D01*
%TO.N,Net-(J14-Pin_2)*%
X151888000Y-111414000D02*
X151888000Y-108884000D01*
%TO.N,Net-(D5-A)*%
X140958000Y-109914000D02*
X140958000Y-110544000D01*
X139288000Y-106134000D02*
X140558000Y-107404000D01*
%TO.N,Net-(D6-A)*%
X147158000Y-110444000D02*
X148128000Y-111414000D01*
%TO.N,Net-(D7-A)*%
X151888000Y-106234000D02*
X153158000Y-107504000D01*
X151888000Y-105314000D02*
X151888000Y-106234000D01*
%TO.N,Net-(D7-K)*%
X154428000Y-105314000D02*
X154428000Y-108344000D01*
%TO.N,Net-(D7-A)*%
X154428000Y-110884000D02*
X154428000Y-111414000D01*
%TO.N,Net-(D6-A)*%
X145588000Y-106229000D02*
X146858000Y-107499000D01*
%TO.N,Net-(J12-Pin_2)*%
X139288000Y-108884000D02*
X139558000Y-108614000D01*
%TO.N,Net-(D7-K)*%
X154428000Y-108344000D02*
X154158000Y-108614000D01*
%TO.N,Net-(J13-Pin_2)*%
X145588000Y-108884000D02*
X145858000Y-108614000D01*
%TO.N,Net-(D5-K)*%
X141828000Y-105314000D02*
X141828000Y-108344000D01*
%TO.N,Net-(J12-Pin_2)*%
X139288000Y-111414000D02*
X139288000Y-108884000D01*
%TO.N,Net-(D7-A)*%
X153158000Y-109614000D02*
X154428000Y-110884000D01*
%TO.N,Net-(J13-Pin_2)*%
X145588000Y-111414000D02*
X145588000Y-108884000D01*
%TO.N,Net-(D6-A)*%
X146858000Y-96599000D02*
X146858000Y-98614000D01*
%TO.N,Net-(D5-A)*%
X139288000Y-94414000D02*
X139288000Y-95234000D01*
%TO.N,Net-(D6-A)*%
X146858000Y-98614000D02*
X147158000Y-98914000D01*
%TO.N,Net-(D6-K)*%
X148128000Y-94414000D02*
X148128000Y-97444000D01*
%TO.N,Net-(D5-A)*%
X140958000Y-99644000D02*
X141828000Y-100514000D01*
%TO.N,Net-(D6-A)*%
X145588000Y-94414000D02*
X145588000Y-95329000D01*
%TO.N,Net-(J14-Pin_2)*%
X151888000Y-97984000D02*
X152158000Y-97714000D01*
%TO.N,Net-(D6-A)*%
X147158000Y-98914000D02*
X147158000Y-99544000D01*
%TO.N,Net-(D7-A)*%
X153158000Y-96604000D02*
X153158000Y-98714000D01*
%TO.N,Net-(D5-A)*%
X140558000Y-96504000D02*
X140558000Y-98614000D01*
X140558000Y-98614000D02*
X140958000Y-99014000D01*
%TO.N,Net-(D6-K)*%
X148128000Y-97444000D02*
X147858000Y-97714000D01*
%TO.N,Net-(D5-K)*%
X141828000Y-97444000D02*
X141558000Y-97714000D01*
%TO.N,Net-(J14-Pin_2)*%
X151888000Y-100514000D02*
X151888000Y-97984000D01*
%TO.N,Net-(D5-A)*%
X140958000Y-99014000D02*
X140958000Y-99644000D01*
X139288000Y-95234000D02*
X140558000Y-96504000D01*
%TO.N,Net-(D6-A)*%
X147158000Y-99544000D02*
X148128000Y-100514000D01*
%TO.N,Net-(D7-A)*%
X151888000Y-95334000D02*
X153158000Y-96604000D01*
X151888000Y-94414000D02*
X151888000Y-95334000D01*
%TO.N,Net-(D7-K)*%
X154428000Y-94414000D02*
X154428000Y-97444000D01*
%TO.N,Net-(D7-A)*%
X154428000Y-99984000D02*
X154428000Y-100514000D01*
%TO.N,Net-(D6-A)*%
X145588000Y-95329000D02*
X146858000Y-96599000D01*
%TO.N,Net-(J12-Pin_2)*%
X139288000Y-97984000D02*
X139558000Y-97714000D01*
%TO.N,Net-(D7-K)*%
X154428000Y-97444000D02*
X154158000Y-97714000D01*
%TO.N,Net-(J13-Pin_2)*%
X145588000Y-97984000D02*
X145858000Y-97714000D01*
%TO.N,Net-(D5-K)*%
X141828000Y-94414000D02*
X141828000Y-97444000D01*
%TO.N,Net-(J12-Pin_2)*%
X139288000Y-100514000D02*
X139288000Y-97984000D01*
%TO.N,Net-(D7-A)*%
X153158000Y-98714000D02*
X154428000Y-99984000D01*
%TO.N,Net-(J13-Pin_2)*%
X145588000Y-100514000D02*
X145588000Y-97984000D01*
%TO.N,/TURN_L_PWM_OUT*%
D42*
X106045000Y-66167000D02*
X106045000Y-64008000D01*
X98679000Y-70231000D02*
X101727000Y-67183000D01*
X111318500Y-62865000D02*
X112400500Y-63947000D01*
X106045000Y-64008000D02*
X107188000Y-62865000D01*
X105029000Y-67183000D02*
X106045000Y-66167000D01*
X107188000Y-62865000D02*
X111318500Y-62865000D01*
X98679000Y-71374000D02*
X98679000Y-70231000D01*
X101727000Y-67183000D02*
X105029000Y-67183000D01*
%TO.N,GND*%
D43*
X105791000Y-90805000D02*
X105592500Y-90805000D01*
X103759000Y-82042000D02*
X103698500Y-82042000D01*
X108646000Y-65847000D02*
X108839000Y-66040000D01*
D41*
X72771000Y-89027000D02*
X72771000Y-90092000D01*
D43*
X107701500Y-65847000D02*
X108646000Y-65847000D01*
D41*
X75946000Y-87503000D02*
X77228500Y-87503000D01*
D43*
X109043000Y-60071000D02*
X109104000Y-60132000D01*
X106304500Y-60094500D02*
X106431500Y-59967500D01*
X105410000Y-95559500D02*
X104963000Y-96006500D01*
X107640500Y-70485000D02*
X107701500Y-70546000D01*
X112466500Y-65913000D02*
X112400500Y-65847000D01*
X107725000Y-59967500D02*
X107828500Y-60071000D01*
X107828500Y-60071000D02*
X109043000Y-60071000D01*
X111760000Y-69596000D02*
X111760000Y-69778500D01*
X111760000Y-69778500D02*
X112400500Y-70419000D01*
X106426000Y-70485000D02*
X107640500Y-70485000D01*
D41*
X77228500Y-80149500D02*
X77343000Y-80264000D01*
D43*
X106431500Y-59967500D02*
X107725000Y-59967500D01*
X105592500Y-90805000D02*
X104963000Y-91434500D01*
D41*
X77228500Y-79375000D02*
X77228500Y-80149500D01*
X75819000Y-83439000D02*
X77228500Y-83439000D01*
D43*
X113538000Y-65913000D02*
X112466500Y-65913000D01*
X103698500Y-82042000D02*
X103002500Y-82738000D01*
X105410000Y-94869000D02*
X105410000Y-95559500D01*
%TO.N,/TRA TURN L*%
X113284000Y-86209500D02*
X112776000Y-86717500D01*
X113284000Y-85598000D02*
X113284000Y-86209500D01*
X117248500Y-67470000D02*
X119126000Y-67470000D01*
X112776000Y-86717500D02*
X114681000Y-86717500D01*
X114675500Y-64897000D02*
X117248500Y-67470000D01*
%TO.N,/TURN L*%
X117571000Y-86645000D02*
X115673500Y-88542500D01*
X119126000Y-86645000D02*
X117571000Y-86645000D01*
X115673500Y-88542500D02*
X114681000Y-88542500D01*
%TO.N,/TURN F L*%
X110299000Y-86550000D02*
X109601000Y-86550000D01*
X112776000Y-88542500D02*
X112291500Y-88542500D01*
X112291500Y-88542500D02*
X110299000Y-86550000D01*
%TO.N,/TURN_R_PWM_OUT*%
D42*
X102296000Y-80838000D02*
X103002500Y-80838000D01*
X100965000Y-83820000D02*
X101600000Y-83185000D01*
X99949000Y-91821000D02*
X100965000Y-90805000D01*
X98309000Y-91821000D02*
X99949000Y-91821000D01*
X101600000Y-81534000D02*
X102296000Y-80838000D01*
X101600000Y-83185000D02*
X101600000Y-81534000D01*
X100965000Y-90805000D02*
X100965000Y-83820000D01*
%TO.N,/TRA TURN R*%
D43*
X107061000Y-81788000D02*
X105277500Y-81788000D01*
X105150500Y-81788000D02*
X105150500Y-83825500D01*
X102362000Y-84582000D02*
X104394000Y-84582000D01*
X113030000Y-75819000D02*
X107061000Y-81788000D01*
X105150500Y-83825500D02*
X104394000Y-84582000D01*
X115316000Y-75819000D02*
X113030000Y-75819000D01*
%TO.N,/REAR L*%
X119126000Y-90645000D02*
X116299000Y-90645000D01*
X115758000Y-91186000D02*
X114808000Y-91186000D01*
X116299000Y-90645000D02*
X115758000Y-91186000D01*
%TO.N,/TRA REAR*%
X113792000Y-93980000D02*
X114808000Y-93980000D01*
X111754500Y-67183000D02*
X109976500Y-65405000D01*
X114808000Y-93980000D02*
X114808000Y-94869000D01*
X109976500Y-65405000D02*
X109976500Y-64897000D01*
X116936000Y-71470000D02*
X116205000Y-70739000D01*
X116205000Y-68961000D02*
X114427000Y-67183000D01*
X119126000Y-71470000D02*
X116936000Y-71470000D01*
X114427000Y-67183000D02*
X111754500Y-67183000D01*
X114808000Y-93011000D02*
X114808000Y-93980000D01*
X116205000Y-70739000D02*
X116205000Y-68961000D01*
X113665000Y-93853000D02*
X113792000Y-93980000D01*
%TO.N,Net-(D4-K)*%
D41*
X135135000Y-91701500D02*
X135135000Y-94214000D01*
%TO.N,Net-(D4-A)*%
X134835000Y-87601500D02*
X136035000Y-88801500D01*
X136035000Y-88801500D02*
X136035000Y-90301500D01*
X133535000Y-94101500D02*
X133035000Y-94601500D01*
X134735000Y-98801500D02*
X133035000Y-98801500D01*
X135635000Y-90701500D02*
X134135000Y-90701500D01*
D44*
X133035000Y-94601500D02*
X133035000Y-98801500D01*
D41*
X133535000Y-91301500D02*
X133535000Y-94101500D01*
X134135000Y-90701500D02*
X133535000Y-91301500D01*
X134835000Y-86701500D02*
X134835000Y-87601500D01*
X136035000Y-90301500D02*
X135635000Y-90701500D01*
X135135000Y-98401500D02*
X134735000Y-98801500D01*
X135135000Y-97189000D02*
X135135000Y-98401500D01*
%TO.N,Net-(D6-K)*%
X148118000Y-86544000D02*
X147848000Y-86814000D01*
X148118000Y-83514000D02*
X148118000Y-86544000D01*
%TO.N,Net-(D6-A)*%
X145578000Y-84429000D02*
X146848000Y-85699000D01*
X147148000Y-88644000D02*
X148118000Y-89614000D01*
X147148000Y-88014000D02*
X147148000Y-88644000D01*
X145578000Y-83514000D02*
X145578000Y-84429000D01*
X146848000Y-87714000D02*
X147148000Y-88014000D01*
X146848000Y-85699000D02*
X146848000Y-87714000D01*
%TO.N,/REVERSE R*%
D43*
X119126000Y-84645000D02*
X114895500Y-84645000D01*
X114895500Y-84645000D02*
X114681000Y-84859500D01*
%TO.N,/TRA REVERSE*%
X117540000Y-65470000D02*
X119126000Y-65470000D01*
X113538000Y-80772000D02*
X113942500Y-81176500D01*
X115443000Y-63373000D02*
X117540000Y-65470000D01*
X114681000Y-83034500D02*
X114681000Y-81176500D01*
X114554000Y-63373000D02*
X115443000Y-63373000D01*
X113162500Y-59182000D02*
X111379000Y-59182000D01*
X113942500Y-81176500D02*
X114681000Y-81176500D01*
%TO.N,/REV+*%
D41*
X68095500Y-75184000D02*
X68326000Y-74953500D01*
X63881000Y-75662000D02*
X66578000Y-75662000D01*
X63500000Y-76043000D02*
X63881000Y-75662000D01*
X67056000Y-75184000D02*
X68095500Y-75184000D01*
X66578000Y-75662000D02*
X67056000Y-75184000D01*
%TO.N,Net-(R1-Pad2)*%
X68326000Y-73128500D02*
X69941000Y-73128500D01*
X69941000Y-73128500D02*
X70853500Y-74041000D01*
%TO.N,Net-(U5-BST)*%
D45*
X69137000Y-61214000D02*
X69977000Y-61214000D01*
X70912000Y-62149000D02*
X70912000Y-62223010D01*
D43*
X70993000Y-63246000D02*
X71059000Y-63312000D01*
D45*
X70993000Y-62304010D02*
X70993000Y-63246000D01*
X69977000Y-61214000D02*
X70912000Y-62149000D01*
D43*
X71059000Y-63312000D02*
X71827500Y-63312000D01*
D45*
X70912000Y-62223010D02*
X70993000Y-62304010D01*
%TO.N,+3.3V*%
D46*
X119126000Y-63470000D02*
X117572000Y-63470000D01*
D47*
X119126000Y-80645000D02*
X116078000Y-77597000D01*
D43*
X68326000Y-63246000D02*
X69486500Y-63246000D01*
D41*
X76303500Y-89662000D02*
X75438000Y-90527500D01*
D46*
X115824000Y-61722000D02*
X91974984Y-61722000D01*
X91974984Y-61722000D02*
X85243984Y-68453000D01*
D43*
X69486500Y-63246000D02*
X69552500Y-63312000D01*
D46*
X85243984Y-68453000D02*
X81407000Y-68453000D01*
X117572000Y-63470000D02*
X115824000Y-61722000D01*
D41*
X77089000Y-89662000D02*
X76303500Y-89662000D01*
D47*
X113030000Y-77597000D02*
X109601000Y-81026000D01*
X116078000Y-77597000D02*
X113030000Y-77597000D01*
X109601000Y-81026000D02*
X109601000Y-82550000D01*
%TO.N,+5V*%
D41*
X75831500Y-72263000D02*
X77228500Y-73660000D01*
X77228500Y-73660000D02*
X77228500Y-74041000D01*
X69088000Y-68326000D02*
X69088000Y-70993000D01*
X69088000Y-70993000D02*
X70358000Y-72263000D01*
X70358000Y-72263000D02*
X75831500Y-72263000D01*
%TO.N,Net-(D2-A)*%
D44*
X133043000Y-67614000D02*
X133043000Y-68814000D01*
%TO.N,Net-(J9-Pin_2)*%
D43*
X133570000Y-71087000D02*
X133043000Y-71614000D01*
X133263000Y-73034000D02*
X133043000Y-72814000D01*
D44*
X133043000Y-71614000D02*
X133043000Y-72814000D01*
D43*
X135126000Y-71087000D02*
X133570000Y-71087000D01*
%TO.N,Net-(D5-K)*%
D41*
X141818000Y-83514000D02*
X141818000Y-86544000D01*
X141818000Y-86544000D02*
X141548000Y-86814000D01*
%TO.N,Net-(D5-A)*%
X139278000Y-84334000D02*
X140548000Y-85604000D01*
X140948000Y-88114000D02*
X140948000Y-88744000D01*
X140548000Y-87714000D02*
X140948000Y-88114000D01*
X140548000Y-85604000D02*
X140548000Y-87714000D01*
X140948000Y-88744000D02*
X141818000Y-89614000D01*
X139278000Y-83514000D02*
X139278000Y-84334000D01*
%TO.N,Net-(D7-A)*%
X153148000Y-87814000D02*
X154418000Y-89084000D01*
X154418000Y-89084000D02*
X154418000Y-89614000D01*
X151878000Y-83514000D02*
X151878000Y-84434000D01*
X151878000Y-84434000D02*
X153148000Y-85704000D01*
X153148000Y-85704000D02*
X153148000Y-87814000D01*
%TO.N,Net-(J14-Pin_2)*%
X151878000Y-89614000D02*
X151878000Y-87084000D01*
X151878000Y-87084000D02*
X152148000Y-86814000D01*
%TO.N,/REV-*%
X63881000Y-77662000D02*
X65975000Y-77662000D01*
X69977000Y-75311000D02*
X70853500Y-75311000D01*
X67437000Y-76200000D02*
X69088000Y-76200000D01*
X65975000Y-77662000D02*
X67437000Y-76200000D01*
X63500000Y-78043000D02*
X63881000Y-77662000D01*
X69088000Y-76200000D02*
X69977000Y-75311000D01*
%TO.N,/REVERSE_LIGHTS_IN*%
D42*
X106356500Y-58269500D02*
X106304500Y-58269500D01*
D41*
X104267000Y-58547000D02*
X106027000Y-58547000D01*
X78740000Y-74422000D02*
X78740000Y-72898000D01*
X78740000Y-72898000D02*
X78994000Y-72644000D01*
X80010000Y-72644000D02*
X82804000Y-69850000D01*
X86106000Y-69850000D02*
X92710000Y-63246000D01*
X82804000Y-69850000D02*
X86106000Y-69850000D01*
X106027000Y-58547000D02*
X106304500Y-58269500D01*
X92710000Y-63246000D02*
X104140000Y-63246000D01*
D42*
X106394000Y-58232000D02*
X106356500Y-58269500D01*
D41*
X106177500Y-58142500D02*
X106304500Y-58269500D01*
X78994000Y-72644000D02*
X80010000Y-72644000D01*
X77228500Y-75311000D02*
X77851000Y-75311000D01*
X77851000Y-75311000D02*
X78740000Y-74422000D01*
D42*
X109104000Y-58232000D02*
X106394000Y-58232000D01*
%TO.N,Net-(D1-K)*%
D43*
X135126000Y-58301000D02*
X135126000Y-59226500D01*
X134237000Y-57412000D02*
X135126000Y-58301000D01*
%TO.N,Net-(D1-A)*%
X134745000Y-61820500D02*
X134745000Y-61349000D01*
D44*
X133043000Y-59314000D02*
X133043000Y-58114000D01*
D43*
X134745000Y-61349000D02*
X133043000Y-59647000D01*
X133043000Y-59647000D02*
X133043000Y-59314000D01*
X135126000Y-62201500D02*
X134745000Y-61820500D01*
%TO.N,/TURN F R*%
X109601000Y-88550000D02*
X108235000Y-88550000D01*
X107442000Y-87757000D02*
X102997000Y-87757000D01*
X102362000Y-87122000D02*
X102362000Y-86407000D01*
X102409000Y-86407000D02*
X102362000Y-86407000D01*
X102997000Y-87757000D02*
X102362000Y-87122000D01*
X108235000Y-88550000D02*
X107442000Y-87757000D01*
%TO.N,/BEACON F*%
X107061000Y-90551000D02*
X105664000Y-89154000D01*
X105531500Y-89159500D02*
X104013000Y-89159500D01*
X109600000Y-90551000D02*
X107061000Y-90551000D01*
X109601000Y-90550000D02*
X109600000Y-90551000D01*
X105664000Y-89154000D02*
X105537000Y-89154000D01*
X105537000Y-89154000D02*
X105531500Y-89159500D01*
%TO.N,/HEAD LIGHTS*%
X109601000Y-92550000D02*
X106967000Y-92550000D01*
X106172000Y-93345000D02*
X104399500Y-93345000D01*
X104399500Y-93345000D02*
X104013000Y-93731500D01*
X106967000Y-92550000D02*
X106172000Y-93345000D01*
%TO.N,/FRONT_BEACON_PWM*%
D42*
X105664000Y-97091500D02*
X105854500Y-97091500D01*
X108396000Y-94550000D02*
X109601000Y-94550000D01*
X105854500Y-97091500D02*
X108396000Y-94550000D01*
%TO.N,Net-(J13-Pin_2)*%
D41*
X145578000Y-89614000D02*
X145578000Y-87084000D01*
X145578000Y-87084000D02*
X145848000Y-86814000D01*
%TO.N,Net-(D3-A)*%
X135118000Y-82189000D02*
X135118000Y-84418500D01*
X135118000Y-84418500D02*
X134835000Y-84701500D01*
%TO.N,/TRA SIDE LIGHTS{slash}SPZ*%
D43*
X120904000Y-74041000D02*
X120333000Y-73470000D01*
X119126000Y-73470000D02*
X117412000Y-73470000D01*
X115189000Y-69982500D02*
X114675500Y-69469000D01*
X117412000Y-73470000D02*
X115189000Y-71247000D01*
X119604000Y-94645000D02*
X120904000Y-93345000D01*
X120333000Y-73470000D02*
X119126000Y-73470000D01*
X119126000Y-94645000D02*
X119604000Y-94645000D01*
X115189000Y-71247000D02*
X115189000Y-69982500D01*
X120904000Y-93345000D02*
X120904000Y-74041000D01*
%TO.N,/TRA BEACON*%
X117888000Y-75470000D02*
X114046000Y-71628000D01*
X110103500Y-70352500D02*
X110103500Y-69723000D01*
X111379000Y-71628000D02*
X110103500Y-70352500D01*
X114046000Y-71628000D02*
X111379000Y-71628000D01*
X119126000Y-75470000D02*
X117888000Y-75470000D01*
X110103500Y-69723000D02*
X109976500Y-69596000D01*
%TO.N,/TURNL+*%
D41*
X63881000Y-79662000D02*
X66769000Y-79662000D01*
X68302500Y-79121000D02*
X68326000Y-79144500D01*
X67310000Y-79121000D02*
X68302500Y-79121000D01*
X63500000Y-80043000D02*
X63881000Y-79662000D01*
X66769000Y-79662000D02*
X67310000Y-79121000D01*
%TO.N,Net-(R2-Pad2)*%
X70068000Y-77319500D02*
X70853500Y-78105000D01*
X68326000Y-77319500D02*
X70068000Y-77319500D01*
%TO.N,/SIDE_LIGHTS*%
D42*
X110363000Y-67437000D02*
X111445000Y-68519000D01*
X106299000Y-67437000D02*
X110363000Y-67437000D01*
X100584000Y-70739000D02*
X103124000Y-68199000D01*
X103124000Y-68199000D02*
X105537000Y-68199000D01*
X105537000Y-68199000D02*
X106299000Y-67437000D01*
X111445000Y-68519000D02*
X112400500Y-68519000D01*
%TO.N,/REVERSE L*%
D43*
X116332000Y-81280000D02*
X116332000Y-80137000D01*
X116205000Y-80137000D02*
X115419500Y-79351500D01*
X119126000Y-82645000D02*
X117697000Y-82645000D01*
X116332000Y-80137000D02*
X116205000Y-80137000D01*
X115419500Y-79351500D02*
X114681000Y-79351500D01*
X117697000Y-82645000D02*
X116332000Y-81280000D01*
%TO.N,/TURN R*%
D41*
X106426000Y-86741000D02*
X104728000Y-86741000D01*
X107061000Y-89154000D02*
X107061000Y-88900000D01*
X107061000Y-88900000D02*
X106934000Y-88773000D01*
D43*
X119126000Y-88645000D02*
X116841000Y-88645000D01*
D41*
X110617000Y-89535000D02*
X107442000Y-89535000D01*
X107442000Y-89535000D02*
X107061000Y-89154000D01*
D43*
X110871000Y-89789000D02*
X110617000Y-89535000D01*
X115697000Y-89789000D02*
X110871000Y-89789000D01*
D41*
X104728000Y-86741000D02*
X104394000Y-86407000D01*
D43*
X116841000Y-88645000D02*
X115697000Y-89789000D01*
%TO.N,/REAR R*%
X119126000Y-92645000D02*
X117413000Y-92645000D01*
X117413000Y-92645000D02*
X116459000Y-93599000D01*
X114888000Y-96694000D02*
X114808000Y-96694000D01*
X116459000Y-93599000D02*
X116459000Y-95123000D01*
X116459000Y-95123000D02*
X114888000Y-96694000D01*
%TO.N,Net-(D2-K)*%
X134427500Y-66975500D02*
X135126000Y-67674000D01*
X135126000Y-67674000D02*
X135126000Y-69087000D01*
%TO.N,/REAR+*%
D41*
X63532000Y-87630000D02*
X68048500Y-87630000D01*
X63500000Y-87662000D02*
X63532000Y-87630000D01*
X68048500Y-87630000D02*
X68326000Y-87907500D01*
X63500000Y-88043000D02*
X63500000Y-87662000D01*
%TO.N,Net-(R4-Pad2)*%
X68326000Y-86082500D02*
X70703000Y-86082500D01*
X70703000Y-86082500D02*
X70853500Y-86233000D01*
%TO.N,Net-(J10-Pin_1)*%
D43*
X139606000Y-75960000D02*
X143606000Y-71959999D01*
X139606000Y-78960000D02*
X139606000Y-75960000D01*
X143606000Y-71959999D02*
X143606000Y-70960000D01*
%TO.N,Net-(J10-Pin_2)*%
X139606000Y-61960000D02*
X143606000Y-65960001D01*
X139606000Y-58960000D02*
X139606000Y-61960000D01*
X143606000Y-65960001D02*
X143606000Y-66960000D01*
%TO.N,/TURNR+*%
D41*
X63572500Y-83589500D02*
X63500000Y-83662000D01*
X63500000Y-83662000D02*
X63500000Y-84043000D01*
X68326000Y-83589500D02*
X63572500Y-83589500D01*
%TO.N,Net-(R3-Pad2)*%
X70449000Y-81764500D02*
X70853500Y-82169000D01*
X68326000Y-81764500D02*
X70449000Y-81764500D01*
%TO.N,Net-(D7-K)*%
X154418000Y-86544000D02*
X154148000Y-86814000D01*
X154418000Y-83514000D02*
X154418000Y-86544000D01*
%TO.N,/J4*%
D42*
X102870000Y-74422000D02*
X102870000Y-75825000D01*
X102870000Y-75825000D02*
X99604000Y-79091000D01*
X99574000Y-79121000D02*
X98339000Y-79121000D01*
X99604000Y-79091000D02*
X99574000Y-79121000D01*
X97409000Y-79091000D02*
X99604000Y-79091000D01*
X102870000Y-74422000D02*
X102918000Y-74470000D01*
%TO.N,/J5*%
X102489000Y-76835000D02*
X104553000Y-76835000D01*
X104553000Y-76835000D02*
X104870000Y-76518000D01*
X97409000Y-81661000D02*
X99314000Y-81661000D01*
X100584000Y-78740000D02*
X102489000Y-76835000D01*
X99314000Y-81661000D02*
X100584000Y-80391000D01*
X104870000Y-76518000D02*
X104870000Y-74422000D01*
X100584000Y-80391000D02*
X100584000Y-78740000D01*
%TO.N,/J6*%
X97409000Y-84171000D02*
X97439000Y-84201000D01*
X100961000Y-80598079D02*
X100961000Y-78998000D01*
X100584000Y-82804000D02*
X100584000Y-80975079D01*
X100584000Y-80975079D02*
X100961000Y-80598079D01*
X106918000Y-76978000D02*
X106918000Y-74470000D01*
X106553000Y-77343000D02*
X106918000Y-76978000D01*
X99187000Y-84201000D02*
X100584000Y-82804000D01*
X97439000Y-84201000D02*
X99187000Y-84201000D01*
X106918000Y-74470000D02*
X106870000Y-74422000D01*
X100961000Y-78998000D02*
X102616000Y-77343000D01*
X102616000Y-77343000D02*
X106553000Y-77343000D01*
%TO.N,/J7*%
X101092000Y-82943579D02*
X101092000Y-81114658D01*
X108077000Y-77724000D02*
X108918000Y-76883000D01*
X101473000Y-79121000D02*
X102870000Y-77724000D01*
X108918000Y-74470000D02*
X108870000Y-74422000D01*
X108918000Y-76883000D02*
X108918000Y-74470000D01*
X101473000Y-80733658D02*
X101473000Y-79121000D01*
X101092000Y-81114658D02*
X101473000Y-80733658D01*
X98309000Y-86741000D02*
X100076000Y-86741000D01*
X100457000Y-83578579D02*
X101092000Y-82943579D01*
X100076000Y-86741000D02*
X100457000Y-86360000D01*
X100457000Y-86360000D02*
X100457000Y-83578579D01*
X102870000Y-77724000D02*
X108077000Y-77724000D01*
%TO.N,/TURNR-*%
D41*
X63500000Y-86043000D02*
X63881000Y-85662000D01*
X69723000Y-84582000D02*
X69723000Y-84569500D01*
X63881000Y-85662000D02*
X66611000Y-85662000D01*
X66611000Y-85662000D02*
X67437000Y-84836000D01*
X67437000Y-84836000D02*
X69469000Y-84836000D01*
X69469000Y-84836000D02*
X69723000Y-84582000D01*
X69723000Y-84569500D02*
X70853500Y-83439000D01*
%TO.N,/TURN_R_IN*%
D42*
X77228500Y-82169000D02*
X77736500Y-81661000D01*
X77736500Y-81661000D02*
X81239000Y-81661000D01*
X81239000Y-81661000D02*
X81269000Y-81631000D01*
%TO.N,/REAR-*%
D41*
X67056000Y-89662000D02*
X67437000Y-89281000D01*
X63500000Y-90043000D02*
X63881000Y-89662000D01*
X63881000Y-89662000D02*
X67056000Y-89662000D01*
X69723000Y-89281000D02*
X70853500Y-88150500D01*
X67437000Y-89281000D02*
X69723000Y-89281000D01*
X70853500Y-88150500D02*
X70853500Y-87503000D01*
%TO.N,/REAR_LIGHT_IN*%
X79121000Y-89281000D02*
X81319000Y-89281000D01*
X79121000Y-88646000D02*
X78867000Y-88392000D01*
D42*
X77228500Y-86233000D02*
X77851000Y-86233000D01*
X80968000Y-88900000D02*
X81319000Y-89251000D01*
D41*
X78105000Y-86233000D02*
X77228500Y-86233000D01*
X79121000Y-89281000D02*
X79121000Y-88646000D01*
X79057500Y-89344500D02*
X79121000Y-89281000D01*
X76049500Y-92352500D02*
X79057500Y-89344500D01*
X75438000Y-92352500D02*
X76049500Y-92352500D01*
X72771000Y-93042000D02*
X74748500Y-93042000D01*
X74748500Y-93042000D02*
X75438000Y-92352500D01*
X78867000Y-88392000D02*
X78867000Y-86995000D01*
X78867000Y-86995000D02*
X78105000Y-86233000D01*
%TO.N,Net-(D3-K)*%
X133447500Y-79214000D02*
X133035000Y-78801500D01*
X135118000Y-79214000D02*
X133447500Y-79214000D01*
X135135000Y-89401500D02*
X133635000Y-87901500D01*
D44*
X133035000Y-77601500D02*
X133035000Y-81801500D01*
D41*
X133635000Y-82401500D02*
X133035000Y-81801500D01*
X135135000Y-89701500D02*
X135135000Y-89401500D01*
X133635000Y-87901500D02*
X133635000Y-82401500D01*
%TO.N,/REAR_PWM_OUT*%
D42*
X106553000Y-66421000D02*
X106553000Y-64897000D01*
X107503000Y-63947000D02*
X107701500Y-63947000D01*
X105283000Y-67691000D02*
X106553000Y-66421000D01*
X106553000Y-64897000D02*
X107503000Y-63947000D01*
X102489000Y-67691000D02*
X105283000Y-67691000D01*
X99441000Y-70739000D02*
X102489000Y-67691000D01*
%TO.N,/BEACON_OUT*%
X107640500Y-68707000D02*
X107701500Y-68646000D01*
X103063000Y-91434500D02*
X101732500Y-91434500D01*
X101219000Y-71501000D02*
X104013000Y-68707000D01*
X104013000Y-68707000D02*
X107640500Y-68707000D01*
X101732500Y-91434500D02*
X101727000Y-91440000D01*
%TO.N,/SBUS_IN*%
X68580000Y-97536000D02*
X61595000Y-90551000D01*
X94869000Y-96081000D02*
X93414000Y-97536000D01*
X61595000Y-67437000D02*
X62801000Y-66231000D01*
X93414000Y-97536000D02*
X68580000Y-97536000D01*
X61595000Y-90551000D02*
X61595000Y-67437000D01*
X94869000Y-95181000D02*
X94869000Y-96081000D01*
X62801000Y-66231000D02*
X63500000Y-66231000D01*
%TO.N,Net-(J7-Pin_1)*%
D43*
X125508000Y-78789000D02*
X124714000Y-77995000D01*
X124714000Y-77995000D02*
X124714000Y-59383000D01*
X124714000Y-98195000D02*
X125508000Y-98989000D01*
X124714000Y-79583000D02*
X124714000Y-98195000D01*
X125508000Y-78789000D02*
X124714000Y-79583000D01*
X124714000Y-59383000D02*
X125508000Y-58589000D01*
%TO.N,Net-(J7-Pin_2)*%
X130302000Y-59383000D02*
X130302000Y-77995000D01*
X129508000Y-58589000D02*
X130302000Y-59383000D01*
X130302000Y-79583000D02*
X130302000Y-98195000D01*
X129508000Y-78789000D02*
X130302000Y-79583000D01*
X130302000Y-77995000D02*
X129508000Y-78789000D01*
X130302000Y-98195000D02*
X129508000Y-98989000D01*
%TO.N,Net-(J8-Pin_2)*%
D44*
X133043000Y-63314000D02*
X133043000Y-62114000D01*
%TO.N,/HEAD_LIGHTS*%
D42*
X101981000Y-96520000D02*
X102549500Y-96520000D01*
X102549500Y-96520000D02*
X103063000Y-96006500D01*
%TO.N,Net-(J12-Pin_2)*%
D41*
X139278000Y-89614000D02*
X139278000Y-87084000D01*
X139278000Y-87084000D02*
X139548000Y-86814000D01*
%TO.N,/TURNL-*%
X63881000Y-81662000D02*
X66293000Y-81662000D01*
X66293000Y-81662000D02*
X67437000Y-80518000D01*
X67437000Y-80518000D02*
X70231000Y-80518000D01*
X63500000Y-82043000D02*
X63881000Y-81662000D01*
X70231000Y-80518000D02*
X70853500Y-79895500D01*
X70853500Y-79895500D02*
X70853500Y-79375000D01*
%TO.N,/TURN_L_IN*%
X76327000Y-78105000D02*
X74930000Y-79502000D01*
X74930000Y-79502000D02*
X74930000Y-83693000D01*
X80761000Y-84709000D02*
X81269000Y-84201000D01*
X74930000Y-83693000D02*
X75946000Y-84709000D01*
X77228500Y-78105000D02*
X76327000Y-78105000D01*
X75946000Y-84709000D02*
X80761000Y-84709000D01*
%TO.N,Net-(J15-Pin_2)*%
X63558000Y-106314000D02*
X65758000Y-108514000D01*
X67758000Y-108514000D02*
X68458000Y-109214000D01*
X72988000Y-113044000D02*
X72988000Y-114814000D01*
X68858000Y-112014000D02*
X71958000Y-112014000D01*
X71958000Y-112014000D02*
X72988000Y-113044000D01*
X65758000Y-108514000D02*
X67758000Y-108514000D01*
X68458000Y-111614000D02*
X68858000Y-112014000D01*
X68458000Y-109214000D02*
X68458000Y-111614000D01*
%TO.N,Net-(J15-Pin_1)*%
X61558000Y-106314000D02*
X61558000Y-108914000D01*
X61558000Y-108914000D02*
X62758000Y-110114000D01*
%TO.N,Net-(J15-Pin_3)*%
X69558000Y-110014000D02*
X69458000Y-110114000D01*
X69558000Y-106314000D02*
X69558000Y-110014000D01*
%TO.N,Net-(J15-Pin_5)*%
X77558000Y-110014000D02*
X77658000Y-110114000D01*
X77558000Y-106314000D02*
X77558000Y-110014000D01*
%TO.N,Net-(J15-Pin_7)*%
X85558000Y-106314000D02*
X85558000Y-109614000D01*
X85558000Y-109614000D02*
X85058000Y-110114000D01*
%TO.N,Net-(J18-Pin_2)*%
X94058000Y-106514000D02*
X94058000Y-111214000D01*
X102458000Y-112691000D02*
X103988000Y-114221000D01*
X95535000Y-112691000D02*
X102458000Y-112691000D01*
X94058000Y-111214000D02*
X95535000Y-112691000D01*
X94258000Y-106314000D02*
X94058000Y-106514000D01*
X103988000Y-114221000D02*
X103988000Y-114814000D01*
%TO.N,Net-(J18-Pin_3)*%
X108258000Y-106314000D02*
X106528000Y-108044000D01*
X100158000Y-106414000D02*
X100158000Y-111514000D01*
X100158000Y-111514000D02*
X100558000Y-111914000D01*
X100558000Y-111914000D02*
X104858000Y-111914000D01*
X104858000Y-111914000D02*
X106528000Y-113584000D01*
X106528000Y-108044000D02*
X106528000Y-114814000D01*
X100258000Y-106314000D02*
X100158000Y-106414000D01*
X106528000Y-113584000D02*
X106528000Y-114814000D01*
%TO.N,Net-(J18-Pin_8)*%
X114258000Y-114814000D02*
X109068000Y-114814000D01*
X118258000Y-106314000D02*
X118258000Y-110814000D01*
X118258000Y-110814000D02*
X114258000Y-114814000D01*
%TO.N,Net-(J15-Pin_4)*%
X79558000Y-108414000D02*
X78658000Y-109314000D01*
X78658000Y-111514000D02*
X77958000Y-112214000D01*
X79558000Y-106314000D02*
X79558000Y-108414000D01*
X78658000Y-109314000D02*
X78658000Y-111514000D01*
X77958000Y-112214000D02*
X75558000Y-112214000D01*
X71558000Y-106314000D02*
X71558000Y-108214000D01*
X75558000Y-112214000D02*
X75528000Y-112244000D01*
X71558000Y-108214000D02*
X75558000Y-112214000D01*
X75528000Y-112244000D02*
X75528000Y-114814000D01*
%TO.N,Net-(J15-Pin_8)*%
X87558000Y-106314000D02*
X87558000Y-111014000D01*
X80168000Y-112714000D02*
X78068000Y-114814000D01*
X85858000Y-112714000D02*
X80168000Y-112714000D01*
X87558000Y-111014000D02*
X85858000Y-112714000D01*
%TO.N,Net-(J18-Pin_4)*%
X102258000Y-106314000D02*
X102258000Y-109014000D01*
X102258000Y-109014000D02*
X101158000Y-110114000D01*
%TO.N,Net-(J18-Pin_6)*%
X110258000Y-109914000D02*
X110058000Y-110114000D01*
X110258000Y-106314000D02*
X110258000Y-109914000D01*
%TO.N,Net-(J18-Pin_1)*%
X92258000Y-109314000D02*
X93058000Y-110114000D01*
X92258000Y-106314000D02*
X92258000Y-109314000D01*
%TO.N,Net-(J18-Pin_7)*%
X115958000Y-110114000D02*
X115958000Y-106614000D01*
X115958000Y-106614000D02*
X116258000Y-106314000D01*
%TO.N,Net-(J19-Pin_1)*%
X81268000Y-110114000D02*
X79658000Y-110114000D01*
X70448000Y-115075268D02*
X70448000Y-114814000D01*
X70448000Y-114814000D02*
X67458000Y-111824000D01*
X64758000Y-110114000D02*
X67458000Y-110114000D01*
X81268000Y-110114000D02*
X81268000Y-109714000D01*
X67458000Y-111824000D02*
X67458000Y-110114000D01*
X83058000Y-110114000D02*
X81268000Y-110114000D01*
%TO.N,Net-(J20-Pin_1)*%
X95058000Y-110114000D02*
X99158000Y-110114000D01*
X112158000Y-111914000D02*
X113958000Y-110114000D01*
X108058000Y-111914000D02*
X112158000Y-111914000D01*
X108058000Y-111914000D02*
X108058000Y-110114000D01*
X99158000Y-111614000D02*
X99158000Y-110114000D01*
%TD*%
%TA.AperFunction,Conductor*%
%TO.N,+5V*%
G36*
X70022045Y-64027685D02*
G01*
X70067800Y-64080489D01*
X70079006Y-64132000D01*
X70079006Y-66496638D01*
X70059321Y-66563677D01*
X70042687Y-66584319D01*
X69825006Y-66801999D01*
X69825006Y-69853000D01*
X69805321Y-69920039D01*
X69752517Y-69965794D01*
X69701006Y-69977000D01*
X68250362Y-69977000D01*
X68183323Y-69957315D01*
X68162681Y-69940681D01*
X67056000Y-68834000D01*
X65021000Y-68834000D01*
X64953961Y-68814315D01*
X64908206Y-68761511D01*
X64897000Y-68710000D01*
X64897000Y-67688000D01*
X64916685Y-67620961D01*
X64969489Y-67575206D01*
X65021000Y-67564000D01*
X65405002Y-67564000D01*
X68924683Y-64044319D01*
X68986006Y-64010834D01*
X69012364Y-64008000D01*
X69955006Y-64008000D01*
X70022045Y-64027685D01*
G37*
%TD.AperFunction*%
%TD*%
%TA.AperFunction,Conductor*%
%TO.N,+3.3V*%
G36*
X81604039Y-60852685D02*
G01*
X81649794Y-60905489D01*
X81661000Y-60957000D01*
X81661000Y-69671638D01*
X81641315Y-69738677D01*
X81624681Y-69759319D01*
X79451819Y-71932181D01*
X79390496Y-71965666D01*
X79364138Y-71968500D01*
X78927467Y-71968500D01*
X78796969Y-71994458D01*
X78796967Y-71994459D01*
X78796965Y-71994459D01*
X78796964Y-71994460D01*
X78784647Y-71999561D01*
X78737197Y-72009000D01*
X77467000Y-72009000D01*
X77399961Y-71989315D01*
X77354206Y-71936511D01*
X77343000Y-71885000D01*
X77343000Y-60957000D01*
X77362685Y-60889961D01*
X77415489Y-60844206D01*
X77467000Y-60833000D01*
X81537000Y-60833000D01*
X81604039Y-60852685D01*
G37*
%TD.AperFunction*%
%TD*%
%TA.AperFunction,Conductor*%
%TO.N,Net-(U5-SW)*%
G36*
X74183677Y-60090685D02*
G01*
X74204319Y-60107319D01*
X75401681Y-61304681D01*
X75435166Y-61366004D01*
X75438000Y-61392362D01*
X75438000Y-64900000D01*
X75418315Y-64967039D01*
X75365511Y-65012794D01*
X75314000Y-65024000D01*
X73584362Y-65024000D01*
X73517323Y-65004315D01*
X73496681Y-64987681D01*
X73152000Y-64643000D01*
X72387000Y-64643000D01*
X72319961Y-64623315D01*
X72274206Y-64570511D01*
X72263000Y-64519000D01*
X72263000Y-64005000D01*
X72282685Y-63937961D01*
X72335489Y-63892206D01*
X72387000Y-63881000D01*
X72771000Y-63881000D01*
X72771000Y-62357000D01*
X72553319Y-62139319D01*
X72519834Y-62077996D01*
X72517000Y-62051638D01*
X72517000Y-60195000D01*
X72536685Y-60127961D01*
X72589489Y-60082206D01*
X72641000Y-60071000D01*
X74116638Y-60071000D01*
X74183677Y-60090685D01*
G37*
%TD.AperFunction*%
%TD*%
%TA.AperFunction,Conductor*%
%TO.N,GND*%
G36*
X72385343Y-64898262D02*
G01*
X72386384Y-64898411D01*
X72387000Y-64898500D01*
X72579916Y-64898500D01*
X72614848Y-64903522D01*
X72622822Y-64905863D01*
X72634982Y-64909433D01*
X72687730Y-64940730D01*
X73279000Y-65532000D01*
X76058170Y-65532000D01*
X76093106Y-65537023D01*
X76108104Y-65541427D01*
X76166855Y-65579172D01*
X76168042Y-65580541D01*
X76195518Y-65635402D01*
X76197163Y-65642960D01*
X76200000Y-65669331D01*
X76200000Y-71486170D01*
X76194975Y-71521114D01*
X76190570Y-71536112D01*
X76152827Y-71594855D01*
X76151458Y-71596042D01*
X76096597Y-71623518D01*
X76089039Y-71625163D01*
X76062668Y-71628000D01*
X71261830Y-71628000D01*
X71226889Y-71622975D01*
X71211890Y-71618570D01*
X71153144Y-71580827D01*
X71151957Y-71579458D01*
X71124477Y-71524583D01*
X71122832Y-71517021D01*
X71120000Y-71490668D01*
X71120000Y-65265645D01*
X71125023Y-65230709D01*
X71129427Y-65215711D01*
X71167198Y-65156937D01*
X71173576Y-65151410D01*
X71224707Y-65124822D01*
X72113831Y-64902542D01*
X72128730Y-64899773D01*
X72143728Y-64897927D01*
X72158869Y-64897000D01*
X72367699Y-64897000D01*
X72385343Y-64898262D01*
G37*
%TD.AperFunction*%
%TD*%
M02*
