%TF.GenerationSoftware,KiCad,Pcbnew,10.0.5*%
%TF.CreationDate,2026-08-20T01:00:13+02:00*%
%TF.ProjectId,HW_MFC01,48575f4d-4643-4303-912e-6b696361645f,rev?*%
%TF.SameCoordinates,Original*%
%TF.FileFunction,Soldermask,Bot*%
%TF.FilePolarity,Negative*%
%FSLAX46Y46*%
G04 Gerber Fmt 4.6, Leading zero omitted, Abs format (unit mm)*
G04 Created by KiCad (PCBNEW 10.0.5) date 2026-08-20 01:00:13*
%MOMM*%
%LPD*%
G01*
G04 APERTURE LIST*
G04 APERTURE END LIST*
G36*
X71424396Y-113281703D02*
G01*
X71429135Y-113283795D01*
X71431841Y-113284152D01*
X71465695Y-113299938D01*
X71521890Y-113324751D01*
X71597249Y-113400110D01*
X71622070Y-113456325D01*
X71637847Y-113490158D01*
X71638202Y-113492861D01*
X71640297Y-113497604D01*
X71648000Y-113564000D01*
X71648000Y-116064000D01*
X71640297Y-116130396D01*
X71638202Y-116135139D01*
X71637847Y-116137841D01*
X71622079Y-116171655D01*
X71597249Y-116227890D01*
X71521890Y-116303249D01*
X71465655Y-116328079D01*
X71431841Y-116343847D01*
X71429139Y-116344202D01*
X71424396Y-116346297D01*
X71358000Y-116354000D01*
X70158000Y-116354000D01*
X70091604Y-116346297D01*
X70086861Y-116344202D01*
X70084158Y-116343847D01*
X70050325Y-116328070D01*
X69994110Y-116303249D01*
X69918751Y-116227890D01*
X69893938Y-116171695D01*
X69878152Y-116137841D01*
X69877795Y-116135135D01*
X69875703Y-116130396D01*
X69868000Y-116064000D01*
X69868000Y-113564000D01*
X69875703Y-113497604D01*
X69877795Y-113492864D01*
X69878152Y-113490158D01*
X69893947Y-113456285D01*
X69918751Y-113400110D01*
X69994110Y-113324751D01*
X70050285Y-113299947D01*
X70084158Y-113284152D01*
X70086864Y-113283795D01*
X70091604Y-113281703D01*
X70158000Y-113274000D01*
X71358000Y-113274000D01*
X71424396Y-113281703D01*
G37*
G36*
X74075854Y-113287829D02*
G01*
X74134791Y-113327209D01*
X74174171Y-113386146D01*
X74187999Y-113455668D01*
X74187999Y-113460584D01*
X74188000Y-113460590D01*
X74188000Y-116060725D01*
X74188000Y-116172333D01*
X74174171Y-116241854D01*
X74134791Y-116300791D01*
X74075854Y-116340171D01*
X74006332Y-116353999D01*
X74001414Y-116353999D01*
X74001409Y-116354000D01*
X72594591Y-116354000D01*
X72594590Y-116353999D01*
X72589667Y-116354000D01*
X72520146Y-116340171D01*
X72461209Y-116300791D01*
X72421829Y-116241854D01*
X72408001Y-116172332D01*
X72408000Y-116167414D01*
X72408000Y-116167409D01*
X72408000Y-113460590D01*
X72408000Y-113460589D01*
X72408000Y-113455667D01*
X72421829Y-113386146D01*
X72461209Y-113327209D01*
X72520146Y-113287829D01*
X72589668Y-113274001D01*
X72594585Y-113274000D01*
X72594591Y-113274000D01*
X74001409Y-113274000D01*
X74006333Y-113274000D01*
X74075854Y-113287829D01*
G37*
G36*
X76615854Y-113287829D02*
G01*
X76674791Y-113327209D01*
X76714171Y-113386146D01*
X76727999Y-113455668D01*
X76727999Y-113460584D01*
X76728000Y-113460590D01*
X76728000Y-116060725D01*
X76728000Y-116172333D01*
X76714171Y-116241854D01*
X76674791Y-116300791D01*
X76615854Y-116340171D01*
X76546332Y-116353999D01*
X76541414Y-116353999D01*
X76541409Y-116354000D01*
X75134591Y-116354000D01*
X75134590Y-116353999D01*
X75129667Y-116354000D01*
X75060146Y-116340171D01*
X75001209Y-116300791D01*
X74961829Y-116241854D01*
X74948001Y-116172332D01*
X74948000Y-116167414D01*
X74948000Y-116167409D01*
X74948000Y-113460590D01*
X74948000Y-113460589D01*
X74948000Y-113455667D01*
X74961829Y-113386146D01*
X75001209Y-113327209D01*
X75060146Y-113287829D01*
X75129668Y-113274001D01*
X75134585Y-113274000D01*
X75134591Y-113274000D01*
X76541409Y-113274000D01*
X76546333Y-113274000D01*
X76615854Y-113287829D01*
G37*
G36*
X79155854Y-113287829D02*
G01*
X79214791Y-113327209D01*
X79254171Y-113386146D01*
X79267999Y-113455668D01*
X79267999Y-113460584D01*
X79268000Y-113460590D01*
X79268000Y-116060725D01*
X79268000Y-116172333D01*
X79254171Y-116241854D01*
X79214791Y-116300791D01*
X79155854Y-116340171D01*
X79086332Y-116353999D01*
X79081414Y-116353999D01*
X79081409Y-116354000D01*
X77674591Y-116354000D01*
X77674590Y-116353999D01*
X77669667Y-116354000D01*
X77600146Y-116340171D01*
X77541209Y-116300791D01*
X77501829Y-116241854D01*
X77488001Y-116172332D01*
X77488000Y-116167414D01*
X77488000Y-116167409D01*
X77488000Y-113460590D01*
X77488000Y-113460589D01*
X77488000Y-113455667D01*
X77501829Y-113386146D01*
X77541209Y-113327209D01*
X77600146Y-113287829D01*
X77669668Y-113274001D01*
X77674585Y-113274000D01*
X77674591Y-113274000D01*
X79081409Y-113274000D01*
X79086333Y-113274000D01*
X79155854Y-113287829D01*
G37*
G36*
X102114396Y-113281703D02*
G01*
X102119135Y-113283795D01*
X102121841Y-113284152D01*
X102155695Y-113299938D01*
X102211890Y-113324751D01*
X102287249Y-113400110D01*
X102312070Y-113456325D01*
X102327847Y-113490158D01*
X102328202Y-113492861D01*
X102330297Y-113497604D01*
X102338000Y-113564000D01*
X102338000Y-116064000D01*
X102330297Y-116130396D01*
X102328202Y-116135139D01*
X102327847Y-116137841D01*
X102312079Y-116171655D01*
X102287249Y-116227890D01*
X102211890Y-116303249D01*
X102155655Y-116328079D01*
X102121841Y-116343847D01*
X102119139Y-116344202D01*
X102114396Y-116346297D01*
X102048000Y-116354000D01*
X100848000Y-116354000D01*
X100781604Y-116346297D01*
X100776861Y-116344202D01*
X100774158Y-116343847D01*
X100740325Y-116328070D01*
X100684110Y-116303249D01*
X100608751Y-116227890D01*
X100583938Y-116171695D01*
X100568152Y-116137841D01*
X100567795Y-116135135D01*
X100565703Y-116130396D01*
X100558000Y-116064000D01*
X100558000Y-113564000D01*
X100565703Y-113497604D01*
X100567795Y-113492864D01*
X100568152Y-113490158D01*
X100583947Y-113456285D01*
X100608751Y-113400110D01*
X100684110Y-113324751D01*
X100740285Y-113299947D01*
X100774158Y-113284152D01*
X100776864Y-113283795D01*
X100781604Y-113281703D01*
X100848000Y-113274000D01*
X102048000Y-113274000D01*
X102114396Y-113281703D01*
G37*
G36*
X104765854Y-113287829D02*
G01*
X104824791Y-113327209D01*
X104864171Y-113386146D01*
X104877999Y-113455668D01*
X104877999Y-113460584D01*
X104878000Y-113460590D01*
X104878000Y-116060725D01*
X104878000Y-116172333D01*
X104864171Y-116241854D01*
X104824791Y-116300791D01*
X104765854Y-116340171D01*
X104696332Y-116353999D01*
X104691414Y-116353999D01*
X104691409Y-116354000D01*
X103284591Y-116354000D01*
X103284590Y-116353999D01*
X103279667Y-116354000D01*
X103210146Y-116340171D01*
X103151209Y-116300791D01*
X103111829Y-116241854D01*
X103098001Y-116172332D01*
X103098000Y-116167414D01*
X103098000Y-116167409D01*
X103098000Y-113460590D01*
X103098000Y-113460589D01*
X103098000Y-113455667D01*
X103111829Y-113386146D01*
X103151209Y-113327209D01*
X103210146Y-113287829D01*
X103279668Y-113274001D01*
X103284585Y-113274000D01*
X103284591Y-113274000D01*
X104691409Y-113274000D01*
X104696333Y-113274000D01*
X104765854Y-113287829D01*
G37*
G36*
X107305854Y-113287829D02*
G01*
X107364791Y-113327209D01*
X107404171Y-113386146D01*
X107417999Y-113455668D01*
X107417999Y-113460584D01*
X107418000Y-113460590D01*
X107418000Y-116060725D01*
X107418000Y-116172333D01*
X107404171Y-116241854D01*
X107364791Y-116300791D01*
X107305854Y-116340171D01*
X107236332Y-116353999D01*
X107231414Y-116353999D01*
X107231409Y-116354000D01*
X105824591Y-116354000D01*
X105824590Y-116353999D01*
X105819667Y-116354000D01*
X105750146Y-116340171D01*
X105691209Y-116300791D01*
X105651829Y-116241854D01*
X105638001Y-116172332D01*
X105638000Y-116167414D01*
X105638000Y-116167409D01*
X105638000Y-113460590D01*
X105638000Y-113460589D01*
X105638000Y-113455667D01*
X105651829Y-113386146D01*
X105691209Y-113327209D01*
X105750146Y-113287829D01*
X105819668Y-113274001D01*
X105824585Y-113274000D01*
X105824591Y-113274000D01*
X107231409Y-113274000D01*
X107236333Y-113274000D01*
X107305854Y-113287829D01*
G37*
G36*
X109845854Y-113287829D02*
G01*
X109904791Y-113327209D01*
X109944171Y-113386146D01*
X109957999Y-113455668D01*
X109957999Y-113460584D01*
X109958000Y-113460590D01*
X109958000Y-116060725D01*
X109958000Y-116172333D01*
X109944171Y-116241854D01*
X109904791Y-116300791D01*
X109845854Y-116340171D01*
X109776332Y-116353999D01*
X109771414Y-116353999D01*
X109771409Y-116354000D01*
X108364591Y-116354000D01*
X108364590Y-116353999D01*
X108359667Y-116354000D01*
X108290146Y-116340171D01*
X108231209Y-116300791D01*
X108191829Y-116241854D01*
X108178001Y-116172332D01*
X108178000Y-116167414D01*
X108178000Y-116167409D01*
X108178000Y-113460590D01*
X108178000Y-113460589D01*
X108178000Y-113455667D01*
X108191829Y-113386146D01*
X108231209Y-113327209D01*
X108290146Y-113287829D01*
X108359668Y-113274001D01*
X108364585Y-113274000D01*
X108364591Y-113274000D01*
X109771409Y-113274000D01*
X109776333Y-113274000D01*
X109845854Y-113287829D01*
G37*
G36*
X139954396Y-109881703D02*
G01*
X139959135Y-109883795D01*
X139961841Y-109884152D01*
X139995695Y-109899938D01*
X140051890Y-109924751D01*
X140127249Y-110000110D01*
X140152070Y-110056325D01*
X140167847Y-110090158D01*
X140168202Y-110092861D01*
X140170297Y-110097604D01*
X140178000Y-110164000D01*
X140178000Y-112664000D01*
X140170297Y-112730396D01*
X140168202Y-112735139D01*
X140167847Y-112737841D01*
X140152079Y-112771655D01*
X140127249Y-112827890D01*
X140051890Y-112903249D01*
X139995655Y-112928079D01*
X139961841Y-112943847D01*
X139959139Y-112944202D01*
X139954396Y-112946297D01*
X139888000Y-112954000D01*
X138688000Y-112954000D01*
X138621604Y-112946297D01*
X138616861Y-112944202D01*
X138614158Y-112943847D01*
X138580325Y-112928070D01*
X138524110Y-112903249D01*
X138448751Y-112827890D01*
X138423938Y-112771695D01*
X138408152Y-112737841D01*
X138407795Y-112735135D01*
X138405703Y-112730396D01*
X138398000Y-112664000D01*
X138398000Y-110164000D01*
X138405703Y-110097604D01*
X138407795Y-110092864D01*
X138408152Y-110090158D01*
X138423947Y-110056285D01*
X138448751Y-110000110D01*
X138524110Y-109924751D01*
X138580285Y-109899947D01*
X138614158Y-109884152D01*
X138616864Y-109883795D01*
X138621604Y-109881703D01*
X138688000Y-109874000D01*
X139888000Y-109874000D01*
X139954396Y-109881703D01*
G37*
G36*
X142494396Y-109881703D02*
G01*
X142499135Y-109883795D01*
X142501841Y-109884152D01*
X142535695Y-109899938D01*
X142591890Y-109924751D01*
X142667249Y-110000110D01*
X142692070Y-110056325D01*
X142707847Y-110090158D01*
X142708202Y-110092861D01*
X142710297Y-110097604D01*
X142718000Y-110164000D01*
X142718000Y-112664000D01*
X142710297Y-112730396D01*
X142708202Y-112735139D01*
X142707847Y-112737841D01*
X142692079Y-112771655D01*
X142667249Y-112827890D01*
X142591890Y-112903249D01*
X142535655Y-112928079D01*
X142501841Y-112943847D01*
X142499139Y-112944202D01*
X142494396Y-112946297D01*
X142428000Y-112954000D01*
X141228000Y-112954000D01*
X141161604Y-112946297D01*
X141156861Y-112944202D01*
X141154158Y-112943847D01*
X141120325Y-112928070D01*
X141064110Y-112903249D01*
X140988751Y-112827890D01*
X140963938Y-112771695D01*
X140948152Y-112737841D01*
X140947795Y-112735135D01*
X140945703Y-112730396D01*
X140938000Y-112664000D01*
X140938000Y-110164000D01*
X140945703Y-110097604D01*
X140947795Y-110092864D01*
X140948152Y-110090158D01*
X140963947Y-110056285D01*
X140988751Y-110000110D01*
X141064110Y-109924751D01*
X141120285Y-109899947D01*
X141154158Y-109884152D01*
X141156864Y-109883795D01*
X141161604Y-109881703D01*
X141228000Y-109874000D01*
X142428000Y-109874000D01*
X142494396Y-109881703D01*
G37*
G36*
X146254396Y-109881703D02*
G01*
X146259135Y-109883795D01*
X146261841Y-109884152D01*
X146295695Y-109899938D01*
X146351890Y-109924751D01*
X146427249Y-110000110D01*
X146452070Y-110056325D01*
X146467847Y-110090158D01*
X146468202Y-110092861D01*
X146470297Y-110097604D01*
X146478000Y-110164000D01*
X146478000Y-112664000D01*
X146470297Y-112730396D01*
X146468202Y-112735139D01*
X146467847Y-112737841D01*
X146452079Y-112771655D01*
X146427249Y-112827890D01*
X146351890Y-112903249D01*
X146295655Y-112928079D01*
X146261841Y-112943847D01*
X146259139Y-112944202D01*
X146254396Y-112946297D01*
X146188000Y-112954000D01*
X144988000Y-112954000D01*
X144921604Y-112946297D01*
X144916861Y-112944202D01*
X144914158Y-112943847D01*
X144880325Y-112928070D01*
X144824110Y-112903249D01*
X144748751Y-112827890D01*
X144723938Y-112771695D01*
X144708152Y-112737841D01*
X144707795Y-112735135D01*
X144705703Y-112730396D01*
X144698000Y-112664000D01*
X144698000Y-110164000D01*
X144705703Y-110097604D01*
X144707795Y-110092864D01*
X144708152Y-110090158D01*
X144723947Y-110056285D01*
X144748751Y-110000110D01*
X144824110Y-109924751D01*
X144880285Y-109899947D01*
X144914158Y-109884152D01*
X144916864Y-109883795D01*
X144921604Y-109881703D01*
X144988000Y-109874000D01*
X146188000Y-109874000D01*
X146254396Y-109881703D01*
G37*
G36*
X148794396Y-109881703D02*
G01*
X148799135Y-109883795D01*
X148801841Y-109884152D01*
X148835695Y-109899938D01*
X148891890Y-109924751D01*
X148967249Y-110000110D01*
X148992070Y-110056325D01*
X149007847Y-110090158D01*
X149008202Y-110092861D01*
X149010297Y-110097604D01*
X149018000Y-110164000D01*
X149018000Y-112664000D01*
X149010297Y-112730396D01*
X149008202Y-112735139D01*
X149007847Y-112737841D01*
X148992079Y-112771655D01*
X148967249Y-112827890D01*
X148891890Y-112903249D01*
X148835655Y-112928079D01*
X148801841Y-112943847D01*
X148799139Y-112944202D01*
X148794396Y-112946297D01*
X148728000Y-112954000D01*
X147528000Y-112954000D01*
X147461604Y-112946297D01*
X147456861Y-112944202D01*
X147454158Y-112943847D01*
X147420325Y-112928070D01*
X147364110Y-112903249D01*
X147288751Y-112827890D01*
X147263938Y-112771695D01*
X147248152Y-112737841D01*
X147247795Y-112735135D01*
X147245703Y-112730396D01*
X147238000Y-112664000D01*
X147238000Y-110164000D01*
X147245703Y-110097604D01*
X147247795Y-110092864D01*
X147248152Y-110090158D01*
X147263947Y-110056285D01*
X147288751Y-110000110D01*
X147364110Y-109924751D01*
X147420285Y-109899947D01*
X147454158Y-109884152D01*
X147456864Y-109883795D01*
X147461604Y-109881703D01*
X147528000Y-109874000D01*
X148728000Y-109874000D01*
X148794396Y-109881703D01*
G37*
G36*
X152554396Y-109881703D02*
G01*
X152559135Y-109883795D01*
X152561841Y-109884152D01*
X152595695Y-109899938D01*
X152651890Y-109924751D01*
X152727249Y-110000110D01*
X152752070Y-110056325D01*
X152767847Y-110090158D01*
X152768202Y-110092861D01*
X152770297Y-110097604D01*
X152778000Y-110164000D01*
X152778000Y-112664000D01*
X152770297Y-112730396D01*
X152768202Y-112735139D01*
X152767847Y-112737841D01*
X152752079Y-112771655D01*
X152727249Y-112827890D01*
X152651890Y-112903249D01*
X152595655Y-112928079D01*
X152561841Y-112943847D01*
X152559139Y-112944202D01*
X152554396Y-112946297D01*
X152488000Y-112954000D01*
X151288000Y-112954000D01*
X151221604Y-112946297D01*
X151216861Y-112944202D01*
X151214158Y-112943847D01*
X151180325Y-112928070D01*
X151124110Y-112903249D01*
X151048751Y-112827890D01*
X151023938Y-112771695D01*
X151008152Y-112737841D01*
X151007795Y-112735135D01*
X151005703Y-112730396D01*
X150998000Y-112664000D01*
X150998000Y-110164000D01*
X151005703Y-110097604D01*
X151007795Y-110092864D01*
X151008152Y-110090158D01*
X151023947Y-110056285D01*
X151048751Y-110000110D01*
X151124110Y-109924751D01*
X151180285Y-109899947D01*
X151214158Y-109884152D01*
X151216864Y-109883795D01*
X151221604Y-109881703D01*
X151288000Y-109874000D01*
X152488000Y-109874000D01*
X152554396Y-109881703D01*
G37*
G36*
X155094396Y-109881703D02*
G01*
X155099135Y-109883795D01*
X155101841Y-109884152D01*
X155135695Y-109899938D01*
X155191890Y-109924751D01*
X155267249Y-110000110D01*
X155292070Y-110056325D01*
X155307847Y-110090158D01*
X155308202Y-110092861D01*
X155310297Y-110097604D01*
X155318000Y-110164000D01*
X155318000Y-112664000D01*
X155310297Y-112730396D01*
X155308202Y-112735139D01*
X155307847Y-112737841D01*
X155292079Y-112771655D01*
X155267249Y-112827890D01*
X155191890Y-112903249D01*
X155135655Y-112928079D01*
X155101841Y-112943847D01*
X155099139Y-112944202D01*
X155094396Y-112946297D01*
X155028000Y-112954000D01*
X153828000Y-112954000D01*
X153761604Y-112946297D01*
X153756861Y-112944202D01*
X153754158Y-112943847D01*
X153720325Y-112928070D01*
X153664110Y-112903249D01*
X153588751Y-112827890D01*
X153563938Y-112771695D01*
X153548152Y-112737841D01*
X153547795Y-112735135D01*
X153545703Y-112730396D01*
X153538000Y-112664000D01*
X153538000Y-110164000D01*
X153545703Y-110097604D01*
X153547795Y-110092864D01*
X153548152Y-110090158D01*
X153563947Y-110056285D01*
X153588751Y-110000110D01*
X153664110Y-109924751D01*
X153720285Y-109899947D01*
X153754158Y-109884152D01*
X153756864Y-109883795D01*
X153761604Y-109881703D01*
X153828000Y-109874000D01*
X155028000Y-109874000D01*
X155094396Y-109881703D01*
G37*
G36*
X140004396Y-104081703D02*
G01*
X140009135Y-104083795D01*
X140011841Y-104084152D01*
X140045695Y-104099938D01*
X140101890Y-104124751D01*
X140177249Y-104200110D01*
X140202070Y-104256325D01*
X140217847Y-104290158D01*
X140218202Y-104292861D01*
X140220297Y-104297604D01*
X140228000Y-104364000D01*
X140228000Y-106864000D01*
X140220297Y-106930396D01*
X140218202Y-106935139D01*
X140217847Y-106937841D01*
X140202079Y-106971655D01*
X140177249Y-107027890D01*
X140101890Y-107103249D01*
X140045655Y-107128079D01*
X140011841Y-107143847D01*
X140009139Y-107144202D01*
X140004396Y-107146297D01*
X139938000Y-107154000D01*
X138638000Y-107154000D01*
X138571604Y-107146297D01*
X138566861Y-107144202D01*
X138564158Y-107143847D01*
X138530325Y-107128070D01*
X138474110Y-107103249D01*
X138398751Y-107027890D01*
X138373938Y-106971695D01*
X138358152Y-106937841D01*
X138357795Y-106935135D01*
X138355703Y-106930396D01*
X138348000Y-106864000D01*
X138348000Y-104364000D01*
X138355703Y-104297604D01*
X138357795Y-104292864D01*
X138358152Y-104290158D01*
X138373947Y-104256285D01*
X138398751Y-104200110D01*
X138474110Y-104124751D01*
X138530285Y-104099947D01*
X138564158Y-104084152D01*
X138566864Y-104083795D01*
X138571604Y-104081703D01*
X138638000Y-104074000D01*
X139938000Y-104074000D01*
X140004396Y-104081703D01*
G37*
G36*
X142544396Y-104081703D02*
G01*
X142549135Y-104083795D01*
X142551841Y-104084152D01*
X142585695Y-104099938D01*
X142641890Y-104124751D01*
X142717249Y-104200110D01*
X142742070Y-104256325D01*
X142757847Y-104290158D01*
X142758202Y-104292861D01*
X142760297Y-104297604D01*
X142768000Y-104364000D01*
X142768000Y-106864000D01*
X142760297Y-106930396D01*
X142758202Y-106935139D01*
X142757847Y-106937841D01*
X142742079Y-106971655D01*
X142717249Y-107027890D01*
X142641890Y-107103249D01*
X142585655Y-107128079D01*
X142551841Y-107143847D01*
X142549139Y-107144202D01*
X142544396Y-107146297D01*
X142478000Y-107154000D01*
X141178000Y-107154000D01*
X141111604Y-107146297D01*
X141106861Y-107144202D01*
X141104158Y-107143847D01*
X141070325Y-107128070D01*
X141014110Y-107103249D01*
X140938751Y-107027890D01*
X140913938Y-106971695D01*
X140898152Y-106937841D01*
X140897795Y-106935135D01*
X140895703Y-106930396D01*
X140888000Y-106864000D01*
X140888000Y-104364000D01*
X140895703Y-104297604D01*
X140897795Y-104292864D01*
X140898152Y-104290158D01*
X140913947Y-104256285D01*
X140938751Y-104200110D01*
X141014110Y-104124751D01*
X141070285Y-104099947D01*
X141104158Y-104084152D01*
X141106864Y-104083795D01*
X141111604Y-104081703D01*
X141178000Y-104074000D01*
X142478000Y-104074000D01*
X142544396Y-104081703D01*
G37*
G36*
X146304396Y-104081703D02*
G01*
X146309135Y-104083795D01*
X146311841Y-104084152D01*
X146345695Y-104099938D01*
X146401890Y-104124751D01*
X146477249Y-104200110D01*
X146502070Y-104256325D01*
X146517847Y-104290158D01*
X146518202Y-104292861D01*
X146520297Y-104297604D01*
X146528000Y-104364000D01*
X146528000Y-106864000D01*
X146520297Y-106930396D01*
X146518202Y-106935139D01*
X146517847Y-106937841D01*
X146502079Y-106971655D01*
X146477249Y-107027890D01*
X146401890Y-107103249D01*
X146345655Y-107128079D01*
X146311841Y-107143847D01*
X146309139Y-107144202D01*
X146304396Y-107146297D01*
X146238000Y-107154000D01*
X144938000Y-107154000D01*
X144871604Y-107146297D01*
X144866861Y-107144202D01*
X144864158Y-107143847D01*
X144830325Y-107128070D01*
X144774110Y-107103249D01*
X144698751Y-107027890D01*
X144673938Y-106971695D01*
X144658152Y-106937841D01*
X144657795Y-106935135D01*
X144655703Y-106930396D01*
X144648000Y-106864000D01*
X144648000Y-104364000D01*
X144655703Y-104297604D01*
X144657795Y-104292864D01*
X144658152Y-104290158D01*
X144673947Y-104256285D01*
X144698751Y-104200110D01*
X144774110Y-104124751D01*
X144830285Y-104099947D01*
X144864158Y-104084152D01*
X144866864Y-104083795D01*
X144871604Y-104081703D01*
X144938000Y-104074000D01*
X146238000Y-104074000D01*
X146304396Y-104081703D01*
G37*
G36*
X148844396Y-104081703D02*
G01*
X148849135Y-104083795D01*
X148851841Y-104084152D01*
X148885695Y-104099938D01*
X148941890Y-104124751D01*
X149017249Y-104200110D01*
X149042070Y-104256325D01*
X149057847Y-104290158D01*
X149058202Y-104292861D01*
X149060297Y-104297604D01*
X149068000Y-104364000D01*
X149068000Y-106864000D01*
X149060297Y-106930396D01*
X149058202Y-106935139D01*
X149057847Y-106937841D01*
X149042079Y-106971655D01*
X149017249Y-107027890D01*
X148941890Y-107103249D01*
X148885655Y-107128079D01*
X148851841Y-107143847D01*
X148849139Y-107144202D01*
X148844396Y-107146297D01*
X148778000Y-107154000D01*
X147478000Y-107154000D01*
X147411604Y-107146297D01*
X147406861Y-107144202D01*
X147404158Y-107143847D01*
X147370325Y-107128070D01*
X147314110Y-107103249D01*
X147238751Y-107027890D01*
X147213938Y-106971695D01*
X147198152Y-106937841D01*
X147197795Y-106935135D01*
X147195703Y-106930396D01*
X147188000Y-106864000D01*
X147188000Y-104364000D01*
X147195703Y-104297604D01*
X147197795Y-104292864D01*
X147198152Y-104290158D01*
X147213947Y-104256285D01*
X147238751Y-104200110D01*
X147314110Y-104124751D01*
X147370285Y-104099947D01*
X147404158Y-104084152D01*
X147406864Y-104083795D01*
X147411604Y-104081703D01*
X147478000Y-104074000D01*
X148778000Y-104074000D01*
X148844396Y-104081703D01*
G37*
G36*
X152604396Y-104081703D02*
G01*
X152609135Y-104083795D01*
X152611841Y-104084152D01*
X152645695Y-104099938D01*
X152701890Y-104124751D01*
X152777249Y-104200110D01*
X152802070Y-104256325D01*
X152817847Y-104290158D01*
X152818202Y-104292861D01*
X152820297Y-104297604D01*
X152828000Y-104364000D01*
X152828000Y-106864000D01*
X152820297Y-106930396D01*
X152818202Y-106935139D01*
X152817847Y-106937841D01*
X152802079Y-106971655D01*
X152777249Y-107027890D01*
X152701890Y-107103249D01*
X152645655Y-107128079D01*
X152611841Y-107143847D01*
X152609139Y-107144202D01*
X152604396Y-107146297D01*
X152538000Y-107154000D01*
X151238000Y-107154000D01*
X151171604Y-107146297D01*
X151166861Y-107144202D01*
X151164158Y-107143847D01*
X151130325Y-107128070D01*
X151074110Y-107103249D01*
X150998751Y-107027890D01*
X150973938Y-106971695D01*
X150958152Y-106937841D01*
X150957795Y-106935135D01*
X150955703Y-106930396D01*
X150948000Y-106864000D01*
X150948000Y-104364000D01*
X150955703Y-104297604D01*
X150957795Y-104292864D01*
X150958152Y-104290158D01*
X150973947Y-104256285D01*
X150998751Y-104200110D01*
X151074110Y-104124751D01*
X151130285Y-104099947D01*
X151164158Y-104084152D01*
X151166864Y-104083795D01*
X151171604Y-104081703D01*
X151238000Y-104074000D01*
X152538000Y-104074000D01*
X152604396Y-104081703D01*
G37*
G36*
X155144396Y-104081703D02*
G01*
X155149135Y-104083795D01*
X155151841Y-104084152D01*
X155185695Y-104099938D01*
X155241890Y-104124751D01*
X155317249Y-104200110D01*
X155342070Y-104256325D01*
X155357847Y-104290158D01*
X155358202Y-104292861D01*
X155360297Y-104297604D01*
X155368000Y-104364000D01*
X155368000Y-106864000D01*
X155360297Y-106930396D01*
X155358202Y-106935139D01*
X155357847Y-106937841D01*
X155342079Y-106971655D01*
X155317249Y-107027890D01*
X155241890Y-107103249D01*
X155185655Y-107128079D01*
X155151841Y-107143847D01*
X155149139Y-107144202D01*
X155144396Y-107146297D01*
X155078000Y-107154000D01*
X153778000Y-107154000D01*
X153711604Y-107146297D01*
X153706861Y-107144202D01*
X153704158Y-107143847D01*
X153670325Y-107128070D01*
X153614110Y-107103249D01*
X153538751Y-107027890D01*
X153513938Y-106971695D01*
X153498152Y-106937841D01*
X153497795Y-106935135D01*
X153495703Y-106930396D01*
X153488000Y-106864000D01*
X153488000Y-104364000D01*
X153495703Y-104297604D01*
X153497795Y-104292864D01*
X153498152Y-104290158D01*
X153513947Y-104256285D01*
X153538751Y-104200110D01*
X153614110Y-104124751D01*
X153670285Y-104099947D01*
X153704158Y-104084152D01*
X153706864Y-104083795D01*
X153711604Y-104081703D01*
X153778000Y-104074000D01*
X155078000Y-104074000D01*
X155144396Y-104081703D01*
G37*
G36*
X139954396Y-98981703D02*
G01*
X139959135Y-98983795D01*
X139961841Y-98984152D01*
X139995695Y-98999938D01*
X140051890Y-99024751D01*
X140127249Y-99100110D01*
X140152070Y-99156325D01*
X140167847Y-99190158D01*
X140168202Y-99192861D01*
X140170297Y-99197604D01*
X140178000Y-99264000D01*
X140178000Y-101764000D01*
X140170297Y-101830396D01*
X140168202Y-101835139D01*
X140167847Y-101837841D01*
X140152079Y-101871655D01*
X140127249Y-101927890D01*
X140051890Y-102003249D01*
X139995655Y-102028079D01*
X139961841Y-102043847D01*
X139959139Y-102044202D01*
X139954396Y-102046297D01*
X139888000Y-102054000D01*
X138688000Y-102054000D01*
X138621604Y-102046297D01*
X138616861Y-102044202D01*
X138614158Y-102043847D01*
X138580325Y-102028070D01*
X138524110Y-102003249D01*
X138448751Y-101927890D01*
X138423938Y-101871695D01*
X138408152Y-101837841D01*
X138407795Y-101835135D01*
X138405703Y-101830396D01*
X138398000Y-101764000D01*
X138398000Y-99264000D01*
X138405703Y-99197604D01*
X138407795Y-99192864D01*
X138408152Y-99190158D01*
X138423947Y-99156285D01*
X138448751Y-99100110D01*
X138524110Y-99024751D01*
X138580285Y-98999947D01*
X138614158Y-98984152D01*
X138616864Y-98983795D01*
X138621604Y-98981703D01*
X138688000Y-98974000D01*
X139888000Y-98974000D01*
X139954396Y-98981703D01*
G37*
G36*
X142494396Y-98981703D02*
G01*
X142499135Y-98983795D01*
X142501841Y-98984152D01*
X142535695Y-98999938D01*
X142591890Y-99024751D01*
X142667249Y-99100110D01*
X142692070Y-99156325D01*
X142707847Y-99190158D01*
X142708202Y-99192861D01*
X142710297Y-99197604D01*
X142718000Y-99264000D01*
X142718000Y-101764000D01*
X142710297Y-101830396D01*
X142708202Y-101835139D01*
X142707847Y-101837841D01*
X142692079Y-101871655D01*
X142667249Y-101927890D01*
X142591890Y-102003249D01*
X142535655Y-102028079D01*
X142501841Y-102043847D01*
X142499139Y-102044202D01*
X142494396Y-102046297D01*
X142428000Y-102054000D01*
X141228000Y-102054000D01*
X141161604Y-102046297D01*
X141156861Y-102044202D01*
X141154158Y-102043847D01*
X141120325Y-102028070D01*
X141064110Y-102003249D01*
X140988751Y-101927890D01*
X140963938Y-101871695D01*
X140948152Y-101837841D01*
X140947795Y-101835135D01*
X140945703Y-101830396D01*
X140938000Y-101764000D01*
X140938000Y-99264000D01*
X140945703Y-99197604D01*
X140947795Y-99192864D01*
X140948152Y-99190158D01*
X140963947Y-99156285D01*
X140988751Y-99100110D01*
X141064110Y-99024751D01*
X141120285Y-98999947D01*
X141154158Y-98984152D01*
X141156864Y-98983795D01*
X141161604Y-98981703D01*
X141228000Y-98974000D01*
X142428000Y-98974000D01*
X142494396Y-98981703D01*
G37*
G36*
X146254396Y-98981703D02*
G01*
X146259135Y-98983795D01*
X146261841Y-98984152D01*
X146295695Y-98999938D01*
X146351890Y-99024751D01*
X146427249Y-99100110D01*
X146452070Y-99156325D01*
X146467847Y-99190158D01*
X146468202Y-99192861D01*
X146470297Y-99197604D01*
X146478000Y-99264000D01*
X146478000Y-101764000D01*
X146470297Y-101830396D01*
X146468202Y-101835139D01*
X146467847Y-101837841D01*
X146452079Y-101871655D01*
X146427249Y-101927890D01*
X146351890Y-102003249D01*
X146295655Y-102028079D01*
X146261841Y-102043847D01*
X146259139Y-102044202D01*
X146254396Y-102046297D01*
X146188000Y-102054000D01*
X144988000Y-102054000D01*
X144921604Y-102046297D01*
X144916861Y-102044202D01*
X144914158Y-102043847D01*
X144880325Y-102028070D01*
X144824110Y-102003249D01*
X144748751Y-101927890D01*
X144723938Y-101871695D01*
X144708152Y-101837841D01*
X144707795Y-101835135D01*
X144705703Y-101830396D01*
X144698000Y-101764000D01*
X144698000Y-99264000D01*
X144705703Y-99197604D01*
X144707795Y-99192864D01*
X144708152Y-99190158D01*
X144723947Y-99156285D01*
X144748751Y-99100110D01*
X144824110Y-99024751D01*
X144880285Y-98999947D01*
X144914158Y-98984152D01*
X144916864Y-98983795D01*
X144921604Y-98981703D01*
X144988000Y-98974000D01*
X146188000Y-98974000D01*
X146254396Y-98981703D01*
G37*
G36*
X148794396Y-98981703D02*
G01*
X148799135Y-98983795D01*
X148801841Y-98984152D01*
X148835695Y-98999938D01*
X148891890Y-99024751D01*
X148967249Y-99100110D01*
X148992070Y-99156325D01*
X149007847Y-99190158D01*
X149008202Y-99192861D01*
X149010297Y-99197604D01*
X149018000Y-99264000D01*
X149018000Y-101764000D01*
X149010297Y-101830396D01*
X149008202Y-101835139D01*
X149007847Y-101837841D01*
X148992079Y-101871655D01*
X148967249Y-101927890D01*
X148891890Y-102003249D01*
X148835655Y-102028079D01*
X148801841Y-102043847D01*
X148799139Y-102044202D01*
X148794396Y-102046297D01*
X148728000Y-102054000D01*
X147528000Y-102054000D01*
X147461604Y-102046297D01*
X147456861Y-102044202D01*
X147454158Y-102043847D01*
X147420325Y-102028070D01*
X147364110Y-102003249D01*
X147288751Y-101927890D01*
X147263938Y-101871695D01*
X147248152Y-101837841D01*
X147247795Y-101835135D01*
X147245703Y-101830396D01*
X147238000Y-101764000D01*
X147238000Y-99264000D01*
X147245703Y-99197604D01*
X147247795Y-99192864D01*
X147248152Y-99190158D01*
X147263947Y-99156285D01*
X147288751Y-99100110D01*
X147364110Y-99024751D01*
X147420285Y-98999947D01*
X147454158Y-98984152D01*
X147456864Y-98983795D01*
X147461604Y-98981703D01*
X147528000Y-98974000D01*
X148728000Y-98974000D01*
X148794396Y-98981703D01*
G37*
G36*
X152554396Y-98981703D02*
G01*
X152559135Y-98983795D01*
X152561841Y-98984152D01*
X152595695Y-98999938D01*
X152651890Y-99024751D01*
X152727249Y-99100110D01*
X152752070Y-99156325D01*
X152767847Y-99190158D01*
X152768202Y-99192861D01*
X152770297Y-99197604D01*
X152778000Y-99264000D01*
X152778000Y-101764000D01*
X152770297Y-101830396D01*
X152768202Y-101835139D01*
X152767847Y-101837841D01*
X152752079Y-101871655D01*
X152727249Y-101927890D01*
X152651890Y-102003249D01*
X152595655Y-102028079D01*
X152561841Y-102043847D01*
X152559139Y-102044202D01*
X152554396Y-102046297D01*
X152488000Y-102054000D01*
X151288000Y-102054000D01*
X151221604Y-102046297D01*
X151216861Y-102044202D01*
X151214158Y-102043847D01*
X151180325Y-102028070D01*
X151124110Y-102003249D01*
X151048751Y-101927890D01*
X151023938Y-101871695D01*
X151008152Y-101837841D01*
X151007795Y-101835135D01*
X151005703Y-101830396D01*
X150998000Y-101764000D01*
X150998000Y-99264000D01*
X151005703Y-99197604D01*
X151007795Y-99192864D01*
X151008152Y-99190158D01*
X151023947Y-99156285D01*
X151048751Y-99100110D01*
X151124110Y-99024751D01*
X151180285Y-98999947D01*
X151214158Y-98984152D01*
X151216864Y-98983795D01*
X151221604Y-98981703D01*
X151288000Y-98974000D01*
X152488000Y-98974000D01*
X152554396Y-98981703D01*
G37*
G36*
X155094396Y-98981703D02*
G01*
X155099135Y-98983795D01*
X155101841Y-98984152D01*
X155135695Y-98999938D01*
X155191890Y-99024751D01*
X155267249Y-99100110D01*
X155292070Y-99156325D01*
X155307847Y-99190158D01*
X155308202Y-99192861D01*
X155310297Y-99197604D01*
X155318000Y-99264000D01*
X155318000Y-101764000D01*
X155310297Y-101830396D01*
X155308202Y-101835139D01*
X155307847Y-101837841D01*
X155292079Y-101871655D01*
X155267249Y-101927890D01*
X155191890Y-102003249D01*
X155135655Y-102028079D01*
X155101841Y-102043847D01*
X155099139Y-102044202D01*
X155094396Y-102046297D01*
X155028000Y-102054000D01*
X153828000Y-102054000D01*
X153761604Y-102046297D01*
X153756861Y-102044202D01*
X153754158Y-102043847D01*
X153720325Y-102028070D01*
X153664110Y-102003249D01*
X153588751Y-101927890D01*
X153563938Y-101871695D01*
X153548152Y-101837841D01*
X153547795Y-101835135D01*
X153545703Y-101830396D01*
X153538000Y-101764000D01*
X153538000Y-99264000D01*
X153545703Y-99197604D01*
X153547795Y-99192864D01*
X153548152Y-99190158D01*
X153563947Y-99156285D01*
X153588751Y-99100110D01*
X153664110Y-99024751D01*
X153720285Y-98999947D01*
X153754158Y-98984152D01*
X153756864Y-98983795D01*
X153761604Y-98981703D01*
X153828000Y-98974000D01*
X155028000Y-98974000D01*
X155094396Y-98981703D01*
G37*
G36*
X126662157Y-96960198D02*
G01*
X126668756Y-96962659D01*
X126673499Y-96963229D01*
X126729617Y-96985359D01*
X126792832Y-97008937D01*
X126796645Y-97011791D01*
X126797924Y-97012296D01*
X126844520Y-97047630D01*
X126904482Y-97092518D01*
X126949387Y-97152504D01*
X126984703Y-97199075D01*
X126985206Y-97200352D01*
X126988063Y-97204168D01*
X127011654Y-97267420D01*
X127033770Y-97323501D01*
X127034339Y-97328239D01*
X127036802Y-97334843D01*
X127048000Y-97439000D01*
X127048000Y-100539000D01*
X127036802Y-100643157D01*
X127034339Y-100649760D01*
X127033770Y-100654499D01*
X127011658Y-100710570D01*
X126988063Y-100773832D01*
X126985206Y-100777648D01*
X126984703Y-100778924D01*
X126949446Y-100825417D01*
X126904482Y-100885482D01*
X126844417Y-100930446D01*
X126797924Y-100965703D01*
X126796648Y-100966206D01*
X126792832Y-100969063D01*
X126729560Y-100992661D01*
X126673498Y-101014770D01*
X126668760Y-101015338D01*
X126662157Y-101017802D01*
X126558000Y-101029000D01*
X124458000Y-101029000D01*
X124353843Y-101017802D01*
X124347239Y-101015339D01*
X124342500Y-101014770D01*
X124286410Y-100992651D01*
X124223168Y-100969063D01*
X124219352Y-100966206D01*
X124218075Y-100965703D01*
X124171504Y-100930387D01*
X124111518Y-100885482D01*
X124066630Y-100825520D01*
X124031296Y-100778924D01*
X124030791Y-100777645D01*
X124027937Y-100773832D01*
X124004355Y-100710607D01*
X123982229Y-100654498D01*
X123981659Y-100649757D01*
X123979198Y-100643157D01*
X123968000Y-100539000D01*
X123968000Y-97439000D01*
X123979198Y-97334843D01*
X123981659Y-97328243D01*
X123982229Y-97323500D01*
X124004366Y-97267363D01*
X124027937Y-97204168D01*
X124030791Y-97200355D01*
X124031296Y-97199075D01*
X124066689Y-97152401D01*
X124111518Y-97092518D01*
X124171401Y-97047689D01*
X124218075Y-97012296D01*
X124219355Y-97011791D01*
X124223168Y-97008937D01*
X124286374Y-96985362D01*
X124342501Y-96963229D01*
X124347243Y-96962659D01*
X124353843Y-96960198D01*
X124458000Y-96949000D01*
X126558000Y-96949000D01*
X126662157Y-96960198D01*
G37*
G36*
X130662157Y-96960198D02*
G01*
X130668756Y-96962659D01*
X130673499Y-96963229D01*
X130729617Y-96985359D01*
X130792832Y-97008937D01*
X130796645Y-97011791D01*
X130797924Y-97012296D01*
X130844520Y-97047630D01*
X130904482Y-97092518D01*
X130949387Y-97152504D01*
X130984703Y-97199075D01*
X130985206Y-97200352D01*
X130988063Y-97204168D01*
X131011654Y-97267420D01*
X131033770Y-97323501D01*
X131034339Y-97328239D01*
X131036802Y-97334843D01*
X131048000Y-97439000D01*
X131048000Y-100539000D01*
X131036802Y-100643157D01*
X131034339Y-100649760D01*
X131033770Y-100654499D01*
X131011658Y-100710570D01*
X130988063Y-100773832D01*
X130985206Y-100777648D01*
X130984703Y-100778924D01*
X130949446Y-100825417D01*
X130904482Y-100885482D01*
X130844417Y-100930446D01*
X130797924Y-100965703D01*
X130796648Y-100966206D01*
X130792832Y-100969063D01*
X130729560Y-100992661D01*
X130673498Y-101014770D01*
X130668760Y-101015338D01*
X130662157Y-101017802D01*
X130558000Y-101029000D01*
X128458000Y-101029000D01*
X128353843Y-101017802D01*
X128347239Y-101015339D01*
X128342500Y-101014770D01*
X128286410Y-100992651D01*
X128223168Y-100969063D01*
X128219352Y-100966206D01*
X128218075Y-100965703D01*
X128171504Y-100930387D01*
X128111518Y-100885482D01*
X128066630Y-100825520D01*
X128031296Y-100778924D01*
X128030791Y-100777645D01*
X128027937Y-100773832D01*
X128004355Y-100710607D01*
X127982229Y-100654498D01*
X127981659Y-100649757D01*
X127979198Y-100643157D01*
X127968000Y-100539000D01*
X127968000Y-97439000D01*
X127979198Y-97334843D01*
X127981659Y-97328243D01*
X127982229Y-97323500D01*
X128004366Y-97267363D01*
X128027937Y-97204168D01*
X128030791Y-97200355D01*
X128031296Y-97199075D01*
X128066689Y-97152401D01*
X128111518Y-97092518D01*
X128171401Y-97047689D01*
X128218075Y-97012296D01*
X128219355Y-97011791D01*
X128223168Y-97008937D01*
X128286374Y-96985362D01*
X128342501Y-96963229D01*
X128347243Y-96962659D01*
X128353843Y-96960198D01*
X128458000Y-96949000D01*
X130558000Y-96949000D01*
X130662157Y-96960198D01*
G37*
G36*
X63655179Y-97552056D02*
G01*
X63665673Y-97552056D01*
X63717367Y-97560243D01*
X63856926Y-97578617D01*
X63890969Y-97587738D01*
X63919850Y-97592313D01*
X63975390Y-97610359D01*
X64064123Y-97634135D01*
X64120743Y-97657587D01*
X64164601Y-97671838D01*
X64205686Y-97692771D01*
X64262310Y-97716226D01*
X64341880Y-97762165D01*
X64393898Y-97788670D01*
X64417546Y-97805851D01*
X64448073Y-97823476D01*
X64559743Y-97909163D01*
X64602095Y-97939934D01*
X64609518Y-97947357D01*
X64618252Y-97954059D01*
X64769940Y-98105747D01*
X64776641Y-98114480D01*
X64784066Y-98121905D01*
X64814840Y-98164262D01*
X64900523Y-98275926D01*
X64918146Y-98306451D01*
X64935330Y-98330102D01*
X64961837Y-98382125D01*
X65007773Y-98461689D01*
X65031224Y-98518307D01*
X65052162Y-98559399D01*
X65066414Y-98603263D01*
X65089864Y-98659876D01*
X65113636Y-98748597D01*
X65131687Y-98804150D01*
X65136262Y-98833037D01*
X65145382Y-98867073D01*
X65163754Y-99006621D01*
X65171944Y-99058327D01*
X65171944Y-99068821D01*
X65173382Y-99079744D01*
X65173382Y-99294255D01*
X65171944Y-99305177D01*
X65171944Y-99315673D01*
X65163753Y-99367383D01*
X65145382Y-99506926D01*
X65136262Y-99540960D01*
X65131687Y-99569850D01*
X65113635Y-99625407D01*
X65089864Y-99714123D01*
X65066416Y-99770731D01*
X65052162Y-99814601D01*
X65031222Y-99855696D01*
X65007773Y-99912310D01*
X64961841Y-99991865D01*
X64935330Y-100043898D01*
X64918143Y-100067552D01*
X64900523Y-100098073D01*
X64814853Y-100209719D01*
X64784066Y-100252095D01*
X64776638Y-100259522D01*
X64769940Y-100268252D01*
X64618252Y-100419940D01*
X64609522Y-100426638D01*
X64602095Y-100434066D01*
X64559719Y-100464853D01*
X64448073Y-100550523D01*
X64417552Y-100568143D01*
X64393898Y-100585330D01*
X64341865Y-100611841D01*
X64262310Y-100657773D01*
X64205696Y-100681222D01*
X64164601Y-100702162D01*
X64120731Y-100716416D01*
X64064123Y-100739864D01*
X63975407Y-100763635D01*
X63919850Y-100781687D01*
X63890960Y-100786262D01*
X63856926Y-100795382D01*
X63717380Y-100813754D01*
X63665673Y-100821944D01*
X63655178Y-100821944D01*
X63644256Y-100823382D01*
X63429744Y-100823382D01*
X63418822Y-100821944D01*
X63408327Y-100821944D01*
X63356621Y-100813754D01*
X63217073Y-100795382D01*
X63183037Y-100786262D01*
X63154150Y-100781687D01*
X63098597Y-100763636D01*
X63009876Y-100739864D01*
X62953263Y-100716414D01*
X62909399Y-100702162D01*
X62868307Y-100681224D01*
X62811689Y-100657773D01*
X62732125Y-100611837D01*
X62680102Y-100585330D01*
X62656451Y-100568146D01*
X62625926Y-100550523D01*
X62514262Y-100464840D01*
X62471905Y-100434066D01*
X62464480Y-100426641D01*
X62455747Y-100419940D01*
X62304059Y-100268252D01*
X62297357Y-100259518D01*
X62289934Y-100252095D01*
X62259163Y-100209743D01*
X62173476Y-100098073D01*
X62155851Y-100067546D01*
X62138670Y-100043898D01*
X62112165Y-99991880D01*
X62066226Y-99912310D01*
X62042771Y-99855686D01*
X62021838Y-99814601D01*
X62007587Y-99770743D01*
X61984135Y-99714123D01*
X61960359Y-99625390D01*
X61942313Y-99569850D01*
X61937738Y-99540969D01*
X61928617Y-99506926D01*
X61910244Y-99367370D01*
X61902056Y-99315673D01*
X61902056Y-99305177D01*
X61900618Y-99294255D01*
X61900618Y-99079744D01*
X61902056Y-99068821D01*
X61902056Y-99058327D01*
X61910243Y-99006634D01*
X61928617Y-98867073D01*
X61937739Y-98833028D01*
X61942313Y-98804150D01*
X61960357Y-98748614D01*
X61984135Y-98659876D01*
X62007589Y-98603252D01*
X62021838Y-98559399D01*
X62042769Y-98518317D01*
X62066226Y-98461689D01*
X62112170Y-98382111D01*
X62138670Y-98330102D01*
X62155848Y-98306457D01*
X62173476Y-98275926D01*
X62259177Y-98164237D01*
X62289934Y-98121905D01*
X62297354Y-98114484D01*
X62304059Y-98105747D01*
X62455747Y-97954059D01*
X62464484Y-97947354D01*
X62471905Y-97939934D01*
X62514237Y-97909177D01*
X62625926Y-97823476D01*
X62656457Y-97805848D01*
X62680102Y-97788670D01*
X62732111Y-97762170D01*
X62811689Y-97716226D01*
X62868317Y-97692769D01*
X62909399Y-97671838D01*
X62953252Y-97657589D01*
X63009876Y-97634135D01*
X63098614Y-97610357D01*
X63154150Y-97592313D01*
X63183028Y-97587739D01*
X63217073Y-97578617D01*
X63356634Y-97560243D01*
X63408327Y-97552056D01*
X63418821Y-97552056D01*
X63429744Y-97550618D01*
X63644256Y-97550618D01*
X63655179Y-97552056D01*
G37*
G36*
X118655179Y-97552056D02*
G01*
X118665673Y-97552056D01*
X118717367Y-97560243D01*
X118856926Y-97578617D01*
X118890969Y-97587738D01*
X118919850Y-97592313D01*
X118975390Y-97610359D01*
X119064123Y-97634135D01*
X119120743Y-97657587D01*
X119164601Y-97671838D01*
X119205686Y-97692771D01*
X119262310Y-97716226D01*
X119341880Y-97762165D01*
X119393898Y-97788670D01*
X119417546Y-97805851D01*
X119448073Y-97823476D01*
X119559743Y-97909163D01*
X119602095Y-97939934D01*
X119609518Y-97947357D01*
X119618252Y-97954059D01*
X119769940Y-98105747D01*
X119776641Y-98114480D01*
X119784066Y-98121905D01*
X119814840Y-98164262D01*
X119900523Y-98275926D01*
X119918146Y-98306451D01*
X119935330Y-98330102D01*
X119961837Y-98382125D01*
X120007773Y-98461689D01*
X120031224Y-98518307D01*
X120052162Y-98559399D01*
X120066414Y-98603263D01*
X120089864Y-98659876D01*
X120113636Y-98748597D01*
X120131687Y-98804150D01*
X120136262Y-98833037D01*
X120145382Y-98867073D01*
X120163754Y-99006621D01*
X120171944Y-99058327D01*
X120171944Y-99068821D01*
X120173382Y-99079744D01*
X120173382Y-99294255D01*
X120171944Y-99305177D01*
X120171944Y-99315673D01*
X120163753Y-99367383D01*
X120145382Y-99506926D01*
X120136262Y-99540960D01*
X120131687Y-99569850D01*
X120113635Y-99625407D01*
X120089864Y-99714123D01*
X120066416Y-99770731D01*
X120052162Y-99814601D01*
X120031222Y-99855696D01*
X120007773Y-99912310D01*
X119961841Y-99991865D01*
X119935330Y-100043898D01*
X119918143Y-100067552D01*
X119900523Y-100098073D01*
X119814853Y-100209719D01*
X119784066Y-100252095D01*
X119776638Y-100259522D01*
X119769940Y-100268252D01*
X119618252Y-100419940D01*
X119609522Y-100426638D01*
X119602095Y-100434066D01*
X119559719Y-100464853D01*
X119448073Y-100550523D01*
X119417552Y-100568143D01*
X119393898Y-100585330D01*
X119341865Y-100611841D01*
X119262310Y-100657773D01*
X119205696Y-100681222D01*
X119164601Y-100702162D01*
X119120731Y-100716416D01*
X119064123Y-100739864D01*
X118975407Y-100763635D01*
X118919850Y-100781687D01*
X118890960Y-100786262D01*
X118856926Y-100795382D01*
X118717380Y-100813754D01*
X118665673Y-100821944D01*
X118655178Y-100821944D01*
X118644256Y-100823382D01*
X118429744Y-100823382D01*
X118418822Y-100821944D01*
X118408327Y-100821944D01*
X118356621Y-100813754D01*
X118217073Y-100795382D01*
X118183037Y-100786262D01*
X118154150Y-100781687D01*
X118098597Y-100763636D01*
X118009876Y-100739864D01*
X117953263Y-100716414D01*
X117909399Y-100702162D01*
X117868307Y-100681224D01*
X117811689Y-100657773D01*
X117732125Y-100611837D01*
X117680102Y-100585330D01*
X117656451Y-100568146D01*
X117625926Y-100550523D01*
X117514262Y-100464840D01*
X117471905Y-100434066D01*
X117464480Y-100426641D01*
X117455747Y-100419940D01*
X117304059Y-100268252D01*
X117297357Y-100259518D01*
X117289934Y-100252095D01*
X117259163Y-100209743D01*
X117173476Y-100098073D01*
X117155851Y-100067546D01*
X117138670Y-100043898D01*
X117112165Y-99991880D01*
X117066226Y-99912310D01*
X117042771Y-99855686D01*
X117021838Y-99814601D01*
X117007587Y-99770743D01*
X116984135Y-99714123D01*
X116960359Y-99625390D01*
X116942313Y-99569850D01*
X116937738Y-99540969D01*
X116928617Y-99506926D01*
X116910244Y-99367370D01*
X116902056Y-99315673D01*
X116902056Y-99305177D01*
X116900618Y-99294255D01*
X116900618Y-99079744D01*
X116902056Y-99068821D01*
X116902056Y-99058327D01*
X116910243Y-99006634D01*
X116928617Y-98867073D01*
X116937739Y-98833028D01*
X116942313Y-98804150D01*
X116960357Y-98748614D01*
X116984135Y-98659876D01*
X117007589Y-98603252D01*
X117021838Y-98559399D01*
X117042769Y-98518317D01*
X117066226Y-98461689D01*
X117112170Y-98382111D01*
X117138670Y-98330102D01*
X117155848Y-98306457D01*
X117173476Y-98275926D01*
X117259177Y-98164237D01*
X117289934Y-98121905D01*
X117297354Y-98114484D01*
X117304059Y-98105747D01*
X117455747Y-97954059D01*
X117464484Y-97947354D01*
X117471905Y-97939934D01*
X117514237Y-97909177D01*
X117625926Y-97823476D01*
X117656457Y-97805848D01*
X117680102Y-97788670D01*
X117732111Y-97762170D01*
X117811689Y-97716226D01*
X117868317Y-97692769D01*
X117909399Y-97671838D01*
X117953252Y-97657589D01*
X118009876Y-97634135D01*
X118098614Y-97610357D01*
X118154150Y-97592313D01*
X118183028Y-97587739D01*
X118217073Y-97578617D01*
X118356634Y-97560243D01*
X118408327Y-97552056D01*
X118418821Y-97552056D01*
X118429744Y-97550618D01*
X118644256Y-97550618D01*
X118655179Y-97552056D01*
G37*
G36*
X133220782Y-96989058D02*
G01*
X133336694Y-97037070D01*
X133441012Y-97106773D01*
X133529727Y-97195488D01*
X133599430Y-97299806D01*
X133647442Y-97415718D01*
X133671918Y-97538769D01*
X133671918Y-97664231D01*
X133647442Y-97787282D01*
X133599430Y-97903194D01*
X133529727Y-98007512D01*
X133441012Y-98096227D01*
X133336694Y-98165930D01*
X133335550Y-98166403D01*
X133323022Y-98174775D01*
X133323022Y-98228225D01*
X133335550Y-98236596D01*
X133336694Y-98237070D01*
X133441012Y-98306773D01*
X133529727Y-98395488D01*
X133599430Y-98499806D01*
X133647442Y-98615718D01*
X133671918Y-98738769D01*
X133671918Y-98864231D01*
X133647442Y-98987282D01*
X133599430Y-99103194D01*
X133529727Y-99207512D01*
X133441012Y-99296227D01*
X133336694Y-99365930D01*
X133220782Y-99413942D01*
X133097731Y-99438418D01*
X132972269Y-99438418D01*
X132849218Y-99413942D01*
X132733306Y-99365930D01*
X132628988Y-99296227D01*
X132540273Y-99207512D01*
X132470570Y-99103194D01*
X132422558Y-98987282D01*
X132398082Y-98864231D01*
X132398082Y-98738769D01*
X132422558Y-98615718D01*
X132470570Y-98499806D01*
X132540273Y-98395488D01*
X132628988Y-98306773D01*
X132733306Y-98237070D01*
X132734446Y-98236597D01*
X132746977Y-98228225D01*
X132746977Y-98174775D01*
X132734447Y-98166402D01*
X132733306Y-98165930D01*
X132628988Y-98096227D01*
X132540273Y-98007512D01*
X132470570Y-97903194D01*
X132422558Y-97787282D01*
X132398082Y-97664231D01*
X132398082Y-97538769D01*
X132422558Y-97415718D01*
X132470570Y-97299806D01*
X132540273Y-97195488D01*
X132628988Y-97106773D01*
X132733306Y-97037070D01*
X132849218Y-96989058D01*
X132972269Y-96964582D01*
X133097731Y-96964582D01*
X133220782Y-96989058D01*
G37*
G36*
X133220782Y-93989058D02*
G01*
X133336694Y-94037070D01*
X133441012Y-94106773D01*
X133529727Y-94195488D01*
X133599430Y-94299806D01*
X133647442Y-94415718D01*
X133671918Y-94538769D01*
X133671918Y-94664231D01*
X133647442Y-94787282D01*
X133599430Y-94903194D01*
X133529727Y-95007512D01*
X133441012Y-95096227D01*
X133336694Y-95165930D01*
X133335550Y-95166403D01*
X133323022Y-95174775D01*
X133323022Y-95228225D01*
X133335550Y-95236596D01*
X133336694Y-95237070D01*
X133441012Y-95306773D01*
X133529727Y-95395488D01*
X133599430Y-95499806D01*
X133647442Y-95615718D01*
X133671918Y-95738769D01*
X133671918Y-95864231D01*
X133647442Y-95987282D01*
X133599430Y-96103194D01*
X133529727Y-96207512D01*
X133441012Y-96296227D01*
X133336694Y-96365930D01*
X133220782Y-96413942D01*
X133097731Y-96438418D01*
X132972269Y-96438418D01*
X132849218Y-96413942D01*
X132733306Y-96365930D01*
X132628988Y-96296227D01*
X132540273Y-96207512D01*
X132470570Y-96103194D01*
X132422558Y-95987282D01*
X132398082Y-95864231D01*
X132398082Y-95738769D01*
X132422558Y-95615718D01*
X132470570Y-95499806D01*
X132540273Y-95395488D01*
X132628988Y-95306773D01*
X132733306Y-95237070D01*
X132734446Y-95236597D01*
X132746977Y-95228225D01*
X132746977Y-95174775D01*
X132734447Y-95166402D01*
X132733306Y-95165930D01*
X132628988Y-95096227D01*
X132540273Y-95007512D01*
X132470570Y-94903194D01*
X132422558Y-94787282D01*
X132398082Y-94664231D01*
X132398082Y-94538769D01*
X132422558Y-94415718D01*
X132470570Y-94299806D01*
X132540273Y-94195488D01*
X132628988Y-94106773D01*
X132733306Y-94037070D01*
X132849218Y-93989058D01*
X132972269Y-93964582D01*
X133097731Y-93964582D01*
X133220782Y-93989058D01*
G37*
G36*
X140004396Y-93181703D02*
G01*
X140009135Y-93183795D01*
X140011841Y-93184152D01*
X140045695Y-93199938D01*
X140101890Y-93224751D01*
X140177249Y-93300110D01*
X140202070Y-93356325D01*
X140217847Y-93390158D01*
X140218202Y-93392861D01*
X140220297Y-93397604D01*
X140228000Y-93464000D01*
X140228000Y-95964000D01*
X140220297Y-96030396D01*
X140218202Y-96035139D01*
X140217847Y-96037841D01*
X140202079Y-96071655D01*
X140177249Y-96127890D01*
X140101890Y-96203249D01*
X140045655Y-96228079D01*
X140011841Y-96243847D01*
X140009139Y-96244202D01*
X140004396Y-96246297D01*
X139938000Y-96254000D01*
X138638000Y-96254000D01*
X138571604Y-96246297D01*
X138566861Y-96244202D01*
X138564158Y-96243847D01*
X138530325Y-96228070D01*
X138474110Y-96203249D01*
X138398751Y-96127890D01*
X138373938Y-96071695D01*
X138358152Y-96037841D01*
X138357795Y-96035135D01*
X138355703Y-96030396D01*
X138348000Y-95964000D01*
X138348000Y-93464000D01*
X138355703Y-93397604D01*
X138357795Y-93392864D01*
X138358152Y-93390158D01*
X138373947Y-93356285D01*
X138398751Y-93300110D01*
X138474110Y-93224751D01*
X138530285Y-93199947D01*
X138564158Y-93184152D01*
X138566864Y-93183795D01*
X138571604Y-93181703D01*
X138638000Y-93174000D01*
X139938000Y-93174000D01*
X140004396Y-93181703D01*
G37*
G36*
X142544396Y-93181703D02*
G01*
X142549135Y-93183795D01*
X142551841Y-93184152D01*
X142585695Y-93199938D01*
X142641890Y-93224751D01*
X142717249Y-93300110D01*
X142742070Y-93356325D01*
X142757847Y-93390158D01*
X142758202Y-93392861D01*
X142760297Y-93397604D01*
X142768000Y-93464000D01*
X142768000Y-95964000D01*
X142760297Y-96030396D01*
X142758202Y-96035139D01*
X142757847Y-96037841D01*
X142742079Y-96071655D01*
X142717249Y-96127890D01*
X142641890Y-96203249D01*
X142585655Y-96228079D01*
X142551841Y-96243847D01*
X142549139Y-96244202D01*
X142544396Y-96246297D01*
X142478000Y-96254000D01*
X141178000Y-96254000D01*
X141111604Y-96246297D01*
X141106861Y-96244202D01*
X141104158Y-96243847D01*
X141070325Y-96228070D01*
X141014110Y-96203249D01*
X140938751Y-96127890D01*
X140913938Y-96071695D01*
X140898152Y-96037841D01*
X140897795Y-96035135D01*
X140895703Y-96030396D01*
X140888000Y-95964000D01*
X140888000Y-93464000D01*
X140895703Y-93397604D01*
X140897795Y-93392864D01*
X140898152Y-93390158D01*
X140913947Y-93356285D01*
X140938751Y-93300110D01*
X141014110Y-93224751D01*
X141070285Y-93199947D01*
X141104158Y-93184152D01*
X141106864Y-93183795D01*
X141111604Y-93181703D01*
X141178000Y-93174000D01*
X142478000Y-93174000D01*
X142544396Y-93181703D01*
G37*
G36*
X146304396Y-93181703D02*
G01*
X146309135Y-93183795D01*
X146311841Y-93184152D01*
X146345695Y-93199938D01*
X146401890Y-93224751D01*
X146477249Y-93300110D01*
X146502070Y-93356325D01*
X146517847Y-93390158D01*
X146518202Y-93392861D01*
X146520297Y-93397604D01*
X146528000Y-93464000D01*
X146528000Y-95964000D01*
X146520297Y-96030396D01*
X146518202Y-96035139D01*
X146517847Y-96037841D01*
X146502079Y-96071655D01*
X146477249Y-96127890D01*
X146401890Y-96203249D01*
X146345655Y-96228079D01*
X146311841Y-96243847D01*
X146309139Y-96244202D01*
X146304396Y-96246297D01*
X146238000Y-96254000D01*
X144938000Y-96254000D01*
X144871604Y-96246297D01*
X144866861Y-96244202D01*
X144864158Y-96243847D01*
X144830325Y-96228070D01*
X144774110Y-96203249D01*
X144698751Y-96127890D01*
X144673938Y-96071695D01*
X144658152Y-96037841D01*
X144657795Y-96035135D01*
X144655703Y-96030396D01*
X144648000Y-95964000D01*
X144648000Y-93464000D01*
X144655703Y-93397604D01*
X144657795Y-93392864D01*
X144658152Y-93390158D01*
X144673947Y-93356285D01*
X144698751Y-93300110D01*
X144774110Y-93224751D01*
X144830285Y-93199947D01*
X144864158Y-93184152D01*
X144866864Y-93183795D01*
X144871604Y-93181703D01*
X144938000Y-93174000D01*
X146238000Y-93174000D01*
X146304396Y-93181703D01*
G37*
G36*
X148844396Y-93181703D02*
G01*
X148849135Y-93183795D01*
X148851841Y-93184152D01*
X148885695Y-93199938D01*
X148941890Y-93224751D01*
X149017249Y-93300110D01*
X149042070Y-93356325D01*
X149057847Y-93390158D01*
X149058202Y-93392861D01*
X149060297Y-93397604D01*
X149068000Y-93464000D01*
X149068000Y-95964000D01*
X149060297Y-96030396D01*
X149058202Y-96035139D01*
X149057847Y-96037841D01*
X149042079Y-96071655D01*
X149017249Y-96127890D01*
X148941890Y-96203249D01*
X148885655Y-96228079D01*
X148851841Y-96243847D01*
X148849139Y-96244202D01*
X148844396Y-96246297D01*
X148778000Y-96254000D01*
X147478000Y-96254000D01*
X147411604Y-96246297D01*
X147406861Y-96244202D01*
X147404158Y-96243847D01*
X147370325Y-96228070D01*
X147314110Y-96203249D01*
X147238751Y-96127890D01*
X147213938Y-96071695D01*
X147198152Y-96037841D01*
X147197795Y-96035135D01*
X147195703Y-96030396D01*
X147188000Y-95964000D01*
X147188000Y-93464000D01*
X147195703Y-93397604D01*
X147197795Y-93392864D01*
X147198152Y-93390158D01*
X147213947Y-93356285D01*
X147238751Y-93300110D01*
X147314110Y-93224751D01*
X147370285Y-93199947D01*
X147404158Y-93184152D01*
X147406864Y-93183795D01*
X147411604Y-93181703D01*
X147478000Y-93174000D01*
X148778000Y-93174000D01*
X148844396Y-93181703D01*
G37*
G36*
X152604396Y-93181703D02*
G01*
X152609135Y-93183795D01*
X152611841Y-93184152D01*
X152645695Y-93199938D01*
X152701890Y-93224751D01*
X152777249Y-93300110D01*
X152802070Y-93356325D01*
X152817847Y-93390158D01*
X152818202Y-93392861D01*
X152820297Y-93397604D01*
X152828000Y-93464000D01*
X152828000Y-95964000D01*
X152820297Y-96030396D01*
X152818202Y-96035139D01*
X152817847Y-96037841D01*
X152802079Y-96071655D01*
X152777249Y-96127890D01*
X152701890Y-96203249D01*
X152645655Y-96228079D01*
X152611841Y-96243847D01*
X152609139Y-96244202D01*
X152604396Y-96246297D01*
X152538000Y-96254000D01*
X151238000Y-96254000D01*
X151171604Y-96246297D01*
X151166861Y-96244202D01*
X151164158Y-96243847D01*
X151130325Y-96228070D01*
X151074110Y-96203249D01*
X150998751Y-96127890D01*
X150973938Y-96071695D01*
X150958152Y-96037841D01*
X150957795Y-96035135D01*
X150955703Y-96030396D01*
X150948000Y-95964000D01*
X150948000Y-93464000D01*
X150955703Y-93397604D01*
X150957795Y-93392864D01*
X150958152Y-93390158D01*
X150973947Y-93356285D01*
X150998751Y-93300110D01*
X151074110Y-93224751D01*
X151130285Y-93199947D01*
X151164158Y-93184152D01*
X151166864Y-93183795D01*
X151171604Y-93181703D01*
X151238000Y-93174000D01*
X152538000Y-93174000D01*
X152604396Y-93181703D01*
G37*
G36*
X155144396Y-93181703D02*
G01*
X155149135Y-93183795D01*
X155151841Y-93184152D01*
X155185695Y-93199938D01*
X155241890Y-93224751D01*
X155317249Y-93300110D01*
X155342070Y-93356325D01*
X155357847Y-93390158D01*
X155358202Y-93392861D01*
X155360297Y-93397604D01*
X155368000Y-93464000D01*
X155368000Y-95964000D01*
X155360297Y-96030396D01*
X155358202Y-96035139D01*
X155357847Y-96037841D01*
X155342079Y-96071655D01*
X155317249Y-96127890D01*
X155241890Y-96203249D01*
X155185655Y-96228079D01*
X155151841Y-96243847D01*
X155149139Y-96244202D01*
X155144396Y-96246297D01*
X155078000Y-96254000D01*
X153778000Y-96254000D01*
X153711604Y-96246297D01*
X153706861Y-96244202D01*
X153704158Y-96243847D01*
X153670325Y-96228070D01*
X153614110Y-96203249D01*
X153538751Y-96127890D01*
X153513938Y-96071695D01*
X153498152Y-96037841D01*
X153497795Y-96035135D01*
X153495703Y-96030396D01*
X153488000Y-95964000D01*
X153488000Y-93464000D01*
X153495703Y-93397604D01*
X153497795Y-93392864D01*
X153498152Y-93390158D01*
X153513947Y-93356285D01*
X153538751Y-93300110D01*
X153614110Y-93224751D01*
X153670285Y-93199947D01*
X153704158Y-93184152D01*
X153706864Y-93183795D01*
X153711604Y-93181703D01*
X153778000Y-93174000D01*
X155078000Y-93174000D01*
X155144396Y-93181703D01*
G37*
G36*
X119792396Y-94012703D02*
G01*
X119797135Y-94014795D01*
X119799841Y-94015152D01*
X119833695Y-94030938D01*
X119889890Y-94055751D01*
X119965249Y-94131110D01*
X119990070Y-94187325D01*
X120005847Y-94221158D01*
X120006202Y-94223861D01*
X120008297Y-94228604D01*
X120016000Y-94295000D01*
X120016000Y-94995000D01*
X120008297Y-95061396D01*
X120006202Y-95066139D01*
X120005847Y-95068841D01*
X119990079Y-95102655D01*
X119965249Y-95158890D01*
X119889890Y-95234249D01*
X119833655Y-95259079D01*
X119799841Y-95274847D01*
X119797139Y-95275202D01*
X119792396Y-95277297D01*
X119726000Y-95285000D01*
X117726000Y-95285000D01*
X117659604Y-95277297D01*
X117654861Y-95275202D01*
X117652158Y-95274847D01*
X117618325Y-95259070D01*
X117562110Y-95234249D01*
X117486751Y-95158890D01*
X117461938Y-95102695D01*
X117446152Y-95068841D01*
X117445795Y-95066135D01*
X117443703Y-95061396D01*
X117436000Y-94995000D01*
X117436000Y-94295000D01*
X117443703Y-94228604D01*
X117445795Y-94223864D01*
X117446152Y-94221158D01*
X117461947Y-94187285D01*
X117486751Y-94131110D01*
X117562110Y-94055751D01*
X117618285Y-94030947D01*
X117652158Y-94015152D01*
X117654864Y-94014795D01*
X117659604Y-94012703D01*
X117726000Y-94005000D01*
X119726000Y-94005000D01*
X119792396Y-94012703D01*
G37*
G36*
X82427353Y-93509323D02*
G01*
X82588543Y-93576090D01*
X82733610Y-93673021D01*
X82856979Y-93796390D01*
X82953910Y-93941457D01*
X83020677Y-94102647D01*
X83054714Y-94273765D01*
X83054714Y-94448235D01*
X83020677Y-94619353D01*
X82953910Y-94780543D01*
X82856979Y-94925610D01*
X82733610Y-95048979D01*
X82588543Y-95145910D01*
X82427353Y-95212677D01*
X82256235Y-95246714D01*
X82081765Y-95246714D01*
X81910647Y-95212677D01*
X81749457Y-95145910D01*
X81604390Y-95048979D01*
X81481021Y-94925610D01*
X81384090Y-94780543D01*
X81317323Y-94619353D01*
X81283286Y-94448235D01*
X81283286Y-94273765D01*
X81317323Y-94102647D01*
X81384090Y-93941457D01*
X81481021Y-93796390D01*
X81604390Y-93673021D01*
X81749457Y-93576090D01*
X81910647Y-93509323D01*
X82081765Y-93475286D01*
X82256235Y-93475286D01*
X82427353Y-93509323D01*
G37*
G36*
X84967353Y-93509323D02*
G01*
X85128543Y-93576090D01*
X85273610Y-93673021D01*
X85396979Y-93796390D01*
X85493910Y-93941457D01*
X85560677Y-94102647D01*
X85594714Y-94273765D01*
X85594714Y-94448235D01*
X85560677Y-94619353D01*
X85493910Y-94780543D01*
X85396979Y-94925610D01*
X85273610Y-95048979D01*
X85128543Y-95145910D01*
X84967353Y-95212677D01*
X84796235Y-95246714D01*
X84621765Y-95246714D01*
X84450647Y-95212677D01*
X84289457Y-95145910D01*
X84144390Y-95048979D01*
X84021021Y-94925610D01*
X83924090Y-94780543D01*
X83857323Y-94619353D01*
X83823286Y-94448235D01*
X83823286Y-94273765D01*
X83857323Y-94102647D01*
X83924090Y-93941457D01*
X84021021Y-93796390D01*
X84144390Y-93673021D01*
X84289457Y-93576090D01*
X84450647Y-93509323D01*
X84621765Y-93475286D01*
X84796235Y-93475286D01*
X84967353Y-93509323D01*
G37*
G36*
X87507353Y-93509323D02*
G01*
X87668543Y-93576090D01*
X87813610Y-93673021D01*
X87936979Y-93796390D01*
X88033910Y-93941457D01*
X88100677Y-94102647D01*
X88134714Y-94273765D01*
X88134714Y-94448235D01*
X88100677Y-94619353D01*
X88033910Y-94780543D01*
X87936979Y-94925610D01*
X87813610Y-95048979D01*
X87668543Y-95145910D01*
X87507353Y-95212677D01*
X87336235Y-95246714D01*
X87161765Y-95246714D01*
X86990647Y-95212677D01*
X86829457Y-95145910D01*
X86684390Y-95048979D01*
X86561021Y-94925610D01*
X86464090Y-94780543D01*
X86397323Y-94619353D01*
X86363286Y-94448235D01*
X86363286Y-94273765D01*
X86397323Y-94102647D01*
X86464090Y-93941457D01*
X86561021Y-93796390D01*
X86684390Y-93673021D01*
X86829457Y-93576090D01*
X86990647Y-93509323D01*
X87161765Y-93475286D01*
X87336235Y-93475286D01*
X87507353Y-93509323D01*
G37*
G36*
X90047353Y-93509323D02*
G01*
X90208543Y-93576090D01*
X90353610Y-93673021D01*
X90476979Y-93796390D01*
X90573910Y-93941457D01*
X90640677Y-94102647D01*
X90674714Y-94273765D01*
X90674714Y-94448235D01*
X90640677Y-94619353D01*
X90573910Y-94780543D01*
X90476979Y-94925610D01*
X90353610Y-95048979D01*
X90208543Y-95145910D01*
X90047353Y-95212677D01*
X89876235Y-95246714D01*
X89701765Y-95246714D01*
X89530647Y-95212677D01*
X89369457Y-95145910D01*
X89224390Y-95048979D01*
X89101021Y-94925610D01*
X89004090Y-94780543D01*
X88937323Y-94619353D01*
X88903286Y-94448235D01*
X88903286Y-94273765D01*
X88937323Y-94102647D01*
X89004090Y-93941457D01*
X89101021Y-93796390D01*
X89224390Y-93673021D01*
X89369457Y-93576090D01*
X89530647Y-93509323D01*
X89701765Y-93475286D01*
X89876235Y-93475286D01*
X90047353Y-93509323D01*
G37*
G36*
X92587353Y-93509323D02*
G01*
X92748543Y-93576090D01*
X92893610Y-93673021D01*
X93016979Y-93796390D01*
X93113910Y-93941457D01*
X93180677Y-94102647D01*
X93214714Y-94273765D01*
X93214714Y-94448235D01*
X93180677Y-94619353D01*
X93113910Y-94780543D01*
X93016979Y-94925610D01*
X92893610Y-95048979D01*
X92748543Y-95145910D01*
X92587353Y-95212677D01*
X92416235Y-95246714D01*
X92241765Y-95246714D01*
X92070647Y-95212677D01*
X91909457Y-95145910D01*
X91764390Y-95048979D01*
X91641021Y-94925610D01*
X91544090Y-94780543D01*
X91477323Y-94619353D01*
X91443286Y-94448235D01*
X91443286Y-94273765D01*
X91477323Y-94102647D01*
X91544090Y-93941457D01*
X91641021Y-93796390D01*
X91764390Y-93673021D01*
X91909457Y-93576090D01*
X92070647Y-93509323D01*
X92241765Y-93475286D01*
X92416235Y-93475286D01*
X92587353Y-93509323D01*
G37*
G36*
X95127353Y-93509323D02*
G01*
X95288543Y-93576090D01*
X95433610Y-93673021D01*
X95556979Y-93796390D01*
X95653910Y-93941457D01*
X95720677Y-94102647D01*
X95754714Y-94273765D01*
X95754714Y-94448235D01*
X95720677Y-94619353D01*
X95653910Y-94780543D01*
X95556979Y-94925610D01*
X95433610Y-95048979D01*
X95288543Y-95145910D01*
X95127353Y-95212677D01*
X94956235Y-95246714D01*
X94781765Y-95246714D01*
X94610647Y-95212677D01*
X94449457Y-95145910D01*
X94304390Y-95048979D01*
X94181021Y-94925610D01*
X94084090Y-94780543D01*
X94017323Y-94619353D01*
X93983286Y-94448235D01*
X93983286Y-94273765D01*
X94017323Y-94102647D01*
X94084090Y-93941457D01*
X94181021Y-93796390D01*
X94304390Y-93673021D01*
X94449457Y-93576090D01*
X94610647Y-93509323D01*
X94781765Y-93475286D01*
X94956235Y-93475286D01*
X95127353Y-93509323D01*
G37*
G36*
X97667353Y-93509323D02*
G01*
X97828543Y-93576090D01*
X97973610Y-93673021D01*
X98096979Y-93796390D01*
X98193910Y-93941457D01*
X98260677Y-94102647D01*
X98294714Y-94273765D01*
X98294714Y-94448235D01*
X98260677Y-94619353D01*
X98193910Y-94780543D01*
X98096979Y-94925610D01*
X97973610Y-95048979D01*
X97828543Y-95145910D01*
X97667353Y-95212677D01*
X97496235Y-95246714D01*
X97321765Y-95246714D01*
X97150647Y-95212677D01*
X96989457Y-95145910D01*
X96844390Y-95048979D01*
X96721021Y-94925610D01*
X96624090Y-94780543D01*
X96557323Y-94619353D01*
X96523286Y-94448235D01*
X96523286Y-94273765D01*
X96557323Y-94102647D01*
X96624090Y-93941457D01*
X96721021Y-93796390D01*
X96844390Y-93673021D01*
X96989457Y-93576090D01*
X97150647Y-93509323D01*
X97321765Y-93475286D01*
X97496235Y-93475286D01*
X97667353Y-93509323D01*
G37*
G36*
X110267396Y-93917703D02*
G01*
X110272135Y-93919795D01*
X110274841Y-93920152D01*
X110308695Y-93935938D01*
X110364890Y-93960751D01*
X110440249Y-94036110D01*
X110465070Y-94092325D01*
X110480847Y-94126158D01*
X110481202Y-94128861D01*
X110483297Y-94133604D01*
X110491000Y-94200000D01*
X110491000Y-94900000D01*
X110483297Y-94966396D01*
X110481202Y-94971139D01*
X110480847Y-94973841D01*
X110465079Y-95007655D01*
X110440249Y-95063890D01*
X110364890Y-95139249D01*
X110308655Y-95164079D01*
X110274841Y-95179847D01*
X110272139Y-95180202D01*
X110267396Y-95182297D01*
X110201000Y-95190000D01*
X108201000Y-95190000D01*
X108134604Y-95182297D01*
X108129861Y-95180202D01*
X108127158Y-95179847D01*
X108093325Y-95164070D01*
X108037110Y-95139249D01*
X107961751Y-95063890D01*
X107936938Y-95007695D01*
X107921152Y-94973841D01*
X107920795Y-94971135D01*
X107918703Y-94966396D01*
X107911000Y-94900000D01*
X107911000Y-94200000D01*
X107918703Y-94133604D01*
X107920795Y-94128864D01*
X107921152Y-94126158D01*
X107936947Y-94092285D01*
X107961751Y-94036110D01*
X108037110Y-93960751D01*
X108093285Y-93935947D01*
X108127158Y-93920152D01*
X108129864Y-93919795D01*
X108134604Y-93917703D01*
X108201000Y-93910000D01*
X110201000Y-93910000D01*
X110267396Y-93917703D01*
G37*
G36*
X119792396Y-92012703D02*
G01*
X119797135Y-92014795D01*
X119799841Y-92015152D01*
X119833695Y-92030938D01*
X119889890Y-92055751D01*
X119965249Y-92131110D01*
X119990070Y-92187325D01*
X120005847Y-92221158D01*
X120006202Y-92223861D01*
X120008297Y-92228604D01*
X120016000Y-92295000D01*
X120016000Y-92995000D01*
X120008297Y-93061396D01*
X120006202Y-93066139D01*
X120005847Y-93068841D01*
X119990079Y-93102655D01*
X119965249Y-93158890D01*
X119889890Y-93234249D01*
X119833655Y-93259079D01*
X119799841Y-93274847D01*
X119797139Y-93275202D01*
X119792396Y-93277297D01*
X119726000Y-93285000D01*
X117726000Y-93285000D01*
X117659604Y-93277297D01*
X117654861Y-93275202D01*
X117652158Y-93274847D01*
X117618325Y-93259070D01*
X117562110Y-93234249D01*
X117486751Y-93158890D01*
X117461938Y-93102695D01*
X117446152Y-93068841D01*
X117445795Y-93066135D01*
X117443703Y-93061396D01*
X117436000Y-92995000D01*
X117436000Y-92295000D01*
X117443703Y-92228604D01*
X117445795Y-92223864D01*
X117446152Y-92221158D01*
X117461947Y-92187285D01*
X117486751Y-92131110D01*
X117562110Y-92055751D01*
X117618285Y-92030947D01*
X117652158Y-92015152D01*
X117654864Y-92014795D01*
X117659604Y-92012703D01*
X117726000Y-92005000D01*
X119726000Y-92005000D01*
X119792396Y-92012703D01*
G37*
G36*
X110267396Y-91917703D02*
G01*
X110272135Y-91919795D01*
X110274841Y-91920152D01*
X110308695Y-91935938D01*
X110364890Y-91960751D01*
X110440249Y-92036110D01*
X110465070Y-92092325D01*
X110480847Y-92126158D01*
X110481202Y-92128861D01*
X110483297Y-92133604D01*
X110491000Y-92200000D01*
X110491000Y-92900000D01*
X110483297Y-92966396D01*
X110481202Y-92971139D01*
X110480847Y-92973841D01*
X110465079Y-93007655D01*
X110440249Y-93063890D01*
X110364890Y-93139249D01*
X110308655Y-93164079D01*
X110274841Y-93179847D01*
X110272139Y-93180202D01*
X110267396Y-93182297D01*
X110201000Y-93190000D01*
X108201000Y-93190000D01*
X108134604Y-93182297D01*
X108129861Y-93180202D01*
X108127158Y-93179847D01*
X108093325Y-93164070D01*
X108037110Y-93139249D01*
X107961751Y-93063890D01*
X107936938Y-93007695D01*
X107921152Y-92973841D01*
X107920795Y-92971135D01*
X107918703Y-92966396D01*
X107911000Y-92900000D01*
X107911000Y-92200000D01*
X107918703Y-92133604D01*
X107920795Y-92128864D01*
X107921152Y-92126158D01*
X107936947Y-92092285D01*
X107961751Y-92036110D01*
X108037110Y-91960751D01*
X108093285Y-91935947D01*
X108127158Y-91920152D01*
X108129864Y-91919795D01*
X108134604Y-91917703D01*
X108201000Y-91910000D01*
X110201000Y-91910000D01*
X110267396Y-91917703D01*
G37*
G36*
X82427353Y-90969323D02*
G01*
X82588543Y-91036090D01*
X82733610Y-91133021D01*
X82856979Y-91256390D01*
X82953910Y-91401457D01*
X83020677Y-91562647D01*
X83054714Y-91733765D01*
X83054714Y-91908235D01*
X83020677Y-92079353D01*
X82953910Y-92240543D01*
X82856979Y-92385610D01*
X82733610Y-92508979D01*
X82588543Y-92605910D01*
X82427353Y-92672677D01*
X82256235Y-92706714D01*
X82081765Y-92706714D01*
X81910647Y-92672677D01*
X81749457Y-92605910D01*
X81604390Y-92508979D01*
X81481021Y-92385610D01*
X81384090Y-92240543D01*
X81317323Y-92079353D01*
X81283286Y-91908235D01*
X81283286Y-91733765D01*
X81317323Y-91562647D01*
X81384090Y-91401457D01*
X81481021Y-91256390D01*
X81604390Y-91133021D01*
X81749457Y-91036090D01*
X81910647Y-90969323D01*
X82081765Y-90935286D01*
X82256235Y-90935286D01*
X82427353Y-90969323D01*
G37*
G36*
X97667353Y-90969323D02*
G01*
X97828543Y-91036090D01*
X97973610Y-91133021D01*
X98096979Y-91256390D01*
X98193910Y-91401457D01*
X98260677Y-91562647D01*
X98294714Y-91733765D01*
X98294714Y-91908235D01*
X98260677Y-92079353D01*
X98193910Y-92240543D01*
X98096979Y-92385610D01*
X97973610Y-92508979D01*
X97828543Y-92605910D01*
X97667353Y-92672677D01*
X97496235Y-92706714D01*
X97321765Y-92706714D01*
X97150647Y-92672677D01*
X96989457Y-92605910D01*
X96844390Y-92508979D01*
X96721021Y-92385610D01*
X96624090Y-92240543D01*
X96557323Y-92079353D01*
X96523286Y-91908235D01*
X96523286Y-91733765D01*
X96557323Y-91562647D01*
X96624090Y-91401457D01*
X96721021Y-91256390D01*
X96844390Y-91133021D01*
X96989457Y-91036090D01*
X97150647Y-90969323D01*
X97321765Y-90935286D01*
X97496235Y-90935286D01*
X97667353Y-90969323D01*
G37*
G36*
X119792396Y-90012703D02*
G01*
X119797135Y-90014795D01*
X119799841Y-90015152D01*
X119833695Y-90030938D01*
X119889890Y-90055751D01*
X119965249Y-90131110D01*
X119990070Y-90187325D01*
X120005847Y-90221158D01*
X120006202Y-90223861D01*
X120008297Y-90228604D01*
X120016000Y-90295000D01*
X120016000Y-90995000D01*
X120008297Y-91061396D01*
X120006202Y-91066139D01*
X120005847Y-91068841D01*
X119990079Y-91102655D01*
X119965249Y-91158890D01*
X119889890Y-91234249D01*
X119833655Y-91259079D01*
X119799841Y-91274847D01*
X119797139Y-91275202D01*
X119792396Y-91277297D01*
X119726000Y-91285000D01*
X117726000Y-91285000D01*
X117659604Y-91277297D01*
X117654861Y-91275202D01*
X117652158Y-91274847D01*
X117618325Y-91259070D01*
X117562110Y-91234249D01*
X117486751Y-91158890D01*
X117461938Y-91102695D01*
X117446152Y-91068841D01*
X117445795Y-91066135D01*
X117443703Y-91061396D01*
X117436000Y-90995000D01*
X117436000Y-90295000D01*
X117443703Y-90228604D01*
X117445795Y-90223864D01*
X117446152Y-90221158D01*
X117461947Y-90187285D01*
X117486751Y-90131110D01*
X117562110Y-90055751D01*
X117618285Y-90030947D01*
X117652158Y-90015152D01*
X117654864Y-90014795D01*
X117659604Y-90012703D01*
X117726000Y-90005000D01*
X119726000Y-90005000D01*
X119792396Y-90012703D01*
G37*
G36*
X110267396Y-89917703D02*
G01*
X110272135Y-89919795D01*
X110274841Y-89920152D01*
X110308695Y-89935938D01*
X110364890Y-89960751D01*
X110440249Y-90036110D01*
X110465070Y-90092325D01*
X110480847Y-90126158D01*
X110481202Y-90128861D01*
X110483297Y-90133604D01*
X110491000Y-90200000D01*
X110491000Y-90900000D01*
X110483297Y-90966396D01*
X110481202Y-90971139D01*
X110480847Y-90973841D01*
X110465079Y-91007655D01*
X110440249Y-91063890D01*
X110364890Y-91139249D01*
X110308655Y-91164079D01*
X110274841Y-91179847D01*
X110272139Y-91180202D01*
X110267396Y-91182297D01*
X110201000Y-91190000D01*
X108201000Y-91190000D01*
X108134604Y-91182297D01*
X108129861Y-91180202D01*
X108127158Y-91179847D01*
X108093325Y-91164070D01*
X108037110Y-91139249D01*
X107961751Y-91063890D01*
X107936938Y-91007695D01*
X107921152Y-90973841D01*
X107920795Y-90971135D01*
X107918703Y-90966396D01*
X107911000Y-90900000D01*
X107911000Y-90200000D01*
X107918703Y-90133604D01*
X107920795Y-90128864D01*
X107921152Y-90126158D01*
X107936947Y-90092285D01*
X107961751Y-90036110D01*
X108037110Y-89960751D01*
X108093285Y-89935947D01*
X108127158Y-89920152D01*
X108129864Y-89919795D01*
X108134604Y-89917703D01*
X108201000Y-89910000D01*
X110201000Y-89910000D01*
X110267396Y-89917703D01*
G37*
G36*
X139944396Y-88081703D02*
G01*
X139949135Y-88083795D01*
X139951841Y-88084152D01*
X139985695Y-88099938D01*
X140041890Y-88124751D01*
X140117249Y-88200110D01*
X140142070Y-88256325D01*
X140157847Y-88290158D01*
X140158202Y-88292861D01*
X140160297Y-88297604D01*
X140168000Y-88364000D01*
X140168000Y-90864000D01*
X140160297Y-90930396D01*
X140158202Y-90935139D01*
X140157847Y-90937841D01*
X140142079Y-90971655D01*
X140117249Y-91027890D01*
X140041890Y-91103249D01*
X139985655Y-91128079D01*
X139951841Y-91143847D01*
X139949139Y-91144202D01*
X139944396Y-91146297D01*
X139878000Y-91154000D01*
X138678000Y-91154000D01*
X138611604Y-91146297D01*
X138606861Y-91144202D01*
X138604158Y-91143847D01*
X138570325Y-91128070D01*
X138514110Y-91103249D01*
X138438751Y-91027890D01*
X138413938Y-90971695D01*
X138398152Y-90937841D01*
X138397795Y-90935135D01*
X138395703Y-90930396D01*
X138388000Y-90864000D01*
X138388000Y-88364000D01*
X138395703Y-88297604D01*
X138397795Y-88292864D01*
X138398152Y-88290158D01*
X138413947Y-88256285D01*
X138438751Y-88200110D01*
X138514110Y-88124751D01*
X138570285Y-88099947D01*
X138604158Y-88084152D01*
X138606864Y-88083795D01*
X138611604Y-88081703D01*
X138678000Y-88074000D01*
X139878000Y-88074000D01*
X139944396Y-88081703D01*
G37*
G36*
X142484396Y-88081703D02*
G01*
X142489135Y-88083795D01*
X142491841Y-88084152D01*
X142525695Y-88099938D01*
X142581890Y-88124751D01*
X142657249Y-88200110D01*
X142682070Y-88256325D01*
X142697847Y-88290158D01*
X142698202Y-88292861D01*
X142700297Y-88297604D01*
X142708000Y-88364000D01*
X142708000Y-90864000D01*
X142700297Y-90930396D01*
X142698202Y-90935139D01*
X142697847Y-90937841D01*
X142682079Y-90971655D01*
X142657249Y-91027890D01*
X142581890Y-91103249D01*
X142525655Y-91128079D01*
X142491841Y-91143847D01*
X142489139Y-91144202D01*
X142484396Y-91146297D01*
X142418000Y-91154000D01*
X141218000Y-91154000D01*
X141151604Y-91146297D01*
X141146861Y-91144202D01*
X141144158Y-91143847D01*
X141110325Y-91128070D01*
X141054110Y-91103249D01*
X140978751Y-91027890D01*
X140953938Y-90971695D01*
X140938152Y-90937841D01*
X140937795Y-90935135D01*
X140935703Y-90930396D01*
X140928000Y-90864000D01*
X140928000Y-88364000D01*
X140935703Y-88297604D01*
X140937795Y-88292864D01*
X140938152Y-88290158D01*
X140953947Y-88256285D01*
X140978751Y-88200110D01*
X141054110Y-88124751D01*
X141110285Y-88099947D01*
X141144158Y-88084152D01*
X141146864Y-88083795D01*
X141151604Y-88081703D01*
X141218000Y-88074000D01*
X142418000Y-88074000D01*
X142484396Y-88081703D01*
G37*
G36*
X146244396Y-88081703D02*
G01*
X146249135Y-88083795D01*
X146251841Y-88084152D01*
X146285695Y-88099938D01*
X146341890Y-88124751D01*
X146417249Y-88200110D01*
X146442070Y-88256325D01*
X146457847Y-88290158D01*
X146458202Y-88292861D01*
X146460297Y-88297604D01*
X146468000Y-88364000D01*
X146468000Y-90864000D01*
X146460297Y-90930396D01*
X146458202Y-90935139D01*
X146457847Y-90937841D01*
X146442079Y-90971655D01*
X146417249Y-91027890D01*
X146341890Y-91103249D01*
X146285655Y-91128079D01*
X146251841Y-91143847D01*
X146249139Y-91144202D01*
X146244396Y-91146297D01*
X146178000Y-91154000D01*
X144978000Y-91154000D01*
X144911604Y-91146297D01*
X144906861Y-91144202D01*
X144904158Y-91143847D01*
X144870325Y-91128070D01*
X144814110Y-91103249D01*
X144738751Y-91027890D01*
X144713938Y-90971695D01*
X144698152Y-90937841D01*
X144697795Y-90935135D01*
X144695703Y-90930396D01*
X144688000Y-90864000D01*
X144688000Y-88364000D01*
X144695703Y-88297604D01*
X144697795Y-88292864D01*
X144698152Y-88290158D01*
X144713947Y-88256285D01*
X144738751Y-88200110D01*
X144814110Y-88124751D01*
X144870285Y-88099947D01*
X144904158Y-88084152D01*
X144906864Y-88083795D01*
X144911604Y-88081703D01*
X144978000Y-88074000D01*
X146178000Y-88074000D01*
X146244396Y-88081703D01*
G37*
G36*
X148784396Y-88081703D02*
G01*
X148789135Y-88083795D01*
X148791841Y-88084152D01*
X148825695Y-88099938D01*
X148881890Y-88124751D01*
X148957249Y-88200110D01*
X148982070Y-88256325D01*
X148997847Y-88290158D01*
X148998202Y-88292861D01*
X149000297Y-88297604D01*
X149008000Y-88364000D01*
X149008000Y-90864000D01*
X149000297Y-90930396D01*
X148998202Y-90935139D01*
X148997847Y-90937841D01*
X148982079Y-90971655D01*
X148957249Y-91027890D01*
X148881890Y-91103249D01*
X148825655Y-91128079D01*
X148791841Y-91143847D01*
X148789139Y-91144202D01*
X148784396Y-91146297D01*
X148718000Y-91154000D01*
X147518000Y-91154000D01*
X147451604Y-91146297D01*
X147446861Y-91144202D01*
X147444158Y-91143847D01*
X147410325Y-91128070D01*
X147354110Y-91103249D01*
X147278751Y-91027890D01*
X147253938Y-90971695D01*
X147238152Y-90937841D01*
X147237795Y-90935135D01*
X147235703Y-90930396D01*
X147228000Y-90864000D01*
X147228000Y-88364000D01*
X147235703Y-88297604D01*
X147237795Y-88292864D01*
X147238152Y-88290158D01*
X147253947Y-88256285D01*
X147278751Y-88200110D01*
X147354110Y-88124751D01*
X147410285Y-88099947D01*
X147444158Y-88084152D01*
X147446864Y-88083795D01*
X147451604Y-88081703D01*
X147518000Y-88074000D01*
X148718000Y-88074000D01*
X148784396Y-88081703D01*
G37*
G36*
X152544396Y-88081703D02*
G01*
X152549135Y-88083795D01*
X152551841Y-88084152D01*
X152585695Y-88099938D01*
X152641890Y-88124751D01*
X152717249Y-88200110D01*
X152742070Y-88256325D01*
X152757847Y-88290158D01*
X152758202Y-88292861D01*
X152760297Y-88297604D01*
X152768000Y-88364000D01*
X152768000Y-90864000D01*
X152760297Y-90930396D01*
X152758202Y-90935139D01*
X152757847Y-90937841D01*
X152742079Y-90971655D01*
X152717249Y-91027890D01*
X152641890Y-91103249D01*
X152585655Y-91128079D01*
X152551841Y-91143847D01*
X152549139Y-91144202D01*
X152544396Y-91146297D01*
X152478000Y-91154000D01*
X151278000Y-91154000D01*
X151211604Y-91146297D01*
X151206861Y-91144202D01*
X151204158Y-91143847D01*
X151170325Y-91128070D01*
X151114110Y-91103249D01*
X151038751Y-91027890D01*
X151013938Y-90971695D01*
X150998152Y-90937841D01*
X150997795Y-90935135D01*
X150995703Y-90930396D01*
X150988000Y-90864000D01*
X150988000Y-88364000D01*
X150995703Y-88297604D01*
X150997795Y-88292864D01*
X150998152Y-88290158D01*
X151013947Y-88256285D01*
X151038751Y-88200110D01*
X151114110Y-88124751D01*
X151170285Y-88099947D01*
X151204158Y-88084152D01*
X151206864Y-88083795D01*
X151211604Y-88081703D01*
X151278000Y-88074000D01*
X152478000Y-88074000D01*
X152544396Y-88081703D01*
G37*
G36*
X155084396Y-88081703D02*
G01*
X155089135Y-88083795D01*
X155091841Y-88084152D01*
X155125695Y-88099938D01*
X155181890Y-88124751D01*
X155257249Y-88200110D01*
X155282070Y-88256325D01*
X155297847Y-88290158D01*
X155298202Y-88292861D01*
X155300297Y-88297604D01*
X155308000Y-88364000D01*
X155308000Y-90864000D01*
X155300297Y-90930396D01*
X155298202Y-90935139D01*
X155297847Y-90937841D01*
X155282079Y-90971655D01*
X155257249Y-91027890D01*
X155181890Y-91103249D01*
X155125655Y-91128079D01*
X155091841Y-91143847D01*
X155089139Y-91144202D01*
X155084396Y-91146297D01*
X155018000Y-91154000D01*
X153818000Y-91154000D01*
X153751604Y-91146297D01*
X153746861Y-91144202D01*
X153744158Y-91143847D01*
X153710325Y-91128070D01*
X153654110Y-91103249D01*
X153578751Y-91027890D01*
X153553938Y-90971695D01*
X153538152Y-90937841D01*
X153537795Y-90935135D01*
X153535703Y-90930396D01*
X153528000Y-90864000D01*
X153528000Y-88364000D01*
X153535703Y-88297604D01*
X153537795Y-88292864D01*
X153538152Y-88290158D01*
X153553947Y-88256285D01*
X153578751Y-88200110D01*
X153654110Y-88124751D01*
X153710285Y-88099947D01*
X153744158Y-88084152D01*
X153746864Y-88083795D01*
X153751604Y-88081703D01*
X153818000Y-88074000D01*
X155018000Y-88074000D01*
X155084396Y-88081703D01*
G37*
G36*
X64966396Y-89410703D02*
G01*
X64971135Y-89412795D01*
X64973841Y-89413152D01*
X65007695Y-89428938D01*
X65063890Y-89453751D01*
X65139249Y-89529110D01*
X65164070Y-89585325D01*
X65179847Y-89619158D01*
X65180202Y-89621861D01*
X65182297Y-89626604D01*
X65190000Y-89693000D01*
X65190000Y-90393000D01*
X65182297Y-90459396D01*
X65180202Y-90464139D01*
X65179847Y-90466841D01*
X65164079Y-90500655D01*
X65139249Y-90556890D01*
X65063890Y-90632249D01*
X65007655Y-90657079D01*
X64973841Y-90672847D01*
X64971139Y-90673202D01*
X64966396Y-90675297D01*
X64900000Y-90683000D01*
X62900000Y-90683000D01*
X62833604Y-90675297D01*
X62828861Y-90673202D01*
X62826158Y-90672847D01*
X62792325Y-90657070D01*
X62736110Y-90632249D01*
X62660751Y-90556890D01*
X62635938Y-90500695D01*
X62620152Y-90466841D01*
X62619795Y-90464135D01*
X62617703Y-90459396D01*
X62610000Y-90393000D01*
X62610000Y-89693000D01*
X62617703Y-89626604D01*
X62619795Y-89621864D01*
X62620152Y-89619158D01*
X62635947Y-89585285D01*
X62660751Y-89529110D01*
X62736110Y-89453751D01*
X62792285Y-89428947D01*
X62826158Y-89413152D01*
X62828864Y-89412795D01*
X62833604Y-89410703D01*
X62900000Y-89403000D01*
X64900000Y-89403000D01*
X64966396Y-89410703D01*
G37*
G36*
X82427353Y-88429323D02*
G01*
X82588543Y-88496090D01*
X82733610Y-88593021D01*
X82856979Y-88716390D01*
X82953910Y-88861457D01*
X83020677Y-89022647D01*
X83054714Y-89193765D01*
X83054714Y-89368235D01*
X83020677Y-89539353D01*
X82953910Y-89700543D01*
X82856979Y-89845610D01*
X82733610Y-89968979D01*
X82588543Y-90065910D01*
X82427353Y-90132677D01*
X82256235Y-90166714D01*
X82081765Y-90166714D01*
X81910647Y-90132677D01*
X81749457Y-90065910D01*
X81604390Y-89968979D01*
X81481021Y-89845610D01*
X81384090Y-89700543D01*
X81317323Y-89539353D01*
X81283286Y-89368235D01*
X81283286Y-89193765D01*
X81317323Y-89022647D01*
X81384090Y-88861457D01*
X81481021Y-88716390D01*
X81604390Y-88593021D01*
X81749457Y-88496090D01*
X81910647Y-88429323D01*
X82081765Y-88395286D01*
X82256235Y-88395286D01*
X82427353Y-88429323D01*
G37*
G36*
X97667353Y-88429323D02*
G01*
X97828543Y-88496090D01*
X97973610Y-88593021D01*
X98096979Y-88716390D01*
X98193910Y-88861457D01*
X98260677Y-89022647D01*
X98294714Y-89193765D01*
X98294714Y-89368235D01*
X98260677Y-89539353D01*
X98193910Y-89700543D01*
X98096979Y-89845610D01*
X97973610Y-89968979D01*
X97828543Y-90065910D01*
X97667353Y-90132677D01*
X97496235Y-90166714D01*
X97321765Y-90166714D01*
X97150647Y-90132677D01*
X96989457Y-90065910D01*
X96844390Y-89968979D01*
X96721021Y-89845610D01*
X96624090Y-89700543D01*
X96557323Y-89539353D01*
X96523286Y-89368235D01*
X96523286Y-89193765D01*
X96557323Y-89022647D01*
X96624090Y-88861457D01*
X96721021Y-88716390D01*
X96844390Y-88593021D01*
X96989457Y-88496090D01*
X97150647Y-88429323D01*
X97321765Y-88395286D01*
X97496235Y-88395286D01*
X97667353Y-88429323D01*
G37*
G36*
X119792396Y-88012703D02*
G01*
X119797135Y-88014795D01*
X119799841Y-88015152D01*
X119833695Y-88030938D01*
X119889890Y-88055751D01*
X119965249Y-88131110D01*
X119990070Y-88187325D01*
X120005847Y-88221158D01*
X120006202Y-88223861D01*
X120008297Y-88228604D01*
X120016000Y-88295000D01*
X120016000Y-88995000D01*
X120008297Y-89061396D01*
X120006202Y-89066139D01*
X120005847Y-89068841D01*
X119990079Y-89102655D01*
X119965249Y-89158890D01*
X119889890Y-89234249D01*
X119833655Y-89259079D01*
X119799841Y-89274847D01*
X119797139Y-89275202D01*
X119792396Y-89277297D01*
X119726000Y-89285000D01*
X117726000Y-89285000D01*
X117659604Y-89277297D01*
X117654861Y-89275202D01*
X117652158Y-89274847D01*
X117618325Y-89259070D01*
X117562110Y-89234249D01*
X117486751Y-89158890D01*
X117461938Y-89102695D01*
X117446152Y-89068841D01*
X117445795Y-89066135D01*
X117443703Y-89061396D01*
X117436000Y-88995000D01*
X117436000Y-88295000D01*
X117443703Y-88228604D01*
X117445795Y-88223864D01*
X117446152Y-88221158D01*
X117461947Y-88187285D01*
X117486751Y-88131110D01*
X117562110Y-88055751D01*
X117618285Y-88030947D01*
X117652158Y-88015152D01*
X117654864Y-88014795D01*
X117659604Y-88012703D01*
X117726000Y-88005000D01*
X119726000Y-88005000D01*
X119792396Y-88012703D01*
G37*
G36*
X110267396Y-87917703D02*
G01*
X110272135Y-87919795D01*
X110274841Y-87920152D01*
X110308695Y-87935938D01*
X110364890Y-87960751D01*
X110440249Y-88036110D01*
X110465070Y-88092325D01*
X110480847Y-88126158D01*
X110481202Y-88128861D01*
X110483297Y-88133604D01*
X110491000Y-88200000D01*
X110491000Y-88900000D01*
X110483297Y-88966396D01*
X110481202Y-88971139D01*
X110480847Y-88973841D01*
X110465079Y-89007655D01*
X110440249Y-89063890D01*
X110364890Y-89139249D01*
X110308655Y-89164079D01*
X110274841Y-89179847D01*
X110272139Y-89180202D01*
X110267396Y-89182297D01*
X110201000Y-89190000D01*
X108201000Y-89190000D01*
X108134604Y-89182297D01*
X108129861Y-89180202D01*
X108127158Y-89179847D01*
X108093325Y-89164070D01*
X108037110Y-89139249D01*
X107961751Y-89063890D01*
X107936938Y-89007695D01*
X107921152Y-88973841D01*
X107920795Y-88971135D01*
X107918703Y-88966396D01*
X107911000Y-88900000D01*
X107911000Y-88200000D01*
X107918703Y-88133604D01*
X107920795Y-88128864D01*
X107921152Y-88126158D01*
X107936947Y-88092285D01*
X107961751Y-88036110D01*
X108037110Y-87960751D01*
X108093285Y-87935947D01*
X108127158Y-87920152D01*
X108129864Y-87919795D01*
X108134604Y-87917703D01*
X108201000Y-87910000D01*
X110201000Y-87910000D01*
X110267396Y-87917703D01*
G37*
G36*
X64966396Y-87410703D02*
G01*
X64971135Y-87412795D01*
X64973841Y-87413152D01*
X65007695Y-87428938D01*
X65063890Y-87453751D01*
X65139249Y-87529110D01*
X65164070Y-87585325D01*
X65179847Y-87619158D01*
X65180202Y-87621861D01*
X65182297Y-87626604D01*
X65190000Y-87693000D01*
X65190000Y-88393000D01*
X65182297Y-88459396D01*
X65180202Y-88464139D01*
X65179847Y-88466841D01*
X65164079Y-88500655D01*
X65139249Y-88556890D01*
X65063890Y-88632249D01*
X65007655Y-88657079D01*
X64973841Y-88672847D01*
X64971139Y-88673202D01*
X64966396Y-88675297D01*
X64900000Y-88683000D01*
X62900000Y-88683000D01*
X62833604Y-88675297D01*
X62828861Y-88673202D01*
X62826158Y-88672847D01*
X62792325Y-88657070D01*
X62736110Y-88632249D01*
X62660751Y-88556890D01*
X62635938Y-88500695D01*
X62620152Y-88466841D01*
X62619795Y-88464135D01*
X62617703Y-88459396D01*
X62610000Y-88393000D01*
X62610000Y-87693000D01*
X62617703Y-87626604D01*
X62619795Y-87621864D01*
X62620152Y-87619158D01*
X62635947Y-87585285D01*
X62660751Y-87529110D01*
X62736110Y-87453751D01*
X62792285Y-87428947D01*
X62826158Y-87413152D01*
X62828864Y-87412795D01*
X62833604Y-87410703D01*
X62900000Y-87403000D01*
X64900000Y-87403000D01*
X64966396Y-87410703D01*
G37*
G36*
X82427353Y-85889323D02*
G01*
X82588543Y-85956090D01*
X82733610Y-86053021D01*
X82856979Y-86176390D01*
X82953910Y-86321457D01*
X83020677Y-86482647D01*
X83054714Y-86653765D01*
X83054714Y-86828235D01*
X83020677Y-86999353D01*
X82953910Y-87160543D01*
X82856979Y-87305610D01*
X82733610Y-87428979D01*
X82588543Y-87525910D01*
X82427353Y-87592677D01*
X82256235Y-87626714D01*
X82081765Y-87626714D01*
X81910647Y-87592677D01*
X81749457Y-87525910D01*
X81604390Y-87428979D01*
X81481021Y-87305610D01*
X81384090Y-87160543D01*
X81317323Y-86999353D01*
X81283286Y-86828235D01*
X81283286Y-86653765D01*
X81317323Y-86482647D01*
X81384090Y-86321457D01*
X81481021Y-86176390D01*
X81604390Y-86053021D01*
X81749457Y-85956090D01*
X81910647Y-85889323D01*
X82081765Y-85855286D01*
X82256235Y-85855286D01*
X82427353Y-85889323D01*
G37*
G36*
X97667353Y-85889323D02*
G01*
X97828543Y-85956090D01*
X97973610Y-86053021D01*
X98096979Y-86176390D01*
X98193910Y-86321457D01*
X98260677Y-86482647D01*
X98294714Y-86653765D01*
X98294714Y-86828235D01*
X98260677Y-86999353D01*
X98193910Y-87160543D01*
X98096979Y-87305610D01*
X97973610Y-87428979D01*
X97828543Y-87525910D01*
X97667353Y-87592677D01*
X97496235Y-87626714D01*
X97321765Y-87626714D01*
X97150647Y-87592677D01*
X96989457Y-87525910D01*
X96844390Y-87428979D01*
X96721021Y-87305610D01*
X96624090Y-87160543D01*
X96557323Y-86999353D01*
X96523286Y-86828235D01*
X96523286Y-86653765D01*
X96557323Y-86482647D01*
X96624090Y-86321457D01*
X96721021Y-86176390D01*
X96844390Y-86053021D01*
X96989457Y-85956090D01*
X97150647Y-85889323D01*
X97321765Y-85855286D01*
X97496235Y-85855286D01*
X97667353Y-85889323D01*
G37*
G36*
X119792396Y-86012703D02*
G01*
X119797135Y-86014795D01*
X119799841Y-86015152D01*
X119833695Y-86030938D01*
X119889890Y-86055751D01*
X119965249Y-86131110D01*
X119990070Y-86187325D01*
X120005847Y-86221158D01*
X120006202Y-86223861D01*
X120008297Y-86228604D01*
X120016000Y-86295000D01*
X120016000Y-86995000D01*
X120008297Y-87061396D01*
X120006202Y-87066139D01*
X120005847Y-87068841D01*
X119990079Y-87102655D01*
X119965249Y-87158890D01*
X119889890Y-87234249D01*
X119833655Y-87259079D01*
X119799841Y-87274847D01*
X119797139Y-87275202D01*
X119792396Y-87277297D01*
X119726000Y-87285000D01*
X117726000Y-87285000D01*
X117659604Y-87277297D01*
X117654861Y-87275202D01*
X117652158Y-87274847D01*
X117618325Y-87259070D01*
X117562110Y-87234249D01*
X117486751Y-87158890D01*
X117461938Y-87102695D01*
X117446152Y-87068841D01*
X117445795Y-87066135D01*
X117443703Y-87061396D01*
X117436000Y-86995000D01*
X117436000Y-86295000D01*
X117443703Y-86228604D01*
X117445795Y-86223864D01*
X117446152Y-86221158D01*
X117461947Y-86187285D01*
X117486751Y-86131110D01*
X117562110Y-86055751D01*
X117618285Y-86030947D01*
X117652158Y-86015152D01*
X117654864Y-86014795D01*
X117659604Y-86012703D01*
X117726000Y-86005000D01*
X119726000Y-86005000D01*
X119792396Y-86012703D01*
G37*
G36*
X110267396Y-85917703D02*
G01*
X110272135Y-85919795D01*
X110274841Y-85920152D01*
X110308695Y-85935938D01*
X110364890Y-85960751D01*
X110440249Y-86036110D01*
X110465070Y-86092325D01*
X110480847Y-86126158D01*
X110481202Y-86128861D01*
X110483297Y-86133604D01*
X110491000Y-86200000D01*
X110491000Y-86900000D01*
X110483297Y-86966396D01*
X110481202Y-86971139D01*
X110480847Y-86973841D01*
X110465079Y-87007655D01*
X110440249Y-87063890D01*
X110364890Y-87139249D01*
X110308655Y-87164079D01*
X110274841Y-87179847D01*
X110272139Y-87180202D01*
X110267396Y-87182297D01*
X110201000Y-87190000D01*
X108201000Y-87190000D01*
X108134604Y-87182297D01*
X108129861Y-87180202D01*
X108127158Y-87179847D01*
X108093325Y-87164070D01*
X108037110Y-87139249D01*
X107961751Y-87063890D01*
X107936938Y-87007695D01*
X107921152Y-86973841D01*
X107920795Y-86971135D01*
X107918703Y-86966396D01*
X107911000Y-86900000D01*
X107911000Y-86200000D01*
X107918703Y-86133604D01*
X107920795Y-86128864D01*
X107921152Y-86126158D01*
X107936947Y-86092285D01*
X107961751Y-86036110D01*
X108037110Y-85960751D01*
X108093285Y-85935947D01*
X108127158Y-85920152D01*
X108129864Y-85919795D01*
X108134604Y-85917703D01*
X108201000Y-85910000D01*
X110201000Y-85910000D01*
X110267396Y-85917703D01*
G37*
G36*
X64966396Y-85410703D02*
G01*
X64971135Y-85412795D01*
X64973841Y-85413152D01*
X65007695Y-85428938D01*
X65063890Y-85453751D01*
X65139249Y-85529110D01*
X65164070Y-85585325D01*
X65179847Y-85619158D01*
X65180202Y-85621861D01*
X65182297Y-85626604D01*
X65190000Y-85693000D01*
X65190000Y-86393000D01*
X65182297Y-86459396D01*
X65180202Y-86464139D01*
X65179847Y-86466841D01*
X65164079Y-86500655D01*
X65139249Y-86556890D01*
X65063890Y-86632249D01*
X65007655Y-86657079D01*
X64973841Y-86672847D01*
X64971139Y-86673202D01*
X64966396Y-86675297D01*
X64900000Y-86683000D01*
X62900000Y-86683000D01*
X62833604Y-86675297D01*
X62828861Y-86673202D01*
X62826158Y-86672847D01*
X62792325Y-86657070D01*
X62736110Y-86632249D01*
X62660751Y-86556890D01*
X62635938Y-86500695D01*
X62620152Y-86466841D01*
X62619795Y-86464135D01*
X62617703Y-86459396D01*
X62610000Y-86393000D01*
X62610000Y-85693000D01*
X62617703Y-85626604D01*
X62619795Y-85621864D01*
X62620152Y-85619158D01*
X62635947Y-85585285D01*
X62660751Y-85529110D01*
X62736110Y-85453751D01*
X62792285Y-85428947D01*
X62826158Y-85413152D01*
X62828864Y-85412795D01*
X62833604Y-85410703D01*
X62900000Y-85403000D01*
X64900000Y-85403000D01*
X64966396Y-85410703D01*
G37*
G36*
X139994396Y-82281703D02*
G01*
X139999135Y-82283795D01*
X140001841Y-82284152D01*
X140035695Y-82299938D01*
X140091890Y-82324751D01*
X140167249Y-82400110D01*
X140192070Y-82456325D01*
X140207847Y-82490158D01*
X140208202Y-82492861D01*
X140210297Y-82497604D01*
X140218000Y-82564000D01*
X140218000Y-85064000D01*
X140210297Y-85130396D01*
X140208202Y-85135139D01*
X140207847Y-85137841D01*
X140192079Y-85171655D01*
X140167249Y-85227890D01*
X140091890Y-85303249D01*
X140035655Y-85328079D01*
X140001841Y-85343847D01*
X139999139Y-85344202D01*
X139994396Y-85346297D01*
X139928000Y-85354000D01*
X138628000Y-85354000D01*
X138561604Y-85346297D01*
X138556861Y-85344202D01*
X138554158Y-85343847D01*
X138520325Y-85328070D01*
X138464110Y-85303249D01*
X138388751Y-85227890D01*
X138363938Y-85171695D01*
X138348152Y-85137841D01*
X138347795Y-85135135D01*
X138345703Y-85130396D01*
X138338000Y-85064000D01*
X138338000Y-82564000D01*
X138345703Y-82497604D01*
X138347795Y-82492864D01*
X138348152Y-82490158D01*
X138363947Y-82456285D01*
X138388751Y-82400110D01*
X138464110Y-82324751D01*
X138520285Y-82299947D01*
X138554158Y-82284152D01*
X138556864Y-82283795D01*
X138561604Y-82281703D01*
X138628000Y-82274000D01*
X139928000Y-82274000D01*
X139994396Y-82281703D01*
G37*
G36*
X142534396Y-82281703D02*
G01*
X142539135Y-82283795D01*
X142541841Y-82284152D01*
X142575695Y-82299938D01*
X142631890Y-82324751D01*
X142707249Y-82400110D01*
X142732070Y-82456325D01*
X142747847Y-82490158D01*
X142748202Y-82492861D01*
X142750297Y-82497604D01*
X142758000Y-82564000D01*
X142758000Y-85064000D01*
X142750297Y-85130396D01*
X142748202Y-85135139D01*
X142747847Y-85137841D01*
X142732079Y-85171655D01*
X142707249Y-85227890D01*
X142631890Y-85303249D01*
X142575655Y-85328079D01*
X142541841Y-85343847D01*
X142539139Y-85344202D01*
X142534396Y-85346297D01*
X142468000Y-85354000D01*
X141168000Y-85354000D01*
X141101604Y-85346297D01*
X141096861Y-85344202D01*
X141094158Y-85343847D01*
X141060325Y-85328070D01*
X141004110Y-85303249D01*
X140928751Y-85227890D01*
X140903938Y-85171695D01*
X140888152Y-85137841D01*
X140887795Y-85135135D01*
X140885703Y-85130396D01*
X140878000Y-85064000D01*
X140878000Y-82564000D01*
X140885703Y-82497604D01*
X140887795Y-82492864D01*
X140888152Y-82490158D01*
X140903947Y-82456285D01*
X140928751Y-82400110D01*
X141004110Y-82324751D01*
X141060285Y-82299947D01*
X141094158Y-82284152D01*
X141096864Y-82283795D01*
X141101604Y-82281703D01*
X141168000Y-82274000D01*
X142468000Y-82274000D01*
X142534396Y-82281703D01*
G37*
G36*
X146294396Y-82281703D02*
G01*
X146299135Y-82283795D01*
X146301841Y-82284152D01*
X146335695Y-82299938D01*
X146391890Y-82324751D01*
X146467249Y-82400110D01*
X146492070Y-82456325D01*
X146507847Y-82490158D01*
X146508202Y-82492861D01*
X146510297Y-82497604D01*
X146518000Y-82564000D01*
X146518000Y-85064000D01*
X146510297Y-85130396D01*
X146508202Y-85135139D01*
X146507847Y-85137841D01*
X146492079Y-85171655D01*
X146467249Y-85227890D01*
X146391890Y-85303249D01*
X146335655Y-85328079D01*
X146301841Y-85343847D01*
X146299139Y-85344202D01*
X146294396Y-85346297D01*
X146228000Y-85354000D01*
X144928000Y-85354000D01*
X144861604Y-85346297D01*
X144856861Y-85344202D01*
X144854158Y-85343847D01*
X144820325Y-85328070D01*
X144764110Y-85303249D01*
X144688751Y-85227890D01*
X144663938Y-85171695D01*
X144648152Y-85137841D01*
X144647795Y-85135135D01*
X144645703Y-85130396D01*
X144638000Y-85064000D01*
X144638000Y-82564000D01*
X144645703Y-82497604D01*
X144647795Y-82492864D01*
X144648152Y-82490158D01*
X144663947Y-82456285D01*
X144688751Y-82400110D01*
X144764110Y-82324751D01*
X144820285Y-82299947D01*
X144854158Y-82284152D01*
X144856864Y-82283795D01*
X144861604Y-82281703D01*
X144928000Y-82274000D01*
X146228000Y-82274000D01*
X146294396Y-82281703D01*
G37*
G36*
X148834396Y-82281703D02*
G01*
X148839135Y-82283795D01*
X148841841Y-82284152D01*
X148875695Y-82299938D01*
X148931890Y-82324751D01*
X149007249Y-82400110D01*
X149032070Y-82456325D01*
X149047847Y-82490158D01*
X149048202Y-82492861D01*
X149050297Y-82497604D01*
X149058000Y-82564000D01*
X149058000Y-85064000D01*
X149050297Y-85130396D01*
X149048202Y-85135139D01*
X149047847Y-85137841D01*
X149032079Y-85171655D01*
X149007249Y-85227890D01*
X148931890Y-85303249D01*
X148875655Y-85328079D01*
X148841841Y-85343847D01*
X148839139Y-85344202D01*
X148834396Y-85346297D01*
X148768000Y-85354000D01*
X147468000Y-85354000D01*
X147401604Y-85346297D01*
X147396861Y-85344202D01*
X147394158Y-85343847D01*
X147360325Y-85328070D01*
X147304110Y-85303249D01*
X147228751Y-85227890D01*
X147203938Y-85171695D01*
X147188152Y-85137841D01*
X147187795Y-85135135D01*
X147185703Y-85130396D01*
X147178000Y-85064000D01*
X147178000Y-82564000D01*
X147185703Y-82497604D01*
X147187795Y-82492864D01*
X147188152Y-82490158D01*
X147203947Y-82456285D01*
X147228751Y-82400110D01*
X147304110Y-82324751D01*
X147360285Y-82299947D01*
X147394158Y-82284152D01*
X147396864Y-82283795D01*
X147401604Y-82281703D01*
X147468000Y-82274000D01*
X148768000Y-82274000D01*
X148834396Y-82281703D01*
G37*
G36*
X152594396Y-82281703D02*
G01*
X152599135Y-82283795D01*
X152601841Y-82284152D01*
X152635695Y-82299938D01*
X152691890Y-82324751D01*
X152767249Y-82400110D01*
X152792070Y-82456325D01*
X152807847Y-82490158D01*
X152808202Y-82492861D01*
X152810297Y-82497604D01*
X152818000Y-82564000D01*
X152818000Y-85064000D01*
X152810297Y-85130396D01*
X152808202Y-85135139D01*
X152807847Y-85137841D01*
X152792079Y-85171655D01*
X152767249Y-85227890D01*
X152691890Y-85303249D01*
X152635655Y-85328079D01*
X152601841Y-85343847D01*
X152599139Y-85344202D01*
X152594396Y-85346297D01*
X152528000Y-85354000D01*
X151228000Y-85354000D01*
X151161604Y-85346297D01*
X151156861Y-85344202D01*
X151154158Y-85343847D01*
X151120325Y-85328070D01*
X151064110Y-85303249D01*
X150988751Y-85227890D01*
X150963938Y-85171695D01*
X150948152Y-85137841D01*
X150947795Y-85135135D01*
X150945703Y-85130396D01*
X150938000Y-85064000D01*
X150938000Y-82564000D01*
X150945703Y-82497604D01*
X150947795Y-82492864D01*
X150948152Y-82490158D01*
X150963947Y-82456285D01*
X150988751Y-82400110D01*
X151064110Y-82324751D01*
X151120285Y-82299947D01*
X151154158Y-82284152D01*
X151156864Y-82283795D01*
X151161604Y-82281703D01*
X151228000Y-82274000D01*
X152528000Y-82274000D01*
X152594396Y-82281703D01*
G37*
G36*
X155134396Y-82281703D02*
G01*
X155139135Y-82283795D01*
X155141841Y-82284152D01*
X155175695Y-82299938D01*
X155231890Y-82324751D01*
X155307249Y-82400110D01*
X155332070Y-82456325D01*
X155347847Y-82490158D01*
X155348202Y-82492861D01*
X155350297Y-82497604D01*
X155358000Y-82564000D01*
X155358000Y-85064000D01*
X155350297Y-85130396D01*
X155348202Y-85135139D01*
X155347847Y-85137841D01*
X155332079Y-85171655D01*
X155307249Y-85227890D01*
X155231890Y-85303249D01*
X155175655Y-85328079D01*
X155141841Y-85343847D01*
X155139139Y-85344202D01*
X155134396Y-85346297D01*
X155068000Y-85354000D01*
X153768000Y-85354000D01*
X153701604Y-85346297D01*
X153696861Y-85344202D01*
X153694158Y-85343847D01*
X153660325Y-85328070D01*
X153604110Y-85303249D01*
X153528751Y-85227890D01*
X153503938Y-85171695D01*
X153488152Y-85137841D01*
X153487795Y-85135135D01*
X153485703Y-85130396D01*
X153478000Y-85064000D01*
X153478000Y-82564000D01*
X153485703Y-82497604D01*
X153487795Y-82492864D01*
X153488152Y-82490158D01*
X153503947Y-82456285D01*
X153528751Y-82400110D01*
X153604110Y-82324751D01*
X153660285Y-82299947D01*
X153694158Y-82284152D01*
X153696864Y-82283795D01*
X153701604Y-82281703D01*
X153768000Y-82274000D01*
X155068000Y-82274000D01*
X155134396Y-82281703D01*
G37*
G36*
X119792396Y-84012703D02*
G01*
X119797135Y-84014795D01*
X119799841Y-84015152D01*
X119833695Y-84030938D01*
X119889890Y-84055751D01*
X119965249Y-84131110D01*
X119990070Y-84187325D01*
X120005847Y-84221158D01*
X120006202Y-84223861D01*
X120008297Y-84228604D01*
X120016000Y-84295000D01*
X120016000Y-84995000D01*
X120008297Y-85061396D01*
X120006202Y-85066139D01*
X120005847Y-85068841D01*
X119990079Y-85102655D01*
X119965249Y-85158890D01*
X119889890Y-85234249D01*
X119833655Y-85259079D01*
X119799841Y-85274847D01*
X119797139Y-85275202D01*
X119792396Y-85277297D01*
X119726000Y-85285000D01*
X117726000Y-85285000D01*
X117659604Y-85277297D01*
X117654861Y-85275202D01*
X117652158Y-85274847D01*
X117618325Y-85259070D01*
X117562110Y-85234249D01*
X117486751Y-85158890D01*
X117461938Y-85102695D01*
X117446152Y-85068841D01*
X117445795Y-85066135D01*
X117443703Y-85061396D01*
X117436000Y-84995000D01*
X117436000Y-84295000D01*
X117443703Y-84228604D01*
X117445795Y-84223864D01*
X117446152Y-84221158D01*
X117461947Y-84187285D01*
X117486751Y-84131110D01*
X117562110Y-84055751D01*
X117618285Y-84030947D01*
X117652158Y-84015152D01*
X117654864Y-84014795D01*
X117659604Y-84012703D01*
X117726000Y-84005000D01*
X119726000Y-84005000D01*
X119792396Y-84012703D01*
G37*
G36*
X110267396Y-83917703D02*
G01*
X110272135Y-83919795D01*
X110274841Y-83920152D01*
X110308695Y-83935938D01*
X110364890Y-83960751D01*
X110440249Y-84036110D01*
X110465070Y-84092325D01*
X110480847Y-84126158D01*
X110481202Y-84128861D01*
X110483297Y-84133604D01*
X110491000Y-84200000D01*
X110491000Y-84900000D01*
X110483297Y-84966396D01*
X110481202Y-84971139D01*
X110480847Y-84973841D01*
X110465079Y-85007655D01*
X110440249Y-85063890D01*
X110364890Y-85139249D01*
X110308655Y-85164079D01*
X110274841Y-85179847D01*
X110272139Y-85180202D01*
X110267396Y-85182297D01*
X110201000Y-85190000D01*
X108201000Y-85190000D01*
X108134604Y-85182297D01*
X108129861Y-85180202D01*
X108127158Y-85179847D01*
X108093325Y-85164070D01*
X108037110Y-85139249D01*
X107961751Y-85063890D01*
X107936938Y-85007695D01*
X107921152Y-84973841D01*
X107920795Y-84971135D01*
X107918703Y-84966396D01*
X107911000Y-84900000D01*
X107911000Y-84200000D01*
X107918703Y-84133604D01*
X107920795Y-84128864D01*
X107921152Y-84126158D01*
X107936947Y-84092285D01*
X107961751Y-84036110D01*
X108037110Y-83960751D01*
X108093285Y-83935947D01*
X108127158Y-83920152D01*
X108129864Y-83919795D01*
X108134604Y-83917703D01*
X108201000Y-83910000D01*
X110201000Y-83910000D01*
X110267396Y-83917703D01*
G37*
G36*
X82427353Y-83349323D02*
G01*
X82588543Y-83416090D01*
X82733610Y-83513021D01*
X82856979Y-83636390D01*
X82953910Y-83781457D01*
X83020677Y-83942647D01*
X83054714Y-84113765D01*
X83054714Y-84288235D01*
X83020677Y-84459353D01*
X82953910Y-84620543D01*
X82856979Y-84765610D01*
X82733610Y-84888979D01*
X82588543Y-84985910D01*
X82427353Y-85052677D01*
X82256235Y-85086714D01*
X82081765Y-85086714D01*
X81910647Y-85052677D01*
X81749457Y-84985910D01*
X81604390Y-84888979D01*
X81481021Y-84765610D01*
X81384090Y-84620543D01*
X81317323Y-84459353D01*
X81283286Y-84288235D01*
X81283286Y-84113765D01*
X81317323Y-83942647D01*
X81384090Y-83781457D01*
X81481021Y-83636390D01*
X81604390Y-83513021D01*
X81749457Y-83416090D01*
X81910647Y-83349323D01*
X82081765Y-83315286D01*
X82256235Y-83315286D01*
X82427353Y-83349323D01*
G37*
G36*
X97667353Y-83349323D02*
G01*
X97828543Y-83416090D01*
X97973610Y-83513021D01*
X98096979Y-83636390D01*
X98193910Y-83781457D01*
X98260677Y-83942647D01*
X98294714Y-84113765D01*
X98294714Y-84288235D01*
X98260677Y-84459353D01*
X98193910Y-84620543D01*
X98096979Y-84765610D01*
X97973610Y-84888979D01*
X97828543Y-84985910D01*
X97667353Y-85052677D01*
X97496235Y-85086714D01*
X97321765Y-85086714D01*
X97150647Y-85052677D01*
X96989457Y-84985910D01*
X96844390Y-84888979D01*
X96721021Y-84765610D01*
X96624090Y-84620543D01*
X96557323Y-84459353D01*
X96523286Y-84288235D01*
X96523286Y-84113765D01*
X96557323Y-83942647D01*
X96624090Y-83781457D01*
X96721021Y-83636390D01*
X96844390Y-83513021D01*
X96989457Y-83416090D01*
X97150647Y-83349323D01*
X97321765Y-83315286D01*
X97496235Y-83315286D01*
X97667353Y-83349323D01*
G37*
G36*
X64966396Y-83410703D02*
G01*
X64971135Y-83412795D01*
X64973841Y-83413152D01*
X65007695Y-83428938D01*
X65063890Y-83453751D01*
X65139249Y-83529110D01*
X65164070Y-83585325D01*
X65179847Y-83619158D01*
X65180202Y-83621861D01*
X65182297Y-83626604D01*
X65190000Y-83693000D01*
X65190000Y-84393000D01*
X65182297Y-84459396D01*
X65180202Y-84464139D01*
X65179847Y-84466841D01*
X65164079Y-84500655D01*
X65139249Y-84556890D01*
X65063890Y-84632249D01*
X65007655Y-84657079D01*
X64973841Y-84672847D01*
X64971139Y-84673202D01*
X64966396Y-84675297D01*
X64900000Y-84683000D01*
X62900000Y-84683000D01*
X62833604Y-84675297D01*
X62828861Y-84673202D01*
X62826158Y-84672847D01*
X62792325Y-84657070D01*
X62736110Y-84632249D01*
X62660751Y-84556890D01*
X62635938Y-84500695D01*
X62620152Y-84466841D01*
X62619795Y-84464135D01*
X62617703Y-84459396D01*
X62610000Y-84393000D01*
X62610000Y-83693000D01*
X62617703Y-83626604D01*
X62619795Y-83621864D01*
X62620152Y-83619158D01*
X62635947Y-83585285D01*
X62660751Y-83529110D01*
X62736110Y-83453751D01*
X62792285Y-83428947D01*
X62826158Y-83413152D01*
X62828864Y-83412795D01*
X62833604Y-83410703D01*
X62900000Y-83403000D01*
X64900000Y-83403000D01*
X64966396Y-83410703D01*
G37*
G36*
X119792396Y-82012703D02*
G01*
X119797135Y-82014795D01*
X119799841Y-82015152D01*
X119833695Y-82030938D01*
X119889890Y-82055751D01*
X119965249Y-82131110D01*
X119990070Y-82187325D01*
X120005847Y-82221158D01*
X120006202Y-82223861D01*
X120008297Y-82228604D01*
X120016000Y-82295000D01*
X120016000Y-82995000D01*
X120008297Y-83061396D01*
X120006202Y-83066139D01*
X120005847Y-83068841D01*
X119990079Y-83102655D01*
X119965249Y-83158890D01*
X119889890Y-83234249D01*
X119833655Y-83259079D01*
X119799841Y-83274847D01*
X119797139Y-83275202D01*
X119792396Y-83277297D01*
X119726000Y-83285000D01*
X117726000Y-83285000D01*
X117659604Y-83277297D01*
X117654861Y-83275202D01*
X117652158Y-83274847D01*
X117618325Y-83259070D01*
X117562110Y-83234249D01*
X117486751Y-83158890D01*
X117461938Y-83102695D01*
X117446152Y-83068841D01*
X117445795Y-83066135D01*
X117443703Y-83061396D01*
X117436000Y-82995000D01*
X117436000Y-82295000D01*
X117443703Y-82228604D01*
X117445795Y-82223864D01*
X117446152Y-82221158D01*
X117461947Y-82187285D01*
X117486751Y-82131110D01*
X117562110Y-82055751D01*
X117618285Y-82030947D01*
X117652158Y-82015152D01*
X117654864Y-82014795D01*
X117659604Y-82012703D01*
X117726000Y-82005000D01*
X119726000Y-82005000D01*
X119792396Y-82012703D01*
G37*
G36*
X110267396Y-81917703D02*
G01*
X110272135Y-81919795D01*
X110274841Y-81920152D01*
X110308695Y-81935938D01*
X110364890Y-81960751D01*
X110440249Y-82036110D01*
X110465070Y-82092325D01*
X110480847Y-82126158D01*
X110481202Y-82128861D01*
X110483297Y-82133604D01*
X110491000Y-82200000D01*
X110491000Y-82900000D01*
X110483297Y-82966396D01*
X110481202Y-82971139D01*
X110480847Y-82973841D01*
X110465079Y-83007655D01*
X110440249Y-83063890D01*
X110364890Y-83139249D01*
X110308655Y-83164079D01*
X110274841Y-83179847D01*
X110272139Y-83180202D01*
X110267396Y-83182297D01*
X110201000Y-83190000D01*
X108201000Y-83190000D01*
X108134604Y-83182297D01*
X108129861Y-83180202D01*
X108127158Y-83179847D01*
X108093325Y-83164070D01*
X108037110Y-83139249D01*
X107961751Y-83063890D01*
X107936938Y-83007695D01*
X107921152Y-82973841D01*
X107920795Y-82971135D01*
X107918703Y-82966396D01*
X107911000Y-82900000D01*
X107911000Y-82200000D01*
X107918703Y-82133604D01*
X107920795Y-82128864D01*
X107921152Y-82126158D01*
X107936947Y-82092285D01*
X107961751Y-82036110D01*
X108037110Y-81960751D01*
X108093285Y-81935947D01*
X108127158Y-81920152D01*
X108129864Y-81919795D01*
X108134604Y-81917703D01*
X108201000Y-81910000D01*
X110201000Y-81910000D01*
X110267396Y-81917703D01*
G37*
G36*
X64966396Y-81410703D02*
G01*
X64971135Y-81412795D01*
X64973841Y-81413152D01*
X65007695Y-81428938D01*
X65063890Y-81453751D01*
X65139249Y-81529110D01*
X65164070Y-81585325D01*
X65179847Y-81619158D01*
X65180202Y-81621861D01*
X65182297Y-81626604D01*
X65190000Y-81693000D01*
X65190000Y-82393000D01*
X65182297Y-82459396D01*
X65180202Y-82464139D01*
X65179847Y-82466841D01*
X65164079Y-82500655D01*
X65139249Y-82556890D01*
X65063890Y-82632249D01*
X65007655Y-82657079D01*
X64973841Y-82672847D01*
X64971139Y-82673202D01*
X64966396Y-82675297D01*
X64900000Y-82683000D01*
X62900000Y-82683000D01*
X62833604Y-82675297D01*
X62828861Y-82673202D01*
X62826158Y-82672847D01*
X62792325Y-82657070D01*
X62736110Y-82632249D01*
X62660751Y-82556890D01*
X62635938Y-82500695D01*
X62620152Y-82466841D01*
X62619795Y-82464135D01*
X62617703Y-82459396D01*
X62610000Y-82393000D01*
X62610000Y-81693000D01*
X62617703Y-81626604D01*
X62619795Y-81621864D01*
X62620152Y-81619158D01*
X62635947Y-81585285D01*
X62660751Y-81529110D01*
X62736110Y-81453751D01*
X62792285Y-81428947D01*
X62826158Y-81413152D01*
X62828864Y-81412795D01*
X62833604Y-81410703D01*
X62900000Y-81403000D01*
X64900000Y-81403000D01*
X64966396Y-81410703D01*
G37*
G36*
X82427353Y-80809323D02*
G01*
X82588543Y-80876090D01*
X82733610Y-80973021D01*
X82856979Y-81096390D01*
X82953910Y-81241457D01*
X83020677Y-81402647D01*
X83054714Y-81573765D01*
X83054714Y-81748235D01*
X83020677Y-81919353D01*
X82953910Y-82080543D01*
X82856979Y-82225610D01*
X82733610Y-82348979D01*
X82588543Y-82445910D01*
X82427353Y-82512677D01*
X82256235Y-82546714D01*
X82081765Y-82546714D01*
X81910647Y-82512677D01*
X81749457Y-82445910D01*
X81604390Y-82348979D01*
X81481021Y-82225610D01*
X81384090Y-82080543D01*
X81317323Y-81919353D01*
X81283286Y-81748235D01*
X81283286Y-81573765D01*
X81317323Y-81402647D01*
X81384090Y-81241457D01*
X81481021Y-81096390D01*
X81604390Y-80973021D01*
X81749457Y-80876090D01*
X81910647Y-80809323D01*
X82081765Y-80775286D01*
X82256235Y-80775286D01*
X82427353Y-80809323D01*
G37*
G36*
X97667353Y-80809323D02*
G01*
X97828543Y-80876090D01*
X97973610Y-80973021D01*
X98096979Y-81096390D01*
X98193910Y-81241457D01*
X98260677Y-81402647D01*
X98294714Y-81573765D01*
X98294714Y-81748235D01*
X98260677Y-81919353D01*
X98193910Y-82080543D01*
X98096979Y-82225610D01*
X97973610Y-82348979D01*
X97828543Y-82445910D01*
X97667353Y-82512677D01*
X97496235Y-82546714D01*
X97321765Y-82546714D01*
X97150647Y-82512677D01*
X96989457Y-82445910D01*
X96844390Y-82348979D01*
X96721021Y-82225610D01*
X96624090Y-82080543D01*
X96557323Y-81919353D01*
X96523286Y-81748235D01*
X96523286Y-81573765D01*
X96557323Y-81402647D01*
X96624090Y-81241457D01*
X96721021Y-81096390D01*
X96844390Y-80973021D01*
X96989457Y-80876090D01*
X97150647Y-80809323D01*
X97321765Y-80775286D01*
X97496235Y-80775286D01*
X97667353Y-80809323D01*
G37*
G36*
X133220782Y-79989058D02*
G01*
X133336694Y-80037070D01*
X133441012Y-80106773D01*
X133529727Y-80195488D01*
X133599430Y-80299806D01*
X133647442Y-80415718D01*
X133671918Y-80538769D01*
X133671918Y-80664231D01*
X133647442Y-80787282D01*
X133599430Y-80903194D01*
X133529727Y-81007512D01*
X133441012Y-81096227D01*
X133336694Y-81165930D01*
X133335550Y-81166403D01*
X133323022Y-81174775D01*
X133323022Y-81228225D01*
X133335550Y-81236596D01*
X133336694Y-81237070D01*
X133441012Y-81306773D01*
X133529727Y-81395488D01*
X133599430Y-81499806D01*
X133647442Y-81615718D01*
X133671918Y-81738769D01*
X133671918Y-81864231D01*
X133647442Y-81987282D01*
X133599430Y-82103194D01*
X133529727Y-82207512D01*
X133441012Y-82296227D01*
X133336694Y-82365930D01*
X133220782Y-82413942D01*
X133097731Y-82438418D01*
X132972269Y-82438418D01*
X132849218Y-82413942D01*
X132733306Y-82365930D01*
X132628988Y-82296227D01*
X132540273Y-82207512D01*
X132470570Y-82103194D01*
X132422558Y-81987282D01*
X132398082Y-81864231D01*
X132398082Y-81738769D01*
X132422558Y-81615718D01*
X132470570Y-81499806D01*
X132540273Y-81395488D01*
X132628988Y-81306773D01*
X132733306Y-81237070D01*
X132734446Y-81236597D01*
X132746977Y-81228225D01*
X132746977Y-81174775D01*
X132734447Y-81166402D01*
X132733306Y-81165930D01*
X132628988Y-81096227D01*
X132540273Y-81007512D01*
X132470570Y-80903194D01*
X132422558Y-80787282D01*
X132398082Y-80664231D01*
X132398082Y-80538769D01*
X132422558Y-80415718D01*
X132470570Y-80299806D01*
X132540273Y-80195488D01*
X132628988Y-80106773D01*
X132733306Y-80037070D01*
X132849218Y-79989058D01*
X132972269Y-79964582D01*
X133097731Y-79964582D01*
X133220782Y-79989058D01*
G37*
G36*
X119792396Y-80012703D02*
G01*
X119797135Y-80014795D01*
X119799841Y-80015152D01*
X119833695Y-80030938D01*
X119889890Y-80055751D01*
X119965249Y-80131110D01*
X119990070Y-80187325D01*
X120005847Y-80221158D01*
X120006202Y-80223861D01*
X120008297Y-80228604D01*
X120016000Y-80295000D01*
X120016000Y-80995000D01*
X120008297Y-81061396D01*
X120006202Y-81066139D01*
X120005847Y-81068841D01*
X119990079Y-81102655D01*
X119965249Y-81158890D01*
X119889890Y-81234249D01*
X119833655Y-81259079D01*
X119799841Y-81274847D01*
X119797139Y-81275202D01*
X119792396Y-81277297D01*
X119726000Y-81285000D01*
X117726000Y-81285000D01*
X117659604Y-81277297D01*
X117654861Y-81275202D01*
X117652158Y-81274847D01*
X117618325Y-81259070D01*
X117562110Y-81234249D01*
X117486751Y-81158890D01*
X117461938Y-81102695D01*
X117446152Y-81068841D01*
X117445795Y-81066135D01*
X117443703Y-81061396D01*
X117436000Y-80995000D01*
X117436000Y-80295000D01*
X117443703Y-80228604D01*
X117445795Y-80223864D01*
X117446152Y-80221158D01*
X117461947Y-80187285D01*
X117486751Y-80131110D01*
X117562110Y-80055751D01*
X117618285Y-80030947D01*
X117652158Y-80015152D01*
X117654864Y-80014795D01*
X117659604Y-80012703D01*
X117726000Y-80005000D01*
X119726000Y-80005000D01*
X119792396Y-80012703D01*
G37*
G36*
X64966396Y-79410703D02*
G01*
X64971135Y-79412795D01*
X64973841Y-79413152D01*
X65007695Y-79428938D01*
X65063890Y-79453751D01*
X65139249Y-79529110D01*
X65164070Y-79585325D01*
X65179847Y-79619158D01*
X65180202Y-79621861D01*
X65182297Y-79626604D01*
X65190000Y-79693000D01*
X65190000Y-80393000D01*
X65182297Y-80459396D01*
X65180202Y-80464139D01*
X65179847Y-80466841D01*
X65164079Y-80500655D01*
X65139249Y-80556890D01*
X65063890Y-80632249D01*
X65007655Y-80657079D01*
X64973841Y-80672847D01*
X64971139Y-80673202D01*
X64966396Y-80675297D01*
X64900000Y-80683000D01*
X62900000Y-80683000D01*
X62833604Y-80675297D01*
X62828861Y-80673202D01*
X62826158Y-80672847D01*
X62792325Y-80657070D01*
X62736110Y-80632249D01*
X62660751Y-80556890D01*
X62635938Y-80500695D01*
X62620152Y-80466841D01*
X62619795Y-80464135D01*
X62617703Y-80459396D01*
X62610000Y-80393000D01*
X62610000Y-79693000D01*
X62617703Y-79626604D01*
X62619795Y-79621864D01*
X62620152Y-79619158D01*
X62635947Y-79585285D01*
X62660751Y-79529110D01*
X62736110Y-79453751D01*
X62792285Y-79428947D01*
X62826158Y-79413152D01*
X62828864Y-79412795D01*
X62833604Y-79410703D01*
X62900000Y-79403000D01*
X64900000Y-79403000D01*
X64966396Y-79410703D01*
G37*
G36*
X82427353Y-78269323D02*
G01*
X82588543Y-78336090D01*
X82733610Y-78433021D01*
X82856979Y-78556390D01*
X82953910Y-78701457D01*
X83020677Y-78862647D01*
X83054714Y-79033765D01*
X83054714Y-79208235D01*
X83020677Y-79379353D01*
X82953910Y-79540543D01*
X82856979Y-79685610D01*
X82733610Y-79808979D01*
X82588543Y-79905910D01*
X82427353Y-79972677D01*
X82256235Y-80006714D01*
X82081765Y-80006714D01*
X81910647Y-79972677D01*
X81749457Y-79905910D01*
X81604390Y-79808979D01*
X81481021Y-79685610D01*
X81384090Y-79540543D01*
X81317323Y-79379353D01*
X81283286Y-79208235D01*
X81283286Y-79033765D01*
X81317323Y-78862647D01*
X81384090Y-78701457D01*
X81481021Y-78556390D01*
X81604390Y-78433021D01*
X81749457Y-78336090D01*
X81910647Y-78269323D01*
X82081765Y-78235286D01*
X82256235Y-78235286D01*
X82427353Y-78269323D01*
G37*
G36*
X97667353Y-78269323D02*
G01*
X97828543Y-78336090D01*
X97973610Y-78433021D01*
X98096979Y-78556390D01*
X98193910Y-78701457D01*
X98260677Y-78862647D01*
X98294714Y-79033765D01*
X98294714Y-79208235D01*
X98260677Y-79379353D01*
X98193910Y-79540543D01*
X98096979Y-79685610D01*
X97973610Y-79808979D01*
X97828543Y-79905910D01*
X97667353Y-79972677D01*
X97496235Y-80006714D01*
X97321765Y-80006714D01*
X97150647Y-79972677D01*
X96989457Y-79905910D01*
X96844390Y-79808979D01*
X96721021Y-79685610D01*
X96624090Y-79540543D01*
X96557323Y-79379353D01*
X96523286Y-79208235D01*
X96523286Y-79033765D01*
X96557323Y-78862647D01*
X96624090Y-78701457D01*
X96721021Y-78556390D01*
X96844390Y-78433021D01*
X96989457Y-78336090D01*
X97150647Y-78269323D01*
X97321765Y-78235286D01*
X97496235Y-78235286D01*
X97667353Y-78269323D01*
G37*
G36*
X141247157Y-73785198D02*
G01*
X141253756Y-73787659D01*
X141258499Y-73788229D01*
X141314617Y-73810359D01*
X141377832Y-73833937D01*
X141381645Y-73836791D01*
X141382924Y-73837296D01*
X141429520Y-73872630D01*
X141489482Y-73917518D01*
X141534387Y-73977504D01*
X141569703Y-74024075D01*
X141570206Y-74025352D01*
X141573063Y-74029168D01*
X141596654Y-74092420D01*
X141618770Y-74148501D01*
X141619339Y-74153239D01*
X141621802Y-74159843D01*
X141633000Y-74264000D01*
X141633000Y-76364000D01*
X141621802Y-76468157D01*
X141619339Y-76474760D01*
X141618770Y-76479499D01*
X141596658Y-76535570D01*
X141573063Y-76598832D01*
X141570206Y-76602648D01*
X141569703Y-76603924D01*
X141534455Y-76650404D01*
X141489482Y-76710482D01*
X141429358Y-76755490D01*
X141384951Y-76789166D01*
X141384951Y-76838834D01*
X141429402Y-76872542D01*
X141489482Y-76917518D01*
X141534397Y-76977517D01*
X141569703Y-77024075D01*
X141570206Y-77025352D01*
X141573063Y-77029168D01*
X141596654Y-77092420D01*
X141618770Y-77148501D01*
X141619339Y-77153239D01*
X141621802Y-77159843D01*
X141633000Y-77264000D01*
X141633000Y-79364000D01*
X141621802Y-79468157D01*
X141619339Y-79474760D01*
X141618770Y-79479499D01*
X141596658Y-79535570D01*
X141573063Y-79598832D01*
X141570206Y-79602648D01*
X141569703Y-79603924D01*
X141534446Y-79650417D01*
X141489482Y-79710482D01*
X141429417Y-79755446D01*
X141382924Y-79790703D01*
X141381648Y-79791206D01*
X141377832Y-79794063D01*
X141314560Y-79817661D01*
X141258498Y-79839770D01*
X141253760Y-79840338D01*
X141247157Y-79842802D01*
X141143000Y-79854000D01*
X138043000Y-79854000D01*
X137938843Y-79842802D01*
X137932239Y-79840339D01*
X137927500Y-79839770D01*
X137871410Y-79817651D01*
X137808168Y-79794063D01*
X137804352Y-79791206D01*
X137803075Y-79790703D01*
X137756504Y-79755387D01*
X137696518Y-79710482D01*
X137651630Y-79650520D01*
X137616296Y-79603924D01*
X137615791Y-79602645D01*
X137612937Y-79598832D01*
X137589355Y-79535607D01*
X137567229Y-79479498D01*
X137566659Y-79474757D01*
X137564198Y-79468157D01*
X137553000Y-79364000D01*
X137553000Y-77264000D01*
X137564198Y-77159843D01*
X137566659Y-77153243D01*
X137567229Y-77148500D01*
X137589366Y-77092363D01*
X137612937Y-77029168D01*
X137615791Y-77025355D01*
X137616296Y-77024075D01*
X137651689Y-76977401D01*
X137696518Y-76917518D01*
X137756454Y-76872649D01*
X137801048Y-76838834D01*
X137801048Y-76789166D01*
X137756498Y-76755383D01*
X137696518Y-76710482D01*
X137651630Y-76650520D01*
X137616296Y-76603924D01*
X137615791Y-76602645D01*
X137612937Y-76598832D01*
X137589355Y-76535607D01*
X137567229Y-76479498D01*
X137566659Y-76474757D01*
X137564198Y-76468157D01*
X137553000Y-76364000D01*
X137553000Y-74264000D01*
X137564198Y-74159843D01*
X137566659Y-74153243D01*
X137567229Y-74148500D01*
X137589366Y-74092363D01*
X137612937Y-74029168D01*
X137615791Y-74025355D01*
X137616296Y-74024075D01*
X137651689Y-73977401D01*
X137696518Y-73917518D01*
X137756401Y-73872689D01*
X137803075Y-73837296D01*
X137804355Y-73836791D01*
X137808168Y-73833937D01*
X137871374Y-73810362D01*
X137927501Y-73788229D01*
X137932243Y-73787659D01*
X137938843Y-73785198D01*
X138043000Y-73774000D01*
X141143000Y-73774000D01*
X141247157Y-73785198D01*
G37*
G36*
X126295998Y-77760585D02*
G01*
X126305658Y-77765089D01*
X126312870Y-77766232D01*
X126364248Y-77792410D01*
X126403016Y-77810488D01*
X126406432Y-77813904D01*
X126407480Y-77814438D01*
X126482561Y-77889519D01*
X126483094Y-77890566D01*
X126486512Y-77893984D01*
X126504594Y-77932763D01*
X126530767Y-77984129D01*
X126531908Y-77991338D01*
X126536415Y-78001002D01*
X126548000Y-78089000D01*
X126548000Y-79489000D01*
X126536415Y-79576998D01*
X126531908Y-79586662D01*
X126530767Y-79593870D01*
X126504600Y-79645225D01*
X126486512Y-79684016D01*
X126483093Y-79687434D01*
X126482561Y-79688480D01*
X126407480Y-79763561D01*
X126406434Y-79764093D01*
X126403016Y-79767512D01*
X126364225Y-79785600D01*
X126312870Y-79811767D01*
X126305662Y-79812908D01*
X126295998Y-79817415D01*
X126208000Y-79829000D01*
X124808000Y-79829000D01*
X124720002Y-79817415D01*
X124710338Y-79812908D01*
X124703129Y-79811767D01*
X124651763Y-79785594D01*
X124612984Y-79767512D01*
X124609566Y-79764094D01*
X124608519Y-79763561D01*
X124533438Y-79688480D01*
X124532904Y-79687432D01*
X124529488Y-79684016D01*
X124511410Y-79645248D01*
X124485232Y-79593870D01*
X124484089Y-79586658D01*
X124479585Y-79576998D01*
X124468000Y-79489000D01*
X124468000Y-78089000D01*
X124479585Y-78001002D01*
X124484089Y-77991341D01*
X124485232Y-77984129D01*
X124511415Y-77932739D01*
X124529488Y-77893984D01*
X124532903Y-77890568D01*
X124533438Y-77889519D01*
X124608519Y-77814438D01*
X124609568Y-77813903D01*
X124612984Y-77810488D01*
X124651739Y-77792415D01*
X124703129Y-77766232D01*
X124710341Y-77765089D01*
X124720002Y-77760585D01*
X124808000Y-77749000D01*
X126208000Y-77749000D01*
X126295998Y-77760585D01*
G37*
G36*
X130295998Y-77760585D02*
G01*
X130305658Y-77765089D01*
X130312870Y-77766232D01*
X130364248Y-77792410D01*
X130403016Y-77810488D01*
X130406432Y-77813904D01*
X130407480Y-77814438D01*
X130482561Y-77889519D01*
X130483094Y-77890566D01*
X130486512Y-77893984D01*
X130504594Y-77932763D01*
X130530767Y-77984129D01*
X130531908Y-77991338D01*
X130536415Y-78001002D01*
X130548000Y-78089000D01*
X130548000Y-79489000D01*
X130536415Y-79576998D01*
X130531908Y-79586662D01*
X130530767Y-79593870D01*
X130504600Y-79645225D01*
X130486512Y-79684016D01*
X130483093Y-79687434D01*
X130482561Y-79688480D01*
X130407480Y-79763561D01*
X130406434Y-79764093D01*
X130403016Y-79767512D01*
X130364225Y-79785600D01*
X130312870Y-79811767D01*
X130305662Y-79812908D01*
X130295998Y-79817415D01*
X130208000Y-79829000D01*
X128808000Y-79829000D01*
X128720002Y-79817415D01*
X128710338Y-79812908D01*
X128703129Y-79811767D01*
X128651763Y-79785594D01*
X128612984Y-79767512D01*
X128609566Y-79764094D01*
X128608519Y-79763561D01*
X128533438Y-79688480D01*
X128532904Y-79687432D01*
X128529488Y-79684016D01*
X128511410Y-79645248D01*
X128485232Y-79593870D01*
X128484089Y-79586658D01*
X128479585Y-79576998D01*
X128468000Y-79489000D01*
X128468000Y-78089000D01*
X128479585Y-78001002D01*
X128484089Y-77991341D01*
X128485232Y-77984129D01*
X128511415Y-77932739D01*
X128529488Y-77893984D01*
X128532903Y-77890568D01*
X128533438Y-77889519D01*
X128608519Y-77814438D01*
X128609568Y-77813903D01*
X128612984Y-77810488D01*
X128651739Y-77792415D01*
X128703129Y-77766232D01*
X128710341Y-77765089D01*
X128720002Y-77760585D01*
X128808000Y-77749000D01*
X130208000Y-77749000D01*
X130295998Y-77760585D01*
G37*
G36*
X133220782Y-76989058D02*
G01*
X133336694Y-77037070D01*
X133441012Y-77106773D01*
X133529727Y-77195488D01*
X133599430Y-77299806D01*
X133647442Y-77415718D01*
X133671918Y-77538769D01*
X133671918Y-77664231D01*
X133647442Y-77787282D01*
X133599430Y-77903194D01*
X133529727Y-78007512D01*
X133441012Y-78096227D01*
X133336694Y-78165930D01*
X133335550Y-78166403D01*
X133323022Y-78174775D01*
X133323022Y-78228225D01*
X133335550Y-78236596D01*
X133336694Y-78237070D01*
X133441012Y-78306773D01*
X133529727Y-78395488D01*
X133599430Y-78499806D01*
X133647442Y-78615718D01*
X133671918Y-78738769D01*
X133671918Y-78864231D01*
X133647442Y-78987282D01*
X133599430Y-79103194D01*
X133529727Y-79207512D01*
X133441012Y-79296227D01*
X133336694Y-79365930D01*
X133220782Y-79413942D01*
X133097731Y-79438418D01*
X132972269Y-79438418D01*
X132849218Y-79413942D01*
X132733306Y-79365930D01*
X132628988Y-79296227D01*
X132540273Y-79207512D01*
X132470570Y-79103194D01*
X132422558Y-78987282D01*
X132398082Y-78864231D01*
X132398082Y-78738769D01*
X132422558Y-78615718D01*
X132470570Y-78499806D01*
X132540273Y-78395488D01*
X132628988Y-78306773D01*
X132733306Y-78237070D01*
X132734446Y-78236597D01*
X132746977Y-78228225D01*
X132746977Y-78174775D01*
X132734447Y-78166402D01*
X132733306Y-78165930D01*
X132628988Y-78096227D01*
X132540273Y-78007512D01*
X132470570Y-77903194D01*
X132422558Y-77787282D01*
X132398082Y-77664231D01*
X132398082Y-77538769D01*
X132422558Y-77415718D01*
X132470570Y-77299806D01*
X132540273Y-77195488D01*
X132628988Y-77106773D01*
X132733306Y-77037070D01*
X132849218Y-76989058D01*
X132972269Y-76964582D01*
X133097731Y-76964582D01*
X133220782Y-76989058D01*
G37*
G36*
X64966396Y-77410703D02*
G01*
X64971135Y-77412795D01*
X64973841Y-77413152D01*
X65007695Y-77428938D01*
X65063890Y-77453751D01*
X65139249Y-77529110D01*
X65164070Y-77585325D01*
X65179847Y-77619158D01*
X65180202Y-77621861D01*
X65182297Y-77626604D01*
X65190000Y-77693000D01*
X65190000Y-78393000D01*
X65182297Y-78459396D01*
X65180202Y-78464139D01*
X65179847Y-78466841D01*
X65164079Y-78500655D01*
X65139249Y-78556890D01*
X65063890Y-78632249D01*
X65007655Y-78657079D01*
X64973841Y-78672847D01*
X64971139Y-78673202D01*
X64966396Y-78675297D01*
X64900000Y-78683000D01*
X62900000Y-78683000D01*
X62833604Y-78675297D01*
X62828861Y-78673202D01*
X62826158Y-78672847D01*
X62792325Y-78657070D01*
X62736110Y-78632249D01*
X62660751Y-78556890D01*
X62635938Y-78500695D01*
X62620152Y-78466841D01*
X62619795Y-78464135D01*
X62617703Y-78459396D01*
X62610000Y-78393000D01*
X62610000Y-77693000D01*
X62617703Y-77626604D01*
X62619795Y-77621864D01*
X62620152Y-77619158D01*
X62635947Y-77585285D01*
X62660751Y-77529110D01*
X62736110Y-77453751D01*
X62792285Y-77428947D01*
X62826158Y-77413152D01*
X62828864Y-77412795D01*
X62833604Y-77410703D01*
X62900000Y-77403000D01*
X64900000Y-77403000D01*
X64966396Y-77410703D01*
G37*
G36*
X82427353Y-75729323D02*
G01*
X82588543Y-75796090D01*
X82733610Y-75893021D01*
X82856979Y-76016390D01*
X82953910Y-76161457D01*
X83020677Y-76322647D01*
X83054714Y-76493765D01*
X83054714Y-76668235D01*
X83020677Y-76839353D01*
X82953910Y-77000543D01*
X82856979Y-77145610D01*
X82733610Y-77268979D01*
X82588543Y-77365910D01*
X82427353Y-77432677D01*
X82256235Y-77466714D01*
X82081765Y-77466714D01*
X81910647Y-77432677D01*
X81749457Y-77365910D01*
X81604390Y-77268979D01*
X81481021Y-77145610D01*
X81384090Y-77000543D01*
X81317323Y-76839353D01*
X81283286Y-76668235D01*
X81283286Y-76493765D01*
X81317323Y-76322647D01*
X81384090Y-76161457D01*
X81481021Y-76016390D01*
X81604390Y-75893021D01*
X81749457Y-75796090D01*
X81910647Y-75729323D01*
X82081765Y-75695286D01*
X82256235Y-75695286D01*
X82427353Y-75729323D01*
G37*
G36*
X97667353Y-75729323D02*
G01*
X97828543Y-75796090D01*
X97973610Y-75893021D01*
X98096979Y-76016390D01*
X98193910Y-76161457D01*
X98260677Y-76322647D01*
X98294714Y-76493765D01*
X98294714Y-76668235D01*
X98260677Y-76839353D01*
X98193910Y-77000543D01*
X98096979Y-77145610D01*
X97973610Y-77268979D01*
X97828543Y-77365910D01*
X97667353Y-77432677D01*
X97496235Y-77466714D01*
X97321765Y-77466714D01*
X97150647Y-77432677D01*
X96989457Y-77365910D01*
X96844390Y-77268979D01*
X96721021Y-77145610D01*
X96624090Y-77000543D01*
X96557323Y-76839353D01*
X96523286Y-76668235D01*
X96523286Y-76493765D01*
X96557323Y-76322647D01*
X96624090Y-76161457D01*
X96721021Y-76016390D01*
X96844390Y-75893021D01*
X96989457Y-75796090D01*
X97150647Y-75729323D01*
X97321765Y-75695286D01*
X97496235Y-75695286D01*
X97667353Y-75729323D01*
G37*
G36*
X64966396Y-75410703D02*
G01*
X64971135Y-75412795D01*
X64973841Y-75413152D01*
X65007695Y-75428938D01*
X65063890Y-75453751D01*
X65139249Y-75529110D01*
X65164070Y-75585325D01*
X65179847Y-75619158D01*
X65180202Y-75621861D01*
X65182297Y-75626604D01*
X65190000Y-75693000D01*
X65190000Y-76393000D01*
X65182297Y-76459396D01*
X65180202Y-76464139D01*
X65179847Y-76466841D01*
X65164079Y-76500655D01*
X65139249Y-76556890D01*
X65063890Y-76632249D01*
X65007655Y-76657079D01*
X64973841Y-76672847D01*
X64971139Y-76673202D01*
X64966396Y-76675297D01*
X64900000Y-76683000D01*
X62900000Y-76683000D01*
X62833604Y-76675297D01*
X62828861Y-76673202D01*
X62826158Y-76672847D01*
X62792325Y-76657070D01*
X62736110Y-76632249D01*
X62660751Y-76556890D01*
X62635938Y-76500695D01*
X62620152Y-76466841D01*
X62619795Y-76464135D01*
X62617703Y-76459396D01*
X62610000Y-76393000D01*
X62610000Y-75693000D01*
X62617703Y-75626604D01*
X62619795Y-75621864D01*
X62620152Y-75619158D01*
X62635947Y-75585285D01*
X62660751Y-75529110D01*
X62736110Y-75453751D01*
X62792285Y-75428947D01*
X62826158Y-75413152D01*
X62828864Y-75412795D01*
X62833604Y-75410703D01*
X62900000Y-75403000D01*
X64900000Y-75403000D01*
X64966396Y-75410703D01*
G37*
G36*
X103221396Y-73605703D02*
G01*
X103226135Y-73607795D01*
X103228841Y-73608152D01*
X103262695Y-73623938D01*
X103318890Y-73648751D01*
X103394249Y-73724110D01*
X103419070Y-73780325D01*
X103434847Y-73814158D01*
X103435202Y-73816861D01*
X103437297Y-73821604D01*
X103445000Y-73888000D01*
X103445000Y-75888000D01*
X103437297Y-75954396D01*
X103435202Y-75959139D01*
X103434847Y-75961841D01*
X103419079Y-75995655D01*
X103394249Y-76051890D01*
X103318890Y-76127249D01*
X103262655Y-76152079D01*
X103228841Y-76167847D01*
X103226139Y-76168202D01*
X103221396Y-76170297D01*
X103155000Y-76178000D01*
X102455000Y-76178000D01*
X102388604Y-76170297D01*
X102383861Y-76168202D01*
X102381158Y-76167847D01*
X102347325Y-76152070D01*
X102291110Y-76127249D01*
X102215751Y-76051890D01*
X102190938Y-75995695D01*
X102175152Y-75961841D01*
X102174795Y-75959135D01*
X102172703Y-75954396D01*
X102165000Y-75888000D01*
X102165000Y-73888000D01*
X102172703Y-73821604D01*
X102174795Y-73816864D01*
X102175152Y-73814158D01*
X102190947Y-73780285D01*
X102215751Y-73724110D01*
X102291110Y-73648751D01*
X102347285Y-73623947D01*
X102381158Y-73608152D01*
X102383864Y-73607795D01*
X102388604Y-73605703D01*
X102455000Y-73598000D01*
X103155000Y-73598000D01*
X103221396Y-73605703D01*
G37*
G36*
X105221396Y-73605703D02*
G01*
X105226135Y-73607795D01*
X105228841Y-73608152D01*
X105262695Y-73623938D01*
X105318890Y-73648751D01*
X105394249Y-73724110D01*
X105419070Y-73780325D01*
X105434847Y-73814158D01*
X105435202Y-73816861D01*
X105437297Y-73821604D01*
X105445000Y-73888000D01*
X105445000Y-75888000D01*
X105437297Y-75954396D01*
X105435202Y-75959139D01*
X105434847Y-75961841D01*
X105419079Y-75995655D01*
X105394249Y-76051890D01*
X105318890Y-76127249D01*
X105262655Y-76152079D01*
X105228841Y-76167847D01*
X105226139Y-76168202D01*
X105221396Y-76170297D01*
X105155000Y-76178000D01*
X104455000Y-76178000D01*
X104388604Y-76170297D01*
X104383861Y-76168202D01*
X104381158Y-76167847D01*
X104347325Y-76152070D01*
X104291110Y-76127249D01*
X104215751Y-76051890D01*
X104190938Y-75995695D01*
X104175152Y-75961841D01*
X104174795Y-75959135D01*
X104172703Y-75954396D01*
X104165000Y-75888000D01*
X104165000Y-73888000D01*
X104172703Y-73821604D01*
X104174795Y-73816864D01*
X104175152Y-73814158D01*
X104190947Y-73780285D01*
X104215751Y-73724110D01*
X104291110Y-73648751D01*
X104347285Y-73623947D01*
X104381158Y-73608152D01*
X104383864Y-73607795D01*
X104388604Y-73605703D01*
X104455000Y-73598000D01*
X105155000Y-73598000D01*
X105221396Y-73605703D01*
G37*
G36*
X107221396Y-73605703D02*
G01*
X107226135Y-73607795D01*
X107228841Y-73608152D01*
X107262695Y-73623938D01*
X107318890Y-73648751D01*
X107394249Y-73724110D01*
X107419070Y-73780325D01*
X107434847Y-73814158D01*
X107435202Y-73816861D01*
X107437297Y-73821604D01*
X107445000Y-73888000D01*
X107445000Y-75888000D01*
X107437297Y-75954396D01*
X107435202Y-75959139D01*
X107434847Y-75961841D01*
X107419079Y-75995655D01*
X107394249Y-76051890D01*
X107318890Y-76127249D01*
X107262655Y-76152079D01*
X107228841Y-76167847D01*
X107226139Y-76168202D01*
X107221396Y-76170297D01*
X107155000Y-76178000D01*
X106455000Y-76178000D01*
X106388604Y-76170297D01*
X106383861Y-76168202D01*
X106381158Y-76167847D01*
X106347325Y-76152070D01*
X106291110Y-76127249D01*
X106215751Y-76051890D01*
X106190938Y-75995695D01*
X106175152Y-75961841D01*
X106174795Y-75959135D01*
X106172703Y-75954396D01*
X106165000Y-75888000D01*
X106165000Y-73888000D01*
X106172703Y-73821604D01*
X106174795Y-73816864D01*
X106175152Y-73814158D01*
X106190947Y-73780285D01*
X106215751Y-73724110D01*
X106291110Y-73648751D01*
X106347285Y-73623947D01*
X106381158Y-73608152D01*
X106383864Y-73607795D01*
X106388604Y-73605703D01*
X106455000Y-73598000D01*
X107155000Y-73598000D01*
X107221396Y-73605703D01*
G37*
G36*
X109221396Y-73605703D02*
G01*
X109226135Y-73607795D01*
X109228841Y-73608152D01*
X109262695Y-73623938D01*
X109318890Y-73648751D01*
X109394249Y-73724110D01*
X109419070Y-73780325D01*
X109434847Y-73814158D01*
X109435202Y-73816861D01*
X109437297Y-73821604D01*
X109445000Y-73888000D01*
X109445000Y-75888000D01*
X109437297Y-75954396D01*
X109435202Y-75959139D01*
X109434847Y-75961841D01*
X109419079Y-75995655D01*
X109394249Y-76051890D01*
X109318890Y-76127249D01*
X109262655Y-76152079D01*
X109228841Y-76167847D01*
X109226139Y-76168202D01*
X109221396Y-76170297D01*
X109155000Y-76178000D01*
X108455000Y-76178000D01*
X108388604Y-76170297D01*
X108383861Y-76168202D01*
X108381158Y-76167847D01*
X108347325Y-76152070D01*
X108291110Y-76127249D01*
X108215751Y-76051890D01*
X108190938Y-75995695D01*
X108175152Y-75961841D01*
X108174795Y-75959135D01*
X108172703Y-75954396D01*
X108165000Y-75888000D01*
X108165000Y-73888000D01*
X108172703Y-73821604D01*
X108174795Y-73816864D01*
X108175152Y-73814158D01*
X108190947Y-73780285D01*
X108215751Y-73724110D01*
X108291110Y-73648751D01*
X108347285Y-73623947D01*
X108381158Y-73608152D01*
X108383864Y-73607795D01*
X108388604Y-73605703D01*
X108455000Y-73598000D01*
X109155000Y-73598000D01*
X109221396Y-73605703D01*
G37*
G36*
X111221396Y-73605703D02*
G01*
X111226135Y-73607795D01*
X111228841Y-73608152D01*
X111262695Y-73623938D01*
X111318890Y-73648751D01*
X111394249Y-73724110D01*
X111419070Y-73780325D01*
X111434847Y-73814158D01*
X111435202Y-73816861D01*
X111437297Y-73821604D01*
X111445000Y-73888000D01*
X111445000Y-75888000D01*
X111437297Y-75954396D01*
X111435202Y-75959139D01*
X111434847Y-75961841D01*
X111419079Y-75995655D01*
X111394249Y-76051890D01*
X111318890Y-76127249D01*
X111262655Y-76152079D01*
X111228841Y-76167847D01*
X111226139Y-76168202D01*
X111221396Y-76170297D01*
X111155000Y-76178000D01*
X110455000Y-76178000D01*
X110388604Y-76170297D01*
X110383861Y-76168202D01*
X110381158Y-76167847D01*
X110347325Y-76152070D01*
X110291110Y-76127249D01*
X110215751Y-76051890D01*
X110190938Y-75995695D01*
X110175152Y-75961841D01*
X110174795Y-75959135D01*
X110172703Y-75954396D01*
X110165000Y-75888000D01*
X110165000Y-73888000D01*
X110172703Y-73821604D01*
X110174795Y-73816864D01*
X110175152Y-73814158D01*
X110190947Y-73780285D01*
X110215751Y-73724110D01*
X110291110Y-73648751D01*
X110347285Y-73623947D01*
X110381158Y-73608152D01*
X110383864Y-73607795D01*
X110388604Y-73605703D01*
X110455000Y-73598000D01*
X111155000Y-73598000D01*
X111221396Y-73605703D01*
G37*
G36*
X119792396Y-74837703D02*
G01*
X119797135Y-74839795D01*
X119799841Y-74840152D01*
X119833695Y-74855938D01*
X119889890Y-74880751D01*
X119965249Y-74956110D01*
X119990070Y-75012325D01*
X120005847Y-75046158D01*
X120006202Y-75048861D01*
X120008297Y-75053604D01*
X120016000Y-75120000D01*
X120016000Y-75820000D01*
X120008297Y-75886396D01*
X120006202Y-75891139D01*
X120005847Y-75893841D01*
X119990079Y-75927655D01*
X119965249Y-75983890D01*
X119889890Y-76059249D01*
X119833655Y-76084079D01*
X119799841Y-76099847D01*
X119797139Y-76100202D01*
X119792396Y-76102297D01*
X119726000Y-76110000D01*
X117726000Y-76110000D01*
X117659604Y-76102297D01*
X117654861Y-76100202D01*
X117652158Y-76099847D01*
X117618325Y-76084070D01*
X117562110Y-76059249D01*
X117486751Y-75983890D01*
X117461938Y-75927695D01*
X117446152Y-75893841D01*
X117445795Y-75891135D01*
X117443703Y-75886396D01*
X117436000Y-75820000D01*
X117436000Y-75120000D01*
X117443703Y-75053604D01*
X117445795Y-75048864D01*
X117446152Y-75046158D01*
X117461947Y-75012285D01*
X117486751Y-74956110D01*
X117562110Y-74880751D01*
X117618285Y-74855947D01*
X117652158Y-74840152D01*
X117654864Y-74839795D01*
X117659604Y-74837703D01*
X117726000Y-74830000D01*
X119726000Y-74830000D01*
X119792396Y-74837703D01*
G37*
G36*
X82427353Y-73189323D02*
G01*
X82588543Y-73256090D01*
X82733610Y-73353021D01*
X82856979Y-73476390D01*
X82953910Y-73621457D01*
X83020677Y-73782647D01*
X83054714Y-73953765D01*
X83054714Y-74128235D01*
X83020677Y-74299353D01*
X82953910Y-74460543D01*
X82856979Y-74605610D01*
X82733610Y-74728979D01*
X82588543Y-74825910D01*
X82427353Y-74892677D01*
X82256235Y-74926714D01*
X82081765Y-74926714D01*
X81910647Y-74892677D01*
X81749457Y-74825910D01*
X81604390Y-74728979D01*
X81481021Y-74605610D01*
X81384090Y-74460543D01*
X81317323Y-74299353D01*
X81283286Y-74128235D01*
X81283286Y-73953765D01*
X81317323Y-73782647D01*
X81384090Y-73621457D01*
X81481021Y-73476390D01*
X81604390Y-73353021D01*
X81749457Y-73256090D01*
X81910647Y-73189323D01*
X82081765Y-73155286D01*
X82256235Y-73155286D01*
X82427353Y-73189323D01*
G37*
G36*
X97667353Y-73189323D02*
G01*
X97828543Y-73256090D01*
X97973610Y-73353021D01*
X98096979Y-73476390D01*
X98193910Y-73621457D01*
X98260677Y-73782647D01*
X98294714Y-73953765D01*
X98294714Y-74128235D01*
X98260677Y-74299353D01*
X98193910Y-74460543D01*
X98096979Y-74605610D01*
X97973610Y-74728979D01*
X97828543Y-74825910D01*
X97667353Y-74892677D01*
X97496235Y-74926714D01*
X97321765Y-74926714D01*
X97150647Y-74892677D01*
X96989457Y-74825910D01*
X96844390Y-74728979D01*
X96721021Y-74605610D01*
X96624090Y-74460543D01*
X96557323Y-74299353D01*
X96523286Y-74128235D01*
X96523286Y-73953765D01*
X96557323Y-73782647D01*
X96624090Y-73621457D01*
X96721021Y-73476390D01*
X96844390Y-73353021D01*
X96989457Y-73256090D01*
X97150647Y-73189323D01*
X97321765Y-73155286D01*
X97496235Y-73155286D01*
X97667353Y-73189323D01*
G37*
G36*
X119792396Y-72837703D02*
G01*
X119797135Y-72839795D01*
X119799841Y-72840152D01*
X119833695Y-72855938D01*
X119889890Y-72880751D01*
X119965249Y-72956110D01*
X119990070Y-73012325D01*
X120005847Y-73046158D01*
X120006202Y-73048861D01*
X120008297Y-73053604D01*
X120016000Y-73120000D01*
X120016000Y-73820000D01*
X120008297Y-73886396D01*
X120006202Y-73891139D01*
X120005847Y-73893841D01*
X119990079Y-73927655D01*
X119965249Y-73983890D01*
X119889890Y-74059249D01*
X119833655Y-74084079D01*
X119799841Y-74099847D01*
X119797139Y-74100202D01*
X119792396Y-74102297D01*
X119726000Y-74110000D01*
X117726000Y-74110000D01*
X117659604Y-74102297D01*
X117654861Y-74100202D01*
X117652158Y-74099847D01*
X117618325Y-74084070D01*
X117562110Y-74059249D01*
X117486751Y-73983890D01*
X117461938Y-73927695D01*
X117446152Y-73893841D01*
X117445795Y-73891135D01*
X117443703Y-73886396D01*
X117436000Y-73820000D01*
X117436000Y-73120000D01*
X117443703Y-73053604D01*
X117445795Y-73048864D01*
X117446152Y-73046158D01*
X117461947Y-73012285D01*
X117486751Y-72956110D01*
X117562110Y-72880751D01*
X117618285Y-72855947D01*
X117652158Y-72840152D01*
X117654864Y-72839795D01*
X117659604Y-72837703D01*
X117726000Y-72830000D01*
X119726000Y-72830000D01*
X119792396Y-72837703D01*
G37*
G36*
X133228782Y-71001558D02*
G01*
X133344694Y-71049570D01*
X133449012Y-71119273D01*
X133537727Y-71207988D01*
X133607430Y-71312306D01*
X133655442Y-71428218D01*
X133679918Y-71551269D01*
X133679918Y-71676731D01*
X133655442Y-71799782D01*
X133607430Y-71915694D01*
X133537727Y-72020012D01*
X133449012Y-72108727D01*
X133344694Y-72178430D01*
X133343550Y-72178903D01*
X133331022Y-72187275D01*
X133331022Y-72240725D01*
X133343550Y-72249096D01*
X133344694Y-72249570D01*
X133449012Y-72319273D01*
X133537727Y-72407988D01*
X133607430Y-72512306D01*
X133655442Y-72628218D01*
X133679918Y-72751269D01*
X133679918Y-72876731D01*
X133655442Y-72999782D01*
X133607430Y-73115694D01*
X133537727Y-73220012D01*
X133449012Y-73308727D01*
X133344694Y-73378430D01*
X133228782Y-73426442D01*
X133105731Y-73450918D01*
X132980269Y-73450918D01*
X132857218Y-73426442D01*
X132741306Y-73378430D01*
X132636988Y-73308727D01*
X132548273Y-73220012D01*
X132478570Y-73115694D01*
X132430558Y-72999782D01*
X132406082Y-72876731D01*
X132406082Y-72751269D01*
X132430558Y-72628218D01*
X132478570Y-72512306D01*
X132548273Y-72407988D01*
X132636988Y-72319273D01*
X132741306Y-72249570D01*
X132742446Y-72249097D01*
X132754977Y-72240725D01*
X132754977Y-72187275D01*
X132742447Y-72178902D01*
X132741306Y-72178430D01*
X132636988Y-72108727D01*
X132548273Y-72020012D01*
X132478570Y-71915694D01*
X132430558Y-71799782D01*
X132406082Y-71676731D01*
X132406082Y-71551269D01*
X132430558Y-71428218D01*
X132478570Y-71312306D01*
X132548273Y-71207988D01*
X132636988Y-71119273D01*
X132741306Y-71049570D01*
X132857218Y-71001558D01*
X132980269Y-70977082D01*
X133105731Y-70977082D01*
X133228782Y-71001558D01*
G37*
G36*
X135817395Y-70956703D02*
G01*
X135822135Y-70958796D01*
X135824839Y-70959152D01*
X135858682Y-70974933D01*
X135914889Y-70999751D01*
X135990249Y-71075111D01*
X136015076Y-71131339D01*
X136030847Y-71165160D01*
X136031202Y-71167861D01*
X136033297Y-71172605D01*
X136040999Y-71239002D01*
X136040999Y-71242267D01*
X136041000Y-71242275D01*
X136041000Y-71799710D01*
X136041000Y-72163999D01*
X136033297Y-72230395D01*
X136031202Y-72235138D01*
X136030847Y-72237839D01*
X136015084Y-72271641D01*
X135990249Y-72327889D01*
X135914889Y-72403249D01*
X135858641Y-72428084D01*
X135824839Y-72443847D01*
X135822138Y-72444202D01*
X135817395Y-72446297D01*
X135750998Y-72453999D01*
X135747731Y-72453999D01*
X135747724Y-72454000D01*
X134504276Y-72454000D01*
X134504275Y-72453999D01*
X134501001Y-72454000D01*
X134434605Y-72446297D01*
X134429861Y-72444202D01*
X134427160Y-72443847D01*
X134393339Y-72428076D01*
X134337111Y-72403249D01*
X134261751Y-72327889D01*
X134236933Y-72271682D01*
X134221152Y-72237839D01*
X134220796Y-72235135D01*
X134218703Y-72230395D01*
X134211001Y-72163998D01*
X134211000Y-72160731D01*
X134211000Y-72160724D01*
X134211000Y-71242275D01*
X134211000Y-71242274D01*
X134211000Y-71239001D01*
X134218703Y-71172605D01*
X134220795Y-71167865D01*
X134221152Y-71165160D01*
X134236941Y-71131299D01*
X134261751Y-71075111D01*
X134337111Y-70999751D01*
X134393299Y-70974941D01*
X134427160Y-70959152D01*
X134429865Y-70958795D01*
X134434605Y-70956703D01*
X134501002Y-70949001D01*
X134504268Y-70949000D01*
X134504276Y-70949000D01*
X135747724Y-70949000D01*
X135750999Y-70949000D01*
X135817395Y-70956703D01*
G37*
G36*
X119792396Y-70837703D02*
G01*
X119797135Y-70839795D01*
X119799841Y-70840152D01*
X119833695Y-70855938D01*
X119889890Y-70880751D01*
X119965249Y-70956110D01*
X119990070Y-71012325D01*
X120005847Y-71046158D01*
X120006202Y-71048861D01*
X120008297Y-71053604D01*
X120016000Y-71120000D01*
X120016000Y-71820000D01*
X120008297Y-71886396D01*
X120006202Y-71891139D01*
X120005847Y-71893841D01*
X119990079Y-71927655D01*
X119965249Y-71983890D01*
X119889890Y-72059249D01*
X119833655Y-72084079D01*
X119799841Y-72099847D01*
X119797139Y-72100202D01*
X119792396Y-72102297D01*
X119726000Y-72110000D01*
X117726000Y-72110000D01*
X117659604Y-72102297D01*
X117654861Y-72100202D01*
X117652158Y-72099847D01*
X117618325Y-72084070D01*
X117562110Y-72059249D01*
X117486751Y-71983890D01*
X117461938Y-71927695D01*
X117446152Y-71893841D01*
X117445795Y-71891135D01*
X117443703Y-71886396D01*
X117436000Y-71820000D01*
X117436000Y-71120000D01*
X117443703Y-71053604D01*
X117445795Y-71048864D01*
X117446152Y-71046158D01*
X117461947Y-71012285D01*
X117486751Y-70956110D01*
X117562110Y-70880751D01*
X117618285Y-70855947D01*
X117652158Y-70840152D01*
X117654864Y-70839795D01*
X117659604Y-70837703D01*
X117726000Y-70830000D01*
X119726000Y-70830000D01*
X119792396Y-70837703D01*
G37*
G36*
X144380998Y-69285585D02*
G01*
X144390658Y-69290089D01*
X144397870Y-69291232D01*
X144449248Y-69317410D01*
X144488016Y-69335488D01*
X144491432Y-69338904D01*
X144492480Y-69339438D01*
X144567561Y-69414519D01*
X144568094Y-69415566D01*
X144571512Y-69418984D01*
X144589594Y-69457763D01*
X144615767Y-69509129D01*
X144616908Y-69516338D01*
X144621415Y-69526002D01*
X144633000Y-69614000D01*
X144633000Y-71014000D01*
X144621415Y-71101998D01*
X144616908Y-71111662D01*
X144615767Y-71118870D01*
X144589600Y-71170225D01*
X144571512Y-71209016D01*
X144568093Y-71212434D01*
X144567561Y-71213480D01*
X144492480Y-71288561D01*
X144491434Y-71289093D01*
X144488016Y-71292512D01*
X144449225Y-71310600D01*
X144397870Y-71336767D01*
X144390662Y-71337908D01*
X144380998Y-71342415D01*
X144293000Y-71354000D01*
X142893000Y-71354000D01*
X142805002Y-71342415D01*
X142795338Y-71337908D01*
X142788129Y-71336767D01*
X142736763Y-71310594D01*
X142697984Y-71292512D01*
X142694566Y-71289094D01*
X142693519Y-71288561D01*
X142618438Y-71213480D01*
X142617904Y-71212432D01*
X142614488Y-71209016D01*
X142596410Y-71170248D01*
X142570232Y-71118870D01*
X142569089Y-71111658D01*
X142564585Y-71101998D01*
X142553000Y-71014000D01*
X142553000Y-69614000D01*
X142564585Y-69526002D01*
X142569089Y-69516341D01*
X142570232Y-69509129D01*
X142596415Y-69457739D01*
X142614488Y-69418984D01*
X142617903Y-69415568D01*
X142618438Y-69414519D01*
X142693519Y-69339438D01*
X142694568Y-69338903D01*
X142697984Y-69335488D01*
X142736739Y-69317415D01*
X142788129Y-69291232D01*
X142795341Y-69290089D01*
X142805002Y-69285585D01*
X142893000Y-69274000D01*
X144293000Y-69274000D01*
X144380998Y-69285585D01*
G37*
G36*
X64966396Y-69598703D02*
G01*
X64971135Y-69600795D01*
X64973841Y-69601152D01*
X65007695Y-69616938D01*
X65063890Y-69641751D01*
X65139249Y-69717110D01*
X65164070Y-69773325D01*
X65179847Y-69807158D01*
X65180202Y-69809861D01*
X65182297Y-69814604D01*
X65190000Y-69881000D01*
X65190000Y-70581000D01*
X65182297Y-70647396D01*
X65180202Y-70652139D01*
X65179847Y-70654841D01*
X65164079Y-70688655D01*
X65139249Y-70744890D01*
X65063890Y-70820249D01*
X65007655Y-70845079D01*
X64973841Y-70860847D01*
X64971139Y-70861202D01*
X64966396Y-70863297D01*
X64900000Y-70871000D01*
X62900000Y-70871000D01*
X62833604Y-70863297D01*
X62828861Y-70861202D01*
X62826158Y-70860847D01*
X62792325Y-70845070D01*
X62736110Y-70820249D01*
X62660751Y-70744890D01*
X62635938Y-70688695D01*
X62620152Y-70654841D01*
X62619795Y-70652135D01*
X62617703Y-70647396D01*
X62610000Y-70581000D01*
X62610000Y-69881000D01*
X62617703Y-69814604D01*
X62619795Y-69809864D01*
X62620152Y-69807158D01*
X62635947Y-69773285D01*
X62660751Y-69717110D01*
X62736110Y-69641751D01*
X62792285Y-69616947D01*
X62826158Y-69601152D01*
X62828864Y-69600795D01*
X62833604Y-69598703D01*
X62900000Y-69591000D01*
X64900000Y-69591000D01*
X64966396Y-69598703D01*
G37*
G36*
X119792396Y-68837703D02*
G01*
X119797135Y-68839795D01*
X119799841Y-68840152D01*
X119833695Y-68855938D01*
X119889890Y-68880751D01*
X119965249Y-68956110D01*
X119990070Y-69012325D01*
X120005847Y-69046158D01*
X120006202Y-69048861D01*
X120008297Y-69053604D01*
X120016000Y-69120000D01*
X120016000Y-69820000D01*
X120008297Y-69886396D01*
X120006202Y-69891139D01*
X120005847Y-69893841D01*
X119990079Y-69927655D01*
X119965249Y-69983890D01*
X119889890Y-70059249D01*
X119833655Y-70084079D01*
X119799841Y-70099847D01*
X119797139Y-70100202D01*
X119792396Y-70102297D01*
X119726000Y-70110000D01*
X117726000Y-70110000D01*
X117659604Y-70102297D01*
X117654861Y-70100202D01*
X117652158Y-70099847D01*
X117618325Y-70084070D01*
X117562110Y-70059249D01*
X117486751Y-69983890D01*
X117461938Y-69927695D01*
X117446152Y-69893841D01*
X117445795Y-69891135D01*
X117443703Y-69886396D01*
X117436000Y-69820000D01*
X117436000Y-69120000D01*
X117443703Y-69053604D01*
X117445795Y-69048864D01*
X117446152Y-69046158D01*
X117461947Y-69012285D01*
X117486751Y-68956110D01*
X117562110Y-68880751D01*
X117618285Y-68855947D01*
X117652158Y-68840152D01*
X117654864Y-68839795D01*
X117659604Y-68837703D01*
X117726000Y-68830000D01*
X119726000Y-68830000D01*
X119792396Y-68837703D01*
G37*
G36*
X135817395Y-67981703D02*
G01*
X135822135Y-67983796D01*
X135824839Y-67984152D01*
X135858682Y-67999933D01*
X135914889Y-68024751D01*
X135990249Y-68100111D01*
X136015076Y-68156339D01*
X136030847Y-68190160D01*
X136031202Y-68192861D01*
X136033297Y-68197605D01*
X136040999Y-68264002D01*
X136040999Y-68267267D01*
X136041000Y-68267275D01*
X136041000Y-68744890D01*
X136041000Y-69188999D01*
X136033297Y-69255395D01*
X136031202Y-69260138D01*
X136030847Y-69262839D01*
X136015084Y-69296641D01*
X135990249Y-69352889D01*
X135914889Y-69428249D01*
X135858641Y-69453084D01*
X135824839Y-69468847D01*
X135822138Y-69469202D01*
X135817395Y-69471297D01*
X135750998Y-69478999D01*
X135747731Y-69478999D01*
X135747724Y-69479000D01*
X134504276Y-69479000D01*
X134504275Y-69478999D01*
X134501001Y-69479000D01*
X134434605Y-69471297D01*
X134429861Y-69469202D01*
X134427160Y-69468847D01*
X134393339Y-69453076D01*
X134337111Y-69428249D01*
X134261751Y-69352889D01*
X134236933Y-69296682D01*
X134221152Y-69262839D01*
X134220796Y-69260135D01*
X134218703Y-69255395D01*
X134211001Y-69188998D01*
X134211000Y-69185731D01*
X134211000Y-69185724D01*
X134211000Y-68267275D01*
X134211000Y-68267274D01*
X134211000Y-68264001D01*
X134218703Y-68197605D01*
X134220795Y-68192865D01*
X134221152Y-68190160D01*
X134236941Y-68156299D01*
X134261751Y-68100111D01*
X134337111Y-68024751D01*
X134393299Y-67999941D01*
X134427160Y-67984152D01*
X134429865Y-67983795D01*
X134434605Y-67981703D01*
X134501002Y-67974001D01*
X134504268Y-67974000D01*
X134504276Y-67974000D01*
X135747724Y-67974000D01*
X135750999Y-67974000D01*
X135817395Y-67981703D01*
G37*
G36*
X133228782Y-67001558D02*
G01*
X133344694Y-67049570D01*
X133449012Y-67119273D01*
X133537727Y-67207988D01*
X133607430Y-67312306D01*
X133655442Y-67428218D01*
X133679918Y-67551269D01*
X133679918Y-67676731D01*
X133655442Y-67799782D01*
X133607430Y-67915694D01*
X133537727Y-68020012D01*
X133449012Y-68108727D01*
X133344694Y-68178430D01*
X133343550Y-68178903D01*
X133331022Y-68187275D01*
X133331022Y-68240725D01*
X133343550Y-68249096D01*
X133344694Y-68249570D01*
X133449012Y-68319273D01*
X133537727Y-68407988D01*
X133607430Y-68512306D01*
X133655442Y-68628218D01*
X133679918Y-68751269D01*
X133679918Y-68876731D01*
X133655442Y-68999782D01*
X133607430Y-69115694D01*
X133537727Y-69220012D01*
X133449012Y-69308727D01*
X133344694Y-69378430D01*
X133228782Y-69426442D01*
X133105731Y-69450918D01*
X132980269Y-69450918D01*
X132857218Y-69426442D01*
X132741306Y-69378430D01*
X132636988Y-69308727D01*
X132548273Y-69220012D01*
X132478570Y-69115694D01*
X132430558Y-68999782D01*
X132406082Y-68876731D01*
X132406082Y-68751269D01*
X132430558Y-68628218D01*
X132478570Y-68512306D01*
X132548273Y-68407988D01*
X132636988Y-68319273D01*
X132741306Y-68249570D01*
X132742446Y-68249097D01*
X132754977Y-68240725D01*
X132754977Y-68187275D01*
X132742447Y-68178902D01*
X132741306Y-68178430D01*
X132636988Y-68108727D01*
X132548273Y-68020012D01*
X132478570Y-67915694D01*
X132430558Y-67799782D01*
X132406082Y-67676731D01*
X132406082Y-67551269D01*
X132430558Y-67428218D01*
X132478570Y-67312306D01*
X132548273Y-67207988D01*
X132636988Y-67119273D01*
X132741306Y-67049570D01*
X132857218Y-67001558D01*
X132980269Y-66977082D01*
X133105731Y-66977082D01*
X133228782Y-67001558D01*
G37*
G36*
X64966396Y-67598703D02*
G01*
X64971135Y-67600795D01*
X64973841Y-67601152D01*
X65007695Y-67616938D01*
X65063890Y-67641751D01*
X65139249Y-67717110D01*
X65164070Y-67773325D01*
X65179847Y-67807158D01*
X65180202Y-67809861D01*
X65182297Y-67814604D01*
X65190000Y-67881000D01*
X65190000Y-68581000D01*
X65182297Y-68647396D01*
X65180202Y-68652139D01*
X65179847Y-68654841D01*
X65164079Y-68688655D01*
X65139249Y-68744890D01*
X65063890Y-68820249D01*
X65007655Y-68845079D01*
X64973841Y-68860847D01*
X64971139Y-68861202D01*
X64966396Y-68863297D01*
X64900000Y-68871000D01*
X62900000Y-68871000D01*
X62833604Y-68863297D01*
X62828861Y-68861202D01*
X62826158Y-68860847D01*
X62792325Y-68845070D01*
X62736110Y-68820249D01*
X62660751Y-68744890D01*
X62635938Y-68688695D01*
X62620152Y-68654841D01*
X62619795Y-68652135D01*
X62617703Y-68647396D01*
X62610000Y-68581000D01*
X62610000Y-67881000D01*
X62617703Y-67814604D01*
X62619795Y-67809864D01*
X62620152Y-67807158D01*
X62635947Y-67773285D01*
X62660751Y-67717110D01*
X62736110Y-67641751D01*
X62792285Y-67616947D01*
X62826158Y-67601152D01*
X62828864Y-67600795D01*
X62833604Y-67598703D01*
X62900000Y-67591000D01*
X64900000Y-67591000D01*
X64966396Y-67598703D01*
G37*
G36*
X119792396Y-66837703D02*
G01*
X119797135Y-66839795D01*
X119799841Y-66840152D01*
X119833695Y-66855938D01*
X119889890Y-66880751D01*
X119965249Y-66956110D01*
X119990070Y-67012325D01*
X120005847Y-67046158D01*
X120006202Y-67048861D01*
X120008297Y-67053604D01*
X120016000Y-67120000D01*
X120016000Y-67820000D01*
X120008297Y-67886396D01*
X120006202Y-67891139D01*
X120005847Y-67893841D01*
X119990079Y-67927655D01*
X119965249Y-67983890D01*
X119889890Y-68059249D01*
X119833655Y-68084079D01*
X119799841Y-68099847D01*
X119797139Y-68100202D01*
X119792396Y-68102297D01*
X119726000Y-68110000D01*
X117726000Y-68110000D01*
X117659604Y-68102297D01*
X117654861Y-68100202D01*
X117652158Y-68099847D01*
X117618325Y-68084070D01*
X117562110Y-68059249D01*
X117486751Y-67983890D01*
X117461938Y-67927695D01*
X117446152Y-67893841D01*
X117445795Y-67891135D01*
X117443703Y-67886396D01*
X117436000Y-67820000D01*
X117436000Y-67120000D01*
X117443703Y-67053604D01*
X117445795Y-67048864D01*
X117446152Y-67046158D01*
X117461947Y-67012285D01*
X117486751Y-66956110D01*
X117562110Y-66880751D01*
X117618285Y-66855947D01*
X117652158Y-66840152D01*
X117654864Y-66839795D01*
X117659604Y-66837703D01*
X117726000Y-66830000D01*
X119726000Y-66830000D01*
X119792396Y-66837703D01*
G37*
G36*
X144380998Y-65285585D02*
G01*
X144390658Y-65290089D01*
X144397870Y-65291232D01*
X144449248Y-65317410D01*
X144488016Y-65335488D01*
X144491432Y-65338904D01*
X144492480Y-65339438D01*
X144567561Y-65414519D01*
X144568094Y-65415566D01*
X144571512Y-65418984D01*
X144589594Y-65457763D01*
X144615767Y-65509129D01*
X144616908Y-65516338D01*
X144621415Y-65526002D01*
X144633000Y-65614000D01*
X144633000Y-67014000D01*
X144621415Y-67101998D01*
X144616908Y-67111662D01*
X144615767Y-67118870D01*
X144589600Y-67170225D01*
X144571512Y-67209016D01*
X144568093Y-67212434D01*
X144567561Y-67213480D01*
X144492480Y-67288561D01*
X144491434Y-67289093D01*
X144488016Y-67292512D01*
X144449225Y-67310600D01*
X144397870Y-67336767D01*
X144390662Y-67337908D01*
X144380998Y-67342415D01*
X144293000Y-67354000D01*
X142893000Y-67354000D01*
X142805002Y-67342415D01*
X142795338Y-67337908D01*
X142788129Y-67336767D01*
X142736763Y-67310594D01*
X142697984Y-67292512D01*
X142694566Y-67289094D01*
X142693519Y-67288561D01*
X142618438Y-67213480D01*
X142617904Y-67212432D01*
X142614488Y-67209016D01*
X142596410Y-67170248D01*
X142570232Y-67118870D01*
X142569089Y-67111658D01*
X142564585Y-67101998D01*
X142553000Y-67014000D01*
X142553000Y-65614000D01*
X142564585Y-65526002D01*
X142569089Y-65516341D01*
X142570232Y-65509129D01*
X142596415Y-65457739D01*
X142614488Y-65418984D01*
X142617903Y-65415568D01*
X142618438Y-65414519D01*
X142693519Y-65339438D01*
X142694568Y-65338903D01*
X142697984Y-65335488D01*
X142736739Y-65317415D01*
X142788129Y-65291232D01*
X142795341Y-65290089D01*
X142805002Y-65285585D01*
X142893000Y-65274000D01*
X144293000Y-65274000D01*
X144380998Y-65285585D01*
G37*
G36*
X64966396Y-65598703D02*
G01*
X64971135Y-65600795D01*
X64973841Y-65601152D01*
X65007695Y-65616938D01*
X65063890Y-65641751D01*
X65139249Y-65717110D01*
X65164070Y-65773325D01*
X65179847Y-65807158D01*
X65180202Y-65809861D01*
X65182297Y-65814604D01*
X65190000Y-65881000D01*
X65190000Y-66581000D01*
X65182297Y-66647396D01*
X65180202Y-66652139D01*
X65179847Y-66654841D01*
X65164079Y-66688655D01*
X65139249Y-66744890D01*
X65063890Y-66820249D01*
X65007655Y-66845079D01*
X64973841Y-66860847D01*
X64971139Y-66861202D01*
X64966396Y-66863297D01*
X64900000Y-66871000D01*
X62900000Y-66871000D01*
X62833604Y-66863297D01*
X62828861Y-66861202D01*
X62826158Y-66860847D01*
X62792325Y-66845070D01*
X62736110Y-66820249D01*
X62660751Y-66744890D01*
X62635938Y-66688695D01*
X62620152Y-66654841D01*
X62619795Y-66652135D01*
X62617703Y-66647396D01*
X62610000Y-66581000D01*
X62610000Y-65881000D01*
X62617703Y-65814604D01*
X62619795Y-65809864D01*
X62620152Y-65807158D01*
X62635947Y-65773285D01*
X62660751Y-65717110D01*
X62736110Y-65641751D01*
X62792285Y-65616947D01*
X62826158Y-65601152D01*
X62828864Y-65600795D01*
X62833604Y-65598703D01*
X62900000Y-65591000D01*
X64900000Y-65591000D01*
X64966396Y-65598703D01*
G37*
G36*
X119792396Y-64837703D02*
G01*
X119797135Y-64839795D01*
X119799841Y-64840152D01*
X119833695Y-64855938D01*
X119889890Y-64880751D01*
X119965249Y-64956110D01*
X119990070Y-65012325D01*
X120005847Y-65046158D01*
X120006202Y-65048861D01*
X120008297Y-65053604D01*
X120016000Y-65120000D01*
X120016000Y-65820000D01*
X120008297Y-65886396D01*
X120006202Y-65891139D01*
X120005847Y-65893841D01*
X119990079Y-65927655D01*
X119965249Y-65983890D01*
X119889890Y-66059249D01*
X119833655Y-66084079D01*
X119799841Y-66099847D01*
X119797139Y-66100202D01*
X119792396Y-66102297D01*
X119726000Y-66110000D01*
X117726000Y-66110000D01*
X117659604Y-66102297D01*
X117654861Y-66100202D01*
X117652158Y-66099847D01*
X117618325Y-66084070D01*
X117562110Y-66059249D01*
X117486751Y-65983890D01*
X117461938Y-65927695D01*
X117446152Y-65893841D01*
X117445795Y-65891135D01*
X117443703Y-65886396D01*
X117436000Y-65820000D01*
X117436000Y-65120000D01*
X117443703Y-65053604D01*
X117445795Y-65048864D01*
X117446152Y-65046158D01*
X117461947Y-65012285D01*
X117486751Y-64956110D01*
X117562110Y-64880751D01*
X117618285Y-64855947D01*
X117652158Y-64840152D01*
X117654864Y-64839795D01*
X117659604Y-64837703D01*
X117726000Y-64830000D01*
X119726000Y-64830000D01*
X119792396Y-64837703D01*
G37*
G36*
X119792396Y-62837703D02*
G01*
X119797135Y-62839795D01*
X119799841Y-62840152D01*
X119833695Y-62855938D01*
X119889890Y-62880751D01*
X119965249Y-62956110D01*
X119990062Y-63012306D01*
X120005847Y-63046158D01*
X120006202Y-63048861D01*
X120008297Y-63053604D01*
X120016000Y-63120000D01*
X120016000Y-63820000D01*
X120008297Y-63886396D01*
X120006202Y-63891139D01*
X120005847Y-63893841D01*
X119990079Y-63927655D01*
X119965249Y-63983890D01*
X119889890Y-64059249D01*
X119833655Y-64084079D01*
X119799841Y-64099847D01*
X119797139Y-64100202D01*
X119792396Y-64102297D01*
X119726000Y-64110000D01*
X117726000Y-64110000D01*
X117659604Y-64102297D01*
X117654861Y-64100202D01*
X117652158Y-64099847D01*
X117618325Y-64084070D01*
X117562110Y-64059249D01*
X117486751Y-63983890D01*
X117461938Y-63927695D01*
X117446152Y-63893841D01*
X117445795Y-63891135D01*
X117443703Y-63886396D01*
X117436000Y-63820000D01*
X117436000Y-63120000D01*
X117443703Y-63053604D01*
X117445795Y-63048864D01*
X117446152Y-63046158D01*
X117461947Y-63012285D01*
X117486751Y-62956110D01*
X117562110Y-62880751D01*
X117618285Y-62855947D01*
X117652158Y-62840152D01*
X117654864Y-62839795D01*
X117659604Y-62837703D01*
X117726000Y-62830000D01*
X119726000Y-62830000D01*
X119792396Y-62837703D01*
G37*
G36*
X133228782Y-61501558D02*
G01*
X133344694Y-61549570D01*
X133449012Y-61619273D01*
X133537727Y-61707988D01*
X133607430Y-61812306D01*
X133655442Y-61928218D01*
X133679918Y-62051269D01*
X133679918Y-62176731D01*
X133655442Y-62299782D01*
X133607430Y-62415694D01*
X133537727Y-62520012D01*
X133449012Y-62608727D01*
X133344694Y-62678430D01*
X133343550Y-62678903D01*
X133331022Y-62687275D01*
X133331022Y-62740725D01*
X133343550Y-62749096D01*
X133344694Y-62749570D01*
X133449012Y-62819273D01*
X133537727Y-62907988D01*
X133607430Y-63012306D01*
X133655442Y-63128218D01*
X133679918Y-63251269D01*
X133679918Y-63376731D01*
X133655442Y-63499782D01*
X133607430Y-63615694D01*
X133537727Y-63720012D01*
X133449012Y-63808727D01*
X133344694Y-63878430D01*
X133228782Y-63926442D01*
X133105731Y-63950918D01*
X132980269Y-63950918D01*
X132857218Y-63926442D01*
X132741306Y-63878430D01*
X132636988Y-63808727D01*
X132548273Y-63720012D01*
X132478570Y-63615694D01*
X132430558Y-63499782D01*
X132406082Y-63376731D01*
X132406082Y-63251269D01*
X132430558Y-63128218D01*
X132478570Y-63012306D01*
X132548273Y-62907988D01*
X132636988Y-62819273D01*
X132741306Y-62749570D01*
X132742446Y-62749097D01*
X132754977Y-62740725D01*
X132754977Y-62687275D01*
X132742447Y-62678902D01*
X132741306Y-62678430D01*
X132636988Y-62608727D01*
X132548273Y-62520012D01*
X132478570Y-62415694D01*
X132430558Y-62299782D01*
X132406082Y-62176731D01*
X132406082Y-62051269D01*
X132430558Y-61928218D01*
X132478570Y-61812306D01*
X132548273Y-61707988D01*
X132636988Y-61619273D01*
X132741306Y-61549570D01*
X132857218Y-61501558D01*
X132980269Y-61477082D01*
X133105731Y-61477082D01*
X133228782Y-61501558D01*
G37*
G36*
X141247157Y-56785198D02*
G01*
X141253756Y-56787659D01*
X141258499Y-56788229D01*
X141314617Y-56810359D01*
X141377832Y-56833937D01*
X141381645Y-56836791D01*
X141382924Y-56837296D01*
X141429520Y-56872630D01*
X141489482Y-56917518D01*
X141534387Y-56977504D01*
X141569703Y-57024075D01*
X141570206Y-57025352D01*
X141573063Y-57029168D01*
X141596654Y-57092420D01*
X141618770Y-57148501D01*
X141619339Y-57153239D01*
X141621802Y-57159843D01*
X141633000Y-57264000D01*
X141633000Y-59364000D01*
X141621802Y-59468157D01*
X141619339Y-59474760D01*
X141618770Y-59479499D01*
X141596658Y-59535570D01*
X141573063Y-59598832D01*
X141570206Y-59602648D01*
X141569703Y-59603924D01*
X141534455Y-59650404D01*
X141489482Y-59710482D01*
X141429358Y-59755490D01*
X141384951Y-59789166D01*
X141384951Y-59838834D01*
X141429402Y-59872542D01*
X141489482Y-59917518D01*
X141534397Y-59977517D01*
X141569703Y-60024075D01*
X141570206Y-60025352D01*
X141573063Y-60029168D01*
X141596654Y-60092420D01*
X141618770Y-60148501D01*
X141619339Y-60153239D01*
X141621802Y-60159843D01*
X141633000Y-60264000D01*
X141633000Y-62364000D01*
X141621802Y-62468157D01*
X141619339Y-62474760D01*
X141618770Y-62479499D01*
X141596658Y-62535570D01*
X141573063Y-62598832D01*
X141570206Y-62602648D01*
X141569703Y-62603924D01*
X141534446Y-62650417D01*
X141489482Y-62710482D01*
X141429417Y-62755446D01*
X141382924Y-62790703D01*
X141381648Y-62791206D01*
X141377832Y-62794063D01*
X141314560Y-62817661D01*
X141258498Y-62839770D01*
X141253760Y-62840338D01*
X141247157Y-62842802D01*
X141143000Y-62854000D01*
X138043000Y-62854000D01*
X137938843Y-62842802D01*
X137932239Y-62840339D01*
X137927500Y-62839770D01*
X137871410Y-62817651D01*
X137808168Y-62794063D01*
X137804352Y-62791206D01*
X137803075Y-62790703D01*
X137756504Y-62755387D01*
X137696518Y-62710482D01*
X137651630Y-62650520D01*
X137616296Y-62603924D01*
X137615791Y-62602645D01*
X137612937Y-62598832D01*
X137589355Y-62535607D01*
X137567229Y-62479498D01*
X137566659Y-62474757D01*
X137564198Y-62468157D01*
X137553000Y-62364000D01*
X137553000Y-60264000D01*
X137564198Y-60159843D01*
X137566659Y-60153243D01*
X137567229Y-60148500D01*
X137589366Y-60092363D01*
X137612937Y-60029168D01*
X137615791Y-60025355D01*
X137616296Y-60024075D01*
X137651689Y-59977401D01*
X137696518Y-59917518D01*
X137756454Y-59872649D01*
X137801048Y-59838834D01*
X137801048Y-59789166D01*
X137756498Y-59755383D01*
X137696518Y-59710482D01*
X137651630Y-59650520D01*
X137616296Y-59603924D01*
X137615791Y-59602645D01*
X137612937Y-59598832D01*
X137589355Y-59535607D01*
X137567229Y-59479498D01*
X137566659Y-59474757D01*
X137564198Y-59468157D01*
X137553000Y-59364000D01*
X137553000Y-57264000D01*
X137564198Y-57159843D01*
X137566659Y-57153243D01*
X137567229Y-57148500D01*
X137589366Y-57092363D01*
X137612937Y-57029168D01*
X137615791Y-57025355D01*
X137616296Y-57024075D01*
X137651689Y-56977401D01*
X137696518Y-56917518D01*
X137756401Y-56872689D01*
X137803075Y-56837296D01*
X137804355Y-56836791D01*
X137808168Y-56833937D01*
X137871374Y-56810362D01*
X137927501Y-56788229D01*
X137932243Y-56787659D01*
X137938843Y-56785198D01*
X138043000Y-56774000D01*
X141143000Y-56774000D01*
X141247157Y-56785198D01*
G37*
G36*
X135642396Y-61081703D02*
G01*
X135647135Y-61083795D01*
X135649841Y-61084152D01*
X135683695Y-61099938D01*
X135739890Y-61124751D01*
X135815249Y-61200110D01*
X135840070Y-61256325D01*
X135855847Y-61290158D01*
X135856202Y-61292861D01*
X135858297Y-61297604D01*
X135866000Y-61364000D01*
X135866000Y-62064000D01*
X135858297Y-62130396D01*
X135856202Y-62135139D01*
X135855847Y-62137841D01*
X135840079Y-62171655D01*
X135815249Y-62227890D01*
X135739890Y-62303249D01*
X135683655Y-62328079D01*
X135649841Y-62343847D01*
X135647139Y-62344202D01*
X135642396Y-62346297D01*
X135576000Y-62354000D01*
X134676000Y-62354000D01*
X134609604Y-62346297D01*
X134604861Y-62344202D01*
X134602158Y-62343847D01*
X134568325Y-62328070D01*
X134512110Y-62303249D01*
X134436751Y-62227890D01*
X134411938Y-62171695D01*
X134396152Y-62137841D01*
X134395795Y-62135135D01*
X134393703Y-62130396D01*
X134386000Y-62064000D01*
X134386000Y-61364000D01*
X134393703Y-61297604D01*
X134395795Y-61292864D01*
X134396152Y-61290158D01*
X134411947Y-61256285D01*
X134436751Y-61200110D01*
X134512110Y-61124751D01*
X134568285Y-61099947D01*
X134602158Y-61084152D01*
X134604864Y-61083795D01*
X134609604Y-61081703D01*
X134676000Y-61074000D01*
X135576000Y-61074000D01*
X135642396Y-61081703D01*
G37*
G36*
X126662157Y-56560198D02*
G01*
X126668756Y-56562659D01*
X126673499Y-56563229D01*
X126729617Y-56585359D01*
X126792832Y-56608937D01*
X126796645Y-56611791D01*
X126797924Y-56612296D01*
X126844520Y-56647630D01*
X126904482Y-56692518D01*
X126949387Y-56752504D01*
X126984703Y-56799075D01*
X126985206Y-56800352D01*
X126988063Y-56804168D01*
X127011654Y-56867420D01*
X127033770Y-56923501D01*
X127034339Y-56928239D01*
X127036802Y-56934843D01*
X127048000Y-57039000D01*
X127048000Y-60139000D01*
X127036802Y-60243157D01*
X127034339Y-60249760D01*
X127033770Y-60254499D01*
X127011658Y-60310570D01*
X126988063Y-60373832D01*
X126985206Y-60377648D01*
X126984703Y-60378924D01*
X126949446Y-60425417D01*
X126904482Y-60485482D01*
X126844417Y-60530446D01*
X126797924Y-60565703D01*
X126796648Y-60566206D01*
X126792832Y-60569063D01*
X126729560Y-60592661D01*
X126673498Y-60614770D01*
X126668760Y-60615338D01*
X126662157Y-60617802D01*
X126558000Y-60629000D01*
X124458000Y-60629000D01*
X124353843Y-60617802D01*
X124347239Y-60615339D01*
X124342500Y-60614770D01*
X124286410Y-60592651D01*
X124223168Y-60569063D01*
X124219352Y-60566206D01*
X124218075Y-60565703D01*
X124171504Y-60530387D01*
X124111518Y-60485482D01*
X124066630Y-60425520D01*
X124031296Y-60378924D01*
X124030791Y-60377645D01*
X124027937Y-60373832D01*
X124004355Y-60310607D01*
X123982229Y-60254498D01*
X123981659Y-60249757D01*
X123979198Y-60243157D01*
X123968000Y-60139000D01*
X123968000Y-57039000D01*
X123979198Y-56934843D01*
X123981659Y-56928243D01*
X123982229Y-56923500D01*
X124004366Y-56867363D01*
X124027937Y-56804168D01*
X124030791Y-56800355D01*
X124031296Y-56799075D01*
X124066689Y-56752401D01*
X124111518Y-56692518D01*
X124171401Y-56647689D01*
X124218075Y-56612296D01*
X124219355Y-56611791D01*
X124223168Y-56608937D01*
X124286374Y-56585362D01*
X124342501Y-56563229D01*
X124347243Y-56562659D01*
X124353843Y-56560198D01*
X124458000Y-56549000D01*
X126558000Y-56549000D01*
X126662157Y-56560198D01*
G37*
G36*
X130662157Y-56560198D02*
G01*
X130668756Y-56562659D01*
X130673499Y-56563229D01*
X130729617Y-56585359D01*
X130792832Y-56608937D01*
X130796645Y-56611791D01*
X130797924Y-56612296D01*
X130844520Y-56647630D01*
X130904482Y-56692518D01*
X130949387Y-56752504D01*
X130984703Y-56799075D01*
X130985206Y-56800352D01*
X130988063Y-56804168D01*
X131011654Y-56867420D01*
X131033770Y-56923501D01*
X131034339Y-56928239D01*
X131036802Y-56934843D01*
X131048000Y-57039000D01*
X131048000Y-60139000D01*
X131036802Y-60243157D01*
X131034339Y-60249760D01*
X131033770Y-60254499D01*
X131011658Y-60310570D01*
X130988063Y-60373832D01*
X130985206Y-60377648D01*
X130984703Y-60378924D01*
X130949446Y-60425417D01*
X130904482Y-60485482D01*
X130844417Y-60530446D01*
X130797924Y-60565703D01*
X130796648Y-60566206D01*
X130792832Y-60569063D01*
X130729560Y-60592661D01*
X130673498Y-60614770D01*
X130668760Y-60615338D01*
X130662157Y-60617802D01*
X130558000Y-60629000D01*
X128458000Y-60629000D01*
X128353843Y-60617802D01*
X128347239Y-60615339D01*
X128342500Y-60614770D01*
X128286410Y-60592651D01*
X128223168Y-60569063D01*
X128219352Y-60566206D01*
X128218075Y-60565703D01*
X128171504Y-60530387D01*
X128111518Y-60485482D01*
X128066630Y-60425520D01*
X128031296Y-60378924D01*
X128030791Y-60377645D01*
X128027937Y-60373832D01*
X128004355Y-60310607D01*
X127982229Y-60254498D01*
X127981659Y-60249757D01*
X127979198Y-60243157D01*
X127968000Y-60139000D01*
X127968000Y-57039000D01*
X127979198Y-56934843D01*
X127981659Y-56928243D01*
X127982229Y-56923500D01*
X128004366Y-56867363D01*
X128027937Y-56804168D01*
X128030791Y-56800355D01*
X128031296Y-56799075D01*
X128066689Y-56752401D01*
X128111518Y-56692518D01*
X128171401Y-56647689D01*
X128218075Y-56612296D01*
X128219355Y-56611791D01*
X128223168Y-56608937D01*
X128286374Y-56585362D01*
X128342501Y-56563229D01*
X128347243Y-56562659D01*
X128353843Y-56560198D01*
X128458000Y-56549000D01*
X130558000Y-56549000D01*
X130662157Y-56560198D01*
G37*
G36*
X135642396Y-59081703D02*
G01*
X135647135Y-59083795D01*
X135649841Y-59084152D01*
X135683695Y-59099938D01*
X135739890Y-59124751D01*
X135815249Y-59200110D01*
X135840070Y-59256325D01*
X135855847Y-59290158D01*
X135856202Y-59292861D01*
X135858297Y-59297604D01*
X135866000Y-59364000D01*
X135866000Y-60064000D01*
X135858297Y-60130396D01*
X135856202Y-60135139D01*
X135855847Y-60137841D01*
X135840079Y-60171655D01*
X135815249Y-60227890D01*
X135739890Y-60303249D01*
X135683655Y-60328079D01*
X135649841Y-60343847D01*
X135647139Y-60344202D01*
X135642396Y-60346297D01*
X135576000Y-60354000D01*
X134676000Y-60354000D01*
X134609604Y-60346297D01*
X134604861Y-60344202D01*
X134602158Y-60343847D01*
X134568325Y-60328070D01*
X134512110Y-60303249D01*
X134436751Y-60227890D01*
X134411938Y-60171695D01*
X134396152Y-60137841D01*
X134395795Y-60135135D01*
X134393703Y-60130396D01*
X134386000Y-60064000D01*
X134386000Y-59364000D01*
X134393703Y-59297604D01*
X134395795Y-59292864D01*
X134396152Y-59290158D01*
X134411947Y-59256285D01*
X134436751Y-59200110D01*
X134512110Y-59124751D01*
X134568285Y-59099947D01*
X134602158Y-59084152D01*
X134604864Y-59083795D01*
X134609604Y-59081703D01*
X134676000Y-59074000D01*
X135576000Y-59074000D01*
X135642396Y-59081703D01*
G37*
G36*
X63655179Y-56912056D02*
G01*
X63665673Y-56912056D01*
X63717367Y-56920243D01*
X63856926Y-56938617D01*
X63890969Y-56947738D01*
X63919850Y-56952313D01*
X63975390Y-56970359D01*
X64064123Y-56994135D01*
X64120743Y-57017587D01*
X64164601Y-57031838D01*
X64205686Y-57052771D01*
X64262310Y-57076226D01*
X64341880Y-57122165D01*
X64393898Y-57148670D01*
X64417546Y-57165851D01*
X64448073Y-57183476D01*
X64559743Y-57269163D01*
X64602095Y-57299934D01*
X64609518Y-57307357D01*
X64618252Y-57314059D01*
X64769940Y-57465747D01*
X64776641Y-57474480D01*
X64784066Y-57481905D01*
X64814840Y-57524262D01*
X64900523Y-57635926D01*
X64918146Y-57666451D01*
X64935330Y-57690102D01*
X64961837Y-57742125D01*
X65007773Y-57821689D01*
X65031224Y-57878307D01*
X65052162Y-57919399D01*
X65066414Y-57963263D01*
X65089864Y-58019876D01*
X65113636Y-58108597D01*
X65131687Y-58164150D01*
X65136262Y-58193037D01*
X65145382Y-58227073D01*
X65163754Y-58366621D01*
X65171944Y-58418327D01*
X65171944Y-58428821D01*
X65173382Y-58439744D01*
X65173382Y-58654255D01*
X65171944Y-58665177D01*
X65171944Y-58675673D01*
X65163753Y-58727383D01*
X65145382Y-58866926D01*
X65136262Y-58900960D01*
X65131687Y-58929850D01*
X65113635Y-58985407D01*
X65089864Y-59074123D01*
X65066416Y-59130731D01*
X65052162Y-59174601D01*
X65031222Y-59215696D01*
X65007773Y-59272310D01*
X64961841Y-59351865D01*
X64935330Y-59403898D01*
X64918143Y-59427552D01*
X64900523Y-59458073D01*
X64814853Y-59569719D01*
X64784066Y-59612095D01*
X64776638Y-59619522D01*
X64769940Y-59628252D01*
X64618252Y-59779940D01*
X64609522Y-59786638D01*
X64602095Y-59794066D01*
X64559719Y-59824853D01*
X64448073Y-59910523D01*
X64417552Y-59928143D01*
X64393898Y-59945330D01*
X64341865Y-59971841D01*
X64262310Y-60017773D01*
X64205696Y-60041222D01*
X64164601Y-60062162D01*
X64120731Y-60076416D01*
X64064123Y-60099864D01*
X63975407Y-60123635D01*
X63919850Y-60141687D01*
X63890960Y-60146262D01*
X63856926Y-60155382D01*
X63717380Y-60173754D01*
X63665673Y-60181944D01*
X63655178Y-60181944D01*
X63644256Y-60183382D01*
X63429744Y-60183382D01*
X63418822Y-60181944D01*
X63408327Y-60181944D01*
X63356621Y-60173754D01*
X63217073Y-60155382D01*
X63183037Y-60146262D01*
X63154150Y-60141687D01*
X63098597Y-60123636D01*
X63009876Y-60099864D01*
X62953263Y-60076414D01*
X62909399Y-60062162D01*
X62868307Y-60041224D01*
X62811689Y-60017773D01*
X62732125Y-59971837D01*
X62680102Y-59945330D01*
X62656451Y-59928146D01*
X62625926Y-59910523D01*
X62514262Y-59824840D01*
X62471905Y-59794066D01*
X62464480Y-59786641D01*
X62455747Y-59779940D01*
X62304059Y-59628252D01*
X62297357Y-59619518D01*
X62289934Y-59612095D01*
X62259163Y-59569743D01*
X62173476Y-59458073D01*
X62155851Y-59427546D01*
X62138670Y-59403898D01*
X62112165Y-59351880D01*
X62066226Y-59272310D01*
X62042771Y-59215686D01*
X62021838Y-59174601D01*
X62007587Y-59130743D01*
X61984135Y-59074123D01*
X61960359Y-58985390D01*
X61942313Y-58929850D01*
X61937738Y-58900969D01*
X61928617Y-58866926D01*
X61910244Y-58727370D01*
X61902056Y-58675673D01*
X61902056Y-58665177D01*
X61900618Y-58654255D01*
X61900618Y-58439744D01*
X61902056Y-58428821D01*
X61902056Y-58418327D01*
X61910243Y-58366634D01*
X61928617Y-58227073D01*
X61937739Y-58193028D01*
X61942313Y-58164150D01*
X61960357Y-58108614D01*
X61984135Y-58019876D01*
X62007589Y-57963252D01*
X62021838Y-57919399D01*
X62042769Y-57878317D01*
X62066226Y-57821689D01*
X62112170Y-57742111D01*
X62138670Y-57690102D01*
X62155848Y-57666457D01*
X62173476Y-57635926D01*
X62259177Y-57524237D01*
X62289934Y-57481905D01*
X62297354Y-57474484D01*
X62304059Y-57465747D01*
X62455747Y-57314059D01*
X62464484Y-57307354D01*
X62471905Y-57299934D01*
X62514237Y-57269177D01*
X62625926Y-57183476D01*
X62656457Y-57165848D01*
X62680102Y-57148670D01*
X62732111Y-57122170D01*
X62811689Y-57076226D01*
X62868317Y-57052769D01*
X62909399Y-57031838D01*
X62953252Y-57017589D01*
X63009876Y-56994135D01*
X63098614Y-56970357D01*
X63154150Y-56952313D01*
X63183028Y-56947739D01*
X63217073Y-56938617D01*
X63356634Y-56920243D01*
X63408327Y-56912056D01*
X63418821Y-56912056D01*
X63429744Y-56910618D01*
X63644256Y-56910618D01*
X63655179Y-56912056D01*
G37*
G36*
X118655179Y-56912056D02*
G01*
X118665673Y-56912056D01*
X118717367Y-56920243D01*
X118856926Y-56938617D01*
X118890969Y-56947738D01*
X118919850Y-56952313D01*
X118975390Y-56970359D01*
X119064123Y-56994135D01*
X119120743Y-57017587D01*
X119164601Y-57031838D01*
X119205686Y-57052771D01*
X119262310Y-57076226D01*
X119341880Y-57122165D01*
X119393898Y-57148670D01*
X119417546Y-57165851D01*
X119448073Y-57183476D01*
X119559743Y-57269163D01*
X119602095Y-57299934D01*
X119609518Y-57307357D01*
X119618252Y-57314059D01*
X119769940Y-57465747D01*
X119776641Y-57474480D01*
X119784066Y-57481905D01*
X119814840Y-57524262D01*
X119900523Y-57635926D01*
X119918146Y-57666451D01*
X119935330Y-57690102D01*
X119961837Y-57742125D01*
X120007773Y-57821689D01*
X120031224Y-57878307D01*
X120052162Y-57919399D01*
X120066414Y-57963263D01*
X120089864Y-58019876D01*
X120113636Y-58108597D01*
X120131687Y-58164150D01*
X120136262Y-58193037D01*
X120145382Y-58227073D01*
X120163754Y-58366621D01*
X120171944Y-58418327D01*
X120171944Y-58428821D01*
X120173382Y-58439744D01*
X120173382Y-58654255D01*
X120171944Y-58665177D01*
X120171944Y-58675673D01*
X120163753Y-58727383D01*
X120145382Y-58866926D01*
X120136262Y-58900960D01*
X120131687Y-58929850D01*
X120113635Y-58985407D01*
X120089864Y-59074123D01*
X120066416Y-59130731D01*
X120052162Y-59174601D01*
X120031222Y-59215696D01*
X120007773Y-59272310D01*
X119961841Y-59351865D01*
X119935330Y-59403898D01*
X119918143Y-59427552D01*
X119900523Y-59458073D01*
X119814853Y-59569719D01*
X119784066Y-59612095D01*
X119776638Y-59619522D01*
X119769940Y-59628252D01*
X119618252Y-59779940D01*
X119609522Y-59786638D01*
X119602095Y-59794066D01*
X119559719Y-59824853D01*
X119448073Y-59910523D01*
X119417552Y-59928143D01*
X119393898Y-59945330D01*
X119341865Y-59971841D01*
X119262310Y-60017773D01*
X119205696Y-60041222D01*
X119164601Y-60062162D01*
X119120731Y-60076416D01*
X119064123Y-60099864D01*
X118975407Y-60123635D01*
X118919850Y-60141687D01*
X118890960Y-60146262D01*
X118856926Y-60155382D01*
X118717380Y-60173754D01*
X118665673Y-60181944D01*
X118655178Y-60181944D01*
X118644256Y-60183382D01*
X118429744Y-60183382D01*
X118418822Y-60181944D01*
X118408327Y-60181944D01*
X118356621Y-60173754D01*
X118217073Y-60155382D01*
X118183037Y-60146262D01*
X118154150Y-60141687D01*
X118098597Y-60123636D01*
X118009876Y-60099864D01*
X117953263Y-60076414D01*
X117909399Y-60062162D01*
X117868307Y-60041224D01*
X117811689Y-60017773D01*
X117732125Y-59971837D01*
X117680102Y-59945330D01*
X117656451Y-59928146D01*
X117625926Y-59910523D01*
X117514262Y-59824840D01*
X117471905Y-59794066D01*
X117464480Y-59786641D01*
X117455747Y-59779940D01*
X117304059Y-59628252D01*
X117297357Y-59619518D01*
X117289934Y-59612095D01*
X117259163Y-59569743D01*
X117173476Y-59458073D01*
X117155851Y-59427546D01*
X117138670Y-59403898D01*
X117112165Y-59351880D01*
X117066226Y-59272310D01*
X117042771Y-59215686D01*
X117021838Y-59174601D01*
X117007587Y-59130743D01*
X116984135Y-59074123D01*
X116960359Y-58985390D01*
X116942313Y-58929850D01*
X116937738Y-58900969D01*
X116928617Y-58866926D01*
X116910244Y-58727370D01*
X116902056Y-58675673D01*
X116902056Y-58665177D01*
X116900618Y-58654255D01*
X116900618Y-58439744D01*
X116902056Y-58428821D01*
X116902056Y-58418327D01*
X116910243Y-58366634D01*
X116928617Y-58227073D01*
X116937739Y-58193028D01*
X116942313Y-58164150D01*
X116960357Y-58108614D01*
X116984135Y-58019876D01*
X117007589Y-57963252D01*
X117021838Y-57919399D01*
X117042769Y-57878317D01*
X117066226Y-57821689D01*
X117112170Y-57742111D01*
X117138670Y-57690102D01*
X117155848Y-57666457D01*
X117173476Y-57635926D01*
X117259177Y-57524237D01*
X117289934Y-57481905D01*
X117297354Y-57474484D01*
X117304059Y-57465747D01*
X117455747Y-57314059D01*
X117464484Y-57307354D01*
X117471905Y-57299934D01*
X117514237Y-57269177D01*
X117625926Y-57183476D01*
X117656457Y-57165848D01*
X117680102Y-57148670D01*
X117732111Y-57122170D01*
X117811689Y-57076226D01*
X117868317Y-57052769D01*
X117909399Y-57031838D01*
X117953252Y-57017589D01*
X118009876Y-56994135D01*
X118098614Y-56970357D01*
X118154150Y-56952313D01*
X118183028Y-56947739D01*
X118217073Y-56938617D01*
X118356634Y-56920243D01*
X118408327Y-56912056D01*
X118418821Y-56912056D01*
X118429744Y-56910618D01*
X118644256Y-56910618D01*
X118655179Y-56912056D01*
G37*
G36*
X133228782Y-57501558D02*
G01*
X133344694Y-57549570D01*
X133449012Y-57619273D01*
X133537727Y-57707988D01*
X133607430Y-57812306D01*
X133655442Y-57928218D01*
X133679918Y-58051269D01*
X133679918Y-58176731D01*
X133655442Y-58299782D01*
X133607430Y-58415694D01*
X133537727Y-58520012D01*
X133449012Y-58608727D01*
X133344694Y-58678430D01*
X133343550Y-58678903D01*
X133331022Y-58687275D01*
X133331022Y-58740725D01*
X133343550Y-58749096D01*
X133344694Y-58749570D01*
X133449012Y-58819273D01*
X133537727Y-58907988D01*
X133607430Y-59012306D01*
X133655442Y-59128218D01*
X133679918Y-59251269D01*
X133679918Y-59376731D01*
X133655442Y-59499782D01*
X133607430Y-59615694D01*
X133537727Y-59720012D01*
X133449012Y-59808727D01*
X133344694Y-59878430D01*
X133228782Y-59926442D01*
X133105731Y-59950918D01*
X132980269Y-59950918D01*
X132857218Y-59926442D01*
X132741306Y-59878430D01*
X132636988Y-59808727D01*
X132548273Y-59720012D01*
X132478570Y-59615694D01*
X132430558Y-59499782D01*
X132406082Y-59376731D01*
X132406082Y-59251269D01*
X132430558Y-59128218D01*
X132478570Y-59012306D01*
X132548273Y-58907988D01*
X132636988Y-58819273D01*
X132741306Y-58749570D01*
X132742446Y-58749097D01*
X132754977Y-58740725D01*
X132754977Y-58687275D01*
X132742447Y-58678902D01*
X132741306Y-58678430D01*
X132636988Y-58608727D01*
X132548273Y-58520012D01*
X132478570Y-58415694D01*
X132430558Y-58299782D01*
X132406082Y-58176731D01*
X132406082Y-58051269D01*
X132430558Y-57928218D01*
X132478570Y-57812306D01*
X132548273Y-57707988D01*
X132636988Y-57619273D01*
X132741306Y-57549570D01*
X132857218Y-57501558D01*
X132980269Y-57477082D01*
X133105731Y-57477082D01*
X133228782Y-57501558D01*
G37*
M02*
